<svg xmlns="http://www.w3.org/2000/svg" viewBox="0 0 500 500"><g id="freepik--background-complete--inject-426"><path d="M410.91,312.92l13.35-.27,6.58-.12c2.19,0,4.36,0,6.55,0l-.45.44-.05-11.18.5.49-13.24-.06c-4.42,0-8.83-.11-13.24-.16l.27-.27c0,1.83-.09,3.67-.13,5.53Zm0,0-.15-5.53c0-1.87-.11-3.76-.13-5.65v-.27h.28c4.41,0,8.82-.16,13.24-.16l13.24-.06h.5v.51l-.06,11.18v.45h-.44c-2.24,0-4.47,0-6.7-.05L424,313.2Z" style="fill:#ebebeb"></path><path d="M425.68,327l13.35-.27,6.58-.12c2.19,0,4.37,0,6.55-.05l-.45.44,0-11.18.5.49-13.24-.06c-4.42,0-8.83-.11-13.24-.16l.27-.27c0,1.83-.09,3.67-.13,5.53Zm0,0-.14-5.53c-.05-1.87-.12-3.76-.14-5.65v-.27h.28c4.41-.05,8.82-.16,13.24-.16l13.24-.06h.5v.51L452.6,327v.45h-.44c-2.23,0-4.47,0-6.7-.05l-6.66-.12Z" style="fill:#ebebeb"></path><rect x="396.08" y="315.84" width="26.48" height="11.19" transform="translate(818.64 642.88) rotate(180)" style="fill:#ebebeb"></rect><path d="M47.84,332.16l13.32-.28,6.56-.11c2.18,0,4.35,0,6.52-.06l-.44.45L73.74,321l.5.5L61,321.44c-4.4,0-8.8-.12-13.2-.17l.27-.27c0,1.83-.08,3.66-.13,5.52Zm0,0-.14-5.52c-.05-1.86-.11-3.75-.13-5.64v-.27h.27c4.4-.05,8.8-.16,13.2-.17l13.2-.06h.5v.5l0,11.16v.45h-.44c-2.22,0-4.45,0-6.67-.05l-6.64-.12Z" style="fill:#ebebeb"></path><rect x="62.57" y="335.07" width="26.4" height="11.16" transform="translate(151.54 681.29) rotate(180)" style="fill:#ebebeb"></rect><path d="M129.13,200.11l13.36-.27,6.58-.12c2.19,0,4.36,0,6.55-.05l-.45.44,0-11.18.5.49-13.25-.06c-4.41,0-8.82-.11-13.24-.16l.28-.27c0,1.83-.09,3.67-.13,5.53Zm0,0-.14-5.53c0-1.87-.11-3.76-.13-5.65v-.27h.27c4.42-.05,8.83-.16,13.24-.16l13.25-.06h.5v.51l-.05,11.18v.45h-.44c-2.24,0-4.47,0-6.7-.05l-6.66-.12Z" style="fill:#ebebeb"></path><rect x="62.49" y="49.95" width="26.48" height="11.19" transform="translate(151.45 111.09) rotate(180)" style="fill:#ebebeb"></rect><path d="M47.72,75.25,61.07,75l6.58-.11c2.19,0,4.36,0,6.55,0l-.45.44,0-11.19.5.5L61,64.5c-4.42,0-8.83-.11-13.24-.17l.27-.27c0,1.83-.09,3.67-.13,5.54Zm0,0-.15-5.53c0-1.87-.11-3.76-.13-5.66v-.27h.28c4.41,0,8.82-.16,13.24-.17l13.24-.06h.5v.5l-.06,11.19v.45H74.2c-2.24,0-4.47,0-6.7-.06l-6.66-.11Z" style="fill:#ebebeb"></path><path d="M410.91,61.14l13.35-.28,6.58-.11c2.19,0,4.36,0,6.55,0l-.45.44L436.89,50l.5.5-13.24-.06c-4.42,0-8.83-.11-13.24-.17l.27-.27c0,1.83-.09,3.67-.13,5.54Zm0,0-.15-5.53c0-1.87-.11-3.76-.13-5.66v-.27h.28c4.41,0,8.82-.16,13.24-.17l13.24-.06h.5V50l-.06,11.19v.45h-.44c-2.24,0-4.47,0-6.7-.06L424,61.42Z" style="fill:#ebebeb"></path><rect x="369.05" y="189.88" width="26.48" height="11.19" transform="translate(764.58 390.95) rotate(180)" style="fill:#ebebeb"></rect><rect x="79.63" y="0.75" width="1" height="126.75" style="fill:#c7c7c7"></rect><polygon points="115.8 161.88 112.93 168.19 47.32 168.19 44.46 161.88 72.39 142.55 87.87 142.55 115.8 161.88" style="fill:#ebebeb"></polygon><polygon points="89.81 123.92 87.87 142.55 72.39 142.55 70.45 123.92 89.81 123.92" style="fill:#dbdbdb"></polygon><polygon points="115.8 161.88 112.93 168.19 47.31 168.19 44.45 161.88 115.8 161.88" style="fill:#dbdbdb"></polygon><rect x="141.88" width="1" height="83.4" style="fill:#c7c7c7"></rect><polygon points="178.05 117.79 175.18 124.1 109.56 124.1 106.7 117.79 134.64 98.45 150.11 98.45 178.05 117.79" style="fill:#ebebeb"></polygon><polygon points="152.05 79.83 150.11 98.45 134.64 98.45 132.7 79.83 152.05 79.83" style="fill:#dbdbdb"></polygon><polygon points="178.04 117.79 175.18 124.1 109.56 124.1 106.7 117.79 178.04 117.79" style="fill:#dbdbdb"></polygon><rect x="343.73" y="114.92" width="111.82" height="6.64" transform="translate(799.27 236.48) rotate(180)" style="fill:#ebebeb"></rect><rect x="440.42" y="121.56" width="6.64" height="21.96" style="fill:#ebebeb"></rect><rect x="440.42" y="121.56" width="6.64" height="6.79" style="fill:#dbdbdb"></rect><rect x="352.21" y="121.56" width="6.64" height="21.96" style="fill:#ebebeb"></rect><rect x="352.21" y="121.56" width="6.64" height="6.79" style="fill:#dbdbdb"></rect><rect x="400.8" y="88.44" width="42.32" height="10.66" transform="translate(515.72 -328.19) rotate(90)" style="fill:#c7c7c7"></rect><rect x="419.63" y="67.34" width="4.65" height="10.66" transform="translate(494.63 -349.29) rotate(90)" style="fill:#dbdbdb"></rect><rect x="421.09" y="76.49" width="1.73" height="10.66" transform="translate(503.77 -340.14) rotate(90)" style="fill:#dbdbdb"></rect><rect x="418.97" y="101.06" width="4.65" height="11.98" transform="translate(528.34 -314.24) rotate(90)" style="fill:#dbdbdb"></rect><rect x="388.22" y="86.52" width="49.36" height="7.45" transform="translate(503.15 -322.66) rotate(90)" style="fill:#dbdbdb"></rect><rect x="403.44" y="77.46" width="18.99" height="4.47" transform="translate(492.63 -333.24) rotate(90)" style="fill:#ebebeb"></rect><rect x="351.69" y="91.21" width="49.36" height="7.45" transform="translate(710.78 -102.13) rotate(135.33)" style="fill:#c7c7c7"></rect><rect x="364.29" y="95.21" width="18.99" height="4.47" transform="translate(708.14 -96) rotate(135.33)" style="fill:#dbdbdb"></rect><rect x="384.11" y="89.86" width="37.49" height="12.65" transform="translate(499.05 -306.68) rotate(90)" style="fill:#a6a6a6"></rect><rect x="401.11" y="102.89" width="3.49" height="12.65" transform="translate(512.07 -293.65) rotate(90)" style="fill:#c7c7c7"></rect><rect x="402.18" y="98.17" width="1.36" height="12.65" transform="translate(507.35 -298.37) rotate(90)" style="fill:#c7c7c7"></rect><rect x="414.03" y="92.94" width="35.24" height="8.74" transform="translate(528.97 -334.34) rotate(90)" style="fill:#a6a6a6"></rect><rect x="430.01" y="105.19" width="3.28" height="8.74" transform="translate(541.21 -322.1) rotate(90)" style="fill:#c7c7c7"></rect><rect x="430.01" y="84.23" width="3.28" height="8.74" transform="translate(520.25 -343.05) rotate(90)" style="fill:#c7c7c7"></rect><rect x="431.02" y="88.76" width="1.27" height="8.74" transform="translate(524.78 -338.52) rotate(90)" style="fill:#c7c7c7"></rect><polygon points="48.34 440.22 235.03 440.22 238.92 363.61 44.45 363.61 48.34 440.22" style="fill:#ebebeb"></polygon><path d="M226.19,398.68H148.13l-1.46-26.6h81.22ZM149,397.74H225.3L226.89,373H147.67Z" style="fill:#dbdbdb"></path><path d="M224.75,429.28H151.19l-1.19-24h76.25Zm-72.66-.95h71.77l1.38-22.12H151Z" style="fill:#dbdbdb"></path><path d="M194.68,388.27H181.56l-.83-6.42H195.5Zm-12.29-.95h11.46l.58-4.53H181.8Z" style="fill:#dbdbdb"></path><path d="M194.68,420.48H181.56l-.83-6.42H195.5Zm-12.29-.94h11.46l.58-4.53H181.8Z" style="fill:#dbdbdb"></path><path d="M134.38,398.68H56.32l-1.46-26.6h81.22Zm-77.16-.94h76.27L135.08,373H55.85Z" style="fill:#dbdbdb"></path><path d="M132.94,429.28H59.38l-1.19-24h76.25Zm-72.66-.95h71.77l1.38-22.12H59.18Z" style="fill:#dbdbdb"></path><path d="M102.87,388.27H89.75l-.83-6.42h14.77Zm-12.29-.95H102l.58-4.53H90Z" style="fill:#dbdbdb"></path><path d="M102.87,420.48H89.75l-.83-6.42h14.77Zm-12.29-.94H102l.58-4.53H90Z" style="fill:#dbdbdb"></path><polygon points="65.08 440.22 63.91 448.56 61.55 465.33 56.94 465.33 56.94 440.22 65.08 440.22" style="fill:#ebebeb"></polygon><polygon points="65.08 440.22 63.91 448.56 56.94 448.56 56.94 440.22 65.08 440.22" style="fill:#dbdbdb"></polygon><polygon points="218.29 440.22 219.47 448.56 221.82 465.33 226.43 465.33 226.43 440.22 218.29 440.22" style="fill:#ebebeb"></polygon><polygon points="218.29 440.22 219.47 448.56 226.43 448.56 226.43 440.22 218.29 440.22" style="fill:#dbdbdb"></polygon><path d="M115.65,238.74a16.08,16.08,0,1,1-15.89-16.27A16.08,16.08,0,0,1,115.65,238.74Z" style="fill:#ebebeb"></path><path d="M126.83,283.23l-.07,5.59H71.18l.08-6.24a27.79,27.79,0,0,1,55.57.65Z" style="fill:#ebebeb"></path><rect x="134.81" y="222.47" width="3.15" height="21.58" style="fill:#ebebeb"></rect><rect x="134.81" y="222.47" width="3.15" height="21.58" transform="translate(-96.87 369.64) rotate(-90)" style="fill:#ebebeb"></rect></g><g id="freepik--Floor--inject-426"><polygon points="44.45 464.83 95.84 464.59 147.23 464.5 250 464.33 352.77 464.5 404.16 464.59 455.55 464.83 404.16 465.08 352.77 465.17 250 465.33 147.23 465.17 95.84 465.08 44.45 464.83" style="fill:#263238"></polygon></g><g id="freepik--Plant--inject-426"><path d="M135.5,350.32c-4-3.88-9.07-8.56-15.12-6.89-5.69,1.57-7.87,7.79-8.89,13-1.31,6.68-2.34,13.41-3.4,20.13s-2.07,13.57-3,20.37q-.83,5.76-1.63,11.51c-.27,1.92-.53,3.84-.8,5.76s-.57,3.76-.68,5.66c0,.6.92.69,1,.11.73-3.2,1-6.52,1.51-9.77s.94-6.54,1.42-9.8q1.43-9.74,2.91-19.46t3-19.45c.88-5.49,1.29-12.32,6.17-15.94a9.38,9.38,0,0,1,9.1-.85c3.21,1.22,5.77,3.51,8.28,5.78A.08.08,0,1,0,135.5,350.32Z" style="fill:#263238"></path><path d="M130.08,346.36s-8.08-2.91-12.08,3,.78,20.92,37.62,29.39a104,104,0,0,0-8.87-33.29C138.86,328.23,124.79,334.75,130.08,346.36Z" style="fill:#FFC727"></path><path d="M153.5,376.29a28.62,28.62,0,0,0-1.85-3c-.62-.95-1.24-1.9-1.87-2.84l-1.44-2.11c0-.17,0-.34.07-.52l.12-1c.09-.69.19-1.38.29-2.07s.22-1.37.35-2.05a11.19,11.19,0,0,1,.48-2.17c0-.11-.14-.16-.16,0a7.33,7.33,0,0,1-.33,1.22l-.24.93c-.18.7-.35,1.4-.51,2.11s-.27,1.3-.38,1.95c-.05.32-.1.63-.14.95-.66-.94-1.33-1.87-2-2.78-2-2.57-4-5.05-6.16-7.47a.15.15,0,0,0,0-.07c.19-3.87.1-7.7,1-11.5,0-.11-.14-.16-.16-.06a39.4,39.4,0,0,0-1.38,11c-.76-.86-1.54-1.71-2.33-2.55q-2.69-2.89-5.48-5.69c-.08-.08-.2,0-.12.11,3.1,3.34,6.05,6.82,8.92,10.37a60.38,60.38,0,0,0-6.73.25c-2.5.18-5,.5-7.46.84a.09.09,0,0,0,0,.17,68.72,68.72,0,0,1,7.45-.67c2.4-.1,4.79,0,7.19,0,1.55,1.92,3.09,3.86,4.6,5.81h-.35c-.56,0-1.12,0-1.69,0-1.12,0-2.24.1-3.35.19a52,52,0,0,0-6.81,1c-.1,0-.07.17,0,.16,2.26-.25,4.53-.47,6.8-.55,1.09,0,2.18,0,3.26,0h1.7a2,2,0,0,0,.93-.09l3,3.87c.78,1,1.55,2.07,2.31,3.11s1.47,2.24,2.33,3.24A.08.08,0,0,0,153.5,376.29Z" style="fill:#263238"></path><path d="M133.61,354.73a24.66,24.66,0,0,0-3.94-.2c-1.32,0-2.63,0-3.94.09a.08.08,0,1,0,0,.16c1.33-.09,2.66-.12,4-.1s2.58.15,3.86.11C133.65,354.79,133.65,354.73,133.61,354.73Z" style="fill:#263238"></path><path d="M145.17,357.69c.15-1.25.31-2.52.57-3.76a.08.08,0,1,0-.16,0c-.19,1.24-.43,2.47-.61,3.71-.09.62-.18,1.24-.25,1.86a8.66,8.66,0,0,0-.15,1.76.11.11,0,0,0,.21,0,10.19,10.19,0,0,0,.19-1.75C145,358.89,145.1,358.29,145.17,357.69Z" style="fill:#263238"></path><path d="M142.75,343.76c-.33,1.22-.65,2.46-.87,3.71-.12.63-.21,1.26-.3,1.9a7.76,7.76,0,0,0-.12,1.86s.08,0,.09,0a9.72,9.72,0,0,0,.29-1.78c.09-.61.18-1.22.29-1.83.22-1.28.45-2.55.77-3.82C142.93,343.71,142.77,343.65,142.75,343.76Z" style="fill:#263238"></path><path d="M94.78,418.46q-.3-3.48-.67-6.95-.72-6.88-1.66-13.74c-.61-4.56-1.2-9.13-1.93-13.67a33.85,33.85,0,0,0-1.41-6.21A5.89,5.89,0,0,0,85.68,374c-4.34-1.49-7.26,3-9,6.18a.09.09,0,0,0,.15.08c1-1.5,3.94-5.73,7.23-5.54,2.21.14,4,1.7,5,7.22,2.65,13.74,5,41.63,5.31,43.45.15,1,.83.93.84-.11C95.25,423,95,420.73,94.78,418.46Z" style="fill:#263238"></path><path d="M77.84,378.48s3.79-13.37-4.59-6.69c-13.93,11.14-14.43,35.35-14.43,35.35s24.78-14.39,27.86-23.88C91.27,369.12,77.84,378.48,77.84,378.48Z" style="fill:#FFC727"></path><path d="M82.53,385.05c-2,.39-3.92.65-5.88.93l-2.79.39c-.63.09-1.26.15-1.89.23,1.84-2.55,3.7-5.08,5.47-7.67.07-.1-.08-.21-.16-.12a55.49,55.49,0,0,0-4.14,4.77c-.37-1-.74-2.06-1.1-3.1-.42-1.2-.88-2.39-1.18-3.62a.08.08,0,0,0-.16,0c.34,1.23.58,2.48.91,3.71s.67,2.36,1.09,3.51c-.9,1.18-1.77,2.39-2.62,3.61-.43-1.21-1-2.38-1.33-3.61a.08.08,0,0,0-.16.05c.45,1.36.68,2.77,1.1,4.14-.57.83-1.14,1.66-1.68,2.5-1,1.54-1.94,3.12-2.87,4.7a.37.37,0,0,0-.21.38c-1.57,2.7-3.06,5.45-4.53,8.22a.09.09,0,0,0,.15.08c1.47-2.73,3.11-5.4,4.81-8h0a3.87,3.87,0,0,1,.81-.16l.85-.18c.64-.14,1.28-.31,1.91-.47,1.26-.31,2.5-.6,3.78-.82.1,0,.06-.18,0-.16-1.5.28-3,.45-4.52.63-.71.08-1.43.17-2.14.29h-.1c.89-1.35,1.79-2.7,2.71-4s1.82-2.59,2.75-3.88c.86-.12,1.71-.34,2.56-.51l2.88-.56c1.92-.38,3.83-.81,5.76-1.12C82.68,385.19,82.63,385,82.53,385.05Z" style="fill:#263238"></path><path d="M67.64,386.36c-.12-.35-.22-.7-.34-1.06a21.57,21.57,0,0,1-.56-2.24c0-.11-.19-.06-.16.05.16.75.34,1.5.51,2.26a15.26,15.26,0,0,0,.64,2.22.15.15,0,0,0,.29-.09C67.91,387.12,67.76,386.74,67.64,386.36Z" style="fill:#263238"></path><path d="M85.06,382c-1.13.17-2.27.25-3.4.35s-2.27.26-3.41.43c-.06,0-.06.1,0,.1,1.15-.08,2.28-.17,3.41-.32s2.27-.32,3.41-.39C85.18,382.11,85.17,381.93,85.06,382Z" style="fill:#263238"></path><path d="M113,401.53c-.44-9.85-1.07-19.68-2.06-29.49-.49-4.88-1-9.77-1.73-14.63a103.28,103.28,0,0,0-2.82-14.15,27,27,0,0,0-4.71-10,10.71,10.71,0,0,0-9.52-4.16c-4.31.53-7.78,3.25-10.78,6.2-3.37,3.31-6.46,6.92-9.57,10.46-.79.9-1.58,1.8-2.35,2.7-.07.09,0,.2.12.12,3.05-3.5,6.22-6.91,9.53-10.16,3.06-3,6.22-6.3,10.46-7.54a10.85,10.85,0,0,1,6.08-.14,9.73,9.73,0,0,1,4.16,2.63c2.38,2.48,3.73,5.85,4.68,9.1,2.65,9.06,3.6,18.55,4.58,27.89,1,9.5,1.67,19,2.15,28.56s.85,19.18,1.78,28.74c.11,1.18.26,2.36.41,3.53.1.79,1.33.8,1.27,0C113.92,421.31,113.46,411.42,113,401.53Z" style="fill:#263238"></path><path d="M80.85,336.38s5.63-10.4-1-13.74S51,344.12,44.45,380.42c0,0,35.92-15.89,48.12-31.72S90.94,329.37,80.85,336.38Z" style="fill:#FFC727"></path><path d="M86.13,344.85c-4,0-8.06-.31-12.1-.28.76-.87,1.51-1.74,2.28-2.6a37.76,37.76,0,0,0,3.15-3.66c.06-.09-.06-.21-.14-.14a30.48,30.48,0,0,0-3.06,3.06c-1,1.08-2,2.15-3,3.24-1.55,1.67-3.06,3.36-4.57,5.06v-2.61c0-1.37,0-2.73,0-4.1,0-2.78,0-5.57.22-8.34,0-.1-.16-.1-.17,0-.19,2.78-.48,5.55-.62,8.34-.07,1.37-.1,2.74-.12,4.11,0,.71,0,1.41,0,2.12,0,.38,0,.79,0,1.19l-.72.79c-3.22,3.68-6.28,7.49-9.26,11.36,0-.21,0-.43-.06-.64,0-.43-.09-.85-.14-1.28-.1-.93-.23-1.85-.37-2.77s-.26-1.73-.41-2.59-.4-2-.47-2.94c0-.12-.19-.09-.17,0a24.44,24.44,0,0,1,.34,3c.09.89.17,1.78.25,2.67s.16,1.78.25,2.67c0,.42.08.85.13,1.28,0,.21.05.42.08.64a1.09,1.09,0,0,0,.17.5l-1.54,2c-2,2.7-4,5.42-6,8.14-.06.09,0,.2.12.12,1.89-2.47,3.84-4.9,5.82-7.3,1.47.06,3-.05,4.46-.07s3.11,0,4.67,0c.11,0,.1-.17,0-.16-1.56,0-3.12.05-4.68.05-1.41,0-2.86-.06-4.28,0,1.73-2.11,3.49-4.2,5.25-6.3l1.93-2.28a9,9,0,0,0,1.8.06H67.3c1.33,0,2.66,0,4-.06,2.74,0,5.49-.13,8.23-.14.11,0,.1-.16,0-.17-2.74,0-5.49-.15-8.23-.22l-4-.09-2.13,0c-.4,0-.82,0-1.22,0l4.52-5.37a.18.18,0,0,0,.08-.09c1.48-1.74,2.95-3.48,4.44-5.2.2-.24.41-.47.61-.7,4.19.13,8.36-.15,12.55-.07C86.24,345,86.24,344.85,86.13,344.85Z" style="fill:#263238"></path><path d="M84.07,352h-1c-.09,0-.09.15,0,.15h1C84.18,352.15,84.18,352,84.07,352Z" style="fill:#263238"></path><path d="M81.9,352,78,351.92l-1.94-.07a7.3,7.3,0,0,0-1.81,0,.06.06,0,0,0,0,.12,6.74,6.74,0,0,0,1.8.13l1.94,0c1.29,0,2.59,0,3.88,0A.08.08,0,0,0,81.9,352Z" style="fill:#263238"></path><path d="M70.6,364.12a54.12,54.12,0,0,0-7.94-.72s0,.06,0,.06c2.64.25,5.28.39,7.9.82C70.67,364.3,70.71,364.13,70.6,364.12Z" style="fill:#263238"></path><path d="M59.81,352.56c0-.23-.05-.46-.08-.69q-.1-.78-.24-1.56c-.15-1-.32-2-.51-2.95,0-.09-.18-.06-.16,0,.12,1,.23,2,.32,3.05,0,.5.09,1,.13,1.5a4.21,4.21,0,0,0,.2,1.42c.08.16.31.09.35-.05A1.89,1.89,0,0,0,59.81,352.56Z" style="fill:#263238"></path><path d="M112.66,323c-1.28-2.39-2.92-5.55-6.13-5.35-2.65.16-3.84,2.86-4.41,5.1-1.75,6.91-1.87,14.2-2.21,21.29C99.19,359,98.54,374,98.45,389c0,4.16,0,8.31,0,12.47s0,8.5.29,12.73a.32.32,0,0,0,.63,0c0-3.62-.11-7.25-.12-10.88s0-7.07.07-10.61q.16-10.74.57-21.48c.26-7.12.58-14.24.88-21.35.15-3.56.3-7.11.46-10.67s.3-6.89.7-10.32c.22-1.92.5-3.84.9-5.73a8.09,8.09,0,0,1,1.66-3.84,3.63,3.63,0,0,1,4.68-.34,9.94,9.94,0,0,1,3.32,4.15C112.57,323.2,112.71,323.11,112.66,323Z" style="fill:#263238"></path><path d="M111.8,321.88s-2.64-9.32,3.19-4.66C124.7,325,125,341.84,125,341.84s-17.26-10-19.4-16.64C102.44,315.36,111.8,321.88,111.8,321.88Z" style="fill:#FFC727"></path><path d="M121.41,334.93l-.49-.77a5.21,5.21,0,0,0,0-.79v-1.21c0-.78,0-1.57.09-2.35,0-.11-.16-.11-.16,0,0,.77-.08,1.54-.1,2.31,0,.39,0,.78,0,1.16,0,.15,0,.33,0,.5-.68-1-1.38-2.09-2.09-3.12-.21-.29-.43-.58-.64-.88a18.14,18.14,0,0,1-.06-3c0-1.08,0-2.16.07-3.25,0-.1-.16-.1-.17,0,0,1.13-.08,2.25-.14,3.38a21.42,21.42,0,0,0-.07,2.41c-1.67-2.27-3.43-4.46-5.22-6.63-.06-.07-.19,0-.13.1,1.11,1.41,2.17,2.85,3.21,4.3-2-.47-4.1-.74-6.16-1-.1,0-.14.14,0,.16,2.19.33,4.33.88,6.49,1.35,0,0,0,0,0,0,.83,1.16,1.64,2.33,2.46,3.5.33.48.65,1,1,1.45l-.09,0-.67-.09c-.48-.06-1-.09-1.44-.13-1-.08-2-.13-3-.19a.09.09,0,0,0,0,.17c1,0,2,.1,2.93.2l1.55.19.67.08.2,0,1.66,2.44c1,1.44,1.84,3,2.88,4.38a.08.08,0,0,0,.14-.08A44.55,44.55,0,0,0,121.41,334.93Z" style="fill:#263238"></path><path d="M117.11,324.4c0-.36,0-.72,0-1.09a17.39,17.39,0,0,1,.09-2.28.08.08,0,1,0-.16,0c0,.76-.08,1.51-.12,2.27,0,.37,0,.75,0,1.13v.52a1.62,1.62,0,0,0,0,.54.08.08,0,0,0,.15,0,1.68,1.68,0,0,0,0-.5C117.12,324.78,117.11,324.59,117.11,324.4Z" style="fill:#263238"></path><path d="M115,328.26c-.64-.11-1.3-.14-2-.2s-1.42-.12-2.13-.21a.08.08,0,1,0,0,.16c1.37.09,2.72.33,4.09.38C115,328.4,115.05,328.27,115,328.26Z" style="fill:#263238"></path><path d="M120.4,328.32c0,.07,0,.27,0,.36v.95c0,.22,0,.43,0,.65a1.37,1.37,0,0,0,0,.57s0,0,.07,0a.63.63,0,0,0,0-.27v-.3c0-.22,0-.44,0-.65v-1c0-.09,0-.28,0-.36S120.29,328.16,120.4,328.32Z" style="fill:#263238"></path><path d="M113.07,372.73c-3.63-2.72-6.9-6.64-11.78-6.83-4-.16-6.85,2.87-8.47,6.25a35.08,35.08,0,0,0-2,5.57c-.73,2.55-1.41,5.11-2.06,7.68-1.26,5.06-2.35,10.17-3.23,15.31-.49,2.87-1,5.75-1.31,8.63a72.85,72.85,0,0,0-.85,8.84.46.46,0,0,0,.9.1c.5-2.42.7-4.91,1.06-7.35s.73-4.9,1.14-7.35q1.25-7.33,2.89-14.59c1-4.57,2.07-9.2,3.54-13.65,1-3.19,2.75-6.91,6.19-8.06,5.24-1.74,10,2.69,13.83,5.57C113,372.91,113.15,372.79,113.07,372.73Z" style="fill:#263238"></path><path d="M109.31,370.12s-3.35-9.55,1.49-11.42c7.25-2.81,26.24,18.57,22.52,51.33,0,0-14.67-8.08-25.49-17.17s-13.61-21-8.84-24S109.31,370.12,109.31,370.12Z" style="fill:#FFC727"></path><path d="M131.13,403a26.11,26.11,0,0,0-1.76-3.3c-.62-1.12-1.25-2.24-1.9-3.34-1.26-2.16-2.51-4.32-3.8-6.46l-.64-1c0-.13,0-.26.08-.39.07-.31.15-.63.22-.94.16-.71.28-1.43.42-2.15.26-1.4.5-2.82.88-4.2,0-.1-.14-.13-.16,0-.3,1.41-.74,2.78-1.16,4.16-.2.67-.42,1.34-.6,2l-.18.7c-1.56-2.56-3.15-5.1-4.86-7.56a3.26,3.26,0,0,0,.17-1.05c0-.48.11-1,.17-1.44.13-1.08.25-2.15.41-3.23a60.62,60.62,0,0,1,1.15-6.27.09.09,0,0,0-.17,0c-.52,2.06-1.09,4.12-1.48,6.22-.19,1-.37,2.05-.51,3.08-.07.52-.12,1-.18,1.56,0,.15,0,.31-.06.47-.52-.74-1-1.48-1.6-2.21-1.68-2.2-3.41-4.35-5.16-6.5-.07-.08-.21,0-.14.1a114.91,114.91,0,0,1,8.25,12c.48.77,1,1.55,1.42,2.32l-.47-.06c-.61-.08-1.23-.12-1.85-.17-1.23-.12-2.46-.23-3.7-.33-2.47-.19-5-.34-7.41-.61a.09.09,0,0,0,0,.17c2.5.28,5,.68,7.47,1l3.67.49a14.52,14.52,0,0,0,2.83.29c1,1.58,2,3.15,2.91,4.73a4.71,4.71,0,0,0-.65,0h-3.53c-1.59,0-3.18,0-4.78,0-.1,0-.09.17,0,.17,1.61,0,3.22.1,4.83.18l2.29.14,1.15.08a2.24,2.24,0,0,0,1,0c.83,1.35,1.66,2.68,2.48,4s1.53,2.47,2.31,3.69a29.63,29.63,0,0,0,2.49,3.74A.09.09,0,0,0,131.13,403Z" style="fill:#263238"></path><path d="M124.14,376.53a25.25,25.25,0,0,1-.65,3.11c-.27,1.06-.58,2.12-.93,3.16a.1.1,0,1,0,.2.06c.32-1,.62-2.08.87-3.13s.42-2.12.68-3.17C124.33,376.45,124.15,376.42,124.14,376.53Z" style="fill:#263238"></path><path d="M113.37,382.93a1.22,1.22,0,0,0-.8-.3l-1.39-.19c-.86-.12-1.72-.21-2.58-.31-1.78-.21-3.57-.39-5.36-.61-.11,0-.13.15,0,.16,1.69.21,3.36.46,5.05.68l2.47.33,1.2.13a4.51,4.51,0,0,1,1.36.23C113.37,383.09,113.42,383,113.37,382.93Z" style="fill:#263238"></path><path d="M124.12,397.33c-.85-.07-1.7-.1-2.54-.12l-1.28,0-.62,0a3.55,3.55,0,0,1-.8,0c-.12,0-.13.19,0,.17a3.76,3.76,0,0,1,.75,0l.67,0,1.28.08c.84,0,1.69.1,2.54.1C124.21,397.51,124.22,397.34,124.12,397.33Z" style="fill:#263238"></path><path d="M129.29,393.67l.27-1.44c.18-1,.35-1.89.52-2.84,0-.1-.14-.13-.16,0-.21.92-.42,1.84-.62,2.76-.11.45-.21.91-.31,1.38,0,.21-.08.42-.13.64a1.69,1.69,0,0,0-.07.67c0,.08.12.14.18.06A3.55,3.55,0,0,0,129.29,393.67Z" style="fill:#263238"></path><polygon points="79.63 414.51 80.65 426.12 84.12 465.33 114.83 465.33 119.16 426.12 120.44 414.51 79.63 414.51" style="fill:#37474f"></polygon><polygon points="79.63 414.51 80.65 426.12 119.16 426.12 120.44 414.51 79.63 414.51" style="fill:#263238"></polygon><rect x="76.59" y="411.34" width="46.9" height="9.42" transform="translate(200.07 832.11) rotate(180)" style="fill:#37474f"></rect></g><g id="freepik--Device--inject-426"><path d="M334.51,48.87h-169a17.26,17.26,0,0,0-17.11,17.42v348a17.27,17.27,0,0,0,17.11,17.42h169a17.28,17.28,0,0,0,17.13-17.42v-348A17.27,17.27,0,0,0,334.51,48.87Zm6.43,354.67c0,9.16-6.86,16.57-15.32,16.57H174.39c-8.49,0-15.34-7.41-15.34-16.57V79.48c0-18.66,6.85-19.57,15.34-19.57h30.29c1.76,0,3.2,2,3.2,4.48v1.07c0,5.81,3.18,5.83,7.09,5.83h70c4,0,7.09,0,7.09-5.83V64.39c0-2.48,1.42-4.48,3.22-4.48h30.29c8.46,0,15.32,2.48,15.32,19.57Z" style="fill:#37474f"></path><path d="M259.55,64H240.44a1.18,1.18,0,0,1-1.18-1.18h0a1.18,1.18,0,0,1,1.18-1.18h19.11a1.18,1.18,0,0,1,1.18,1.18h0A1.18,1.18,0,0,1,259.55,64Z" style="fill:#fff"></path><path d="M341,79.48V403.54c0,9.16-6.86,16.57-15.32,16.57H174.39c-8.48,0-15.34-7.41-15.34-16.57V79.48c0-18.66,6.86-19.57,15.34-19.57h30.29c1.76,0,3.2,2,3.2,4.48v1.07c0,5.81,3.18,5.83,7.09,5.83H285c3.94,0,7.09,0,7.09-5.83V64.39c0-2.48,1.42-4.48,3.21-4.48h30.3C334.09,59.91,341,62.39,341,79.48Z" style="fill:#fff"></path><path d="M340.94,79.48v24.59H159V79.48c0-18.66,6.86-19.57,15.34-19.57h30.3c1.76,0,3.2,2,3.2,4.48v1.07c0,5.81,3.18,5.83,7.08,5.83H285c3.94,0,7.1,0,7.1-5.83V64.39c0-2.48,1.42-4.48,3.21-4.48h30.29C334.08,59.91,340.94,62.39,340.94,79.48Z" style="fill:#FFC727"></path><g id="freepik--u5Zjqx--inject-426"><path d="M199.45,67.19l-.29.29-.17.17a4,4,0,0,0-5.64,0l-.16-.16-.29-.29h0l0,0,.37-.33a4.06,4.06,0,0,1,.86-.55,5,5,0,0,1,1.13-.38l.57-.07h.5l.38,0a4.05,4.05,0,0,1,1,.25,4.58,4.58,0,0,1,.71.33,3.85,3.85,0,0,1,.67.47l.31.28Z" style="fill:#fff"></path><path d="M194.27,68.57l-.46-.46a3.34,3.34,0,0,1,4.71,0l-.46.47a2.62,2.62,0,0,0-1.89-.79A2.7,2.7,0,0,0,194.27,68.57Z" style="fill:#fff"></path><path d="M197.6,69l-.46.46a1.38,1.38,0,0,0-1.94,0c-.16-.15-.31-.3-.46-.46A2,2,0,0,1,197.6,69Z" style="fill:#fff"></path><path d="M196.58,69.91a.41.41,0,0,1-.41.42.42.42,0,0,1,0-.84A.41.41,0,0,1,196.58,69.91Z" style="fill:#fff"></path></g><path d="M170.9,68.08a1.21,1.21,0,1,1,1.21,1.2A1.21,1.21,0,0,1,170.9,68.08Z" style="fill:#fff"></path><path d="M174.7,68.08a1.21,1.21,0,1,1,1.21,1.2A1.21,1.21,0,0,1,174.7,68.08Z" style="fill:#fff"></path><path d="M178.5,68.08a1.21,1.21,0,1,1,1.2,1.2A1.21,1.21,0,0,1,178.5,68.08Z" style="fill:#fff"></path><path d="M182.3,68.08a1.21,1.21,0,1,1,1.2,1.2A1.21,1.21,0,0,1,182.3,68.08Z" style="fill:#fff"></path><path d="M186.09,68.08a1.21,1.21,0,1,1,1.21,1.2A1.21,1.21,0,0,1,186.09,68.08Z" style="fill:#fff"></path><path d="M327.17,70.58h-9.56V66.29h9.56Zm-9.31-.25h9.06V66.54h-9.06Z" style="fill:#fff"></path><rect x="318.3" y="66.93" width="6.33" height="3" style="fill:#fff"></rect><rect x="327.3" y="67.22" width="0.87" height="2.43" style="fill:#fff"></rect><path d="M219.83,96.58V92.33a.4.4,0,0,1,.4-.39h2.36a.4.4,0,0,1,.39.39.41.41,0,0,1-.39.41h-2v1.31h1.68a.41.41,0,0,1,.4.4.4.4,0,0,1-.4.4h-1.68v1.73a.4.4,0,0,1-.8,0Z" style="fill:#fff"></path><path d="M227.52,96.38a.38.38,0,0,1-.25.5.45.45,0,0,1-.16,0h0a.57.57,0,0,1-.28-.08.64.64,0,0,1-.23-.26,1.87,1.87,0,0,1-.16-.86.54.54,0,0,0-.08-.31.74.74,0,0,0-.22-.21,1.28,1.28,0,0,0-.4-.17h-.85v1.56a.4.4,0,0,1-.4.4.39.39,0,0,1-.4-.4V92.33a.39.39,0,0,1,.4-.39h1.28a1.54,1.54,0,0,1,1,2.73,1.07,1.07,0,0,1,.26.26,1.41,1.41,0,0,1,.23.78,2.66,2.66,0,0,0,0,.42A.39.39,0,0,1,227.52,96.38Zm-1-2.9a.74.74,0,0,0-.75-.74h-.88v1.48h.88A.74.74,0,0,0,226.52,93.48Z" style="fill:#fff"></path><path d="M228.74,92.33a.39.39,0,0,1,.4-.39.4.4,0,0,1,.4.39v4.25a.41.41,0,0,1-.4.4.39.39,0,0,1-.4-.4Z" style="fill:#fff"></path><path d="M230.89,96.58V92.33a.38.38,0,0,1,.39-.39h2.36a.39.39,0,0,1,.39.39.4.4,0,0,1-.39.41h-1.95v1.31h1.67a.41.41,0,0,1,.4.4.4.4,0,0,1-.4.4h-1.67v1.33h1.95a.4.4,0,0,1,0,.8H231.3a0,0,0,0,1,0,0h0A.39.39,0,0,1,230.89,96.58Z" style="fill:#fff"></path><path d="M236,96.58a.4.4,0,1,1-.79,0V92.4h0a.41.41,0,0,1,.16-.33.4.4,0,0,1,.55.09l2.33,3.21v-3a.39.39,0,0,1,.39-.39.4.4,0,0,1,.39.39v4.18a.4.4,0,0,1-.39.4.38.38,0,0,1-.3-.15l0,0-2.3-3.2Z" style="fill:#fff"></path><path d="M240.35,96.58V92.33a.38.38,0,0,1,.39-.39h.85a2.52,2.52,0,1,1,0,5h-.85A.39.39,0,0,1,240.35,96.58Zm.8-.4h.44a1.72,1.72,0,1,0,0-3.44h-.44Z" style="fill:#fff"></path><path d="M251,96.38a.39.39,0,0,1-.25.5.5.5,0,0,1-.16,0h0a.57.57,0,0,1-.28-.08.83.83,0,0,1-.23-.26,1.89,1.89,0,0,1-.15-.86.63.63,0,0,0-.09-.31.7.7,0,0,0-.21-.21,1.22,1.22,0,0,0-.41-.17h-.85v1.56a.4.4,0,0,1-.8,0V92.33a.39.39,0,0,1,.4-.39h1.29a1.53,1.53,0,0,1,1.54,1.54,1.56,1.56,0,0,1-.56,1.19,1,1,0,0,1,.25.26,1.34,1.34,0,0,1,.24.78,1.36,1.36,0,0,0,0,.42A.41.41,0,0,1,251,96.38Zm-1-2.9a.74.74,0,0,0-.74-.74h-.89v1.48h.89A.74.74,0,0,0,250,93.48Z" style="fill:#fff"></path><path d="M252.19,96.58V92.33a.38.38,0,0,1,.39-.39h2.36a.39.39,0,0,1,.39.39.4.4,0,0,1-.39.41H253v1.31h1.67a.41.41,0,0,1,.4.4.4.4,0,0,1-.4.4H253v1.33h1.95a.4.4,0,0,1,0,.8H252.6a0,0,0,0,1,0,0h0A.39.39,0,0,1,252.19,96.58Z" style="fill:#fff"></path><path d="M261.54,97.69a2,2,0,0,1-1.19.45h0a2.59,2.59,0,0,1-1.32-.43.87.87,0,0,0-.44-.11,1.21,1.21,0,0,0-.51.13.4.4,0,0,1-.42,0l0,0h0a.44.44,0,0,1-.1-.16.41.41,0,0,1,.19-.56h0a3.35,3.35,0,0,1-.8-.55,2.81,2.81,0,0,1-.72-1.88,2.78,2.78,0,0,1,.72-1.86,2.47,2.47,0,0,1,1.8-.8,2.4,2.4,0,0,1,1.79.8,2.69,2.69,0,0,1,.73,1.86,2.72,2.72,0,0,1-.73,1.88,2.84,2.84,0,0,1-.8.57l-.17.07a1.86,1.86,0,0,0,.81.25A1.11,1.11,0,0,0,261,97a.41.41,0,0,1,.58.07A.43.43,0,0,1,261.54,97.69Zm-4-1.87a1.56,1.56,0,0,0,1.17.52,1.67,1.67,0,0,0,1.19-.52,1.89,1.89,0,0,0,.5-1.3,1.82,1.82,0,0,0-.5-1.28,1.65,1.65,0,0,0-1.19-.53,1.54,1.54,0,0,0-1.17.53,1.82,1.82,0,0,0-.5,1.28A1.89,1.89,0,0,0,257.53,95.82Z" style="fill:#fff"></path><path d="M264.62,97a2.08,2.08,0,0,1-2.08-2.08V92.33a.39.39,0,0,1,.4-.39.4.4,0,0,1,.4.39V94.9a1.28,1.28,0,1,0,2.56,0V92.33a.4.4,0,0,1,.41-.39.38.38,0,0,1,.39.39V94.9A2.08,2.08,0,0,1,264.62,97Z" style="fill:#fff"></path><path d="M268,96.58V92.33a.39.39,0,0,1,.4-.39h2.36a.4.4,0,0,1,.39.39.41.41,0,0,1-.39.41h-2v1.31h1.68a.41.41,0,0,1,.4.4.4.4,0,0,1-.4.4h-1.68v1.33h2a.4.4,0,0,1,0,.8h-2.34a0,0,0,0,1,0,0h0A.4.4,0,0,1,268,96.58Z" style="fill:#fff"></path><path d="M272.15,95.72a.38.38,0,0,1,.52,0,2.36,2.36,0,0,0,1.38.56A1.55,1.55,0,0,0,275,96a.67.67,0,0,0,.31-.52.39.39,0,0,0-.07-.23A.69.69,0,0,0,275,95a2.9,2.9,0,0,0-1-.34h0a4.13,4.13,0,0,1-.92-.28,1.48,1.48,0,0,1-.67-.56,1.12,1.12,0,0,1-.17-.59,1.35,1.35,0,0,1,.58-1.06,2.12,2.12,0,0,1,1.24-.38,2.79,2.79,0,0,1,1.57.58.36.36,0,0,1,.1.51.37.37,0,0,1-.51.11,2.06,2.06,0,0,0-1.16-.46,1.38,1.38,0,0,0-.8.24.57.57,0,0,0-.28.46.42.42,0,0,0,.05.2.73.73,0,0,0,.2.18,2.37,2.37,0,0,0,.9.32h0a4.52,4.52,0,0,1,1,.3,1.76,1.76,0,0,1,.72.6,1.24,1.24,0,0,1,.17.61,1.4,1.4,0,0,1-.62,1.12,2.24,2.24,0,0,1-1.33.41,3.16,3.16,0,0,1-1.85-.72A.38.38,0,0,1,272.15,95.72Z" style="fill:#fff"></path><path d="M280.08,92.74h-1.14v3.84a.4.4,0,0,1-.8,0V92.74H277a.4.4,0,0,1-.4-.41.39.39,0,0,1,.4-.39h3.07a.39.39,0,0,1,.4.39A.41.41,0,0,1,280.08,92.74Z" style="fill:#fff"></path><polygon points="175.16 98.11 171.41 94.59 175.16 91.08 175.74 91.7 172.65 94.59 175.74 97.49 175.16 98.11" style="fill:#fff"></polygon><path d="M328.59,90.94a1,1,0,1,1-1-1A1,1,0,0,1,328.59,90.94Z" style="fill:#fff"></path><path d="M328.59,94.59a1,1,0,1,1-1-1A1,1,0,0,1,328.59,94.59Z" style="fill:#fff"></path><path d="M328.59,98.25a1,1,0,1,1-1-1A1,1,0,0,1,328.59,98.25Z" style="fill:#fff"></path><rect x="178.54" y="117.92" width="142.92" height="142.92" style="fill:#ebebeb"></rect><path d="M216.76,271.11c5.54-.21,11.08-.3,16.62-.38s11.08-.08,16.62-.12,11.08,0,16.62.11l8.31.14c2.77.09,5.54.13,8.31.25-2.77.11-5.54.16-8.31.24l-8.31.14c-5.54.08-11.08.08-16.62.12s-11.08,0-16.62-.12S222.3,271.31,216.76,271.11Z" style="fill:#37474f"></path><path d="M199.23,277.09c8.46-.2,16.92-.3,25.39-.38l25.38-.12,25.38.12,12.7.14,12.69.24-12.69.25-12.7.14-25.38.11-25.38-.11C216.15,277.4,207.69,277.3,199.23,277.09Z" style="fill:#37474f"></path><rect x="206.64" y="296.79" width="86.72" height="22.08" style="fill:#FFC727"></rect><path d="M237.42,309.33h-2l-.41,1.08a.46.46,0,0,1-.43.29.41.41,0,0,1-.16,0,.47.47,0,0,1-.27-.6l1.83-4.88a.48.48,0,0,1,.44-.3.46.46,0,0,1,.44.3l1.84,4.88a.48.48,0,0,1-.28.6.37.37,0,0,1-.15,0,.46.46,0,0,1-.43-.29Zm-.34-.92-.68-1.78-.67,1.78Z" style="fill:#fff"></path><path d="M239.23,307.71a3,3,0,0,1,3-3,3.09,3.09,0,0,1,1.92.65.48.48,0,0,1,.08.66.48.48,0,0,1-.66.09,2,2,0,0,0-1.34-.45,2.21,2.21,0,0,0-1.49.59,2.08,2.08,0,0,0-.61,1.45,2,2,0,0,0,.61,1.44,2.17,2.17,0,0,0,1.49.6,2.07,2.07,0,0,0,1.34-.46.5.5,0,0,1,.66.1.48.48,0,0,1-.08.66,3.09,3.09,0,0,1-1.92.65A3,3,0,0,1,239.23,307.71Z" style="fill:#fff"></path><path d="M245.47,307.71a3,3,0,0,1,3-3,3.09,3.09,0,0,1,1.92.65.48.48,0,0,1,.08.66.48.48,0,0,1-.66.09,2.07,2.07,0,0,0-1.34-.45,2.21,2.21,0,0,0-1.49.59,2,2,0,0,0-.61,1.45,2,2,0,0,0,.61,1.44,2.17,2.17,0,0,0,1.49.6,2.09,2.09,0,0,0,1.34-.46.5.5,0,0,1,.66.1.48.48,0,0,1-.08.66,3.09,3.09,0,0,1-1.92.65A3,3,0,0,1,245.47,307.71Z" style="fill:#fff"></path><path d="M252.13,310.24v-4.9a.45.45,0,0,1,.45-.45h2.72a.45.45,0,0,1,.45.45.47.47,0,0,1-.45.47h-2.25v1.52H255a.46.46,0,1,1,0,.92h-1.93v1.53h2.25a.46.46,0,0,1,.45.46.46.46,0,0,1-.45.46h-2.72A.46.46,0,0,1,252.13,310.24Z" style="fill:#fff"></path><path d="M259,308.44h-1v1.8a.46.46,0,0,1-.46.46.47.47,0,0,1-.46-.46v-4.9a.46.46,0,0,1,.46-.45H259a1.78,1.78,0,1,1,0,3.55Zm-1-.92h1a.86.86,0,1,0,0-1.71h-1Z" style="fill:#fff"></path><path d="M265.45,305.81h-1.32v4.43a.45.45,0,0,1-.46.46.46.46,0,0,1-.46-.46v-4.43H261.9a.46.46,0,0,1-.45-.47.44.44,0,0,1,.45-.45h3.55a.45.45,0,0,1,.45.45A.47.47,0,0,1,265.45,305.81Z" style="fill:#fff"></path><rect x="206.64" y="333.61" width="86.72" height="22.08" style="fill:#dbdbdb"></rect><path d="M233.4,346.94V342a.45.45,0,0,1,.46-.45h1a2.91,2.91,0,0,1,0,5.81h-1A.46.46,0,0,1,233.4,346.94Zm.92-.46h.52a2,2,0,0,0,0-4h-.52Z" style="fill:#fff"></path><path d="M239,346.94V342a.45.45,0,0,1,.45-.45h2.72a.46.46,0,0,1,.46.45.47.47,0,0,1-.46.47h-2.25V344h1.93a.46.46,0,1,1,0,.92h-1.93v1.53h2.25a.47.47,0,0,1,.46.46.47.47,0,0,1-.46.46h-2.72A.46.46,0,0,1,239,346.94Z" style="fill:#fff"></path><path d="M243.63,344.41a3,3,0,0,1,3-3,3.09,3.09,0,0,1,1.92.65.49.49,0,0,1,.08.66.48.48,0,0,1-.66.09,2.12,2.12,0,0,0-1.34-.45,2.17,2.17,0,0,0-1.49.6,2,2,0,0,0-.61,1.44,2,2,0,0,0,.61,1.44,2.17,2.17,0,0,0,1.49.6A2.14,2.14,0,0,0,248,346a.47.47,0,0,1,.58.75,3.09,3.09,0,0,1-1.92.65A3,3,0,0,1,243.63,344.41Z" style="fill:#fff"></path><path d="M250.29,346.94V342a.45.45,0,0,1,.45-.45.46.46,0,0,1,.47.45v4.44h2.25a.46.46,0,0,1,.45.46.46.46,0,0,1-.45.46h-2.72A.46.46,0,0,1,250.29,346.94Z" style="fill:#fff"></path><path d="M255.06,342a.45.45,0,0,1,.46-.45.46.46,0,0,1,.46.45v4.9a.46.46,0,0,1-.46.46.45.45,0,0,1-.46-.46Z" style="fill:#fff"></path><path d="M258.45,346.94a.46.46,0,0,1-.45.46.46.46,0,0,1-.46-.46v-4.82h0a.45.45,0,0,1,.82-.28l2.68,3.71v-3.42a.45.45,0,0,1,.45-.45.46.46,0,0,1,.46.45v4.82a.47.47,0,0,1-.46.46.45.45,0,0,1-.34-.17.1.1,0,0,1,0-.05l-2.66-3.68Z" style="fill:#fff"></path><path d="M263.4,346.94V342a.45.45,0,0,1,.46-.45h2.71a.46.46,0,0,1,.46.45.47.47,0,0,1-.46.47h-2.25V344h1.94a.46.46,0,0,1,0,.92h-1.94v1.53h2.25a.47.47,0,0,1,.46.46.47.47,0,0,1-.46.46h-2.71A.46.46,0,0,1,263.4,346.94Z" style="fill:#fff"></path></g><g id="freepik--character-2--inject-426"><path d="M273.85,260.84H232.62c-1.66-5.95-3.28-11.67-4.77-16.84h0c-.1-.34-.2-.67-.29-1a2.33,2.33,0,0,1-.07-.25c-.74-2.56-1.44-5-2.09-7.19l-.27-.91c-.16-.58-.33-1.14-.48-1.69-1.73-5.89-3-10.18-3.55-12l-.29-1h38.33s1.42,3.82,3.7,10.07l.49,1.34C266.05,238.88,269.83,249.37,273.85,260.84Z" style="fill:#455a64"></path><path d="M237.4,260.84h-.89c-.26-1-.54-1.93-.81-2.9-1.71-6-3.51-12-5.34-17.94l-.21-.68-.06-.19-1.15-3.76h0l-.09-.3-.6-2-.06-.17a.43.43,0,0,0,0-.05,1.54,1.54,0,0,1,0-.17c-.06-.18-.11-.36-.17-.53l-.31-1c-.12-.38-.24-.75-.35-1.13q-.91-3-1.82-5.91a.09.09,0,0,1,.17-.05c.51,1.38,1,2.77,1.5,4.16s1,2.73,1.43,4.1l.12.35c0,.09.05.17.08.25l.69,2.05c.25.74.49,1.48.73,2.22a5.05,5.05,0,0,1,.18.55c.09.26.18.52.26.78s.11.32.16.49C233.13,246.24,235.31,253.54,237.4,260.84Z" style="fill:#263238"></path><path d="M255.44,220c0,.32-.36,1.66-.83,3.85-.41,1.81-.9,4.2-1.37,7.06-.4,2.42-.79,5.18-1.09,8.22-.69,6.92-1.53,13.16-2.43,15.3a1.91,1.91,0,0,1-.44.7c-.43.35-1.47,1.07-2.72,1.9-.18.12-.35.24-.54.35-1.84,1.23-4,2.61-5.36,3.46H200.49c-1.48-5.13-2.39-8.26-2.39-8.26a38.73,38.73,0,0,1-2.19-7.46v0a37,37,0,0,1-.59-5.27,40.18,40.18,0,0,1,.57-8.53c.25-1.39.55-2.69.87-3.86a0,0,0,0,0,0,0,34,34,0,0,1,2.92-7.41h55.75Z" style="fill:#455a64"></path><path d="M252.8,253.37c-3.76,2.65-7.72,5-11.62,7.47h-.68c1.78-1.38,3.6-2.73,5.47-4l.79-.53c1-.65,2-1.28,3-1.87s1.82-1.07,2.75-1.56A.3.3,0,0,1,252.8,253.37Z" style="fill:#263238"></path><path d="M249,221.72c0-.15-.32-.14-.29,0,.87,5.36,1.26,10.13,1.59,15.21.15,2.36.27,15.51-3.91,15.2-.7-.05-1.15-.66-1.41-1.67a16.35,16.35,0,0,1-.08-4c0-2.76,0-5.52-.22-8.27A74.27,74.27,0,0,0,242.19,223a.13.13,0,0,0-.26.06,140.62,140.62,0,0,1,2,21.18c0,3.43-.89,8.72,2.69,8.69s4.64-8.82,4.72-11.19A78.14,78.14,0,0,0,249,221.72Z" style="fill:#263238"></path><path d="M246.58,252.48a22,22,0,0,0-.49,2.81,6,6,0,0,0,0,2.24.16.16,0,0,0,.29,0,7.92,7.92,0,0,0,.61-2.28c.18-.87.37-1.74.53-2.61A.46.46,0,0,0,246.58,252.48Z" style="fill:#263238"></path><path d="M204.49,252.26a45.18,45.18,0,0,0,11.43-2.16A27.17,27.17,0,0,0,227,243.26a21.84,21.84,0,0,0,4.25-5.95c0-.08.17,0,.14.07a20,20,0,0,1-3,6,22.93,22.93,0,0,1-4.88,4.66,25.56,25.56,0,0,1-12.41,4.79,19.91,19.91,0,0,1-6.67-.11C204.18,252.63,204.28,252.28,204.49,252.26Z" style="fill:#263238"></path><path d="M204.93,260.84H204a123.38,123.38,0,0,1-3.51-12.36,61.56,61.56,0,0,1-1.27-8.26,4.38,4.38,0,0,1,0-.52,3,3,0,0,1,0-.42c-.05-.57-.07-1.13-.08-1.7,0-1,0-2,0-3A34.83,34.83,0,0,1,201.81,222c.05-.12.21,0,.17.09a34,34,0,0,0-2.39,12.42,40.91,40.91,0,0,0,.15,4.28,2.31,2.31,0,0,0,0,.37h0a.62.62,0,0,0,0,.19c0,.18,0,.36,0,.54a66.77,66.77,0,0,0,1.29,7.8c0,.12,0,.23.08.35A131.23,131.23,0,0,0,204.93,260.84Z" style="fill:#263238"></path><path d="M236.47,160.51c10.8,16.94,32.85,37.9,40.74,37,3.74-.44,10.55-.41,14.9-5.35,9.5-10.77,16.35-26.45,19.21-36.72,1-3.61-21.21-13-23.45-9.72-5.24,7.77-10.62,22.37-11.72,22.43-4.07.22-21.33-11.14-33.7-18.67C228.59,141,232.16,153.76,236.47,160.51Z" style="fill: rgb(255, 196, 192);"></path><path d="M309.89,158.54c1.44-2.76,6.9-16,7.6-20s1.85-15.77-1.18-16.61-3.64,2.56-3.64,2.56-.3-5-3.43-5.61-3.91,4.77-3.91,4.77-.68-5.15-3.84-5.5-3.05,5.15-3.05,5.15-.4-4.74-3.13-3.93c-3.28,1-1.55,9.62-2.65,14-.25,1-6.51,19.85-6.51,19.85Z" style="fill: rgb(255, 196, 192);"></path><path d="M298.44,122.78c1.26,6.36.7,9.36-1.59,15.32-.05.11.11.21.17.09,2.78-5.63,4-9.29,1.72-15.49C298.63,122.4,298.38,122.47,298.44,122.78Z" style="fill:#263238"></path><path d="M305.22,123.09c.73,6.73.16,10-1.79,16.4,0,.09.13.15.16.06,2.44-6.14,3.59-9.82,2-16.44C305.5,122.81,305.19,122.79,305.22,123.09Z" style="fill:#263238"></path><path d="M312.56,124.77c.23,6.55-.24,10.16-2.93,16.14-.06.14.14.25.21.11,3.34-5.83,4-10.32,2.92-16.24C312.69,124.38,312.54,124.35,312.56,124.77Z" style="fill:#263238"></path><path d="M284.61,157s-3-7.55-3.61-11.15,2.13-17.87,5.24-17.46c4,.54,4.07,9.08,3.55,13.27,0,0,9.29,1.23,10.66,7.35S284.61,157,284.61,157Z" style="fill: rgb(255, 196, 192);"></path><path d="M287.3,128.86c3.31,3.14,2.27,8.59,2.07,12.69a.37.37,0,0,0,.47.39c3.86.78,9.08,3,10.74,6.81.05.11.22.06.18-.06-1.22-4.33-6.17-6.93-10.46-7.51.27-4.2,1.08-9.71-3-12.35A0,0,0,1,0,287.3,128.86Z" style="fill:#263238"></path><path d="M282.15,153.69,308,168.45s-11,23.35-19.94,27.18-11.86,3-14.44,2.66S251,183.86,236.8,161.23c-13.38-21.38,1.11-15.56,12-8.49,6.22,4,25.95,14.29,26.67,14S282.15,153.69,282.15,153.69Z" style="fill:#263238"></path><path d="M280.5,160.65c4.08,2,8.09,4.11,12.09,6.25,2,1.06,9.58,5.54,11.77,6.8.09.05-.05.29-.14.24-2.11-1-10.07-5.29-12-6.38-3.95-2.21-7.89-4.45-11.76-6.81A.06.06,0,1,1,280.5,160.65Z" style="fill:#37474f"></path><path d="M196,234.71c.17.17,68.19-4.22,68.77-5,.8-1-19.54-73.69-27.13-82.32-1.63-1.85-6.59-2.06-10.74-1.25a17.88,17.88,0,0,0-3.18.87.23.23,0,0,1-.11,0,7.76,7.76,0,0,0-2.29,1.32c-11,10.09-18.63,43.26-20.26,53.18C198.37,217.93,195.41,234.11,196,234.71Z" style="fill:#ebebeb"></path><path d="M222.91,147.27s6.17,30,7.67,37.82,2.88,49.31,2.88,49.31l-42.5,6s7.37-28.06,7.36-29.81c0,0,5.19-33.5,11.71-47.58A41.45,41.45,0,0,1,222.91,147.27Z" style="fill:#263238"></path><path d="M218.19,151.35l-8,86.35L191,240.45s7.37-28.06,7.36-29.8c0,0,5.19-33.51,11.72-47.6A41.93,41.93,0,0,1,218.19,151.35Z" style="fill:#37474f"></path><path d="M238.08,147s6.6,30.26,7.26,32.76,10.89,51.87,10.89,51.87l10.71-.39-7.11-22.41S243.61,153.21,238.08,147Z" style="fill:#263238"></path><path d="M235.31,156.92c-3.23.55-9.63-3.61-11.62-8.29-.13-.33.66-3.49,1.43-7.38.47-2.37.92-5,1.17-7.45.05-.5,14.94,5.25,14.94,5.25a39.11,39.11,0,0,0-2.42,9.23,4.84,4.84,0,0,0,0,1,1,1,0,0,1,0,.17C238.94,151.39,238.77,156.32,235.31,156.92Z" style="fill: rgb(255, 196, 192);"></path><path d="M238.82,149.29v.17a9.77,9.77,0,0,1-1.58-.08c-9-1.1-10.24-12.62-10.41-15.52,2.68.66,14.4,5.19,14.4,5.19a39.11,39.11,0,0,0-2.42,9.23A5.64,5.64,0,0,0,238.82,149.29Z" style="fill:#263238"></path><path d="M225.35,114.51c-2,5.33-.23,21.25,3.4,25,5.27,5.47,14.43,6.58,19.21.13,4.63-6.26,1.91-27-2.2-30.45C239.71,104.08,228.35,106.63,225.35,114.51Z" style="fill: rgb(255, 196, 192);"></path><path d="M238.69,125s-.08.06-.07.1c.15,1.07.14,2.32-.79,2.78,0,0,0,.07,0,.06C239,127.66,239,126,238.69,125Z" style="fill:#263238"></path><path d="M237.61,124c-1.74.06-1.5,3.53.11,3.48S239.07,124,237.61,124Z" style="fill:#263238"></path><path d="M245.12,124.51s.09,0,.09.09c0,1.08.27,2.31,1.26,2.6,0,0,0,.06,0,.06C245.27,127.17,245,125.54,245.12,124.51Z" style="fill:#263238"></path><path d="M246,123.32c1.72-.25,2.1,3.21.5,3.44S244.56,123.53,246,123.32Z" style="fill:#263238"></path><path d="M236.13,122.5a12.58,12.58,0,0,0,1.31-.56,2.32,2.32,0,0,0,1.23-.84.72.72,0,0,0-.18-.88,1.85,1.85,0,0,0-1.85-.06,2.68,2.68,0,0,0-1.46,1.27A.78.78,0,0,0,236.13,122.5Z" style="fill:#263238"></path><path d="M247.23,121.47a11.28,11.28,0,0,1-1.41-.26,2.34,2.34,0,0,1-1.38-.54.74.74,0,0,1,0-.9,1.82,1.82,0,0,1,1.79-.47,2.68,2.68,0,0,1,1.7.91A.78.78,0,0,1,247.23,121.47Z" style="fill:#263238"></path><path d="M238.77,135c.28.23.56.56.95.57a2.71,2.71,0,0,0,1.14-.35,0,0,0,0,1,0,.05,1.47,1.47,0,0,1-1.33.68,1.16,1.16,0,0,1-.91-.89C238.65,135,238.73,135,238.77,135Z" style="fill:#263238"></path><path d="M239.68,131.73a3.69,3.69,0,0,0,2.56,1.46,4.49,4.49,0,0,0,1.32,0,.92.92,0,0,0,.25,0l.24-.05a.28.28,0,0,0,.2-.25h0s0-.07,0-.11h0v-.09c0-.84-.2-2.09-.2-2.09.31.13,1.9.72,1.85.29a55.53,55.53,0,0,0-2.19-11,.1.1,0,0,0-.19,0c.3,3.45,1.22,6.82,1.58,10.28a6.48,6.48,0,0,0-1.77-.4c-.11,0,.37,2.42.36,2.79a.1.1,0,0,1,0,0,5.06,5.06,0,0,1-3.87-.92C239.69,131.57,239.61,131.65,239.68,131.73Z" style="fill:#263238"></path><path d="M243.05,132.77a4.33,4.33,0,0,1-1.65,1.47,2,2,0,0,1-1.19.16c-.87-.17-1-1-.84-1.64a4.64,4.64,0,0,1,.32-1.06A5.6,5.6,0,0,0,243.05,132.77Z" style="fill:#263238"></path><path d="M241.4,134.24a2,2,0,0,1-1.19.16c-.87-.17-1-1-.84-1.64A2,2,0,0,1,241.4,134.24Z" style="fill:#ff9bbc"></path><path d="M248.42,114.33c-.68-1.32-1.45-2.66-2.3-2.87s-1.71,2.33-3.66,2.56c-2.67.33-4.7-2.68-8.24-2.39s-5.08,3.76-5.33,11.59c-.21,6.44-3.52,7.31-3.52,7.31s-4.06-15-.38-20,13.46-6.66,19.92-2.59C247.26,109.43,248.42,114.33,248.42,114.33Z" style="fill:#263238"></path><path d="M228.44,127.77s-3.31-5.26-5.69-4.1,0,8.67,2.62,9.81a2.77,2.77,0,0,0,3.77-1.31Z" style="fill: rgb(255, 196, 192);"></path><path d="M223.47,125.81s-.05,0,0,.07c1.86.86,2.78,2.67,3.39,4.53a1.52,1.52,0,0,0-2.26-.52c-.05,0,0,.11,0,.1a1.71,1.71,0,0,1,1.84.68,8,8,0,0,1,.82,1.56c.08.17.39.1.34-.1l0,0C227.79,129.66,226.07,126.18,223.47,125.81Z" style="fill:#263238"></path><path d="M214.73,154.73c-16,20.22-27.37,48.05-26.85,54.41.57,7,10.92,31.22,20.1,42.34,1.17,1.43,7.77.43,13.2-3,5.73-3.6,10.25-9.69,9-11.35-4.74-6.24-16.53-30.82-16.66-34.76-.12-3.65,7.08-26.41,9.58-39.48C225.48,150.36,222.18,145.32,214.73,154.73Z" style="fill: rgb(255, 196, 192);"></path><path d="M197.46,250.18l31-17.41s-14.15-27.28-14.34-30.3,6.72-27.18,9.2-38.29.58-23.34-12.1-6-23.17,42.6-24.15,49.21S197.46,250.18,197.46,250.18Z" style="fill:#263238"></path><path d="M215.3,194.34q.81-3.18,1.69-6.33c.65-2.36,1.33-4.7,2-7s1.51-4.51,2.28-6.77c.05-.16.34-.07.29.1-.89,3-1.72,6-2.54,9.06.67-1.39,1.35-2.79,2.07-4.16a.11.11,0,0,1,.19.09c-.8,1.69-1.65,3.36-2.51,5l-.6,2.2c-1.11,4.07-2.17,8.16-3.08,12.28a13.33,13.33,0,0,0-.41,2.81,8.53,8.53,0,0,0,.65,3.15c.69,1.84,1.44,3.65,2.21,5.46,1.54,3.63,3.2,7.21,4.93,10.75,2,4,4.17,8,6.36,11.92l-1.21.41s-.09,0-.06-.06a7.19,7.19,0,0,1,.74-.44c-2.19-3.37-4.29-6.69-6.18-10.25s-3.57-7.14-5.12-10.81q-1.22-2.83-2.31-5.72a10.94,10.94,0,0,1-.86-5.67A61.51,61.51,0,0,1,215.3,194.34Z" style="fill:#37474f"></path><path d="M196.42,241.23a32.64,32.64,0,0,1,3.39-1.85c1-.54,2-1.1,3-1.63,2.23-1.16,4.44-2.34,6.67-3.48s4.44-2.3,6.67-3.43,4.42-2.31,6.7-3.31c.09,0,.15.09.08.15-2.05,1.42-4.25,2.63-6.4,3.87s-4.3,2.37-6.48,3.5-4.47,2.24-6.73,3.31c-1.09.52-2.2,1-3.3,1.48a31,31,0,0,1-3.57,1.5C196.41,241.35,196.36,241.27,196.42,241.23Z" style="fill:#37474f"></path></g><g id="freepik--character-1--inject-426"><path d="M367.92,186.72a43.19,43.19,0,0,0,7.49,6.19c-3.42-8.09-.46-24.94-.25-22.45,1,11.9,6.59,25.53,9.27,26.52l.05,0a32.17,32.17,0,0,0,20.34-1.51s0,0,0,0c-4.58-9.25-2-26.44-1.78-25.34,2.69,11.8,10.49,19.54,12,19.72h0c6.29-4.57,10-9.5,9.24-10.14-5.25-4.71-8.81-15.51-11.8-26.82h0c-3-11.15-3.82-21.5-8.73-31.75-4.49-9.39-15.55-12.55-22.54-9C362.88,121.41,364.72,183.43,367.92,186.72Z" style="fill:#263238"></path><path d="M395.44,114.5c4.5,1.72,7.75,6.5,9.65,10.77,2.53,5.67,3.86,11.89,5.79,17.79a117,117,0,0,0,16.23,32.51.21.21,0,0,1-.32.26c-8.1-8-13-18.6-16.68-29.31-1.89-5.48-3.2-11.12-4.95-16.64a35.34,35.34,0,0,0-3.88-8.64,21.75,21.75,0,0,0-6.25-6A.43.43,0,0,1,395.44,114.5Z" style="fill:#263238"></path><path d="M310.3,465c2.27.71,68.66-.72,71.08-2.34.93-.6-4.76-63.48-4.76-63.48l-42.1.81L339.31,442s-24.5,11.6-27,13.66S308,464.29,310.3,465Z" style="fill: rgb(255, 196, 192);"></path><path d="M310.3,465c2.27.71,68.66-.72,71.08-2.34.29-.19.38-6.57-.68-14.88-12,2-55,8.61-58.35,6.64-2.33-1.37-.27-3.51,1.64-5-5.48,2.74-10.6,5.37-11.66,6.25C309.87,457.75,308,464.29,310.3,465Z" style="fill:#263238"></path><path d="M338.12,432l41.34-.58s-8.19-99-7.85-100.9c.43-2.44,29.76-117.42,29.76-117.42H361.92s-31.11,107.17-32.22,117.5C327.89,347.22,338.12,432,338.12,432Z" style="fill:#263238"></path><path d="M359.87,465.15c2.28.71,68.66-.73,71.09-2.35.93-.59-2.54-63.51-2.54-63.51l-41.55.8,2,42.1s-24.49,11.61-27,13.67S357.6,464.44,359.87,465.15Z" style="fill: rgb(255, 196, 192);"></path><path d="M359.87,465.15c2.27.7,68.66-.73,71.08-2.35.3-.18.23-6.4,0-14.89-12,2-55.68,8.62-59,6.66-2.34-1.38-.27-3.52,1.64-5-5.49,2.73-10.6,5.36-11.66,6.25C359.45,457.91,357.6,464.45,359.87,465.15Z" style="fill:#263238"></path><path d="M363.2,213s1.14,18.86,5.65,33.76c.36,1.23.75,2.44,1.17,3.6a70.87,70.87,0,0,1,11.45,5.7s2.84,72.15,2.79,76.63c-.19,16.76,4.1,98.4,4.1,98.4l41.67-.39s-4.32-92.32-4.34-98.47c0-5.93-2.83-43.4-5.35-75.88,0,0,3.71-10.37,3.3-15.61-1-12.71-6.69-27.72-6.69-27.72Z" style="fill:#263238"></path><path d="M361,213l-24.47,74.62s22.37,7.33,34.37,10.17c10.55,2.48,60.56-6.43,60.56-6.43s-9-72.3-14.49-78.34Z" style="fill:#FFC727"></path><path d="M396.5,213a12.56,12.56,0,0,0-2.11,2,15,15,0,0,0,3.71-1.86l.22-.16Zm29.78,79.24.12,0,0,0Zm-38.94-27.84a15,15,0,0,0-3.12,2.75,16.12,16.12,0,0,0,6.84-4.61A14.56,14.56,0,0,0,387.34,264.44ZM349,291.62l.85.25a9.11,9.11,0,0,0,.89-1A11.13,11.13,0,0,0,349,291.62Zm5.76-57.2c-.37.26-.73.52-1.08.8l-.43,1.31a18.5,18.5,0,0,0,2.12-1.22,14.42,14.42,0,0,0,3.11-2.75A14.72,14.72,0,0,0,354.78,234.42ZM401.86,244a14.79,14.79,0,0,0-2.76-3.12,15.06,15.06,0,0,0,1.86,3.72,14.5,14.5,0,0,0,2.76,3.11A14.66,14.66,0,0,0,401.86,244ZM371.18,285.1a14.74,14.74,0,0,0-2.76-3.11,14.69,14.69,0,0,0,1.87,3.71,14.24,14.24,0,0,0,2.75,3.12A14.56,14.56,0,0,0,371.18,285.1ZM405,278.46a14.69,14.69,0,0,0-4.15-.25,16.19,16.19,0,0,0,8.1,1.57A14.7,14.7,0,0,0,405,278.46ZM370.66,251.2a14.69,14.69,0,0,0-4.15-.25,16.12,16.12,0,0,0,8.09,1.57A14.75,14.75,0,0,0,370.66,251.2Zm51.67-19.38a19.79,19.79,0,0,0-2.51-.68,14.33,14.33,0,0,0-4.15-.25,14.67,14.67,0,0,0,3.95,1.31,16.91,16.91,0,0,0,2.85.31C422.42,232.28,422.38,232.05,422.33,231.82Zm.82,24.47a16.18,16.18,0,0,0-1.57,8.09,14.16,14.16,0,0,0,1.31-3.94A14.69,14.69,0,0,0,423.15,256.29Zm-67.07,5.4a16.19,16.19,0,0,0-1.57,8.1,14.36,14.36,0,0,0,1.32-4A14.69,14.69,0,0,0,356.08,261.69Zm41.06,29.94a14.73,14.73,0,0,0-1.31,3.94c-.07.4-.14.79-.19,1.19l1-.12c.08-.28.14-.57.2-.86A14.72,14.72,0,0,0,397.14,291.63ZM380.43,225.3a14.67,14.67,0,0,0-1.31,3.95,14.33,14.33,0,0,0-.26,4.15,16.19,16.19,0,0,0,1.57-8.1Z" style="fill:#fff"></path><path d="M376.08,156.72c-20.33,17.92-39.21,37.58-40.79,47.71-2.18,14,6.42,18,10.29,18.09,10.53.22,30.15-42.26,37-58.49C389.22,148.27,380.55,152.79,376.08,156.72Z" style="fill:#FFC727"></path><path d="M349.65,210.57a15.84,15.84,0,0,0-1.57,8.09,16.12,16.12,0,0,0,1.57-8.09Zm-7.14-15.74a18.4,18.4,0,0,0-2.57-.31c-.14.2-.27.4-.39.59a16.79,16.79,0,0,0,2.75.77,14.69,14.69,0,0,0,4.15.26A14.73,14.73,0,0,0,342.51,194.83Zm18.91-8a15,15,0,0,0-3.12,2.75A14.72,14.72,0,0,0,362,187.7a14.19,14.19,0,0,0,3.11-2.75A14.66,14.66,0,0,0,361.42,186.81Z" style="fill:#fff"></path><path d="M361,213l4-17.81s-7.05-7.31-3.4-15c1.84-3.87,14.37-22.77,21.06-27.51,6.28-4.45,13.73-.75,16.51,4.07C406.2,169,412.89,183,417,213.05Z" style="fill:#FFC727"></path><path d="M384.51,165.3a14.75,14.75,0,0,0-1.32,3.94,14.33,14.33,0,0,0-.25,4.15,16.18,16.18,0,0,0,1.57-8.09Zm7,24.69a14.69,14.69,0,0,0-4.15-.26,14.38,14.38,0,0,0,3.94,1.31,14.72,14.72,0,0,0,4.15.26A14.73,14.73,0,0,0,391.48,190Zm-19.59,15.55a14.47,14.47,0,0,0-2.75-3.12,14.56,14.56,0,0,0,1.86,3.72,14.73,14.73,0,0,0,2.75,3.11A14.34,14.34,0,0,0,371.89,205.54Zm-10.47-18.73-.63.46c.07.36.16.7.26,1l1-.61a14.19,14.19,0,0,0,3.11-2.75A14.66,14.66,0,0,0,361.42,186.81ZM397.5,212.3c-.34.24-.67.48-1,.74h1.82a13.7,13.7,0,0,0,2.9-2.6A14.56,14.56,0,0,0,397.5,212.3Z" style="fill:#fff"></path><path d="M373.35,192.91a57.29,57.29,0,0,1,8.44,1.57c1.38.38,2.72.82,4.06,1.29.67.24,1.35.45,2,.66a9.6,9.6,0,0,0,2.18.45.05.05,0,0,1,0,.1,14.75,14.75,0,0,1-2.1-.08,14.94,14.94,0,0,1-2-.41c-1.4-.38-2.77-.81-4.17-1.2-2.8-.78-5.61-1.56-8.47-2.14C373.18,193.12,373.22,192.9,373.35,192.91Z" style="fill:#263238"></path><path d="M366.25,195.3a64.39,64.39,0,0,1,7.08-.2c1.19,0,2.36.15,3.53.28.56.07,1.12.14,1.68.23s1.22.26,1.83.34c.07,0,.07.11,0,.1-.58-.06-1.18,0-1.76,0l-1.77-.09-3.53-.15c-2.36-.13-4.7-.23-7.06-.28A.1.1,0,0,1,366.25,195.3Z" style="fill:#263238"></path><path d="M399.88,155c18.92,14.87,37.53,40.56,37.66,54.93.14,14.18-4.8,12.81-6.21,12.71-8.57-.56-28.75-40-34.89-56.13S395.2,151.3,399.88,155Z" style="fill:#FFC727"></path><path d="M419.71,203.1A14.5,14.5,0,0,0,418.4,207c-.11.6-.2,1.21-.26,1.82l.62.94a19.38,19.38,0,0,0,.69-2.56A14.64,14.64,0,0,0,419.71,203.1Zm-16.22-41a15,15,0,0,0-2.75-3.12,16.12,16.12,0,0,0,4.61,6.84A14.56,14.56,0,0,0,403.49,162.11Zm33.58,43.69a9.23,9.23,0,0,0-1-.9,13.52,13.52,0,0,0,1.28,2.81C437.31,207.09,437.21,206.45,437.07,205.8ZM417,180.3a15,15,0,0,0-3.12,2.75,16.12,16.12,0,0,0,6.84-4.61A14.56,14.56,0,0,0,417,180.3Z" style="fill:#fff"></path><path d="M420,211.54c-1-1.79-2-3.55-3-5.35l-3-5.37c-1.94-3.59-3.92-7.16-5.81-10.78s-3.84-7.2-5.71-10.82q-1.41-2.73-2.75-5.47c-.92-1.82-1.77-3.68-2.62-5.54a108.66,108.66,0,0,0,4.69,11.34c1.73,3.71,3.62,7.34,5.51,11s3.94,7.17,6,10.69S417.59,208.19,420,211.54Z" style="fill:#263238"></path><path d="M399.12,173a18.29,18.29,0,0,0-1.17-1.86l-.64-.87c-.23-.28-.44-.58-.7-.86a5.5,5.5,0,0,0,.94,2A5.86,5.86,0,0,0,399.12,173Z" style="fill:#263238"></path><path d="M341.23,183.66c1-6.66,3-15.94,5.38-17.86s11.69-8.76,14.32-9.64,14.38-5.2,16.52-3.93c1.71,1-.38,5.51-6,7.62a81.5,81.5,0,0,0-8.86,4.19c-1.43.6-4.91,5.18-4,7.24.54,1.21,4,2.66,6.22,1.7s2.78-5.27,5.29-7.28,6.9-1.71,7.14-.52-1.21,1.72-3.51,5.73c-1.47,2.58-1.64,8.8-5,13.22a78.05,78.05,0,0,0-4.61,8.16Z" style="fill: rgb(255, 196, 192);"></path><path d="M372.47,163.89a4.32,4.32,0,0,0,2.19-1,1.71,1.71,0,0,0,.51-.88,2.09,2.09,0,0,0,0-.56A.86.86,0,0,0,375,161s0-.09,0,0a2.61,2.61,0,0,0,.19.27,1,1,0,0,1,.13.25,1.45,1.45,0,0,1,.08.54,1.82,1.82,0,0,1-.44,1.11,3,3,0,0,1-2.51.87S372.44,163.89,372.47,163.89Z" style="fill:#263238"></path><path d="M346.61,165.8c2.16-3.31,7.65-9.25,13-11.26,3.65-1.35,16.08,4.86,15.69,7.25s-2.52,2.37-5.68,2c-1.15-.15-7.22-2.4-8.27-1.13-1.51,1.82-3.47,8.08-3.47,8.08Z" style="fill: rgb(255, 196, 192);"></path><path d="M375,160.85c-1.51-2.57-4.89-4-8.26-5.08,0,0-.08.06,0,.08.86.28,6.33,2.87,8.25,5C375,160.92,375.06,160.88,375,160.85Z" style="fill:#263238"></path><path d="M346.61,165.8c2.16-3.31,7.65-9.25,13-11.26,3.65-1.35,13.45,6.54,13.06,8.92s-3.45,2.55-6.83,1.33c-1.09-.39-4.74-3-5.79-1.75-1.51,1.82-5.2,6.34-5.2,6.34Z" style="fill: rgb(255, 196, 192);"></path><path d="M357,166.58c.34-.52.46-.7.82-1.22s.71-1,1.11-1.51a4.65,4.65,0,0,1,1.13-1.17,2.44,2.44,0,0,1,1.5-.28,8.56,8.56,0,0,1,3.22,1.47,10.12,10.12,0,0,0,5.18,1.54,3.47,3.47,0,0,0,1.4-.37,2.2,2.2,0,0,0,.84-.65c.78-1.3-.16-2.79-1.13-3.85a22.62,22.62,0,0,0-6.62-4.62c-.58-.3-1.17-.58-1.76-.85a5.17,5.17,0,0,0-2.14-.64c-1.23,0-3.25,1.21-3.88,1.58-.05,0-.08,0,0-.08.76-.46,2.65-2,4.63-1.85a6.15,6.15,0,0,1,2.06.71c.69.31,1.36.63,2,1a28,28,0,0,1,3.76,2.27,11.65,11.65,0,0,1,3.06,3,3.46,3.46,0,0,1,.18,3.54,3,3,0,0,1-2.24,1.16,5.9,5.9,0,0,1-1.57,0,25.69,25.69,0,0,1-3.38-1c-1.07-.44-2-1.18-3.14-1.52a2,2,0,0,0-1.6.09,5.18,5.18,0,0,0-1.21,1.08,16.78,16.78,0,0,0-2,2.35C357,166.88,356.87,166.8,357,166.58Z" style="fill:#263238"></path><path d="M345,168.68c.8-1.57,2.18-8.08,3.46-10.07s7.1-8.85,9.78-8.52c3.38.41-.2,6.45-2,8.94s-1.54,6.75-1.54,6.75Z" style="fill: rgb(255, 196, 192);"></path><path d="M358.76,154.9c-.64.79-1.2,1.66-1.76,2.51a19.55,19.55,0,0,0-1.53,2.47,8.54,8.54,0,0,0-.69,2.77c0,.47-.07.94-.08,1.41s0,1,0,1.55a0,0,0,1,0,.08,0,22.05,22.05,0,0,1,.4-2.79,11.81,11.81,0,0,1,.87-2.78c.81-1.76,2-3.32,2.8-5.07C358.91,154.89,358.8,154.85,358.76,154.9Z" style="fill:#263238"></path><path d="M354.75,166.49a9.65,9.65,0,0,0,.81,4.76,17.09,17.09,0,0,0,1.06,2.2,18.12,18.12,0,0,0,1.38,2,18.79,18.79,0,0,1,2.41,4,19.44,19.44,0,0,1,1.25,4.53,12.68,12.68,0,0,0-.55-4.8,14.58,14.58,0,0,0-2.33-4.28,23.33,23.33,0,0,1-2.48-4A14.17,14.17,0,0,1,354.75,166.49Z" style="fill:#263238"></path><path d="M346.56,222c6.58-.88,10.88-11.89,18.39-31.24,1.32-3.39-15.88-24.27-18.21-21.16-2.95,3.93-10.88,25.78-11.72,31.74C333.38,213.11,338.87,223.07,346.56,222Z" style="fill: rgb(255, 196, 192);"></path><path d="M361,201.59,339.78,181s-6,17.74-5.47,25.17,3.16,15.9,12.11,16.37C353.12,222.87,361,201.59,361,201.59Z" style="fill:#FFC727"></path><path d="M342.51,194.83a14.35,14.35,0,0,0-4.15-.26,14.38,14.38,0,0,0,3.94,1.31,14.69,14.69,0,0,0,4.15.26A14.73,14.73,0,0,0,342.51,194.83Zm7.14,15.74a15.84,15.84,0,0,0-1.57,8.09,16.12,16.12,0,0,0,1.57-8.09Z" style="fill:#fff"></path><path d="M354.13,215.85c.76-1.08,1.45-2.22,2.11-3.36s1.28-2.31,1.88-3.49,1.14-2.39,1.63-3.62a22.06,22.06,0,0,0,1.23-3.79c-.56,1.2-1.15,2.38-1.75,3.55l-1.78,3.53c-.58,1.18-1.16,2.36-1.71,3.56S354.62,214.62,354.13,215.85Z" style="fill:#263238"></path><path d="M356.42,205.18c-1-1.13-2.16-2.17-3.26-3.24s-2.2-2.13-3.31-3.17c-2.24-2.08-4.49-4.16-6.76-6.2l-1.88-1.67c-.68-.58-1.43-1.08-2.1-1.68-.05,0-.12,0-.07.08.54.53,1,1.13,1.53,1.66s1.11,1.09,1.68,1.63l3.34,3.15c2.23,2.09,4.48,4.16,6.78,6.18,1.3,1.13,2.58,2.32,3.94,3.38A.08.08,0,0,0,356.42,205.18Z" style="fill:#263238"></path><path d="M394.25,153.34c-.16,1.08-4.62,8.52-10.55,8.16-3.44-.21-1.1-7.08-1.1-7.08l-3-9.39L391,136.35S394.31,152.88,394.25,153.34Z" style="fill: rgb(255, 196, 192);"></path><path d="M392.2,142.53a18.77,18.77,0,0,1-9.76,11.37L379.62,145,391,136.35Z" style="fill:#263238"></path><path d="M369.27,127.8c-4.16,15.6,4.72,19.85,8.08,20.74,3.06.81,13.56,3.19,19.31-11.9s-.19-21.95-7.08-24.17S373.43,112.2,369.27,127.8Z" style="fill: rgb(255, 196, 192);"></path><path d="M373.15,126.37a10.49,10.49,0,0,0,1.12-.05,1.79,1.79,0,0,0,1.13-.26.58.58,0,0,0,.11-.69,1.41,1.41,0,0,0-1.33-.56,2.05,2.05,0,0,0-1.42.51A.61.61,0,0,0,373.15,126.37Z" style="fill:#263238"></path><path d="M383.69,128.68a9.36,9.36,0,0,1-1-.41,1.77,1.77,0,0,1-1-.61.56.56,0,0,1,.11-.69,1.4,1.4,0,0,1,1.44-.1,2.13,2.13,0,0,1,1.18.94A.61.61,0,0,1,383.69,128.68Z" style="fill:#263238"></path><path d="M380.38,132.32s.07.07.06.12c-.24,1.07-.33,2.34.57,2.88,0,0,0,.07,0,.06C379.83,135,380,133.3,380.38,132.32Z" style="fill:#263238"></path><path d="M381.56,131.38c1.76.2,1.23,3.71-.4,3.52S380.08,131.21,381.56,131.38Z" style="fill:#263238"></path><path d="M382.22,131.67c.27.24.52.64.89.73s.8-.21,1.13-.52c0,0,.06,0,.05.05-.09.67-.45,1.32-1.19,1.32s-1.05-.68-1.12-1.38C382,131.74,382.11,131.57,382.22,131.67Z" style="fill:#263238"></path><path d="M374.4,130.9s-.1,0-.11.08c-.21,1.07-.64,2.27-1.69,2.4,0,0-.05.06,0,.06C373.81,133.55,374.37,132,374.4,130.9Z" style="fill:#263238"></path><path d="M373.7,129.56c-1.69-.54-2.63,2.89-1.06,3.38S375.12,130,373.7,129.56Z" style="fill:#263238"></path><path d="M372.93,129.59c-.32.1-.68.36-1,.29s-.55-.52-.7-.94c0-.05-.05,0-.06,0-.2.65-.17,1.39.42,1.69s1.12-.18,1.46-.78C373.1,129.75,373.06,129.54,372.93,129.59Z" style="fill:#263238"></path><path d="M378.75,140.53c-.29.23-.59.55-1,.54a2.86,2.86,0,0,1-1.15-.39,0,0,0,0,0-.05,0,1.49,1.49,0,0,0,1.33.74,1.19,1.19,0,0,0,1-.88C378.87,140.53,378.79,140.5,378.75,140.53Z" style="fill:#263238"></path><path d="M374.85,135.87a24,24,0,0,0-.61,2.35c0,.07.17.13.42.19h0a3.65,3.65,0,0,0,3.75-.78c.07-.06,0-.16-.09-.12a5.65,5.65,0,0,1-3.48.41c0-.22.93-2.69.81-2.72a7.1,7.1,0,0,0-1.8.11c.92-3.33,2.37-6.48,3.24-9.81a.11.11,0,0,0-.2-.08A56.12,56.12,0,0,0,373,135.84C372.86,136.26,374.52,136,374.85,135.87Z" style="fill:#263238"></path><path d="M375.24,138.08a4.06,4.06,0,0,0,1.31,1.53,1.71,1.71,0,0,0,1.05.28c.81,0,1-.74.95-1.37a4.34,4.34,0,0,0-.15-1A5.14,5.14,0,0,1,375.24,138.08Z" style="fill:#263238"></path><path d="M376.55,139.61a1.71,1.71,0,0,0,1.05.28c.81,0,1-.74.95-1.37A1.82,1.82,0,0,0,376.55,139.61Z" style="fill:#ff9abb"></path><path d="M395.14,137.49c-3.91-.92-2.64-13.26-2.47-14.77-.16,1-1,6-1.43,6.08a3.71,3.71,0,0,1-1.19-.48h0a11.64,11.64,0,0,0,.21-1.81c0-.28-.22.58-.59,1.62l-.68-.34a14.57,14.57,0,0,0,.37-3.87c0-.49-.56,1.6-1.38,3.36a49,49,0,0,0-10-3.87c-1-.23-1.83-.39-2.59-.5.29-1.47.77-3,.6-2.69a13.81,13.81,0,0,0-1.16,2.61c-.41-.06-.8-.11-1.14-.14.31-2.1,2-5.22,1.53-4.78a14.92,14.92,0,0,0-3,4.72c-1.47,0-1.92.19-1.88-.18a17.63,17.63,0,0,1,7.41-9.7c5.85-3.65,15.9-2.86,20,5.38,0,0,4,3.89,3.73,8.83S397.4,138,395.14,137.49Z" style="fill:#263238"></path><path d="M394,136.07s4.34-4.35,6.38-2.72-1.84,8.37-4.66,8.89a2.73,2.73,0,0,1-3.35-2.08Z" style="fill: rgb(255, 196, 192);"></path><path d="M399.2,135.26s0,.06,0,.07c-2,.42-3.27,2-4.26,3.63a1.5,1.5,0,0,1,2.29,0s0,.11-.07.09a1.67,1.67,0,0,0-1.92.26,7.88,7.88,0,0,0-1.13,1.31c-.12.16-.4,0-.3-.17l0,0C394.2,138,396.62,135.05,399.2,135.26Z" style="fill:#263238"></path><path d="M378.2,160.92l8.94,27.68c.35.81,0,1.51-.83,1.56l-14.52,1a2.36,2.36,0,0,1-2.11-1.36l-8.94-27.68c-.35-.81,0-1.51.83-1.56l14.52-.95A2.33,2.33,0,0,1,378.2,160.92Z" style="fill:#37474f"></path><path d="M376.48,161l8.93,27.68c.36.81,0,1.51-.82,1.56l-14.53,1a2.36,2.36,0,0,1-2.11-1.37L359,162.16c-.36-.8,0-1.5.82-1.55l14.53-1A2.34,2.34,0,0,1,376.48,161Z" style="fill:#455a64"></path><path d="M372.58,162.57a1.24,1.24,0,1,0,1.13-1.34A1.23,1.23,0,0,0,372.58,162.57Z" style="fill:#263238"></path><path d="M433.3,222.59c-6.34.88-14.24-4.05-34.74-19-2.84-2.08,6.39-26,9.53-24,4,2.59,18.76,13.5,19.74,14.43C436.11,201.92,437.61,222,433.3,222.59Z" style="fill: rgb(255, 196, 192);"></path><path d="M415.41,186.86s-5.83-8.2-10.23-11.55a35.56,35.56,0,0,0-15.77-6.38c-6.14-.9-21.62,1.16-21.81,5.72-.16,4.13,15.55,1.22,15.55,1.22s-16.51.32-15.8,5.33,18.77.6,18.77.6-17,.71-15.41,5.76c1.17,3.81,17.75.74,17.75.74s-14.57.71-13.54,4.68c1.15,4.4,16.63,2.52,16.63,2.52,4.34,9.66,10.56,12.38,15.08,13.88C407.72,209.75,415.41,186.86,415.41,186.86Z" style="fill: rgb(255, 196, 192);"></path><path d="M388.85,175.4c-1.94,0-3.9-.08-5.84.06s-3.87.35-5.78.66a32.94,32.94,0,0,0-7.34,2c4.31-1.34,11.24-2,13.18-2.09s3.86-.38,5.79-.52C388.91,175.47,388.9,175.4,388.85,175.4Z" style="fill:#263238"></path><path d="M389.49,182.38c-2.48.07-4.95,0-7.43.22s-4.79.55-7.23.9c-.19,0-.12.11.07.1,2.46-.25,4.76-.29,7.22-.5s4.91-.53,7.37-.66C389.53,182.44,389.52,182.38,389.49,182.38Z" style="fill:#263238"></path><path d="M391.11,188.28a55.33,55.33,0,0,0-11.33,1.2c-.18,0-.07.14.12.12,3.76-.47,6.7-.87,11.2-1.19C391.18,188.41,391.19,188.28,391.11,188.28Z" style="fill:#263238"></path><path d="M415.41,183.6,407.34,213s21.67,12.76,26.46,9.39,1.65-20.37-3.77-26.86C427.77,192.86,415.41,183.6,415.41,183.6Z" style="fill:#FFC727"></path><path d="M419.71,203.1A14.5,14.5,0,0,0,418.4,207a14.69,14.69,0,0,0-.26,4.15,14.33,14.33,0,0,0,1.31-3.95A14.64,14.64,0,0,0,419.71,203.1Z" style="fill:#fff"></path><path d="M415.15,184.58l.31-1-.08,0c2.05,1.67,4.11,3.33,6.13,5s4.06,3.37,6,5.15a30.06,30.06,0,0,1,2.76,2.77,23.73,23.73,0,0,1,2.18,3.23,24.79,24.79,0,0,1,2.61,7.38,20.76,20.76,0,0,0-2.11-7.64,18.73,18.73,0,0,0-2.16-3.39,30.43,30.43,0,0,0-2.78-2.89c-2-1.79-4-3.46-6.1-5.08s-4.24-3.16-6.45-4.63l-.06-.05v.08Z" style="fill:#263238"></path><path d="M420.16,190.9c-.49,1.45-.87,2.94-1.27,4.41s-.81,3-1.18,4.44c-.75,3-1.49,5.93-2.18,8.91-.19.81-.38,1.63-.56,2.45s-.27,1.77-.46,2.64a.05.05,0,1,0,.1,0c.2-.73.5-1.42.71-2.15s.43-1.5.63-2.25c.39-1.48.77-3,1.15-4.44.75-3,1.49-5.93,2.15-8.92.37-1.68.8-3.37,1.07-5.08A.08.08,0,0,0,420.16,190.9Z" style="fill:#263238"></path><path d="M407.34,213c-.14.28-.13.05-.1-.12a25.3,25.3,0,0,1,.67-2.49c0-.09.17-.25.12.07A24.37,24.37,0,0,1,407.34,213Z" style="fill:#263238"></path></g><g id="freepik--speech-bubble--inject-426"><path d="M455.43,97.27a21.61,21.61,0,0,1-36.13,13.67l-10.81,1.59,5.41-9.35a21.39,21.39,0,0,1-1.48-10.41,21.62,21.62,0,0,1,43,4.5Z" style="fill:#fff"></path><path d="M455.43,97.27a21.82,21.82,0,0,1-4.37,11,26.22,26.22,0,0,1-2,2.26,24.73,24.73,0,0,1-2.28,1.93,21.29,21.29,0,0,1-5.21,2.9,21.57,21.57,0,0,1-5.83,1.39,23.12,23.12,0,0,1-3,.06,18.85,18.85,0,0,1-3-.32,21.72,21.72,0,0,1-10.7-5.28l.26.08-10.81,1.66-.78.12.4-.69,5.38-9.37,0,.37a21.87,21.87,0,0,1,1.33-19.27,22.13,22.13,0,0,1,6.77-7.21,21.84,21.84,0,0,1,33.82,20.41Zm0,0a21.39,21.39,0,0,0-24.52-23.4A21.18,21.18,0,0,0,422,77.4a22.18,22.18,0,0,0-6.47,7.06,21.17,21.17,0,0,0-2.74,9.14,21.49,21.49,0,0,0,1.52,9.42l.08.2-.11.17-5.44,9.33-.39-.57,10.83-1.51.15,0,.1.1a21.39,21.39,0,0,0,10.36,5.33,19.07,19.07,0,0,0,2.93.36,20.89,20.89,0,0,0,3,0,21.14,21.14,0,0,0,5.77-1.27,20.11,20.11,0,0,0,5.22-2.81,19.86,19.86,0,0,0,4.25-4.14A21.79,21.79,0,0,0,455.43,97.27Z" style="fill:#263238"></path><polygon points="431.39 107.35 422.16 98 425.26 94.94 430.65 100.4 441.86 82.83 445.54 85.17 431.39 107.35" style="fill:#FFC727"></polygon></g></svg>