<?xml version="1.0" standalone="no"?>
<!DOCTYPE svg PUBLIC "-//W3C//DTD SVG 20010904//EN"
 "http://www.w3.org/TR/2001/REC-SVG-20010904/DTD/svg10.dtd">
<svg version="1.0" xmlns="http://www.w3.org/2000/svg"
 width="48.000000pt" height="98.000000pt" viewBox="0 0 48.000000 98.000000"
 preserveAspectRatio="xMidYMid meet">

<g transform="translate(0.000000,98.000000) scale(0.100000,-0.100000)"
fill="#000000" stroke="none">
<path d="M203 961 c-17 -11 -34 -29 -38 -41 -4 -12 -9 -19 -12 -16 -4 3 -13 0
-21 -7 -13 -9 -14 -9 -8 1 5 8 0 12 -16 12 -19 0 -39 -9 -76 -35 -10 -8 -11
-59 -1 -71 7 -8 11 -50 11 -103 0 -77 -3 -92 -21 -110 -12 -12 -21 -31 -20
-43 1 -18 3 -16 10 10 14 48 39 42 39 -9 0 -35 -3 -40 -17 -35 -15 5 -14 3 2
-10 18 -14 20 -14 23 5 3 19 4 19 33 3 16 -9 32 -25 35 -35 9 -28 64 -57 109
-57 45 0 100 29 109 57 7 22 66 58 66 40 0 -32 -23 -90 -47 -118 -51 -60 -136
-76 -208 -39 -51 26 -55 20 -5 -9 22 -12 40 -26 40 -30 0 -5 -14 -15 -32 -22
-35 -14 -98 -66 -98 -80 0 -5 12 4 28 21 34 38 102 68 102 45 0 -14 29 -35 49
-35 6 0 20 9 32 21 18 18 24 19 49 9 15 -6 38 -22 50 -35 21 -22 21 -24 5 -58
-10 -21 -23 -34 -33 -33 -11 1 -17 -6 -17 -19 0 -22 -39 -50 -55 -40 -6 3 -10
1 -10 -5 0 -7 -21 -8 -65 -4 -55 6 -69 4 -85 -11 -11 -10 -20 -24 -20 -32 0
-7 -4 -13 -9 -13 -15 0 -41 42 -41 67 0 13 -4 23 -10 23 -24 0 9 -83 39 -100
31 -16 241 -24 290 -10 60 16 84 52 79 118 -6 67 -46 127 -108 159 -25 13 -46
28 -48 33 -2 5 15 18 37 29 41 21 91 83 91 112 0 9 14 30 30 47 35 38 36 42
10 75 -24 30 -25 53 -5 73 18 18 19 49 2 88 -11 26 -11 32 4 47 35 35 -1 82
-71 96 l-35 6 35 12 34 12 -27 17 c-18 12 -40 17 -66 14 -32 -3 -41 0 -44 14
-7 23 -34 23 -74 -1z m-101 -68 c-6 -2 -10 -8 -8 -12 3 -4 -5 -8 -17 -8 -12
-1 -23 -7 -25 -13 -2 -5 -8 -10 -14 -10 -6 0 -5 7 3 16 14 16 46 33 64 33 6
-1 4 -3 -3 -6z m167 -128 c13 4 31 -2 51 -16 38 -29 38 -41 0 -27 -35 12 -60
5 -60 -16 0 -20 57 -31 76 -15 12 10 18 9 33 -7 18 -20 47 -121 38 -131 -3 -3
-21 0 -40 6 -28 9 -33 16 -30 34 6 33 -28 61 -64 53 -15 -4 -33 -7 -40 -8 -6
-1 -9 -8 -6 -15 5 -11 8 -11 23 2 31 28 80 13 80 -26 0 -20 -41 -28 -123 -23
-34 2 -71 -3 -92 -12 -54 -22 -55 -21 -48 67 5 72 9 84 35 110 16 16 36 29 43
29 8 0 22 11 32 24 l18 23 27 -29 c20 -21 33 -28 47 -23z m181 -194 c12 -23 5
-47 -16 -55 -11 -4 -14 4 -14 34 0 43 13 52 30 21z m-200 -16 c0 -8 -7 -15
-15 -15 -8 0 -15 7 -15 15 0 8 7 15 15 15 8 0 15 -7 15 -15z m-10 -45 c0 -5
-4 -10 -10 -10 -5 0 -10 5 -10 10 0 6 5 10 10 10 6 0 10 -4 10 -10z m-34 -27
c-10 -10 -19 5 -10 18 6 11 8 11 12 0 2 -7 1 -15 -2 -18z m74 6 c0 -5 -4 -9
-10 -9 -5 0 -10 7 -10 16 0 8 5 12 10 9 6 -3 10 -10 10 -16z m-106 -10 c-3 -5
-10 -7 -15 -3 -5 3 -7 10 -3 15 3 5 10 7 15 3 5 -3 7 -10 3 -15z m136 5 c0 -8
-4 -12 -10 -9 -5 3 -10 10 -10 16 0 5 5 9 10 9 6 0 10 -7 10 -16z m-43 -30 c4
-12 -53 -27 -69 -18 -5 3 -4 12 3 20 14 17 60 15 66 -2z m1 -151 c-3 -24 -8
-28 -33 -28 -25 0 -30 4 -33 28 -3 25 -1 27 33 27 34 0 36 -2 33 -27z"/>
<path d="M143 703 c-24 -5 -31 -29 -11 -35 27 -9 68 5 68 23 0 19 -10 21 -57
12z"/>
<path d="M173 643 c9 -2 23 -2 30 0 6 3 -1 5 -18 5 -16 0 -22 -2 -12 -5z"/>
<path d="M191 604 c0 -11 3 -14 6 -6 3 7 2 16 -1 19 -3 4 -6 -2 -5 -13z"/>
<path d="M270 606 c0 -9 5 -16 10 -16 6 0 10 4 10 9 0 6 -4 13 -10 16 -5 3
-10 -1 -10 -9z"/>
<path d="M60 472 c0 -17 31 -84 36 -79 3 2 -5 24 -16 48 -11 24 -20 38 -20 31z"/>
<path d="M36 184 c-4 -9 -4 -19 -1 -22 2 -3 7 3 11 12 4 9 4 19 1 22 -2 3 -7
-3 -11 -12z"/>
<path d="M56 114 c-9 -24 -4 -24 18 -3 16 16 17 19 4 19 -9 0 -19 -7 -22 -16z"/>
</g>
</svg>
