<svg xmlns="http://www.w3.org/2000/svg" viewBox="0 0 500 500"><g id="freepik--background-complete--inject-180"><path d="M472.74,199.69s0-.11,0-.3,0-.5,0-.85c0-.77,0-1.85,0-3.24,0-2.85-.06-6.94-.11-12.1l.19.19-62.34.12c.14-.14-.32.32.32-.31h0v8.37c0,2.75,0,5.46,0,8.11l-.31-.31,44.43.14,13.11.09,3.55,0,.92,0,.33,0a1.38,1.38,0,0,1-.29,0l-.89,0-3.47,0-13,.09L410.4,200h-.31v-.31c0-2.65,0-5.36,0-8.11v-8.37h0l.32-.32,62.34.12h.2v.2c-.05,5.21-.09,9.34-.11,12.21,0,1.37,0,2.44-.05,3.21,0,.33,0,.6,0,.81S472.75,199.7,472.74,199.69Z" style="fill:#e0e0e0"></path><rect x="44.02" y="360.73" width="58.65" height="15.52" style="fill:#ebebeb"></rect><path d="M77.87,392.59s0-.1,0-.28,0-.47,0-.8c0-.73,0-1.75,0-3.05,0-2.68-.06-6.53-.1-11.39l.18.18-58.65.12.3-.3h0V385c0,2.59,0,5.13,0,7.63l-.29-.29,41.8.13,12.33.08,3.34,0,.87,0,.31,0a1.15,1.15,0,0,1-.27,0l-.84,0-3.27,0-12.27.08-42,.13h-.29v-.29c0-2.5,0-5,0-7.63v-7.88h0c.6-.59.17-.16.3-.3l58.65.12h.18v.18c0,4.9-.07,8.79-.1,11.5,0,1.28,0,2.29,0,3,0,.31,0,.56,0,.76A1,1,0,0,1,77.87,392.59Z" style="fill:#e0e0e0"></path><path d="M464.54,424.69a1.58,1.58,0,0,1,0-.28c0-.21,0-.47,0-.79,0-.73,0-1.75,0-3.06,0-2.68,0-6.53-.08-11.38l.15.18-46,.12c.1-.14-.24.29.23-.3h0v7.86c0,2.59,0,5.14,0,7.63l-.22-.29,32.75.13,9.67.09,2.61,0h.68l.25,0s-.07,0-.22,0l-.65,0-2.57,0-9.61.08-32.91.14h-.23v-.3c0-2.49,0-5,0-7.63V409.2h0c.47-.6.13-.17.24-.3l46,.12h.14v.18c0,4.9-.06,8.79-.08,11.49,0,1.29,0,2.29,0,3,0,.32,0,.57,0,.77A1.76,1.76,0,0,1,464.54,424.69Z" style="fill:#e0e0e0"></path><path d="M68.22,184.51s0-.1,0-.28,0-.47,0-.8c0-.73,0-1.74,0-3.05,0-2.68,0-6.53-.08-11.38l.14.18-45.95.11.23-.29h0v7.86c0,2.59,0,5.14,0,7.63l-.23-.29,32.76.13,9.66.09,2.62,0,.68,0,.24,0s-.06,0-.21,0l-.65,0-2.57,0-9.61.08-32.92.13H22V169h0c.47-.6.13-.17.24-.3l46,.11h.15V169c0,4.9-.06,8.78-.08,11.49,0,1.29,0,2.29,0,3,0,.32,0,.57,0,.77S68.23,184.52,68.22,184.51Z" style="fill:#e0e0e0"></path><path d="M384,47.81a2,2,0,0,1,0-.29v-.79c0-.73,0-1.75,0-3.06,0-2.67,0-6.53-.07-11.38l.14.18-46,.12c.1-.14-.24.3.23-.3h0V47.8l-.23-.29,32.75.14,9.67.08,2.61,0,.69,0a.73.73,0,0,1,.24,0h-.21l-.66,0-2.56,0-9.62.08L338,48.1h-.23V40.17c0-1.29,0-2.6,0-3.91v-4h0c.47-.6.14-.17.24-.3l46,.12h.14v.18c0,4.9-.06,8.79-.08,11.49,0,1.29,0,2.29,0,3,0,.32,0,.57,0,.77A2.28,2.28,0,0,1,384,47.81Z" style="fill:#e0e0e0"></path><path d="M464.54,322a1.58,1.58,0,0,1,0-.28c0-.21,0-.47,0-.8,0-.73,0-1.74,0-3.05,0-2.68,0-6.53-.08-11.38l.15.18-46,.12c.1-.14-.24.29.23-.3h0v7.86c0,2.59,0,5.14,0,7.63l-.22-.29,32.75.13,9.67.09,2.61,0,.68,0,.25,0s-.07,0-.22,0l-.65,0-2.57,0-9.61.08-32.91.13h-.23V322c0-2.49,0-5,0-7.63v-7.86h0c.47-.6.13-.17.24-.3l46,.11h.14v.19c0,4.9-.06,8.79-.08,11.49,0,1.29,0,2.29,0,3,0,.32,0,.57,0,.77A1.76,1.76,0,0,1,464.54,322Z" style="fill:#e0e0e0"></path><rect x="429.66" y="166.36" width="53.81" height="16.49" style="fill:#ebebeb"></rect><rect x="69.84" y="42.6" width="58.65" height="15.52" style="fill:#ebebeb"></rect><path d="M103.69,74.45a.9.9,0,0,1,0-.28c0-.2,0-.47,0-.79,0-.73,0-1.75-.05-3.06,0-2.68,0-6.53-.1-11.38l.19.18L45,59.24c.13-.14-.3.3.29-.3h0v15.5l-.3-.29,41.8.14,12.34.08,3.33,0,.88,0h.31a.84.84,0,0,1-.28,0l-.83,0-3.28,0L87,74.61l-42,.14h-.29V59h0l.3-.3,58.65.12h.18v.18c-.05,4.9-.08,8.79-.1,11.49,0,1.29,0,2.29,0,3,0,.32,0,.57,0,.77A1.76,1.76,0,0,1,103.69,74.45Z" style="fill:#e0e0e0"></path></g><g id="freepik--Floor--inject-180"><path d="M481.43,465.67c0,.14-105,.26-234.42.26s-234.44-.12-234.44-.26,104.94-.26,234.44-.26S481.43,465.52,481.43,465.67Z" style="fill:#263238"></path></g><g id="freepik--Circle--inject-180"><ellipse cx="242.14" cy="260.53" rx="207.5" ry="205.13" style="fill:#90CAF9"></ellipse><g style="opacity:0.7000000000000001"><ellipse cx="242.14" cy="260.53" rx="207.5" ry="205.13" style="fill:#fff"></ellipse></g><path d="M264.94,287.24a6.1,6.1,0,1,1-6.1-6.1A6.1,6.1,0,0,1,264.94,287.24Z" style="fill:#fff"></path><path d="M225.09,309.57a3,3,0,1,1-3.05-3.05A3.06,3.06,0,0,1,225.09,309.57Z" style="fill:#fff"></path><path d="M213.7,63.57c0,.2-3,.88-8.48,2.23a235.4,235.4,0,0,0-22.78,6.88c-2.39.8-4.81,1.82-7.38,2.79s-5.15,2.15-7.87,3.31-5.47,2.46-8.26,3.91c-1.4.71-2.84,1.41-4.27,2.16l-4.32,2.34A209.82,209.82,0,0,0,85.3,143l-3,3.91c-1,1.3-1.86,2.61-2.78,3.89-1.86,2.53-3.47,5.13-5.13,7.57s-3.1,4.9-4.48,7.27-2.73,4.63-3.88,6.86a237,237,0,0,0-10.28,21.47c-2.16,5.19-3.3,8.1-3.5,8a7.79,7.79,0,0,1,.53-2.21c.44-1.42,1-3.54,2-6.19a183.63,183.63,0,0,1,9.6-22c1.1-2.28,2.45-4.57,3.76-7s2.86-4.87,4.4-7.43,3.22-5.14,5.07-7.72c.91-1.3,1.81-2.64,2.77-4l3-4a203.31,203.31,0,0,1,65.79-56.4l4.39-2.33c1.46-.74,2.92-1.42,4.34-2.12,2.84-1.44,5.7-2.6,8.41-3.84s5.41-2.24,8-3.2,5.07-1.91,7.5-2.66A184,184,0,0,1,205,64.81c2.77-.58,5-.84,6.43-1.06A7.23,7.23,0,0,1,213.7,63.57Z" style="fill:#fff"></path><path d="M43.18,256.49c-.69.05-1.7-7.66-.53-17.1s4-16.7,4.62-16.48-.93,7.59-2,16.79S43.93,256.45,43.18,256.49Z" style="fill:#fff"></path><path d="M178.44,375.21a31.53,31.53,0,0,1,8.4-20.86C189.38,364.82,178.44,375.21,178.44,375.21Z" style="fill:#90CAF9"></path><path d="M190.63,369.3a31.63,31.63,0,0,1,22.48-.62C204.53,375.19,190.63,369.3,190.63,369.3Z" style="fill:#90CAF9"></path><path d="M192,362.52a24.89,24.89,0,0,1,3.06-17.47C198.76,352.72,192,362.52,192,362.52Z" style="fill:#90CAF9"></path><path d="M144.88,338.05c17.82,4.75,27.38,20.24,27.38,20.24C157,358.3,144.88,338.05,144.88,338.05Z" style="fill:#90CAF9"></path><path d="M173.34,345.36c-.92-19.21,17.85-40.95,17.85-40.95-2.84,23.85-17.85,40.95-17.85,40.95" style="fill:#90CAF9"></path><path d="M173.25,290.65a51.45,51.45,0,0,1-6.75,27.52C163.85,305.81,173.25,290.65,173.25,290.65Z" style="fill:#90CAF9"></path><path d="M166,329.68c-14-1.51-21.68-15.48-21.68-15.48C161.31,319,166,329.68,166,329.68Z" style="fill:#90CAF9"></path><path d="M135.72,388.4a31.54,31.54,0,0,1,22.08-4.25C150.38,392,135.72,388.4,135.72,388.4Z" style="fill:#90CAF9"></path><path d="M172.11,394.71a20.65,20.65,0,0,1-9.44,10.63C163.27,398.86,172.11,394.71,172.11,394.71Z" style="fill:#90CAF9"></path><path d="M170.31,392.64a24.94,24.94,0,0,1-16.8,3C158.92,390,170.31,392.64,170.31,392.64Z" style="fill:#90CAF9"></path><path d="M177.49,418.49s0-.09,0-.28,0-.5,0-.84c0-.79,0-1.86,0-3.22s0-3.1,0-5.09,0-4.24-.14-6.74c-.12-5-.47-10.93-1-17.51s-1.37-13.8-2.47-21.34c-2.22-15.09-5.25-28.57-7.69-38.25-1.23-4.85-2.27-8.76-3-11.45-.35-1.3-.63-2.34-.84-3.1-.08-.33-.15-.6-.2-.82a.75.75,0,0,1-.05-.28,1,1,0,0,1,.11.27c.07.21.16.47.26.79.24.75.55,1.78,1,3.08.83,2.67,1.94,6.56,3.22,11.39a354.64,354.64,0,0,1,7.88,38.28c1.1,7.55,1.88,14.79,2.43,21.38s.78,12.55.85,17.55c.08,2.5,0,4.76,0,6.75s0,3.7-.08,5.1-.09,2.43-.11,3.21c0,.34,0,.61,0,.84A.9.9,0,0,1,177.49,418.49Z" style="fill:#90CAF9"></path><path d="M151.71,377.84c.1-.15,5.78,3.57,12.68,8.3s12.42,8.69,12.32,8.83-5.77-3.57-12.68-8.31S151.61,378,151.71,377.84Z" style="fill:#90CAF9"></path><path d="M176.71,379.88a5,5,0,0,1,.87-.95l2.53-2.44,8.44-7.91,8.44-7.92,2.56-2.4a5,5,0,0,1,1-.82,5.24,5.24,0,0,1-.82,1c-.55.62-1.38,1.48-2.42,2.54-2.08,2.12-5,5-8.32,8.06s-6.34,5.83-8.57,7.78c-1.11,1-2,1.76-2.66,2.29A4.54,4.54,0,0,1,176.71,379.88Z" style="fill:#90CAF9"></path><path d="M133.68,368.73s14.51-.27,20.65,11.15A26.12,26.12,0,0,1,133.68,368.73Z" style="fill:#90CAF9"></path><path d="M153.5,362.91s11.82,8.43,9.94,21.26A26.15,26.15,0,0,1,153.5,362.91Z" style="fill:#90CAF9"></path><path d="M215.75,342.14s-4.67,16.24-19.48,19.16A30.42,30.42,0,0,1,215.75,342.14Z" style="fill:#90CAF9"></path><path d="M147.05,281.74s18.52,12.08,16.47,31.72A39.8,39.8,0,0,1,147.05,281.74Z" style="fill:#90CAF9"></path><path d="M208.68,389.17a6.51,6.51,0,0,1-1.2,1c-.8.58-1.94,1.44-3.32,2.54a81,81,0,0,0-18.32,20.4c-.94,1.49-1.68,2.72-2.17,3.57a7.13,7.13,0,0,1-.83,1.3,7.06,7.06,0,0,1,.61-1.41c.43-.9,1.11-2.16,2-3.69a70.44,70.44,0,0,1,18.43-20.52c1.42-1.06,2.6-1.88,3.45-2.39A8,8,0,0,1,208.68,389.17Z" style="fill:#90CAF9"></path><path d="M192.57,401.24a31.57,31.57,0,0,1,4.25-22.08C198.81,392.93,192.57,401.24,192.57,401.24Z" style="fill:#90CAF9"></path><path d="M205,394.45a22.94,22.94,0,0,1,16.16-2.51C212.25,396.68,205,394.45,205,394.45Z" style="fill:#90CAF9"></path><path d="M150.49,420l4,26.52c14.81,6.57,29.54,11.72,44.13,14.73l8.51-40.59Z" style="fill:#90CAF9"></path><path d="M145.86,411v8.54a3.35,3.35,0,0,0,3.36,3.36h58.44a3.36,3.36,0,0,0,3.37-3.36V411Z" style="fill:#90CAF9"></path><g style="opacity:0.6000000000000001"><path d="M186.84,354.35a31.53,31.53,0,0,0-8.4,20.86S189.38,364.82,186.84,354.35Z" style="fill:#fff"></path></g><g style="opacity:0.6000000000000001"><path d="M213.11,368.68a31.63,31.63,0,0,0-22.48.62S204.53,375.19,213.11,368.68Z" style="fill:#fff"></path></g><g style="opacity:0.6000000000000001"><path d="M195.08,345.05A24.89,24.89,0,0,0,192,362.52S198.76,352.72,195.08,345.05Z" style="fill:#fff"></path></g><g style="opacity:0.6000000000000001"><path d="M144.88,338.05S157,358.3,172.26,358.29C172.26,358.29,162.7,342.8,144.88,338.05Z" style="fill:#fff"></path></g><g style="opacity:0.6000000000000001"><path d="M191.19,304.41s-18.77,21.74-17.85,40.95C173.34,345.36,188.35,328.26,191.19,304.41Z" style="fill:#fff"></path></g><g style="opacity:0.6000000000000001"><path d="M173.25,290.65s-9.4,15.16-6.75,27.52A51.45,51.45,0,0,0,173.25,290.65Z" style="fill:#fff"></path></g><g style="opacity:0.6000000000000001"><path d="M144.33,314.2s7.64,14,21.68,15.48C166,329.68,161.31,319,144.33,314.2Z" style="fill:#fff"></path></g><g style="opacity:0.6000000000000001"><path d="M135.72,388.4s14.66,3.55,22.08-4.25A31.54,31.54,0,0,0,135.72,388.4Z" style="fill:#fff"></path></g><g style="opacity:0.6000000000000001"><path d="M172.11,394.71s-8.84,4.15-9.44,10.63A20.65,20.65,0,0,0,172.11,394.71Z" style="fill:#fff"></path></g><g style="opacity:0.6000000000000001"><path d="M153.51,395.64a24.94,24.94,0,0,0,16.8-3S158.92,390,153.51,395.64Z" style="fill:#fff"></path></g><g style="opacity:0.6000000000000001"><path d="M188.55,368.58l-8.44,7.91-2.53,2.44a5,5,0,0,0-.87.95,4.54,4.54,0,0,0,1-.77c.64-.53,1.55-1.31,2.66-2.29,2.23-1.95,5.27-4.69,8.57-7.78s6.14-5.85,8.21-8c14.08-3.4,18.56-18.95,18.56-18.95a30.42,30.42,0,0,0-19.48,19.16h0Z" style="fill:#fff"></path></g><g style="opacity:0.6000000000000001"><path d="M154.33,379.88v0c2.25,1.63,5.75,4.09,9.71,6.8,6.91,4.74,12.58,8.46,12.68,8.31s-5.42-4.09-12.32-8.83c-4.35-3-8.21-5.55-10.5-7-6.36-10.64-20.21-10.39-20.21-10.39A26.12,26.12,0,0,0,154.33,379.88Z" style="fill:#fff"></path></g><g style="opacity:0.6000000000000001"><path d="M163.44,384.17c1.88-12.83-9.94-21.26-9.94-21.26A26.15,26.15,0,0,0,163.44,384.17Z" style="fill:#fff"></path></g><g style="opacity:0.6000000000000001"><path d="M194.13,402.1a83.32,83.32,0,0,1,10-9.42c1.38-1.1,2.52-2,3.32-2.54a6.51,6.51,0,0,0,1.2-1,8,8,0,0,0-1.34.77c-.85.51-2,1.33-3.45,2.39a70.18,70.18,0,0,0-10.23,9.35,72.66,72.66,0,0,0-7,9.29h-8.86c0-.61,0-1.24,0-1.91,0-2,0-4.25,0-6.75-.07-5-.37-10.95-.85-17.55s-1.33-13.83-2.43-21.38a354.64,354.64,0,0,0-7.88-38.28c-1.28-4.83-2.39-8.72-3.22-11.39l-.14-.47.33.22c2-19.64-16.47-31.72-16.47-31.72A40,40,0,0,0,162.9,313c.06.24.13.48.2.74.75,2.69,1.79,6.6,3,11.45,2.44,9.68,5.47,23.16,7.69,38.25,1.1,7.54,1.9,14.76,2.47,21.34s.86,12.52,1,17.51c.11,2.5.11,4.76.14,6.74,0,.67,0,1.3,0,1.91H145.86v8.54a3.35,3.35,0,0,0,3.36,3.36h1.7l3.6,23.66a202.85,202.85,0,0,0,44.13,14.73l8-38.39h1a3.36,3.36,0,0,0,3.37-3.36V411H187.22A82.41,82.41,0,0,1,194.13,402.1Z" style="fill:#fff"></path></g><g style="opacity:0.6000000000000001"><path d="M192.57,401.24s6.24-8.31,4.25-22.08A31.57,31.57,0,0,0,192.57,401.24Z" style="fill:#fff"></path></g><g style="opacity:0.6000000000000001"><path d="M221.19,391.94A22.94,22.94,0,0,0,205,394.45S212.25,396.68,221.19,391.94Z" style="fill:#fff"></path></g><rect x="150.32" y="103.51" width="61.21" height="63.81" style="fill:#90CAF9"></rect><g style="opacity:0.6000000000000001"><rect x="150.32" y="103.51" width="61.21" height="63.81" style="fill:#fff"></rect></g><rect x="158.55" y="112.21" width="44.46" height="46.07" style="fill:#90CAF9"></rect><g style="opacity:0.7000000000000001"><rect x="158.55" y="112.21" width="44.46" height="46.07" style="fill:#fff"></rect></g><rect x="173.46" y="127.94" width="14.93" height="14.93" style="fill:#90CAF9"></rect><g style="opacity:0.6000000000000001"><rect x="173.46" y="127.94" width="14.93" height="14.93" style="fill:#fff"></rect></g><rect x="234.32" y="85.64" width="41.61" height="43.38" style="fill:#90CAF9"></rect><g style="opacity:0.6000000000000001"><rect x="234.32" y="85.64" width="41.61" height="43.38" style="fill:#fff"></rect></g><rect x="239.91" y="91.56" width="30.23" height="31.32" style="fill:#90CAF9"></rect><g style="opacity:0.7000000000000001"><rect x="239.91" y="91.56" width="30.23" height="31.32" style="fill:#fff"></rect></g><rect x="250.05" y="102.25" width="10.15" height="10.15" style="fill:#90CAF9"></rect><g style="opacity:0.6000000000000001"><rect x="250.05" y="102.25" width="10.15" height="10.15" style="fill:#fff"></rect></g></g><g id="freepik--Text--inject-180"><path d="M85.91,216.4a11.17,11.17,0,0,1-4.32-4.17,12.21,12.21,0,0,1,0-12,11,11,0,0,1,4.34-4.18,12.74,12.74,0,0,1,6.2-1.52,12.91,12.91,0,0,1,4.9.9,10,10,0,0,1,3.79,2.66l-2.13,2a8.52,8.52,0,0,0-6.43-2.71,9.35,9.35,0,0,0-4.6,1.15,8.24,8.24,0,0,0-3.21,3.15,9.25,9.25,0,0,0,0,9,8.24,8.24,0,0,0,3.21,3.15,9.24,9.24,0,0,0,4.6,1.15,8.52,8.52,0,0,0,6.43-2.75l2.13,2.06A10.19,10.19,0,0,1,97,217a12.85,12.85,0,0,1-4.91.91A12.56,12.56,0,0,1,85.91,216.4Z" style="fill:#263238"></path><path d="M109.07,216.4a11.23,11.23,0,0,1-4.35-4.19,12,12,0,0,1,0-12,11.23,11.23,0,0,1,4.35-4.19,13.49,13.49,0,0,1,12.44,0,11,11,0,0,1,4.34,4.18,12.21,12.21,0,0,1,0,12,11.09,11.09,0,0,1-4.34,4.17,13.49,13.49,0,0,1-12.44,0Zm10.76-2.53a8.41,8.41,0,0,0,3.17-3.15,9.25,9.25,0,0,0,0-9,8.41,8.41,0,0,0-3.17-3.15,9,9,0,0,0-4.52-1.15,9.15,9.15,0,0,0-4.55,1.15,8.28,8.28,0,0,0-3.2,3.15,9.25,9.25,0,0,0,0,9,8.28,8.28,0,0,0,3.2,3.15,9.05,9.05,0,0,0,4.55,1.15A8.89,8.89,0,0,0,119.83,213.87Z" style="fill:#263238"></path><path d="M153.6,217.66l0-16.65-8.26,13.88h-1.5l-8.26-13.78v16.55h-3.13V194.81h2.67l9.53,16.06,9.4-16.06h2.68l0,22.85Z" style="fill:#263238"></path><path d="M166.85,197.65v8h11.46v2.8H166.85v9.24h-3.26V194.81h16.12v2.84Z" style="fill:#263238"></path><path d="M188.14,216.4a11.19,11.19,0,0,1-4.36-4.19,12.09,12.09,0,0,1,0-12,11.19,11.19,0,0,1,4.36-4.19,13.47,13.47,0,0,1,12.43,0,11.14,11.14,0,0,1,4.35,4.18,12.28,12.28,0,0,1,0,12,11.19,11.19,0,0,1-4.35,4.17,13.47,13.47,0,0,1-12.43,0Zm10.75-2.53a8.34,8.34,0,0,0,3.17-3.15,9.25,9.25,0,0,0,0-9,8.34,8.34,0,0,0-3.17-3.15,9,9,0,0,0-4.52-1.15,9.18,9.18,0,0,0-4.55,1.15,8.28,8.28,0,0,0-3.2,3.15,9.25,9.25,0,0,0,0,9,8.28,8.28,0,0,0,3.2,3.15,9.08,9.08,0,0,0,4.55,1.15A8.89,8.89,0,0,0,198.89,213.87Z" style="fill:#263238"></path><path d="M226.75,217.66l-4.93-7c-.61.05-1.08.07-1.43.07h-5.65v6.95h-3.26V194.81h8.91a10.58,10.58,0,0,1,7,2.12,7.2,7.2,0,0,1,2.55,5.85,7.64,7.64,0,0,1-1.31,4.5,7.4,7.4,0,0,1-3.72,2.71l5.42,7.67ZM225,206.59a5.25,5.25,0,0,0,0-7.62,7.34,7.34,0,0,0-4.73-1.32h-5.55v10.28h5.55A7.23,7.23,0,0,0,225,206.59Z" style="fill:#263238"></path><path d="M239.42,197.65h-7.84v-2.84h18.9v2.84h-7.83v20h-3.23Z" style="fill:#263238"></path><path d="M116,261.64v9.1H79.68v-7.18l20.45-24.27H80.2v-9.1h34.93v7.18L94.68,261.64Z" style="fill:#263238"></path><path d="M129.58,268.83a20.74,20.74,0,0,1,0-36.73,25.93,25.93,0,0,1,23.12,0,20.74,20.74,0,0,1,0,36.73,25.93,25.93,0,0,1-23.12,0Zm17.12-8.23a10.39,10.39,0,0,0,3.94-4.08,13.37,13.37,0,0,0,0-12.11,10.45,10.45,0,0,0-3.94-4.08,11.38,11.38,0,0,0-11.12,0,10.39,10.39,0,0,0-3.94,4.08,13.37,13.37,0,0,0,0,12.11,10.32,10.32,0,0,0,3.94,4.08,11.38,11.38,0,0,0,11.12,0Z" style="fill:#263238"></path><path d="M208.28,230.19v40.55h-9.45l-17.9-21.61v21.61H169.7V230.19h9.44L197,251.8V230.19Z" style="fill:#263238"></path><path d="M248.94,261.88v8.86H216.38V230.19h31.81v8.86H227.74v6.84h18v8.57h-18v7.42Z" style="fill:#263238"></path></g><g id="freepik--Plant--inject-180"><path d="M70.34,406.18a11.8,11.8,0,0,1,8.19,4.28,20.91,20.91,0,0,1,4.12,8.48c1.53,5.93.5,12.91-1.24,18.79-6.39-2.35-10.29-9.22-12-12.83-2.78-5.7-4.33-17.7,1-18.72" style="fill:#90CAF9"></path><path d="M90.57,445a10,10,0,0,1-.38-10.1,13.34,13.34,0,0,1,8.11-6.4c1.56-.47,3.38-.66,4.73.26a4.33,4.33,0,0,1,1.63,4.06,8.72,8.72,0,0,1-1.88,4.12c-3.16,4.2-7,7.68-12.21,8.06" style="fill:#90CAF9"></path><path d="M91.11,464.78a7.07,7.07,0,0,1-.28-1.23c-.16-.88-.38-2-.63-3.39a35.26,35.26,0,0,1-.6-11.34,21.63,21.63,0,0,1,4.29-10.46,14.52,14.52,0,0,1,2.45-2.44c.32-.26.6-.42.77-.54s.28-.17.29-.16a22.67,22.67,0,0,0-3.26,3.33A22.28,22.28,0,0,0,90,448.89a38,38,0,0,0,.47,11.22c.22,1.44.39,2.6.49,3.41A6.87,6.87,0,0,1,91.11,464.78Z" style="fill:#263238"></path><path d="M72.33,415.21a2.18,2.18,0,0,1,.26.49c.16.37.38.84.64,1.43.56,1.25,1.34,3.06,2.29,5.31,1.89,4.5,4.42,10.76,7,17.73s4.88,13.34,6.44,18c.78,2.32,1.39,4.2,1.8,5.5l.46,1.5a2.13,2.13,0,0,1,.13.54,2.81,2.81,0,0,1-.21-.51l-.54-1.48c-.48-1.33-1.14-3.18-1.94-5.44-1.63-4.6-3.92-10.95-6.55-17.91S77,427.09,75.23,422.56l-2.16-5.36c-.23-.61-.42-1.09-.57-1.47A4.19,4.19,0,0,1,72.33,415.21Z" style="fill:#263238"></path><path d="M83.61,451.62a23.57,23.57,0,0,0-18.18-11.51c-1.9-.16-4.18.14-5,1.84s.25,3.72,1.53,5.13a20.13,20.13,0,0,0,21.75,5.05" style="fill:#90CAF9"></path><path d="M68.27,445.2a5.83,5.83,0,0,1,1.18.06,12.67,12.67,0,0,1,1.39.17,18,18,0,0,1,1.81.36,20.65,20.65,0,0,1,2.15.62,21.41,21.41,0,0,1,2.4.93,26.42,26.42,0,0,1,5,3.05,25.67,25.67,0,0,1,4.16,4.19,22.47,22.47,0,0,1,1.46,2.12,20.92,20.92,0,0,1,1.08,2,16.21,16.21,0,0,1,.74,1.69,10.6,10.6,0,0,1,.46,1.32,6,6,0,0,1,.3,1.15c-.1,0-.54-1.61-1.78-4a18.63,18.63,0,0,0-1.11-1.91,22.76,22.76,0,0,0-1.47-2.07A27,27,0,0,0,82,450.74a28.18,28.18,0,0,0-5-3c-.81-.36-1.59-.71-2.35-1s-1.46-.47-2.11-.66C70,445.4,68.26,445.3,68.27,445.2Z" style="fill:#263238"></path></g><g id="freepik--speech-bubble--inject-180"><path d="M388.63,101.12l8.42-1a27,27,0,1,0-5.46-8v0Z" style="fill:#fff"></path><path d="M388.63,101.12s.08-.2.21-.59.33-1,.58-1.73c.52-1.52,1.27-3.75,2.24-6.66l-.14,0h0a.08.08,0,0,0,.12,0s0-.06,0-.1A27,27,0,0,1,389.48,79a28.11,28.11,0,0,1,.67-4.11,31.41,31.41,0,0,1,1.44-4.22,26.84,26.84,0,0,1,51.28,7.05A27.38,27.38,0,0,1,441.62,90a26.43,26.43,0,0,1-6.11,9.89A26.91,26.91,0,0,1,417,108h-1.15a8.49,8.49,0,0,1-1.13,0l-2.2-.2a34.79,34.79,0,0,1-4.1-.9,26.85,26.85,0,0,1-11.35-6.8.11.11,0,0,0-.07,0l-6.23.78-1.62.21-.56.07.53,0,1.6-.17,6.3-.69-.07,0a27,27,0,0,0,11.4,6.93,35.25,35.25,0,0,0,4.13.93l2.22.21a8.78,8.78,0,0,0,1.15,0h1.16a27.19,27.19,0,0,0,18.71-8.19,26.87,26.87,0,0,0,6.21-10,27.69,27.69,0,0,0,1.27-12.46,27,27,0,0,0-4.79-12.2,11.62,11.62,0,0,0-1-1.31l-1-1.26-1.15-1.16a11.24,11.24,0,0,0-1.19-1.1l-1.25-1c-.41-.35-.88-.61-1.32-.92s-.87-.62-1.34-.88l-1.4-.75a26.8,26.8,0,0,0-11.89-3,27.15,27.15,0,0,0-25.55,16.54,30.16,30.16,0,0,0-1.43,4.27,27,27,0,0,0,1.63,17.37l.14-.09h0a.09.09,0,0,0-.12,0l0,0c-.94,2.94-1.66,5.21-2.15,6.75l-.55,1.72C388.68,100.94,388.63,101.12,388.63,101.12Z" style="fill:#263238"></path><polygon points="402.99 82.19 406.32 78.63 413.17 84.31 425.78 71.32 429.1 74.65 412.9 90.97 402.99 82.19" style="fill:#90CAF9"></polygon></g><g id="freepik--Lines--inject-180"><path d="M267.91,325.74c0,.15-11,.27-24.46.27s-24.46-.12-24.46-.27,10.95-.26,24.46-.26S267.91,325.6,267.91,325.74Z" style="fill:#263238"></path><path d="M293.88,318.13c0,.14-15.14.26-33.81.26s-33.82-.12-33.82-.26,15.14-.26,33.82-.26S293.88,318,293.88,318.13Z" style="fill:#263238"></path></g><g id="freepik--Character--inject-180"><path d="M397.82,429.76l4.31,22.43s24.91,8,25.1,12.61l-47.31.86L376.2,429.9Z" style="fill:#455a64"></path><g style="opacity:0.6000000000000001"><path d="M383.75,451.61a2,2,0,0,0-1.42,2.23,1.89,1.89,0,0,0,2.2,1.42,2.09,2.09,0,0,0,1.49-2.37,2,2,0,0,0-2.46-1.22" style="fill:#fff"></path></g><g style="opacity:0.6000000000000001"><path d="M379.92,465.66l-.77-3.43,46.5.3a3.37,3.37,0,0,1,1.83,2.62Z" style="fill:#fff"></path></g><path d="M402.92,452c0,.23-1.2.32-2.38,1.06s-1.82,1.72-2,1.62.17-1.46,1.61-2.33S403,451.74,402.92,452Z" style="fill:#263238"></path><path d="M408,454.16c.05.23-1,.61-1.81,1.6s-1.07,2-1.31,2-.36-1.35.69-2.56S408,453.93,408,454.16Z" style="fill:#263238"></path><path d="M410.73,460.3c-.22.05-.52-1.14.11-2.42s1.75-1.78,1.85-1.58-.6.87-1.11,1.94S411,460.28,410.73,460.3Z" style="fill:#263238"></path><path d="M400.91,446.74c-.1.21-1.18-.14-2.52-.07s-2.39.46-2.51.26.9-1,2.48-1.09S401,446.55,400.91,446.74Z" style="fill:#263238"></path><path d="M282.69,424.38l-19.76,13.71s14.06,22.06,11.24,25.75l-37.85-30.33,30.13-24.95Z" style="fill:#455a64"></path><g style="opacity:0.6000000000000001"><path d="M253,426.7a2,2,0,0,0-2.52.81,1.91,1.91,0,0,0,.79,2.5,2.08,2.08,0,0,0,2.65-.88,2,2,0,0,0-1.1-2.51" style="fill:#fff"></path></g><g style="opacity:0.6000000000000001"><path d="M236.32,433.51l3.07-2.54,35,30.12a3.33,3.33,0,0,1-.26,3.18Z" style="fill:#fff"></path></g><path d="M263.68,438.42c-.16.18-1.13-.52-2.5-.7s-2.51.16-2.61-.06,1.06-1,2.73-.76S263.86,438.29,263.68,438.42Z" style="fill:#263238"></path><path d="M266.15,443.34c-.11.21-1.15-.16-2.41.08s-2.13.88-2.3.71.59-1.27,2.16-1.53S266.3,443.17,266.15,443.34Z" style="fill:#263238"></path><path d="M264.36,449.84c-.2-.11.32-1.22,1.63-1.8s2.49-.25,2.43,0-1,.29-2.09.78S264.55,450,264.36,449.84Z" style="fill:#263238"></path><path d="M267.1,433.82c-.22.1-.83-.86-1.9-1.67s-2.14-1.17-2.1-1.4,1.35-.22,2.6.75S267.31,433.76,267.1,433.82Z" style="fill:#263238"></path><path d="M326.23,116.52a83.79,83.79,0,0,1-4.14-13.82,29.24,29.24,0,0,1,.63-14.28c.23-.69,2.23-5.36,3-5.31.52,0-.66,4.36-.38,4.8,2.66,4.21,3.52,9.35,3.3,14.33a65.36,65.36,0,0,1-2.37,14.28" style="fill:#263238"></path><path d="M327.78,142.16,326,98.47c-.83-12,4.57-22.86,16.63-23.36l1.31,0a21.38,21.38,0,0,1,21,20c.66,10.49,1.27,22.15,1.1,27.78-.35,11.58-12,13.18-12,13.18s.49,8.4.58,11.8c0,0-1.23.89-12,1.27S327.78,142.16,327.78,142.16Z" style="fill:#b56760"></path><path d="M354.07,136.13a28,28,0,0,1-15-4.72s3.53,8.49,15.11,7.65Z" style="fill:#8a4a43"></path><path d="M361,105.69a1.66,1.66,0,0,1-1.62,1.64,1.58,1.58,0,0,1-1.68-1.52,1.66,1.66,0,0,1,1.62-1.65A1.59,1.59,0,0,1,361,105.69Z" style="fill:#263238"></path><path d="M362,101.55c-.21.21-1.45-.74-3.23-.76s-3.1.84-3.29.62.12-.49.7-.89a4.53,4.53,0,0,1,2.64-.76,4.36,4.36,0,0,1,2.56.87C361.93,101.06,362.11,101.46,362,101.55Z" style="fill:#263238"></path><path d="M345.78,105.69a1.66,1.66,0,0,1-1.62,1.64,1.58,1.58,0,0,1-1.68-1.52,1.66,1.66,0,0,1,1.62-1.65A1.59,1.59,0,0,1,345.78,105.69Z" style="fill:#263238"></path><path d="M345.73,101.82c-.2.21-1.44-.74-3.22-.77s-3.1.84-3.29.62.12-.48.7-.89a4.57,4.57,0,0,1,2.63-.76,4.39,4.39,0,0,1,2.57.88C345.66,101.33,345.84,101.72,345.73,101.82Z" style="fill:#263238"></path><path d="M351.15,115.58a12.24,12.24,0,0,1,2.91-.47c.45,0,.88-.12,1-.43a2.22,2.22,0,0,0-.28-1.36c-.4-1.1-.83-2.26-1.28-3.48-1.78-5-3.06-9-2.86-9.11s1.81,3.9,3.59,8.86c.43,1.22.83,2.39,1.22,3.5a2.62,2.62,0,0,1,.21,1.79,1.13,1.13,0,0,1-.76.65,2.85,2.85,0,0,1-.77.1A12,12,0,0,1,351.15,115.58Z" style="fill:#263238"></path><path d="M345.42,97c-.27.44-2-.14-4.06-.31s-3.87,0-4.05-.43c-.08-.22.29-.61,1.05-.94a6.89,6.89,0,0,1,3.16-.43,6.79,6.79,0,0,1,3,1C345.24,96.3,345.54,96.75,345.42,97Z" style="fill:#263238"></path><path d="M362.71,94.89c-.27.47-1.76.36-3.44.71s-3,.94-3.45.59c-.19-.16-.05-.61.49-1.12A5.52,5.52,0,0,1,359,93.82a5.36,5.36,0,0,1,2.91.2C362.54,94.3,362.82,94.66,362.71,94.89Z" style="fill:#263238"></path><path d="M326.81,107c-.19-.09-7.92-2.5-7.8,5.43s8,6.17,8.06,6S326.81,107,326.81,107Z" style="fill:#b56760"></path><path d="M324.47,115.42s-.14.1-.37.21a1.41,1.41,0,0,1-1,0c-.84-.3-1.57-1.62-1.63-3a4.52,4.52,0,0,1,.36-2,1.6,1.6,0,0,1,1-1.07.69.69,0,0,1,.82.36c.11.22.07.38.11.4s.17-.14.1-.47a.92.92,0,0,0-.32-.49,1.08,1.08,0,0,0-.77-.19,1.93,1.93,0,0,0-1.42,1.25,4.7,4.7,0,0,0-.45,2.22c.08,1.59.91,3.08,2.06,3.39a1.47,1.47,0,0,0,1.26-.23C324.46,115.61,324.5,115.43,324.47,115.42Z" style="fill:#8a4a43"></path><path d="M359.51,82.35c1.27-.74-2.68-4.8-5.86-6.16-4.82-2-12.12-3.21-16.48-1.86-5.26,1.62-9.59,4.35-12.13,9.23a31.2,31.2,0,0,0-3.13,16,9.5,9.5,0,0,0,1.23,4.82c1.15,1.72,3.3,2.78,3.26,5.2a3.34,3.34,0,0,0,.88,2.4c1.49,1.5,3.23,0,4-1.46,1.67-3.14,1.78-6.85,1.85-10.41a23.12,23.12,0,0,0-.68-7.52C332,91.26,331.39,90,331,88.7a4.77,4.77,0,0,1,.47-4,5.1,5.1,0,0,1,.63-.67,8.26,8.26,0,0,1,8.16-1.75c4.5,1.47,12.18,3.65,14.13,2.09,2.81-2.24,3.47-3.68,3.47-3.68Z" style="fill:#263238"></path><path d="M352.31,120.4c0,.12-.41.38-1.2.48a5.78,5.78,0,0,1-3-.54,5.63,5.63,0,0,1-2.34-2c-.43-.68-.5-1.18-.38-1.24s1.22,1.43,3.16,2.32S352.25,120.1,352.31,120.4Z" style="fill:#263238"></path><path d="M295.3,176.68s-24.11,15.77-25.24,26.22-5,32.72-.95,46.31,8,29.32,19.12,29.59a32.61,32.61,0,0,0,18.42-4.91l13.45-41-4.38-46.05-1.57-16.56Z" style="fill:#263238"></path><path d="M297.3,277.82a1.12,1.12,0,0,1-.13-.21l-.33-.62c-.28-.56-.68-1.38-1.19-2.44-1-2.13-2.43-5.23-4.06-9.13s-3.45-8.56-5.21-13.86a95.83,95.83,0,0,1-4.27-17.63,123.64,123.64,0,0,1-.67-18.14c.15-5.57.49-10.59.84-14.79s.74-7.59,1-9.93c.15-1.13.27-2,.36-2.69.05-.28.08-.51.11-.69a.81.81,0,0,1,.06-.24.73.73,0,0,1,0,.24c0,.19,0,.42-.06.71q-.11,1-.27,2.7c-.23,2.34-.55,5.73-.86,9.93s-.61,9.21-.73,14.77a126.94,126.94,0,0,0,.71,18.06,96.63,96.63,0,0,0,4.21,17.55c1.72,5.29,3.52,10,5.1,13.87s2.94,7,3.9,9.18l1.1,2.48c.11.26.21.47.28.65S297.31,277.81,297.3,277.82Z" style="fill:#455a64"></path><path d="M282.8,237a14.33,14.33,0,0,1-2.19,1.26c-1.36.75-3.24,1.79-5.25,3s-3.8,2.44-5.08,3.32a13.79,13.79,0,0,1-2.12,1.37,11.41,11.41,0,0,1,1.9-1.67,57,57,0,0,1,5-3.46,55.15,55.15,0,0,1,5.37-2.91A10.23,10.23,0,0,1,282.8,237Z" style="fill:#455a64"></path><path d="M305.81,267.94a20.54,20.54,0,0,0,.26,5.41c1,5.51.08,14.45,4.77,21.28,7.18,10.43,19.36,23.16,19.36,23.16L354,376l21.17,75.94,29.11-4.3-15.07-92.84-24.18-87.26Z" style="fill:#263238"></path><path d="M248.71,417.54l51.66-66L310.66,290l39.76,18.28-12.69,54.47A34.9,34.9,0,0,1,327.6,380.3l-56.45,59Z" style="fill:#263238"></path><path d="M347.3,359.44a1,1,0,0,1-.14-.25l-.37-.75c-.31-.66-.79-1.63-1.34-2.91-1.13-2.54-2.63-6.29-4.29-11s-3.48-10.34-5.9-16.45-5.69-12.66-11.09-18c-2.62-2.74-5.29-5.32-7.69-8-.61-.66-1.18-1.35-1.73-2.05s-1-1.43-1.53-2.13-.94-1.44-1.41-2.14l-.67-1.07-.61-1.09a36.16,36.16,0,0,1-3.54-8.68,29.38,29.38,0,0,1-.83-8.12c0-1.26.19-2.44.3-3.56s.34-2.16.6-3.12.44-1.86.7-2.67.45-1.56.69-2.21c.44-1.33.83-2.33,1.1-3,.13-.32.23-.58.32-.78s.11-.26.12-.25a1.49,1.49,0,0,1-.07.27l-.27.79c-.24.69-.6,1.71-1,3-.22.66-.42,1.4-.64,2.22s-.45,1.7-.66,2.67-.35,2-.55,3.1a34.81,34.81,0,0,0-.26,3.52,29.07,29.07,0,0,0,.88,8,36.08,36.08,0,0,0,3.54,8.54l.6,1.08.68,1.06c.46.7.88,1.43,1.4,2.12l1.53,2.1c.53.69,1.1,1.36,1.7,2,2.38,2.65,5.05,5.23,7.68,8,5.46,5.4,8.78,12.08,11.17,18.18s4.15,11.81,5.79,16.51,3.06,8.46,4.13,11c.52,1.29,1,2.27,1.26,2.95l.31.77Z" style="fill:#455a64"></path><path d="M356.93,152.37l9.13,10.87s23.35,50.64,23.19,56.84-14,13.47-14,13.47Z" style="fill:#455a64"></path><polygon points="326.91 132.66 326.9 129.77 356.3 146.52 356.93 152.37 367.93 182.04 375.21 261.22 372.52 278.81 344.64 278.81 336.81 152.9 326.91 132.66" style="fill:#e0e0e0"></polygon><path d="M322.93,138l-12,6.8-2.19,63.65,2.33,27.3-8.77,44.77.3,6.27,68.61-.26.64-24.12s.62-12,.67-15.43c.12-10-3.7-37.25-5.56-51.69-2.52-19.59-15.34-41.85-15.34-41.85l-26-21.87Z" style="fill:#455a64"></path><path d="M367.94,217.62s-.05-.07-.12-.22-.19-.39-.31-.66l-1.14-2.57-4.1-9.5-13.34-31.41c-1-2.43-2-4.82-3-7.14l0-.07,0-.08c.37-1.81.74-3.59,1.1-5.31l.29.3-3.44.63-.12,0-.09-.09-16.1-16.05-4.6-4.64-1.21-1.25a3.94,3.94,0,0,1-.4-.45,2.84,2.84,0,0,1,.46.39l1.26,1.19,4.7,4.54L344,161.18l-.22-.07,3.44-.65.36-.07-.07.37c-.35,1.73-.72,3.5-1.09,5.31v-.15c1,2.32,2,4.7,3,7.14l13.2,31.47,3.95,9.56c.44,1.1.79,2,1,2.61.11.27.19.5.26.68A1,1,0,0,1,367.94,217.62Z" style="fill:#263238"></path><g style="opacity:0.30000000000000004"><path d="M309.31,244.75l28.1,1.4s15.8,11.82,21.78,11.91a12.73,12.73,0,0,0,8.75-2.95l4.58-6.51v-4.16L355,245.66l-9.27-3.74-36.13-.72Z"></path></g><path d="M350.41,173.44l-31.33,50.39a7.1,7.1,0,0,0,2.38,9.85l34.82,21.46A7.71,7.71,0,0,0,366.63,253l33.09-48.18a7.1,7.1,0,0,0-2.07-10l-36.56-23.66A7.72,7.72,0,0,0,350.41,173.44Z" style="fill:#e0e0e0"></path><path d="M350.41,173.44s.11-.18.35-.54a7.47,7.47,0,0,1,4-2.78,7.83,7.83,0,0,1,4.18-.05c1.58.39,3,1.52,4.61,2.51l5.24,3.37,12.77,8.22,15.47,10a11.32,11.32,0,0,1,2,1.54,7.14,7.14,0,0,1,1.47,2.15,7.28,7.28,0,0,1,.29,5.24,8.52,8.52,0,0,1-1.28,2.4c-.5.74-1,1.48-1.53,2.23l-3.11,4.54-27.38,39.92a11.3,11.3,0,0,1-2.08,2.52,7.63,7.63,0,0,1-2.89,1.54,8.06,8.06,0,0,1-6.3-.78L345.76,249l-19.87-12.27-4.69-2.9a7.5,7.5,0,0,1-3.19-4.37,7.35,7.35,0,0,1,.6-5.22c.88-1.51,1.79-2.89,2.66-4.31L331,204.28l14.15-22.59,3.87-6.13,1-1.58c.23-.36.36-.54.36-.54s-.1.2-.31.56-.55.92-1,1.62c-.87,1.43-2.14,3.51-3.78,6.18l-14,22.67-9.69,15.65c-.86,1.41-1.79,2.84-2.63,4.29a6.83,6.83,0,0,0-.55,4.89,6.93,6.93,0,0,0,3,4.09l4.68,2.89L346,248.52,356.54,255a7.53,7.53,0,0,0,5.89.73,7.07,7.07,0,0,0,2.7-1.44,10.73,10.73,0,0,0,2-2.42L394.53,212l3.12-4.54,1.53-2.22a8.13,8.13,0,0,0,1.22-2.28,6.89,6.89,0,0,0-.25-4.92,6.77,6.77,0,0,0-1.38-2,10.44,10.44,0,0,0-1.95-1.48l-15.44-10-12.73-8.29-5.22-3.4c-1.62-1-3-2.14-4.52-2.52a7.61,7.61,0,0,0-4.08,0,7.39,7.39,0,0,0-2.7,1.34A9.38,9.38,0,0,0,350.41,173.44Z" style="fill:#263238"></path><path d="M363.65,210.27a5.13,5.13,0,1,1-5.13-5.13A5.13,5.13,0,0,1,363.65,210.27Z" style="fill:#fff"></path><g style="opacity:0.30000000000000004"><polygon points="338.57 160.26 341.19 164.08 344.64 163 342.98 166.22 347.35 178.38 349.75 174.52 346.16 166.02 347.25 160.71 343.82 161.35 338.18 155.78 338.57 160.26"></polygon></g><g style="opacity:0.30000000000000004"><polygon points="327.84 212.48 359.49 217.62 367.22 218.35 379.5 209.43 378.69 213.71 372.52 220.75 367.94 230.34 366.59 235.63 331.72 233.55 325.81 229.4 327.84 212.48"></polygon></g><path d="M310.31,145.16a55.61,55.61,0,0,1,6.39-5.43,11,11,0,0,1,8.94-1.19c1.63.64,9.84,3,12.93,19.08,1.9,9.9-11.53,57.79-11.53,57.79L317.16,214s9.21-37.44,10.07-45.28S330.84,141.11,310.31,145.16Z" style="fill:#263238"></path><path d="M316.5,141.52c0,.14-.53.32-1.21.39s-1.24,0-1.27-.13.51-.32,1.21-.39S316.5,141.38,316.5,141.52Z" style="fill:#455a64"></path><path d="M325.92,143.13a9.71,9.71,0,0,1-2.31-.64,8.26,8.26,0,0,1-2.29-.77,4.56,4.56,0,0,1,2.44.27C325.07,142.37,326,143,325.92,143.13Z" style="fill:#455a64"></path><path d="M331.73,150.57a7.78,7.78,0,0,1-1.24-2.08,7.35,7.35,0,0,1-1-2.22c.12-.08.81.78,1.43,2A4.72,4.72,0,0,1,331.73,150.57Z" style="fill:#455a64"></path><path d="M333.19,160a7.51,7.51,0,0,1-.22-2.4,7.61,7.61,0,0,1,0-2.42,4.78,4.78,0,0,1,.47,2.4A4.71,4.71,0,0,1,333.19,160Z" style="fill:#455a64"></path><path d="M331.6,169.56a5.78,5.78,0,0,1,.25-2.41,6.08,6.08,0,0,1,.76-2.31,5.6,5.6,0,0,1-.25,2.41A5.76,5.76,0,0,1,331.6,169.56Z" style="fill:#455a64"></path><path d="M329.29,178.94a11.14,11.14,0,0,1,1.17-4.68,11.24,11.24,0,0,1-1.17,4.68Z" style="fill:#455a64"></path><path d="M326.89,188.3a11.28,11.28,0,0,1,1.21-4.68,6,6,0,0,1-.36,2.41A5.75,5.75,0,0,1,326.89,188.3Z" style="fill:#455a64"></path><path d="M324.45,197.66a11.39,11.39,0,0,1,1.22-4.68,11.5,11.5,0,0,1-1.22,4.68Z" style="fill:#455a64"></path><path d="M322,207a6.09,6.09,0,0,1,.37-2.4,5.77,5.77,0,0,1,.87-2.27,5.87,5.87,0,0,1-.37,2.4A5.77,5.77,0,0,1,322,207Z" style="fill:#455a64"></path><path d="M320.1,214.09c-.14,0-.11-.61.07-1.27s.43-1.18.57-1.14.11.61-.07,1.27S320.24,214.13,320.1,214.09Z" style="fill:#455a64"></path><path d="M322.54,259.81a3.57,3.57,0,0,1-.28.57l-.86,1.56c-.79,1.39-1.89,3.33-3.25,5.75l-.15-.26c6.68.1,16.8.29,28.09.54l3.07.07-.27.28c-.21-2.8-.42-5.5-.61-8l.24.23-18.59-.43-5.41-.16-1.46-.06a2.36,2.36,0,0,1-.52-.05l.48,0h1.42l5.38,0,18.71.22h.22l0,.22c.2,2.54.42,5.24.64,8l0,.29h-.29l-3.06-.06c-11.29-.25-21.41-.51-28.08-.72h-.29l.14-.24,3.44-5.72c.38-.62.68-1.12.92-1.5A3.64,3.64,0,0,1,322.54,259.81Z" style="fill:#263238"></path><path d="M379.89,178.6a3.43,3.43,0,0,0-3.15-2.64,2.48,2.48,0,0,0-1.89,3.95l5,3.09A10.06,10.06,0,0,0,379.89,178.6Z" style="fill:#b56760"></path><path d="M395.36,190.66a4.6,4.6,0,0,0-1.35-2.25,2.27,2.27,0,0,0-2.17-.44,6.28,6.28,0,0,0-.75-1.67,3.46,3.46,0,0,0-1.56-1.4,1.81,1.81,0,0,0-2,.38v.2a4.55,4.55,0,0,0-1-1.22,3.91,3.91,0,0,0-5-.13,25.86,25.86,0,0,1,2.32,1.91c.32,1.08-.1,2.25-.07,3.38s.58,2.41,1.69,2.63a2,2,0,0,0,1.82-.67,3.65,3.65,0,0,0,.24-.31,4.1,4.1,0,0,0,.23.83,2.24,2.24,0,0,0,1.85,1.47,2.14,2.14,0,0,0,1.82-1.16l0,1.24c0,1.23.54,2.2,1.63,2.25a2.62,2.62,0,0,0,2.4-1.85A5.13,5.13,0,0,0,395.36,190.66Z" style="fill:#b56760"></path><path d="M387.49,191.29c-.15-.06.31-1.33.27-3s-.53-2.88-.39-2.94a5.54,5.54,0,0,1,.12,5.9Z" style="fill:#8a4a43"></path><path d="M391.53,192.38c-.16,0,.09-1.08.25-2.32s-.12-2.23,0-2.28.7,1,.51,2.34A4.29,4.29,0,0,1,391.53,192.38Z" style="fill:#8a4a43"></path><path d="M380.18,208a.89.89,0,0,1,1.44-.11c.9,1.11,1.89,3.32.38,6.46a14.08,14.08,0,0,1-3.81,5l9,4.63s3,2.19,1.71,4-1.64,1.51-1.64,1.51a2.4,2.4,0,0,1,1,3.36c-.64,1.35-2.67,1.73-2.67,1.73s-.4,2.6-1,3a11.42,11.42,0,0,1-3.17.51s-.15,1.72-1.39,2.08-6.78-.33-6.78-.33-6.15-2-8.47-2.86l-3.7-.34,1.34-15a15.79,15.79,0,0,0,3.85-.37c1.5-.8,7.36-5.73,7.36-5.73s3.29-1.9,4.56-3.83C379.25,210.21,379.7,208.85,380.18,208Z" style="fill:#b56760"></path><path d="M381.81,227.31a20.47,20.47,0,0,0,2.77,1.15,20,20,0,0,0,2.85.93,21.48,21.48,0,0,0-2.77-1.14A22.79,22.79,0,0,0,381.81,227.31Z" style="fill:#8a4a43"></path><path d="M378.69,232.53a4.38,4.38,0,0,0,1,.41c.62.23,1.49.52,2.45.8s1.86.5,2.51.64a4.3,4.3,0,0,0,1.05.18,5.28,5.28,0,0,0-1-.33l-2.48-.71-2.47-.72A5.36,5.36,0,0,0,378.69,232.53Z" style="fill:#8a4a43"></path><path d="M377.53,237.38a8.9,8.9,0,0,0,2,.42,8.77,8.77,0,0,0,2,.21,16.91,16.91,0,0,0-3.93-.63Z" style="fill:#8a4a43"></path><polygon points="356.89 219.88 362.6 220.48 362.18 238.41 355.77 237.78 356.89 219.88" style="fill:#e0e0e0"></polygon><path d="M356.89,219.88a13.84,13.84,0,0,1,0,1.41c0,1-.1,2.22-.17,3.77-.15,3.19-.37,7.63-.67,12.73l-.23-.26,6.05.58.35,0-.29.25c.18-7.22.37-13.67.53-17.92l.15.17-4.15-.53c-1-.14-1.53-.22-1.55-.24s.49,0,1.47.08l4.26.36h.15v.16c0,4.25-.16,10.7-.33,17.92v.28l-.28,0-.35,0-6.05-.6-.24,0v-.25c.34-5.21.68-9.72.93-12.9.12-1.51.22-2.75.3-3.7A9.16,9.16,0,0,1,356.89,219.88Z" style="fill:#263238"></path><path d="M313,143.71s-10.92,4.15-13.78,18-16,60.73-13.32,69.18,11.75,9.51,30.2,10.78,39.24,2.52,39.24,2.52L357,219.34l-39.55-5.63s11.52-41,12.37-47S332.6,139.32,313,143.71Z" style="fill:#455a64"></path><path d="M285.91,230.9a2.76,2.76,0,0,1,.16.35l.42,1c.22.43.51,1,.88,1.55l.7.91c.25.31.59.59.91.92a15.29,15.29,0,0,0,5.86,3.1,49.77,49.77,0,0,0,8.75,1.66c6.57.76,14.47,1.15,23.23,1.72l28.55,1.81-.27.24c0-.43,0-.9.09-1.37.54-8.23,1.07-16.15,1.56-23.49l.21.26-39.54-5.73.09,0-7.32,4-1.92,1-.5.25-.17.08s0,0,.15-.11l.48-.28,1.89-1.09,7.26-4.09,0,0h0L357,219.09l.22,0v.23c-.48,7.34-1,15.26-1.53,23.49,0,.47-.07.94-.1,1.38v.26l-.26,0-28.55-1.85c-8.76-.6-16.66-1-23.25-1.83a50,50,0,0,1-8.78-1.76,15.37,15.37,0,0,1-5.92-3.22c-.32-.34-.66-.63-.91-1l-.69-.93c-.36-.62-.64-1.16-.85-1.6s-.28-.79-.37-1.05A1.91,1.91,0,0,1,285.91,230.9Z" style="fill:#263238"></path><g style="opacity:0.6000000000000001"><path d="M324.53,145s4.62,2.18-5.52,8.81c-4.53,3-8.7,8.26-4.74,21.4,3.83,12.72-4.43,16.24-6.47,27.49s3.75,15.33,16.68,28.27S329,257.35,329,257.35c-2.64,7.64-3.14,6.91-1.61,23.78s12.86,17.36,13.35,26.62-2.31,5.79-1,20.51S353.24,374,353.24,374L341.7,345.72l-3.95,16.94a34.84,34.84,0,0,1-10.12,17.54l-56.45,59-4.14-4-3.7,2.57c.31.29.45.54.37.6s-.31,0-.65-.16c.33.52,1.46,2.33,2.9,4.77.17.13.26.25.22.31l0,0c3.1,5.29,7.45,13.27,8.28,17.72h0a3.36,3.36,0,0,1-.26,3.18l-37.83-30.76,3.08-2.54h0l12.5-10.35-3.18-3.07,51.66-66,9.71-58.08a22.69,22.69,0,0,1-2.46-6.67l-5,0-.3-6.27.93-4.75a34.07,34.07,0,0,1-15,3c-11.17-.27-15.06-16-19.12-29.59s-.18-35.87.95-46.32,25.23-26.22,25.23-26.22l.43-.14c1.52-6.19,2.81-11.47,3.5-14.81A25.21,25.21,0,0,1,310.36,145a54.91,54.91,0,0,1,6.36-5.4,11.28,11.28,0,0,1,6.09-1.66l2.8-6.42Z" style="fill:#fff"></path></g><g style="opacity:0.6000000000000001"><path d="M351.57,278.81a5.81,5.81,0,1,1-5.81-5.8A5.81,5.81,0,0,1,351.57,278.81Z" style="fill:#fff"></path></g></g></svg>