<svg xmlns="http://www.w3.org/2000/svg" viewBox="0 0 500 500"><g id="freepik--Fire--inject-172"><g id="freepik--fire--inject-172"><path d="M475.86,277.41c-.59-1.18-2.78-3-3-4.16a3.73,3.73,0,0,1-.61,3,2.6,2.6,0,0,1-2.82.92c-1.76-.62-2-3.2-.95-4.77s2.75-2.48,4.2-3.65c4.83-3.91,6.29-10.9,5.05-17s-4.74-11.45-8.44-16.44c-2.35-3.16-4.9-6.5-5.14-10.42a9.84,9.84,0,0,1,3.82-8.29,25.82,25.82,0,0,0-8.66,5.13,14,14,0,0,0-4.49,8.83,11.81,11.81,0,0,0-6.4-5.84,11.37,11.37,0,0,1-1,14.66,6.58,6.58,0,0,1-3.59,1.93,3.63,3.63,0,0,1-3.59-1.55,5.91,5.91,0,0,1-.33-3.84c.63-4.46,1.23-8-1.1-12.07-2.67-4.67-7.32-7.78-11.72-10.88a6.56,6.56,0,0,1-2.09-2c-.84-1.5-.39-3.36-.49-5.08a8,8,0,0,0-4.35-6.57c.83,1.24,1.53,3.2.24,3.95-.91.53-2.06-.12-2.77-.89a8.4,8.4,0,0,1,.72-11.71,14.87,14.87,0,0,0-13.78,22.05c1,1.86,2.47,3.56,2.83,5.64s-1.07,4.68-3.18,4.45c-2.57-.28-3-3.88-4.67-5.83a4.62,4.62,0,0,0-4.64-1.37,4,4,0,0,1,2.2,5.92c-1.81,2.5-6.18,1.65-7.76-1s-.93-6.12.57-8.82c.87-1.57,2-3,2.73-4.63a12.75,12.75,0,0,0-.08-9.56,24.14,24.14,0,0,0-5.52-8c-1.53-1.56-3.24-3.1-3.93-5.17-1-2.92.29-6.09.26-9.18a11.1,11.1,0,0,0-8-10.31c1.93.36,2.92,2.74,2.43,4.63a8.49,8.49,0,0,1-3.63,4.47c-2.45,1.74-5.2,3-7.54,4.95s-4.29,4.58-4.29,7.59c0,3.31,2.36,6.36,2,9.65a6.78,6.78,0,0,1-3.73,5.19,8.6,8.6,0,0,1-6.48.37c-2.35-.78-4-2.12-4-4.59a10.16,10.16,0,0,0-2.45-6.5c-1.09-1.27-2.55-2.35-3-4a7.11,7.11,0,0,1,.06-3.21c.29-1.68.86-3.63,2.47-4.17a5.28,5.28,0,0,0-4.73,3.37,13,13,0,0,0-.7,6.08,25.39,25.39,0,0,1,0,6.16,6.43,6.43,0,0,1-3.44,4.83c-1.9.8-4.51-.08-5.05-2.07s1.07-4,1.1-6.08c0-2.38-1.91-4.26-3.71-5.82.48,1.93,0,4.56-1.91,5a2.87,2.87,0,0,1-3-1.66,6,6,0,0,1-.34-3.6c.44-2.85,1.78-5.61,1.53-8.49-.31-3.48-2.88-6.33-5.58-8.55a43.54,43.54,0,0,0-13.61-7.6c3.3,3.54,3,8.56-1.16,11.09-2,1.22-4.57,1.68-6.12,3.47a9.43,9.43,0,0,0-1.76,5.2,12.63,12.63,0,0,1-1.38,5.35c-1,1.57-3.1,2.62-4.75,1.76-1.45-.75-1.93-2.54-2.61-4a11.29,11.29,0,0,0-9.83-6.44,8.18,8.18,0,0,1,6,5.65c.66,2.8-1,6.11-3.79,6.79s-5.62-1.32-8.18-2.82c-3.65-2.14-7.47-2.83-11.49-3.87-1.6-.42-3.2-1.49-3.5-3.11a5.49,5.49,0,0,1,.15-2.13c.66-3,1.75-6.05,1.05-9-1.12-4.76-6-7.23-9.19-10.45-3.07-3.07-5.39-9.57-.44-12.33a29.92,29.92,0,0,0-15.66,8.6,11.72,11.72,0,0,0-3.2,5.21c-.84,3.57,1,7.49-.28,10.91-1.71,4.42-7.78,5.59-10.13,9.71a7.13,7.13,0,0,0-.74,5.06,18,18,0,0,0,2.1,4.52,8.37,8.37,0,0,1,1.32,4.74c-.18,1.66-1.5,3.3-3.17,3.28-2,0-3.22-2.19-4.65-3.62a7.82,7.82,0,0,0-6.68-2.13c1.92.84,2.42,3.41,1.91,5.44s-2.38,4.19-4.46,3.69a3.87,3.87,0,0,1-2.59-3.58,18.58,18.58,0,0,1,.6-4.67c1-6-1.31-12.89-6.71-15.73-1.57-.83-3.32-1.28-4.91-2.07a6.51,6.51,0,0,1-3.62-3.7c-.65-2.25.6-4.55,1-6.85a10.13,10.13,0,0,0-5.72-10.85c1.88,3.37.2,7.65-2.15,10.71s-5.42,5.71-6.76,9.33a14.46,14.46,0,0,0-.22,8.42,15.48,15.48,0,0,1,.88,4.86c-.18,2.21-1.65,4.09-3.15,5.72-1.76,1.9-3.85,3.78-6.43,4.06-3.75.41-5.18-2.58-4.79-5.67.24-1.87,1-3.66,1.13-5.54a8.22,8.22,0,0,0-5.49-8.08c3.43,1.48,2.47,6.85-.22,9.44s-6.5,4.13-8.29,7.4c-2.09,3.83-.67,8.54.79,12.65a7.49,7.49,0,0,0-6.29-2.12,6.23,6.23,0,0,1-.76,12,1.68,1.68,0,0,1-1.23-.09c-.58-.36-.62-1.16-.69-1.84a7.78,7.78,0,0,0-4.49-6.2,20.89,20.89,0,0,1-3.64-1.53c-2-1.45-2.43-4.37-1.89-6.81s1.79-4.67,2.4-7.09a14.45,14.45,0,0,0-9-16.61c3,1.77,3.3,6.34,1.49,9.36s-5,4.85-8.09,6.58-6.25,3.66-7.94,6.74c-1.79,3.29-.14,10.16-3.91,11.66a6.35,6.35,0,0,1-4.15,0,10.06,10.06,0,0,1-6.72-6.83c-2.1-7.56,5-15.6,2.45-23-1.81-5.23-7.69-7.78-13.11-8.9,4.09.14,6.91,4.65,6.75,8.74S89.25,189,87,192.43s-4.52,7.07-4.78,11.16c-.46,7.21,5.58,14,3.9,21a10.4,10.4,0,0,1-11.88,7.46,4.51,4.51,0,0,1-2.46-1.23c-.92-1-.62-2.69-.6-4,.05-2.06.62-4.1.55-6.16A10.44,10.44,0,0,0,62.84,211c3.69,2,2.58,7.9-.41,10.87s-7.21,4.59-9.81,7.9a11.63,11.63,0,0,0-1.29,12c1.47,3,4.4,6,3.42,9.23-1.34,4.48-8.93,4.77-9.86,9.35-.3,1.46.22,3,.13,4.45s-1.32,3.16-2.75,2.74-1.57-2.44-1.76-4A9,9,0,0,0,31.12,256c4.78.84,6,7.55,3.9,11.91s-6.25,7.4-8.84,11.5A19.53,19.53,0,0,0,27,301c1.38,1.85,3.11,3.48,4,5.59,2.41,5.55-1.34,18.28,2.69,22.79H473.64c.69-3.37,0-13.86-.74-17.22s-1.4-6.86-.63-10.21c.66-2.92,2.38-5.48,3.5-8.26,1.56-3.85,1.6-7.6,1.22-11.66A12.06,12.06,0,0,0,475.86,277.41Z" style="fill:#90CAF9;opacity:0.15"></path><path d="M127.41,197.56a10.36,10.36,0,0,1,1.48-.23A1.86,1.86,0,0,0,127.41,197.56Zm344.18,90.21a11.67,11.67,0,0,0-4.3-6.43,4.12,4.12,0,0,1,.52,5.39,7.21,7.21,0,0,1-5.08,2.78c-2.57.35-4-4.08-4-6.06-.28-7.26,5.52-15,8.8-21.08a18.55,18.55,0,0,0-2.64-20.89A4,4,0,1,1,459,247c-1.85-2.06-1.15-5.3-.06-7.84a36.79,36.79,0,0,1,3.81-6.86,15.94,15.94,0,0,0-9.77,8.74c-3,6.93,3.24,20.4-5.34,25-2.36,1.26-6,0-6.23-2.68-.1-1.5.83-2.84,1.32-4.26a7.78,7.78,0,0,0-5.57-9.76c1.58,2.65,1.6,9.16-2.05,10.46s-6.88-3.71-7.09-6.69c-.25-3.58,1.48-7,3.26-10.08s3.72-6.33,3.95-9.91c.41-6.51-4.91-12-10.5-15.32-3.56-2.13-7.49-3.87-10.24-7s-3.92-8.18-1.23-11.34c-3.2-.26-5.68,3.25-5.56,6.46s2,6.05,3.82,8.69,3.73,5.45,3.91,8.66c.26,4.69-3.41,8.88-7.73,10.74s-27.89,9.55-24.82-2.42c.32-1.24,1-2.36,1.36-3.6,1-3.75-1.85-7.55-5.2-9.51,1.93,1.66,1.28,5.25-1,6.36a4.78,4.78,0,0,1-6.22-2.7c-.8-2.15,0-4.61,1.29-6.48a32.64,32.64,0,0,1,4.86-4.83c3.1-2.83,5.86-6.42,6.17-10.6A11.41,11.41,0,0,0,379,190.17a13.21,13.21,0,0,0-11.3-1.43c3,.74,6.43,1.84,7.52,4.73,1.16,3.08-1.07,6.43-3.72,8.38a18.32,18.32,0,0,1-10,3.52c-2.3.11-4.81-.16-6.7,1.15-2.35,1.64-2.66,5-2.38,7.81s.91,5.87-.31,8.45a6.37,6.37,0,0,1-12-3.78c.36-2.14,1.78-4,2.14-6.14a6.61,6.61,0,0,0-4.66-7.2,4.38,4.38,0,0,1-2.19,6.41c-4.66,1.42-4.57-3.12-5.12-5.82-.73-3.54-4.74-6.77-7.56-8.65-1.66-1.11-3.51-2.2-4.29-4-1.54-3.64,1.95-7.38,2.51-11.28.77-5.29-4.18-9.92-9.36-11.22,3,1.49,4.22,5.41,3.15,8.55a10,10,0,0,1-7.29,6.11c-2.13.49-4.49.46-6.24,1.76-2.05,1.52-2.58,4.38-2.45,6.93s.74,5.11.31,7.63c-.61,3.6-4.19,6.88-7.71,5.91-3.15-.87-4.62-4.36-6.18-7.24s-4.65-5.84-7.67-4.57c1.82,2,2.48,7,.93,9.31-2.3,3.46-6.35.44-7.31-2.4-.72-2.15-.66-4.49-1.31-6.66a10.79,10.79,0,0,0-9.28-7.48c-2.69-.21-6,.37-7.56-1.82-1.43-2-.19-4.76.73-7.06,2.25-5.64,1.57-13.26-3.7-16.28a3.63,3.63,0,0,1-2,5.58c-4.56.86-8.09-11.71-3.82-13.14a9.65,9.65,0,0,0-6.19,6.65c-.68,2.67-.19,5.47,0,8.21s-.11,5.76-2,7.78c-1.36,1.5-3.38,2.22-4.91,3.54-4.61,4-2.05,9.63.06,14.11,1.55,3.31,3.59,6.53,4,10.16s-1.7,7.9-5.33,8.34a5.21,5.21,0,0,1-4.9-2.31c-.86-1.34-1-3-1.63-4.48a8.77,8.77,0,0,0-8.8-5.31c3.92,2,5.06,7.92,2.16,11.22-3.06,3.47-7.19,2.13-10.73.49-2.73-1.26-7.31-1.44-9.5-3.21-1.55-1.26-1.61-3.66-.92-5.54s2-3.49,2.7-5.35c1.67-4.19.39-9.14-2.36-12.72a5.22,5.22,0,0,1,.6,4.17A3,3,0,0,1,193,194c-2.62-.67-1.14-4.23-1.17-6a9.78,9.78,0,0,0-2.75-6.74c-2.09-2.11-5.42-3.73-5.42-6.7a7.16,7.16,0,0,1,1.58-3.82,6,6,0,0,0-4.2,4.72,10.18,10.18,0,0,0,1.12,6.45,16,16,0,0,1,1.61,3.53c.59,2.54-.73,5.18-2.53,7s-4.08,3.24-6,5-3.67,4-3.73,6.61c-.08,3.13,2.22,6.14,1.48,9.18a6.83,6.83,0,0,1-3.25,4,7.47,7.47,0,0,1-6.88.82c-4-1.86-2.08-4.94-1.33-7.87a8.11,8.11,0,0,0-2.13-7.39,11,11,0,0,0-7.17-3.16c2.57.37,4.34,3.08,4.31,5.68-.07,5.15-5.71,7.47-6.28,12.29-.49,4.11,4.22,10.58-1.79,12.72-3,1.07-6.56-.82-7.74-3.77a14.22,14.22,0,0,0-.93-2.37c-.9-1.5-2.72-2.13-4.39-2.66a7.21,7.21,0,0,1,1.78,5.85c-.45,2.06-2.66,3.77-4.67,3.12-2.19-.7-2.87-3.66-2.06-5.81.36-1,.93-1.83,1.26-2.79,1-2.83-.32-6.06-2.49-8.1-1.59-1.5-3.68-2.56-4.72-4.48-1.47-2.71-.33-6,.83-8.9a5.87,5.87,0,0,1,2.08-2.81A12.22,12.22,0,0,0,118,208.9c0,3.31,1.33,6.58.83,9.85a8.92,8.92,0,0,1-4.9,6.62c-3.13,1.5-7,1.11-9.86,3.07a7.05,7.05,0,0,0-3,5.91c.07,2.4,1.36,4.64,1.35,7a6.77,6.77,0,0,1-5.94,6.47c-3.88.36-7.68-2.41-11.51-.63-2.28,1.06-3.57,3.46-5.38,5.21-2.11,2-7.08,2.92-7.84-1-.29-1.48.17-3,.25-4.49a9.05,9.05,0,0,0-3.23-7.35c.26,2-1,4.58-3.1,4.45-1.63-.09-2.7-1.74-3.21-3.29a13.83,13.83,0,0,1,1.48-11.62,10.91,10.91,0,0,0-8,14,39.28,39.28,0,0,0,2.76,5.55c2.78,5.45.94,10.28-4.49,12.87-2.12,1-4.72,2.15-6,4.27-1.37,2.33-.7,6,.15,8.39,1.19,3.36,2.34,6.57-.07,9.69a10.09,10.09,0,0,1-7.54,3.7c-2.71-.12-5-3.16-4.76-5.8a5.54,5.54,0,0,1,6.41-4.77,7.54,7.54,0,0,0-7.83,1A14.7,14.7,0,0,0,30,285c-1.73,4.74-2,10.56,1.34,14.36,1.25,1.43,2.91,2.47,4,4,2.18,2.93,2,7,1,10.53s1.46,11.88,1.08,15.51H468c5.16-11.35-.77-23.18-.83-26.78-.06-4.07,3.86-6.65,4.53-10.6A10.31,10.31,0,0,0,471.59,287.77Z" style="fill:#90CAF9"></path><path d="M127.41,197.56a10.36,10.36,0,0,1,1.48-.23A1.86,1.86,0,0,0,127.41,197.56Zm344.18,90.21a11.67,11.67,0,0,0-4.3-6.43,4.12,4.12,0,0,1,.52,5.39,7.21,7.21,0,0,1-5.08,2.78c-2.57.35-4-4.08-4-6.06-.28-7.26,5.52-15,8.8-21.08a18.55,18.55,0,0,0-2.64-20.89A4,4,0,1,1,459,247c-1.85-2.06-1.15-5.3-.06-7.84a36.79,36.79,0,0,1,3.81-6.86,15.94,15.94,0,0,0-9.77,8.74c-3,6.93,3.24,20.4-5.34,25-2.36,1.26-6,0-6.23-2.68-.1-1.5.83-2.84,1.32-4.26a7.78,7.78,0,0,0-5.57-9.76c1.58,2.65,1.6,9.16-2.05,10.46s-6.88-3.71-7.09-6.69c-.25-3.58,1.48-7,3.26-10.08s3.72-6.33,3.95-9.91c.41-6.51-4.91-12-10.5-15.32-3.56-2.13-7.49-3.87-10.24-7s-3.92-8.18-1.23-11.34c-3.2-.26-5.68,3.25-5.56,6.46s2,6.05,3.82,8.69,3.73,5.45,3.91,8.66c.26,4.69-3.41,8.88-7.73,10.74s-27.89,9.55-24.82-2.42c.32-1.24,1-2.36,1.36-3.6,1-3.75-1.85-7.55-5.2-9.51,1.93,1.66,1.28,5.25-1,6.36a4.78,4.78,0,0,1-6.22-2.7c-.8-2.15,0-4.61,1.29-6.48a32.64,32.64,0,0,1,4.86-4.83c3.1-2.83,5.86-6.42,6.17-10.6A11.41,11.41,0,0,0,379,190.17a13.21,13.21,0,0,0-11.3-1.43c3,.74,6.43,1.84,7.52,4.73,1.16,3.08-1.07,6.43-3.72,8.38a18.32,18.32,0,0,1-10,3.52c-2.3.11-4.81-.16-6.7,1.15-2.35,1.64-2.66,5-2.38,7.81s.91,5.87-.31,8.45a6.37,6.37,0,0,1-12-3.78c.36-2.14,1.78-4,2.14-6.14a6.61,6.61,0,0,0-4.66-7.2,4.38,4.38,0,0,1-2.19,6.41c-4.66,1.42-4.57-3.12-5.12-5.82-.73-3.54-4.74-6.77-7.56-8.65-1.66-1.11-3.51-2.2-4.29-4-1.54-3.64,1.95-7.38,2.51-11.28.77-5.29-4.18-9.92-9.36-11.22,3,1.49,4.22,5.41,3.15,8.55a10,10,0,0,1-7.29,6.11c-2.13.49-4.49.46-6.24,1.76-2.05,1.52-2.58,4.38-2.45,6.93s.74,5.11.31,7.63c-.61,3.6-4.19,6.88-7.71,5.91-3.15-.87-4.62-4.36-6.18-7.24s-4.65-5.84-7.67-4.57c1.82,2,2.48,7,.93,9.31-2.3,3.46-6.35.44-7.31-2.4-.72-2.15-.66-4.49-1.31-6.66a10.79,10.79,0,0,0-9.28-7.48c-2.69-.21-6,.37-7.56-1.82-1.43-2-.19-4.76.73-7.06,2.25-5.64,1.57-13.26-3.7-16.28a3.63,3.63,0,0,1-2,5.58c-4.56.86-8.09-11.71-3.82-13.14a9.65,9.65,0,0,0-6.19,6.65c-.68,2.67-.19,5.47,0,8.21s-.11,5.76-2,7.78c-1.36,1.5-3.38,2.22-4.91,3.54-4.61,4-2.05,9.63.06,14.11,1.55,3.31,3.59,6.53,4,10.16s-1.7,7.9-5.33,8.34a5.21,5.21,0,0,1-4.9-2.31c-.86-1.34-1-3-1.63-4.48a8.77,8.77,0,0,0-8.8-5.31c3.92,2,5.06,7.92,2.16,11.22-3.06,3.47-7.19,2.13-10.73.49-2.73-1.26-7.31-1.44-9.5-3.21-1.55-1.26-1.61-3.66-.92-5.54s2-3.49,2.7-5.35c1.67-4.19.39-9.14-2.36-12.72a5.22,5.22,0,0,1,.6,4.17A3,3,0,0,1,193,194c-2.62-.67-1.14-4.23-1.17-6a9.78,9.78,0,0,0-2.75-6.74c-2.09-2.11-5.42-3.73-5.42-6.7a7.16,7.16,0,0,1,1.58-3.82,6,6,0,0,0-4.2,4.72,10.18,10.18,0,0,0,1.12,6.45,16,16,0,0,1,1.61,3.53c.59,2.54-.73,5.18-2.53,7s-4.08,3.24-6,5-3.67,4-3.73,6.61c-.08,3.13,2.22,6.14,1.48,9.18a6.83,6.83,0,0,1-3.25,4,7.47,7.47,0,0,1-6.88.82c-4-1.86-2.08-4.94-1.33-7.87a8.11,8.11,0,0,0-2.13-7.39,11,11,0,0,0-7.17-3.16c2.57.37,4.34,3.08,4.31,5.68-.07,5.15-5.71,7.47-6.28,12.29-.49,4.11,4.22,10.58-1.79,12.72-3,1.07-6.56-.82-7.74-3.77a14.22,14.22,0,0,0-.93-2.37c-.9-1.5-2.72-2.13-4.39-2.66a7.21,7.21,0,0,1,1.78,5.85c-.45,2.06-2.66,3.77-4.67,3.12-2.19-.7-2.87-3.66-2.06-5.81.36-1,.93-1.83,1.26-2.79,1-2.83-.32-6.06-2.49-8.1-1.59-1.5-3.68-2.56-4.72-4.48-1.47-2.71-.33-6,.83-8.9a5.87,5.87,0,0,1,2.08-2.81A12.22,12.22,0,0,0,118,208.9c0,3.31,1.33,6.58.83,9.85a8.92,8.92,0,0,1-4.9,6.62c-3.13,1.5-7,1.11-9.86,3.07a7.05,7.05,0,0,0-3,5.91c.07,2.4,1.36,4.64,1.35,7a6.77,6.77,0,0,1-5.94,6.47c-3.88.36-7.68-2.41-11.51-.63-2.28,1.06-3.57,3.46-5.38,5.21-2.11,2-7.08,2.92-7.84-1-.29-1.48.17-3,.25-4.49a9.05,9.05,0,0,0-3.23-7.35c.26,2-1,4.58-3.1,4.45-1.63-.09-2.7-1.74-3.21-3.29a13.83,13.83,0,0,1,1.48-11.62,10.91,10.91,0,0,0-8,14,39.28,39.28,0,0,0,2.76,5.55c2.78,5.45.94,10.28-4.49,12.87-2.12,1-4.72,2.15-6,4.27-1.37,2.33-.7,6,.15,8.39,1.19,3.36,2.34,6.57-.07,9.69a10.09,10.09,0,0,1-7.54,3.7c-2.71-.12-5-3.16-4.76-5.8a5.54,5.54,0,0,1,6.41-4.77,7.54,7.54,0,0,0-7.83,1A14.7,14.7,0,0,0,30,285c-1.73,4.74-2,10.56,1.34,14.36,1.25,1.43,2.91,2.47,4,4,2.18,2.93,2,7,1,10.53s1.46,11.88,1.08,15.51H468c5.16-11.35-.77-23.18-.83-26.78-.06-4.07,3.86-6.65,4.53-10.6A10.31,10.31,0,0,0,471.59,287.77Z" style="fill:#fff;opacity:0.6000000000000001"></path><path d="M119.39,238.82a4.54,4.54,0,0,1-1-4.81,10.23,10.23,0,0,1,3.06-4.15,44.68,44.68,0,0,0,4.88-4.54,7.55,7.55,0,0,0,1.9-6.17c-.47-2.18-2.4-2.62-3.9-3.91a7.8,7.8,0,0,1-2.69-6.77c-.15,1.18-1.38,2-1.29,3.5s1.19,2.69,1.86,4.09c1.14,2.34,1.47,4.71.15,7.07-1.5,2.67-4.91,3.73-6.62,6.27a6.17,6.17,0,0,0,3.66,9.42Zm72.78-24.88c-.65-1.83.06-4.44-.48-6.44a33.4,33.4,0,0,0-2.27-5c-1.61-3.52-4.07-7.58-2.77-11.61-1.26,3.92-2.91,7.87-1.85,12.17C186,207.66,190.62,209.57,192.17,213.94Zm52.23-38.48.58.4a12.69,12.69,0,0,1,3.31,3,5.17,5.17,0,0,1,.83,4.27,5.81,5.81,0,0,0,2.73-4.47,6,6,0,0,0-2.51-5.6,17.43,17.43,0,0,0-3.44-1.46,8.74,8.74,0,0,1-5.13-6.73,13.06,13.06,0,0,0-.72,4.43C240.08,172.2,242.28,174,244.4,175.46Zm4.57,13c.07,4.94.81,8.86,5.36,11.72,2.64,1.67,6.06,2.17,8.19,4.46a6.82,6.82,0,0,1,1.15,7.32,16.2,16.2,0,0,0,2.35-8.5,9,9,0,0,0-4.19-7.45c-2.89-1.64-6.41-1-9.38-2.57A6.09,6.09,0,0,1,249,188.42Zm89.68,39.05.23.12a5,5,0,0,1-2.4-4.27,9.73,9.73,0,0,1,1.33-4.88,15.23,15.23,0,0,0,1.82-3.93,5.32,5.32,0,0,0-.22-2.82c0,2.06-2,3.26-3.26,4.59s-2.58,3-2.62,5.05a6.11,6.11,0,0,0,1.57,4.12C336.16,226.67,337.35,226.82,338.65,227.47Zm117.19,46c1.78-2.65,4.31-4.74,6.09-7.39,2.44-3.66,2.18-7.45-.18-11-2.2-3.33-5.46-4.88-6.33-9a12.71,12.71,0,0,0-.89,3.62c-.26,5.37,4.11,8.81,2.52,14.42-.74,2.58-2.72,4.63-3.79,7.1A11,11,0,0,0,455,282.49C453.16,279.85,454.06,276.17,455.84,273.51Zm5.66,26.54a7.68,7.68,0,0,1,4-5.81c-3.11.35-6.59,1.06-8.28,3.69a9.45,9.45,0,0,0-1.18,4.89c-.08,2.8.74,5.18-3,5.49a7.58,7.58,0,0,1-5.34-1.65c-2.31-1.88-3.31-5-3.43-8a59.28,59.28,0,0,1,.83-8.9c.42-3.8.68-12-3.54-14a28,28,0,0,0-3.9-.92,6.76,6.76,0,0,1-4.74-5.77,17.81,17.81,0,0,0-.24-3.51c-.61-2-2.75-3.1-4.76-3.67s-4.2-.84-5.87-2.11c-2.5-1.9-3.08-5.54-2.3-8.58s2.66-5.66,4.36-8.3,3.29-5.52,3.4-8.66c.17-4.6-3-8.8-6.89-11.21,2.89,2.89,2.7,7.91.44,11.31s-6.11,5.44-10,6.7-8,1.92-11.81,3.32c-3.39,1.24-7.26,3.36-9.63,6.14a36.68,36.68,0,0,1-3,3.58,8.22,8.22,0,0,1-8.4,1.44c-2.87-1.32-3-4.77-2.62-7.65.48-4.17,2.12-7.28,1.11-11.59a15.24,15.24,0,0,0-6.32-9.36c-1.67-1.09-3.65-1.94-4.64-3.67-1.7-3,.42-6.66,2.8-9.1s5.32-4.93,5.53-8.34c-1.57,2.88-5.36,3.49-8.62,3.91s-7.08,1.48-8.1,4.6c-.95,2.88,1.08,5.89,1.08,8.92,0,6.52-8.1,10.42-10.59,16a15.37,15.37,0,0,0-1.32,4.19,7.38,7.38,0,0,1-4.06,4.66,12.48,12.48,0,0,1-18.18-11.92c.22-4.2,3.69-6.73,5-10.62,1-3,.75-6.62-1.54-8.78a3.55,3.55,0,0,1-6.75,2.2c-1-2.75,1.54-5.44,2.09-8.31.69-3.58-1.85-7.05-4.86-9.12-2.38-1.64-5.27-2.88-6.65-5.42a6.44,6.44,0,0,1,1.51-7.75c-4.16,2-7.91,5.82-8,10.44-.06,2.54,1,5,.91,7.56a9.83,9.83,0,0,1-5.53,8.21,13,13,0,0,1-10.1.35,6.24,6.24,0,0,1-3.39-2.45,12.65,12.65,0,0,1-.92-2.93,9.7,9.7,0,0,0-3.16-4.78,9.48,9.48,0,0,1-2.21,7.92c-2.33,2.59-5.65,3.76-8.08,6.24a17.26,17.26,0,0,0-4.76,9.56,51.34,51.34,0,0,1-.69,5.82c-.5,1.9-1.72,3.77-3.61,4.3-2.2.61-4.56-.88-5.64-2.9a13,13,0,0,1-1.06-6.69c.15-3.6.65-7.2.6-10.8-.12-8.08-3.86-14.42-10-19.39-1.94-1.55-4.05-3-5.46-5a6.07,6.07,0,0,1-.33-6.91c1.54-2.69,1.36-4.48,1.6-7.42-.16,2-1.67,3.61-3.23,4.87s-3.29,2.43-4.22,4.2a8.36,8.36,0,0,0-.12,6.69c1.37,3.82,3.74,7,4.4,11a12,12,0,0,1-3.19,10.58A10.52,10.52,0,0,1,225.49,219a3.83,3.83,0,0,1-1.4-1,7.19,7.19,0,0,1-.8-1.53,6.43,6.43,0,0,0-2.87-2.94,5.27,5.27,0,0,1-1,6.05,8.41,8.41,0,0,1-6,2.29c-2,0-4-.46-6.07-.62-11.33-.89-6.68,14.19-6.88,21.1-.05,1.57-.33,3.31-1.56,4.3-2.78,2.24-6.51-1-6.79-3.91s.91-6.3,1.11-9.17a32.09,32.09,0,0,0-.55-8.3,31.55,31.55,0,0,0-7.28-14.84,22.69,22.69,0,0,1-3.83-4.83c-.9-1.86-1-4.3.39-5.81-2.61,1.53-3,5.15-2.54,8.13s1.53,6,.76,9c-.73,2.75-3,4.87-5.53,6.18-4.77,2.47-13.86,3.24-17.14-2-1.23-2-2.09-4.95-.58-6.7a11.06,11.06,0,0,0-2.81,6.36c-.16,5,4.85,9.25,4,14.17-.32,1.93-1.51,3.59-2.47,5.31a15,15,0,0,0-2.09,7c-.06,4.64,3.57,8.18,4,12.81.33,3.31-.67,6.9-3.22,9a8.7,8.7,0,0,1-9.39,1,9.55,9.55,0,0,1-5-8.13c-.08-3.42,1.59-6.6,2.34-9.93a30,30,0,0,0,.34-10.69,11.75,11.75,0,0,0-1.8-4.75c-.49-.72-2.8-2.26-2.95-2.86a11.8,11.8,0,0,1-7,13.37c-4.42,1.68-9.42.46-13.8-1.32a30.28,30.28,0,0,0-5.71-2,7.5,7.5,0,0,0-5.81,1c-1.44,1-2.27,2.69-3.31,4.12A14.88,14.88,0,0,1,95,254.15c-3.26,1.08-7.26,1.28-9.16,4.13-1.79,2.69-2,6.55-2.48,9.64a32.87,32.87,0,0,1-1.59,7.23c-.9,2.37-2.71,4.75-5.24,5-3.35.26-10.61-7.66-11.35-10.73-.6-2.48,1.37-4.81,1.86-7.32.72-3.67-1.78-7.18-4.45-9.8,2,2,1.62,5.49.09,7.89s-3.93,4.09-5.9,6.15-3.6,4.85-3,7.64c.55,2.5,2.76,4.34,3.54,6.78a7.87,7.87,0,0,1-1.25,6.75,14.3,14.3,0,0,1-5.46,4.45,15.16,15.16,0,0,1-9.13,1.83c-3.12-.5-6.09-2.61-7-5.64.58,2-.07,4.34.64,6.46a29.59,29.59,0,0,0,3.2,5.84c2.23,3.64,5.93,6.59,6.79,11,.67,3.46-.46,7-.73,10.51a17.56,17.56,0,0,0,1,7.41H459.72c5-5.31,5.92-13.38,3.73-20.6C462.58,305.87,461.15,303,461.5,300.05Z" style="fill:#fff;opacity:0.30000000000000004"></path><g style="opacity:0.15"><path d="M73.17,208.36a6,6,0,0,1,.25,7.88A4.53,4.53,0,0,0,71.06,212c-1.17-.91-2.5-1.7-3.13-3.12a5,5,0,0,1-.11-3.58,8.43,8.43,0,0,1,1.91-3.09c-.93,1-.5,2.62.38,3.62S72.24,207.41,73.17,208.36Z" style="fill:#90CAF9"></path><path d="M121.84,182.18a5.29,5.29,0,0,1,.74,4.12c2.11-1.24,2.36-4,1.59-6.05-.35-.95-.94-1.79-1.26-2.75a5.4,5.4,0,0,1,2.16-6.06,5,5,0,0,0-3,1.23c-1.7,1.36-2.86,3.67-2.2,5.76A21,21,0,0,0,121.84,182.18Z" style="fill:#90CAF9"></path><path d="M107.17,198.67a7.6,7.6,0,0,1,3.39-4.69,7.57,7.57,0,0,0,2.32-2.61,4.23,4.23,0,0,1-2.38,1.45c-2.38.78-4.92,1.47-6.38,3.7-.92,1.41-.26,3.43.26,4.87.65,1.84,2.78,4.52,1.86,6.6a12.89,12.89,0,0,0,.61-5.64A13.54,13.54,0,0,1,107.17,198.67Z" style="fill:#90CAF9"></path><path d="M44.75,241.31c-2.81-4.28.91-10.39,5.4-11.67a9.12,9.12,0,0,0-2.58,5,8.35,8.35,0,0,0,.39,4.83c.81,1.52,2.17,2.68,3,4.2a6.8,6.8,0,0,1,.28,5.7c.7-1.7-1.69-3.58-2.83-4.39A13.08,13.08,0,0,1,44.75,241.31Z" style="fill:#90CAF9"></path><path d="M37,254.73A6.78,6.78,0,0,1,35.18,252,4.89,4.89,0,0,1,38,246.18a6.64,6.64,0,0,1,3.31-.19c-1.47.81-3,1.83-3.14,3.69-.16,2.11,1.23,3.44,2.31,5A5.63,5.63,0,0,1,41,260C41.79,258.29,38,255.64,37,254.73Z" style="fill:#90CAF9"></path><path d="M30.5,271.18l.07-.09c1-1.28.56-2,.91-3.43a4.39,4.39,0,0,1-2.94,3.17c-1.39.52-2.91.65-4.28,1.22-5.69,2.36-5.94,10.26-4,15.2-.81-2,.79-6,1.88-7.65a27.36,27.36,0,0,1,5.55-5.67A18.53,18.53,0,0,0,30.5,271.18Z" style="fill:#90CAF9"></path><path d="M156.78,180a39.71,39.71,0,0,0-2.4-5.49,7.41,7.41,0,0,1-.07-5.11,15.2,15.2,0,0,1,2.6-4.46,9.11,9.11,0,0,0-3.85,1.38c-3.49,2.38-4.69,7-2.12,10.5,1.23,1.68,3.2,2.68,4.23,4.61a4.48,4.48,0,0,1,.31,3.84c.72-1.6,1.7-2.83,1.43-4.65A4.56,4.56,0,0,0,156.78,180Z" style="fill:#90CAF9"></path><path d="M194,158.13a5.55,5.55,0,0,1-.57,6,18.22,18.22,0,0,0,2.32-2.41c1.35-1.68,2.49-3.22,1.94-5.51a8.71,8.71,0,0,0-2.2-3.79,12,12,0,0,1-2.56-3.23,4.34,4.34,0,0,1,.82-4.48c-1.95.49-3.66,2.77-4.19,4.64C188.39,153.4,192.35,155.08,194,158.13Z" style="fill:#90CAF9"></path><path d="M217.72,182.92c.25-1.88,1.7-3.37,3.23-4.5a7.35,7.35,0,0,0-5.12,2.8,4.56,4.56,0,0,0,.1,5.42c1.09,1.42,4.56,2.53,4.7,4.57a7,7,0,0,0-1.48-3.85A6.67,6.67,0,0,1,217.72,182.92Z" style="fill:#90CAF9"></path><path d="M252.27,149a18.94,18.94,0,0,1,1.9-3,5.15,5.15,0,0,0,1.09-3.29c-.14-1.49-1.29-2.66-2.39-3.67,2.41.83,4.87,2.18,5.86,4.52.78,1.83,0,3.67-1.2,5.11-.79.9-1.72,1.66-2.47,2.58a5.42,5.42,0,0,0-.93,5.28,6.53,6.53,0,0,1-2.3-5.71A5.65,5.65,0,0,1,252.27,149Z" style="fill:#90CAF9"></path><path d="M292.91,179.36a11.17,11.17,0,0,1,.77,3.6,4.94,4.94,0,0,1-.53,2.43c0-3.35-3-5.39-4.73-7.89a7.23,7.23,0,0,1,.13-8.11c.67-.95,1.54-1.74,2.29-2.63,1.51-1.81,2.49-4.31,1.74-6.55A11.61,11.61,0,0,1,295.2,165a7,7,0,0,1-.75,5.34c-.67,1-1.7,1.89-2.18,3C291.46,175.41,292.22,177.38,292.91,179.36Z" style="fill:#90CAF9"></path><path d="M327.35,167.37a25.74,25.74,0,0,0-5.39-6.16c-2.34-2-4.89-3.92-6.31-6.64a11.35,11.35,0,0,1-.17-9.73,13.94,13.94,0,0,1,7-6.88,9.13,9.13,0,0,0-3.27,9.66c.9,3.11,3.39,5.45,5.56,7.86,2.84,3.15,4.5,6.81,6.17,10.66s.21,8.31-1.48,11.91c-.32-1.82-.05-3.71-.27-5.55A13,13,0,0,0,327.35,167.37Z" style="fill:#90CAF9"></path><path d="M375.49,151.78c4.74-1,9.12,2.52,9.95,7.15-1.1-1.51-4.77-2-6.54-1.66-6.88,1.2-3.47,8-4.66,12.24a3.48,3.48,0,0,1-2.83,2.65c1.44-1.33,1.22-3.7.38-5.47s-2.15-3.31-2.68-5.2a7.65,7.65,0,0,1,1.13-6.22A8.29,8.29,0,0,1,375.49,151.78Z" style="fill:#90CAF9"></path><path d="M411.86,184.34c-1.73,1.49-4.14,2.31-5.75,3.92s-1.72,4.3-2,6.53c.27-2.27,2.12-4.06,4.13-5.16,3.38-1.83,9.72-2.94,9.35-8.11a5.3,5.3,0,0,0-2.24-3.76,10.9,10.9,0,0,0-4.13-1.74,5.35,5.35,0,0,1,2.82,3.35C414.43,181.23,413.3,183.1,411.86,184.34Z" style="fill:#90CAF9"></path><path d="M433.1,207.63a6.25,6.25,0,0,1-.42-2,9.48,9.48,0,0,1,1.6-4.67,10.93,10.93,0,0,1,2.37-3.25c-2.95.35-5.17,1.08-7.06,3.43a8.25,8.25,0,0,0-1.45,7.38c.78,2.88,3.95,4.81,6.27,6.35,1.9,1.26,3.8,3,3.9,5.32-.13-2.86-.52-5.21-2.27-7.59A21.17,21.17,0,0,1,433.1,207.63Z" style="fill:#90CAF9"></path><path d="M451.9,216.41a31.07,31.07,0,0,0,3.1-4.17,7.18,7.18,0,0,0-.7-7.37c2,1.59,4.08,3.48,4.27,6a7.14,7.14,0,0,1-1.54,4.5c-1.16,1.64-3.06,3.1-3.38,5.16a14.48,14.48,0,0,0,0,3.29,16.51,16.51,0,0,0,.11,2.83,18.59,18.59,0,0,0-2.38-4.07C450,220.24,450.38,218.51,451.9,216.41Z" style="fill:#90CAF9"></path><path d="M478.24,245.13a19.53,19.53,0,0,1,2.93,6,15,15,0,0,1-1.6,10.19,29.94,29.94,0,0,0-2.54,5.77,23,23,0,0,1,4.64-5.82,14.33,14.33,0,0,0,3.29-5.51,7.65,7.65,0,0,0-.44-6.4c-2-3.34-6.21-4.74-8.59-7.89C476.62,242.71,477.44,243.92,478.24,245.13Z" style="fill:#90CAF9"></path></g></g></g><g id="freepik--Floor--inject-172"><path id="freepik--floor--inject-172" d="M92.58,269.14c-86.93,50.19-86.93,131.57,0,181.76s227.89,50.2,314.83,0,86.93-131.57,0-181.76S179.52,218.94,92.58,269.14Z" style="fill:#455a64"></path></g><g id="freepik--Shadow--inject-172"><ellipse id="freepik--shadow--inject-172" cx="250" cy="426.86" rx="79.77" ry="46.06" style="fill:#37474f"></ellipse></g><g id="freepik--fire-ball-2--inject-172"><g id="freepik--fire-ball--inject-172"><path d="M409.28,320.55a12.54,12.54,0,0,1,2.87-.37c4.22,0,6.63,6.09,11.5,4.51a3.47,3.47,0,0,0-1.94-6.67c3-1.69,7-.34,9.5,2.13,2.69,2.7,4,6.47,6.53,9.27,3.69,4,7.19,4.91,11.62,9.84A33.34,33.34,0,0,1,453,378.1a33.88,33.88,0,0,1-22.67,16.22c-10.92,2.15-21.9-1.69-30.75-8.08a19.15,19.15,0,0,0-4.16-2.59c-2.43-.93-5.15-.61-7.7-1.11a12.58,12.58,0,0,1-9.8-12.68,6.15,6.15,0,0,0,8.33,2.17,7.2,7.2,0,0,0,2.78-8.45,8.74,8.74,0,0,0-7.37-5.41c-3.41-.3-5.85,1-9.29-.25a14.66,14.66,0,0,1-7.56-6.36,29.28,29.28,0,0,1-2.19-5.45c-1.39-4.3-2.21-9.68-5.31-13.13-2.14-2.39-5.58-2.73-8.58-2.68-3.87.07-7.87-.49-11.16-2.52s-5.72-5.77-5.35-9.61a6.4,6.4,0,0,0,11.48-4.46,8.62,8.62,0,0,0-2.53-5,16.84,16.84,0,0,0-9.91-4.64c-6.06-.83-7.17,1.22-13.12-.73s-9.3-6.92-8.46-13.23c3.25,4.31,5.08,6.1,10.48,6,6.9-.14,10.17-4.39,17.07-4.05,5.05.25,10.36,3.87,13.68,7.53,3.15,3.49,5.34,8.07,9.45,10.36,4.48,2.51,9,1.52,13.71.84a17.66,17.66,0,0,1,10.82,1.72c3.57,1.93,5.06,4.89,7.81,7.66A9.78,9.78,0,0,0,399.4,323C402.86,323.06,406,321.33,409.28,320.55Z" style="fill:#90CAF9;opacity:0.45"></path><path d="M330.27,299.58a13.64,13.64,0,0,1,4.77.82c4.48,1.59,9.49,5,11.63,9.33a10.88,10.88,0,0,1-1.22,11.78c-1.3,1.66-3.33,3-5.42,2.68,1.84,1.88,4.65,2.45,7.28,2.37,2.23-.07,4.43-.54,6.64-.76a9,9,0,0,1,5.19,1.35,15.67,15.67,0,0,1,7.22,8.06c1.82,4.74,1.56,10.78,5.59,13.87,4.2,3.23,10.68,1.22,15.17,4,2.29,1.44,3.69,3.91,4.88,6.34,1.48,3,2.81,6.32,2.42,9.67s-3,6.66-6.41,6.62c2,2.55,5.71,2.65,8.81,3.56,4.87,1.44,8.4,5.29,12.84,7.58,9.71,5,20.18,5.61,29.46-.51,9.87-6.5,15.87-16.94,14.33-28.92-1.26-9.82-7.95-16.89-15.86-22.17a15.15,15.15,0,0,1-3.32-2.63,13.85,13.85,0,0,1-1.82-3.23c-1-2.2-1.7-4.26-3.52-5.88-1.28,3.39-4,6.12-7.8,6.27-3.52.15-6.86-1.91-10.37-1.76-3.12.14-5.36,2.19-8.21,2.9s-6.19,1.12-8.68-.66a14.24,14.24,0,0,1-3.37-4.3c-2.8-4.48-6.9-8.49-12.05-9.63-5-1.1-10.39.58-15.23-1.05-6.55-2.2-9.52-8.76-15.72-14.45-2.93-2.69-7.09-4.54-10.6-4.46a22.05,22.05,0,0,0-6.07,1.12,10.1,10.1,0,0,0-4.3,2.82A10.2,10.2,0,0,1,330.27,299.58Z" style="fill:#90CAF9"></path><path d="M330.27,299.58a13.64,13.64,0,0,1,4.77.82c4.48,1.59,9.49,5,11.63,9.33a10.88,10.88,0,0,1-1.22,11.78c-1.3,1.66-3.33,3-5.42,2.68,1.84,1.88,4.65,2.45,7.28,2.37,2.23-.07,4.43-.54,6.64-.76a9,9,0,0,1,5.19,1.35,15.67,15.67,0,0,1,7.22,8.06c1.82,4.74,1.56,10.78,5.59,13.87,4.2,3.23,10.68,1.22,15.17,4,2.29,1.44,3.69,3.91,4.88,6.34,1.48,3,2.81,6.32,2.42,9.67s-3,6.66-6.41,6.62c2,2.55,5.71,2.65,8.81,3.56,4.87,1.44,8.4,5.29,12.84,7.58,9.71,5,20.18,5.61,29.46-.51,9.87-6.5,15.87-16.94,14.33-28.92-1.26-9.82-7.95-16.89-15.86-22.17a15.15,15.15,0,0,1-3.32-2.63,13.85,13.85,0,0,1-1.82-3.23c-1-2.2-1.7-4.26-3.52-5.88-1.28,3.39-4,6.12-7.8,6.27-3.52.15-6.86-1.91-10.37-1.76-3.12.14-5.36,2.19-8.21,2.9s-6.19,1.12-8.68-.66a14.24,14.24,0,0,1-3.37-4.3c-2.8-4.48-6.9-8.49-12.05-9.63-5-1.1-10.39.58-15.23-1.05-6.55-2.2-9.52-8.76-15.72-14.45-2.93-2.69-7.09-4.54-10.6-4.46a22.05,22.05,0,0,0-6.07,1.12,10.1,10.1,0,0,0-4.3,2.82A10.2,10.2,0,0,1,330.27,299.58Z" style="fill:#fff;opacity:0.5"></path><path d="M384.16,324.35a19.88,19.88,0,0,1,2.88,2.92c1.65,2,3.18,4.13,5.31,5.58a10.88,10.88,0,0,0,8.36,1.6c3-.68,5.75-2.66,8.85-2.76a15,15,0,0,1,3.05.32c1.64.28,3.59.95,5.25.88s3.19-.83,4.77-1c4.87-.52,9.75,2.35,12.23,6.56a18,18,0,0,1,1.34,14.19,29.1,29.1,0,0,1-7.84,12.22,28,28,0,0,1-8.18,5.76c-3.43,1.5-7.29,2.07-10.39,4.15-2.25,1.52-3.88,3.35-6.62,1.63a14.55,14.55,0,0,1-5.48-7.3c-1.12-2.89-1.72-6-2.64-8.9a18.53,18.53,0,0,0-4.47-8,11.33,11.33,0,0,0-4.36-2.59,22.08,22.08,0,0,0-4.35-.72c-1.88-.17-3.44-.18-5-1.34a6.59,6.59,0,0,1-2.56-4.34c.24,1.77,3.17,2.13,4.46,1.79a7.31,7.31,0,0,0,4.49-3.69,11.08,11.08,0,0,0,.58-7.78,16.2,16.2,0,0,0-9.21-10.75c.62.26,1.73-.39,2.37-.45a11.62,11.62,0,0,1,4,.36A9.3,9.3,0,0,1,384.16,324.35Z" style="fill:#fff;opacity:0.30000000000000004"></path><path d="M363.78,325a12.86,12.86,0,0,1,4.05,6.34c.6,1.92.94,4,2,5.65a7.5,7.5,0,0,0,5.4,3.42c-2.05-.73-2.89-3.18-3-5.35s.12-4.14,0-6.21a10,10,0,0,0-2.17-6.37,12.61,12.61,0,0,0-5.58-3.93,13.63,13.63,0,0,0-12.26,2.13c-2.18,1.57-3.77,3.48-6.57,3.92,1.61.59,3.39.15,5-.29,2.26-.61,4.17-1.54,6.57-1.49A12.9,12.9,0,0,1,363.78,325Z" style="fill:#fff;opacity:0.30000000000000004"></path><path d="M355,314.62a4.12,4.12,0,0,1-1.18-1.1,11.75,11.75,0,0,1-1.37-3.29,10.64,10.64,0,0,0-2.27-4.29,5.31,5.31,0,0,0-5.09-1.4,9.48,9.48,0,0,1,3.15,3,29.46,29.46,0,0,1,1.78,4.22c.6,1.52,1.5,3.18,3.14,3.74a3.92,3.92,0,0,0,3.67-.47A3,3,0,0,1,355,314.62Z" style="fill:#fff;opacity:0.30000000000000004"></path><path d="M307.57,291.36c0,.79,0,1.57,0,2.35a8.78,8.78,0,0,0,3.58,7.13c-.35-.26-1.53-.2-2-.32a6.88,6.88,0,0,1-4.46-3.65,14.21,14.21,0,0,1-1.12-4.31,14.52,14.52,0,0,0-1.13-4.31,5.36,5.36,0,0,0-2-2.26c-.43-.26-2.17-1.07-2.6-.41a4.71,4.71,0,0,1,6-1.75,6.21,6.21,0,0,1,3.31,3.94A12.39,12.39,0,0,1,307.57,291.36Z" style="fill:#90CAF9;opacity:0.45"></path><path d="M340.08,333.3c2.6-.08,5.07-.79,7.67-.07,2.32.65,4.78,2.61,4.51,5.21-1.52-1.63-3.71-1.76-5.79-1.29a38.86,38.86,0,0,1-6.59,1.24,8.13,8.13,0,0,1-7.11-2.81,10.74,10.74,0,0,1-2.23-8.86c.69,3,3.51,5.24,6.29,6.18A9.22,9.22,0,0,0,340.08,333.3Z" style="fill:#90CAF9;opacity:0.45"></path><path d="M389.71,312c1.15,1.7,1.75,3.74,3,5.34a8,8,0,0,0,8.12,2.61,8.58,8.58,0,0,1-3.31-.93c-1.56-1-2.32-2.84-2.71-4.63a23.47,23.47,0,0,0-1.33-5.34,6.89,6.89,0,0,0-2.37-2.76c-3.65-2.44-7.28-.88-10.35,1.54a9,9,0,0,1,4.87.77A10,10,0,0,1,389.71,312Z" style="fill:#90CAF9;opacity:0.45"></path><path d="M372.52,361.27c2.82.19,5.91-1.16,8.34.28a4.88,4.88,0,0,0-4.35.53,36.83,36.83,0,0,1-3.92,2.3,7.11,7.11,0,0,1-6.76-1c-2.26-1.66-3.14-4-3.58-6.69-.3-1.84-.67-3.81-2-5.1a8.85,8.85,0,0,1,3.43,3.25C365.74,358,368.44,361,372.52,361.27Z" style="fill:#90CAF9;opacity:0.45"></path><g id="freepik--Mars--inject-172"><g id="freepik--Planet--inject-172"><path d="M410.45,384a26.32,26.32,0,1,0-9.66-36A26.31,26.31,0,0,0,410.45,384Z" style="fill:#90CAF9"></path><path d="M410.45,384a26.32,26.32,0,1,0-9.66-36A26.31,26.31,0,0,0,410.45,384Z" style="fill:#fff;opacity:0.15"></path><path d="M428.51,338.23a9.28,9.28,0,0,1-.07-2.93,26.35,26.35,0,0,0-25.87,10c2.1,2.84,1.62,8,5.94,8.36.14,0,.27,0,.42,0,1.94,0,3.54-1.49,4.71-3.05,2.36-3.15,4.78-6.05,9.33-4.56,1.41.46,2.64,1.37,4,1.9s3.14.56,4.16-.53c1.17-1.25.75-3.32-.12-4.8S428.91,339.9,428.51,338.23Zm17.88,36.09a26.33,26.33,0,0,0-7.31-34.43c0,.08,0,.16,0,.24-.57,3.13-4.73,5.15-4.22,8.3a27.36,27.36,0,0,0,1.06,2.81c.27,1,0,2.27-1,2.5a2.73,2.73,0,0,1-1.61-.36A4.47,4.47,0,0,0,430,353a2,2,0,0,0-1.19,2.74c.64,1,2.47,1.41,2.24,2.59a1.73,1.73,0,0,1-.82,1,29.16,29.16,0,0,0-3.69,2.34c-1.08,1-1.74,2.68-1,3.91a3.08,3.08,0,0,0,1.22,1c2.5,1.29,5.67.26,7.73-1.66s3.27-4.54,4.52-7.06c.85-1.7,2.46-3.67,4.22-3a2.88,2.88,0,0,1,1.49,1.73,5.46,5.46,0,0,1-.21,4.32,24.28,24.28,0,0,0-1.84,3.14c-.74,2.19.58,4.46,1.21,6.68s-.14,5.41-2.45,5.46l-2.71-3c-.38-.43-.9-.9-1.46-.74a1.3,1.3,0,0,0-.7.65c-1,1.73-.6,4-1.23,5.88-.84,2.58-3.39,4.13-5.75,5.47a12.37,12.37,0,0,1-4.19,1.73,4.29,4.29,0,0,1-4.11-1.42c-.68-.93-.85-2.22-1.74-2.94-1.13-.92-2.79-.48-4.24-.32s-3.38-.48-3.33-1.94c0-1.16,1.37-1.92,1.54-3.07.24-1.63-1.61-2-2.27-3.1a2.34,2.34,0,0,1-.1-1.71c.46-1.89,1.93-3.4,2-5.42a3,3,0,0,0-1.91-3c-1.69-.49-3.39,1.09-5.13.84a1.41,1.41,0,0,1-1.05-.62,1.92,1.92,0,0,1-.13-1c.07-1.24.56-3.13.23-4.32-.28-1-1.74-2.07-2.62-2.53a10.43,10.43,0,0,0-4.37-1.11,26.32,26.32,0,0,0,48.27,19.76ZM422,359.07a1.7,1.7,0,0,0-.09.83,1.54,1.54,0,0,0,1.35,1.42,1,1,0,0,0,.87-.34,3.61,3.61,0,0,0,.33-1c.22-.58.81-1.11.61-1.7C424.55,356.74,422.33,358.17,422,359.07Zm4.27,15.65c-.17.64.22,1.95,1,2.08a1.15,1.15,0,0,0,1-.36,3.19,3.19,0,0,0,.59-.9,1.71,1.71,0,0,0,.27-1.26C428.65,373,426.53,373.7,426.27,374.72Zm-2.83-2.43a2.47,2.47,0,0,0,2.1.55,2.83,2.83,0,0,0,2.54-1.75c.34-1.38-.93-1.4-1.82-1.64s-2-.5-2.67.28A2.34,2.34,0,0,0,423.44,372.29Zm6.68-1.94a1,1,0,0,0-.21.36c-.23.58-.22,1.71.59,1.74a2.17,2.17,0,0,0,1.88-1.51.85.85,0,0,0,0-.42.75.75,0,0,0-.59-.49,2.31,2.31,0,0,0-.83,0A1.38,1.38,0,0,0,430.12,370.35Z" style="fill:#fff;opacity:0.25"></path><path d="M414,385.69c9.39,3.17,25.9-7.57,27.7-22.76,1.93-16.15-14.18-28.69-25.78-26.93h0a26.32,26.32,0,1,1-1.91,49.7Z" style="opacity:0.1"></path><path d="M436.74,338.37a26.32,26.32,0,0,1-12.34,49.11c1.1-.05,15-.65,21.23-18.28,6.54-18.34-8.88-30.83-12.63-32.61A27.13,27.13,0,0,1,436.74,338.37Z" style="opacity:0.1"></path><path d="M410.64,352.57a4.12,4.12,0,1,0-4.92,3.12A4.12,4.12,0,0,0,410.64,352.57Zm6.73.53a7.08,7.08,0,1,0-5.37-8.46A7.08,7.08,0,0,0,417.37,353.1Zm-3.05,8.74a3.24,3.24,0,1,0-2.45-3.87A3.24,3.24,0,0,0,414.32,361.84Z" style="fill:#fff;opacity:0.25"></path><path d="M422.76,382.8c-.67-.32-1.34-.66-2-1a25.73,25.73,0,0,1-9.44-35.13,25.16,25.16,0,0,1,4-5.21,21.35,21.35,0,0,0,7.46,41.38Z" style="fill:#fff;opacity:0.30000000000000004"></path></g></g></g></g><g id="freepik--fire-ball-1--inject-172"><g id="freepik--fire-ball--inject-172"><path d="M88.1,314.32a16.3,16.3,0,0,1-3.22,3.79c-3.73,3-9,2.64-13.7,3.41-8,1.3-15.79,6.93-21.13,12.87a33.34,33.34,0,0,0-3.67,38.84,33.85,33.85,0,0,0,22.67,16.22C80,391.61,91,387.77,99.8,381.37a18.89,18.89,0,0,1,4.15-2.58c2.43-.94,5.15-.62,7.71-1.12a12.57,12.57,0,0,0,9.8-12.67,6.15,6.15,0,0,1-8.33,2.16,7.2,7.2,0,0,1-2.78-8.45,8.72,8.72,0,0,1,7.37-5.41c3.41-.3,5.85,1.05,9.28-.24a14.74,14.74,0,0,0,7.57-6.36,29.38,29.38,0,0,0,2.19-5.46c1.39-4.3,2.21-9.67,5.3-13.13,2.9-3.22,9-3.09,13.08-3.69,5-.73,9.83-.48,14.32-3.27a19.17,19.17,0,0,0,8.65-13c-1.36,1.38-2.84,2.83-4.75,3.17s-4.22-1.05-4-3c.16-1.63,1.88-2.61,3.46-3,5.71-1.51,12.1.68,17.53-1.64,6-2.54,8.61-10.85,5.18-16.37a8.92,8.92,0,0,1-4.11,8.59c-7.94,4.83-19.33-4.47-27.07.68-3.86,2.57-5.15,7.91-9,10.47-2.76,1.82-6.35,1.86-9.6,1.24s-6.37-1.84-9.64-2.34c-7.23-1.1-15.24,1.84-19,8.09-.88,1.44-1.52,3-2.49,4.4a11.43,11.43,0,0,1-10.5,4.7,7.39,7.39,0,0,1-2.87-.88A6.39,6.39,0,0,1,99,314a7.83,7.83,0,0,1,8.13-3.66A9.68,9.68,0,0,0,99,306.58a12,12,0,0,0-8.19,4.05A34.16,34.16,0,0,0,88.1,314.32Z" style="fill:#90CAF9;opacity:0.45"></path><path d="M163.13,303c-2,2-3.13,4.72-5.18,6.65-3.75,3.53-9.56,3.49-14.66,2.78s-10.51-1.81-15.23.25c-3.24,1.41-5.69,4.13-8,6.77a39.79,39.79,0,0,1-7.07,6.72c-4.43,3-10.8,4-14.69-.25-3.34-3.66-4.45-9.51-2.06-13.95-4.78,1.16-7,6.61-10.73,9.77-4.19,3.54-9.43,3.31-14.47,4.36-5.72,1.21-12,5.07-16.27,8.95-5.93,5.36-8.81,13.27-8.82,21.16a31.3,31.3,0,0,0,9.63,22A26.83,26.83,0,0,0,66.69,385a32.15,32.15,0,0,0,21.12-1.38c4.47-1.93,8.36-4.93,12.64-7.2,2-1.07,4.38-2.31,6.67-2.53a15.57,15.57,0,0,0,5.61-1.38c1.06-.51,1.59-1.39,2.59-1.92-2.86,1.53-5.64-.8-7.09-3.13-2.18-3.5-2.86-7.11-1.41-11a12.53,12.53,0,0,1,10.3-8.07c2.92-.34,5.95-.15,8.71-1.16a10.57,10.57,0,0,0,4.2-2.86c3.59-4.05,3.55-10.13,6-15,3.9-7.7,11.75-8.38,19.36-9.21a34.08,34.08,0,0,0,7.72-1.46,11.49,11.49,0,0,0,6.16-4.66,3.43,3.43,0,0,1-4.69-.6,6.08,6.08,0,0,1-1-5,10.35,10.35,0,0,1,10.16-8.22C169.74,300.18,166.22,299.93,163.13,303Z" style="fill:#90CAF9"></path><path d="M163.13,303c-2,2-3.13,4.72-5.18,6.65-3.75,3.53-9.56,3.49-14.66,2.78s-10.51-1.81-15.23.25c-3.24,1.41-5.69,4.13-8,6.77a39.79,39.79,0,0,1-7.07,6.72c-4.43,3-10.8,4-14.69-.25-3.34-3.66-4.45-9.51-2.06-13.95-4.78,1.16-7,6.61-10.73,9.77-4.19,3.54-9.43,3.31-14.47,4.36-5.72,1.21-12,5.07-16.27,8.95-5.93,5.36-8.81,13.27-8.82,21.16a31.3,31.3,0,0,0,9.63,22A26.83,26.83,0,0,0,66.69,385a32.15,32.15,0,0,0,21.12-1.38c4.47-1.93,8.36-4.93,12.64-7.2,2-1.07,4.38-2.31,6.67-2.53a15.57,15.57,0,0,0,5.61-1.38c1.06-.51,1.59-1.39,2.59-1.92-2.86,1.53-5.64-.8-7.09-3.13-2.18-3.5-2.86-7.11-1.41-11a12.53,12.53,0,0,1,10.3-8.07c2.92-.34,5.95-.15,8.71-1.16a10.57,10.57,0,0,0,4.2-2.86c3.59-4.05,3.55-10.13,6-15,3.9-7.7,11.75-8.38,19.36-9.21a34.08,34.08,0,0,0,7.72-1.46,11.49,11.49,0,0,0,6.16-4.66,3.43,3.43,0,0,1-4.69-.6,6.08,6.08,0,0,1-1-5,10.35,10.35,0,0,1,10.16-8.22C169.74,300.18,166.22,299.93,163.13,303Z" style="fill:#fff;opacity:0.5"></path><path d="M121,343.47c-.53.12-1.06.25-1.6.4-2.2.63-4.5.88-6.67,1.61a12.57,12.57,0,0,0-6.71,5,15.56,15.56,0,0,0-1.91,5c-1.21,5.38-.59,11.81,3.76,15.21-3.51-1.19-7.33.17-10.7,1.69s-6.89,3.29-10.57,2.9c-5.08-.53-8.78-4.92-11.63-9.15a32.82,32.82,0,0,1-4.45-8.57,28.64,28.64,0,0,1-.77-10.72c.47-5.45,2-11.32,6.42-14.58,2.51-1.87,5.73-2.69,8-4.82,2.55-2.35,3.82-6.14,7-7.57-1.19,1.78-.75,4.21.21,6.12a13.09,13.09,0,0,0,8.53,6.71,15.88,15.88,0,0,0,11-1.7,15.73,15.73,0,0,0,3.89-2.52,52,52,0,0,0,3.71-4.13,29.06,29.06,0,0,1,5.9-5.77,10.22,10.22,0,0,1,7.86-1.75c-3.26.76-7.37,3.12-8.37,6.52a9.17,9.17,0,0,0,0,5.39c.58,1.76,2.41,4.49,4.61,3.92a3.51,3.51,0,0,0,2.24-2.07,13.62,13.62,0,0,1-.79,6.67C128.36,341.11,124.83,342.59,121,343.47Z" style="fill:#fff;opacity:0.30000000000000004"></path><path d="M148.52,318.55l-.82.07a20,20,0,0,0-9,2.61,11.51,11.51,0,0,0-3.22,3,9.82,9.82,0,0,0-1,1.88,5.15,5.15,0,0,0-.61,2,12.08,12.08,0,0,1,.86-7.31,11.52,11.52,0,0,1,5.73-5c4.35-1.73,9.1-1.08,13.6-2a12,12,0,0,0,4.91-2.1,7.5,7.5,0,0,0,2.9-4.39c.29,1.85-.41,3.77.19,5.59a5.29,5.29,0,0,0,1.37,2.21,3.45,3.45,0,0,0,2.41.91,17.24,17.24,0,0,1-8.64,2.13C154.31,318.21,151.39,318.33,148.52,318.55Z" style="fill:#fff;opacity:0.30000000000000004"></path><path d="M94.71,304.82c-.19.15-.54.47-.54.47a7,7,0,0,1,.43-1.3,6.32,6.32,0,0,1,.65-1,6.18,6.18,0,0,1,2.17-1.83c2.39-1.2,4.66-.77,7.09-.18,2.87.71,6.33,2.12,9.06.28a4.05,4.05,0,0,0,1.84-3.36,12.21,12.21,0,0,1-.22,3.62c-1,3.82-4.7,4.79-8.12,3.83-2-.55-4-1.06-6-1.51a11.72,11.72,0,0,0-2.36-.37A6.52,6.52,0,0,0,94.71,304.82Z" style="fill:#90CAF9;opacity:0.45"></path><path d="M159.17,296.83c-.85,1.49-1.33,3.19-2.35,4.58a7.24,7.24,0,0,1-7.24,2.74A3.48,3.48,0,0,0,152.9,302,16.55,16.55,0,0,0,154,298c.67-3.08,2.45-6.17,5.4-7.28a11.32,11.32,0,0,1,9.62,1.18,9.39,9.39,0,0,0-5.56.95A10.17,10.17,0,0,0,159.17,296.83Z" style="fill:#90CAF9;opacity:0.45"></path><path d="M139.15,340.66c-.08.62-.14,1.26-.23,1.88a14.2,14.2,0,0,1-1.94,6.13,13.08,13.08,0,0,1-4.79,4.13,16.88,16.88,0,0,0,3-.71,13.2,13.2,0,0,0,3.22-1.47,7.8,7.8,0,0,0,3.57-4.55c.4-1.84-.34-3.69-.87-5.41a12.91,12.91,0,0,1-.55-5.12A13.09,13.09,0,0,0,139.15,340.66Z" style="fill:#90CAF9;opacity:0.45"></path><g id="freepik--mars--inject-172"><g id="freepik--planet--inject-172"><path d="M89,379.1a26.32,26.32,0,1,1,9.65-35.94A26.31,26.31,0,0,1,89,379.1Z" style="fill:#90CAF9"></path><path d="M89,379.1a26.32,26.32,0,1,1,9.65-35.94A26.31,26.31,0,0,1,89,379.1Z" style="fill:#fff;opacity:0.15"></path><path d="M68.37,337.83c-.87,1.48-1.29,3.54-.12,4.8,1,1.08,2.77,1,4.16.52s2.62-1.43,4-1.9c4.54-1.49,7,1.41,9.33,4.57,1.17,1.55,2.77,3.08,4.71,3l.42,0c4.32-.4,3.84-5.53,5.94-8.36a26.31,26.31,0,0,0-25.87-10,9.22,9.22,0,0,1-.07,2.92C70.5,335,69.24,336.34,68.37,337.83ZM89,379.1a26.32,26.32,0,0,0,12.33-29.41,10.74,10.74,0,0,0-4.37,1.11c-.88.47-2.34,1.51-2.63,2.53-.32,1.19.16,3.09.24,4.32a1.86,1.86,0,0,1-.14,1.05,1.4,1.4,0,0,1-1,.61c-1.74.25-3.44-1.32-5.13-.84a3,3,0,0,0-1.91,3c0,2,1.5,3.53,2,5.42a2.39,2.39,0,0,1-.1,1.71c-.66,1.13-2.51,1.48-2.27,3.1.17,1.15,1.5,1.91,1.54,3.08,0,1.46-1.87,2.1-3.33,1.93s-3.11-.6-4.24.32c-.89.73-1.06,2-1.74,3A4.33,4.33,0,0,1,74,381.4a12.59,12.59,0,0,1-4.19-1.74c-2.36-1.33-4.91-2.89-5.75-5.46-.63-1.92-.2-4.15-1.23-5.89a1.32,1.32,0,0,0-.71-.65c-.55-.16-1.07.32-1.45.75l-2.71,3c-2.31-.05-3.08-3.24-2.45-5.46s1.95-4.5,1.21-6.69a26.25,26.25,0,0,0-1.84-3.14,5.46,5.46,0,0,1-.21-4.32,2.91,2.91,0,0,1,1.49-1.73c1.76-.71,3.37,1.27,4.22,3,1.25,2.51,2.46,5.14,4.52,7.06s5.23,2.94,7.73,1.65a3.06,3.06,0,0,0,1.22-1c.78-1.24.12-2.93-1-3.92a29.16,29.16,0,0,0-3.69-2.34,1.69,1.69,0,0,1-.82-1c-.23-1.18,1.6-1.57,2.24-2.58a2,2,0,0,0-1.19-2.75,4.47,4.47,0,0,0-3.31.34,2.74,2.74,0,0,1-1.61.36c-1-.22-1.29-1.52-1-2.49a27.52,27.52,0,0,0,1.06-2.82c.5-3.14-3.65-5.16-4.22-8.3a1.6,1.6,0,0,1,0-.23A26.32,26.32,0,0,0,89,379.1ZM74.34,353.42c-.2.59.39,1.12.6,1.7a3.69,3.69,0,0,0,.34,1,1,1,0,0,0,.87.33A1.54,1.54,0,0,0,77.5,355a1.78,1.78,0,0,0-.09-.82C77.07,353.31,74.86,351.87,74.34,353.42Zm-4,16a1.7,1.7,0,0,0,.27,1.26,3.19,3.19,0,0,0,.59.9,1.16,1.16,0,0,0,1,.37c.72-.13,1.12-1.45,1-2.09C72.88,368.83,70.76,368.15,70.35,369.41Zm5.46-4.54c-.66-.78-1.8-.52-2.66-.29s-2.16.27-1.82,1.65A2.86,2.86,0,0,0,73.87,368a2.49,2.49,0,0,0,2.1-.56A2.31,2.31,0,0,0,75.81,364.87Zm-7.4.27a2.56,2.56,0,0,0-.83,0,.74.74,0,0,0-.59.5.86.86,0,0,0,0,.42,2.16,2.16,0,0,0,1.87,1.5c.82,0,.83-1.15.6-1.74a1,1,0,0,0-.21-.36A1.32,1.32,0,0,0,68.41,365.14Z" style="fill:#fff;opacity:0.25"></path><path d="M85.39,380.82c-9.39,3.18-25.9-7.56-27.7-22.76-1.93-16.15,14.18-28.69,25.78-26.93h0a26.32,26.32,0,1,0,1.91,49.69Z" style="opacity:0.1"></path><path d="M62.67,333.5A26.32,26.32,0,0,0,75,382.61c-1.1-.05-15-.65-21.24-18.27C47.24,346,62.66,333.51,66.4,331.72A27,27,0,0,0,62.67,333.5Z" style="opacity:0.1"></path><path d="M93.69,350.82a4.11,4.11,0,1,0-4.92-3.12A4.11,4.11,0,0,0,93.69,350.82Zm-6.29-11A7.08,7.08,0,1,0,82,348.23,7.06,7.06,0,0,0,87.4,339.78Zm.14,13.32A3.24,3.24,0,1,0,85.09,357,3.24,3.24,0,0,0,87.54,353.1Z" style="fill:#fff;opacity:0.25"></path><path d="M76.65,377.94c.67-.32,1.34-.67,2-1.05a25.71,25.71,0,0,0,5.47-40.34,21.36,21.36,0,0,1-7.46,41.39Z" style="fill:#fff;opacity:0.30000000000000004"></path></g></g></g></g><g id="freepik--Character--inject-172"><g id="freepik--Chartacter--inject-172"><g id="freepik--Bottom--inject-172"><path d="M287,410.8c-1.25-2.67-2.58-4.64-2.58-9.4S286,372.86,287,347l-30.56-.68c2.07,19.14,7.19,52.41,7.21,55.62a8.18,8.18,0,0,1,.17,1.2c-.05,6.67,7.42,10.36,13.23,14.88a109.26,109.26,0,0,0,15.74,10.55c4.23,2.2,12.88,2.49,14-.24C299.74,422.75,290.53,418.44,287,410.8Z" style="fill:#c8856a"></path><path d="M318.89,435.62c.36,0,.87,4.05-1.14,5.75-2.31,2-9.08,5.13-18,3.88s-13.66-4.07-17.19-7.1-8.46-7.29-12.47-8.23c-3.73-.87-7.77-2.61-8.95-3.79s-1-6.32-1-6.32Z"></path><path d="M263.54,400s-.67,0-.91,1.21c-.29,1.41-.63,5.54-1.25,7.86-.85,3.23-1.47,9.85-1,12.5s6.53,4.55,10.4,6.08,8.53,4.74,12.52,8.13S296.18,442.87,302,443c8.85.23,14.6-2.11,16.41-5.28,2.23-3.92.54-6.22-9.57-11.07-1.92-.91-8.63-5-10.92-6.48a52.13,52.13,0,0,1-6.86-5.25,11.33,11.33,0,0,1-2.06-2.15,15.68,15.68,0,0,1-1.28-2.6c-.74-1.85-1.24-3.79-1.94-5.65a3.74,3.74,0,0,0-.58-1.1,2.81,2.81,0,0,0-2.4-.82c-1.16,0-2.3,0-3.46.15a21.6,21.6,0,0,0-6.64,1.89c-.6.28-1.22.52-1.47,1.14a8,8,0,0,0-.31,2.39c0,.59,0,1.19,0,1.79,0,.25.09.71-.26.6s-.7-1-.83-1.3c-.27-.67-.45-1.39-.75-2a10.59,10.59,0,0,0-1.24-2.17,10,10,0,0,0-1.59-1.66,20.76,20.76,0,0,1-1.73-1.15A4.16,4.16,0,0,1,263.54,400Z" style="fill:#263238"></path><path d="M310.45,427.47c-12.82.74-16.95,8.63-17.54,13.53a30.27,30.27,0,0,0,9.07,2c8.85.23,15-2.1,16.77-5.27C320.86,434.05,319.49,431,310.45,427.47Z" style="fill:#fafafa"></path><path d="M291.24,427.38a.67.67,0,0,1-.39-.14.64.64,0,0,1-.08-.89c1.81-2.17,7-5,11.64-4.44a.62.62,0,0,1-.15,1.24c-4.34-.51-9.09,2.29-10.53,4A.58.58,0,0,1,291.24,427.38Z" style="fill:#f0f0f0"></path><path d="M285.76,424.1a.66.66,0,0,1-.39-.15.62.62,0,0,1-.08-.88c1.81-2.18,7-5,11.64-4.45a.62.62,0,0,1,.54.7.61.61,0,0,1-.69.54c-4.34-.51-9.1,2.29-10.53,4A.62.62,0,0,1,285.76,424.1Z" style="fill:#f0f0f0"></path><path d="M280.7,420.36a.68.68,0,0,1-.4-.15.63.63,0,0,1-.08-.88c1.81-2.18,7-5,11.64-4.45a.62.62,0,0,1-.15,1.24c-4.34-.51-9.09,2.29-10.53,4A.62.62,0,0,1,280.7,420.36Z" style="fill:#f0f0f0"></path><path d="M275.73,416.62a.64.64,0,0,1-.39-.14.63.63,0,0,1-.09-.89c2.49-3.08,8.06-5.06,12.7-4.49a.62.62,0,1,1-.15,1.24c-4.18-.5-9.37,1.32-11.58,4A.62.62,0,0,1,275.73,416.62Z" style="fill:#f0f0f0"></path><path d="M199.59,363.38c-.5,21.05.42,29.59-1.57,46.73-.38,3.3-3.76,25.58-3.5,32.53.4,10.45,13.56,10.86,15.08,4.86s5.69-32.3,6.12-35c1.51-11.24,4.13-12.69,9.13-35,.79-3.05,1.55-6,2.3-8.77Z" style="fill:#c8856a"></path><path d="M213.53,452.4c-.61,6-1.72,10-4,13.42s-6.37,4.39-10.4,3.18S190,464.79,189,459.53s-1.47-8.85-.3-14.41Z"></path><path d="M198.26,408c-1.69.06-2.53,8.14-3.85,16.21-1.41,8.65-4.15,12.14-5.39,19.23-1.41,8.1-.22,11.8,2.41,16.84s12.5,10.32,17.77,3.48c4.3-5.58,4.74-12,4.72-20.1,0-8.42.81-14.22,1.43-20.59.59-6.08,2.2-12.17.77-12.92-.15.9-.31,2-.47,2.9a14.74,14.74,0,0,1-.68,3.23c-.19.45-.59.91-.71.16a4.86,4.86,0,0,1,.07-1.52c.34-2.23-.78-2.46-1.38-2.66a73,73,0,0,0-7.75-1.45c-1.28-.14-5.71-.53-6.31.18a5,5,0,0,0-.67,2.33c-.2,1.22-.52,2.11-.54,1.72,0-.88.23-3.15.27-3.7s.16-1.25.2-1.78S198.2,408.48,198.26,408Z" style="fill:#263238"></path><path d="M188.35,448.1A20.37,20.37,0,0,0,191,460.61c2.64,5.05,13.32,10.37,18.58,3.53,2.63-3.41,3.47-7.53,4-11.75C210.79,446.83,193.24,443.67,188.35,448.1Z" style="fill:#fafafa"></path><path d="M210.24,443.38a.48.48,0,0,1-.2-.07c-.07,0-7.71-3.59-15.35-2.16a.63.63,0,0,1-.73-.5.63.63,0,0,1,.5-.73c8.09-1.51,15.87,2.13,16.16,2.29a.62.62,0,0,1-.38,1.17Z" style="fill:#f0f0f0"></path><path d="M195.32,435.09a.62.62,0,0,1-.51-.44.64.64,0,0,1,.43-.78c7.64-2.23,15.84,2,16.15,2.15a.61.61,0,0,1,.22.85.62.62,0,0,1-.85.23c-.07,0-8.06-4.11-15.17-2A.62.62,0,0,1,195.32,435.09Z" style="fill:#f0f0f0"></path><path d="M195.84,429.38a.63.63,0,0,1-.1-1.22c8.41-2.62,16.17,1.92,16.46,2.12a.62.62,0,0,1-.69,1c-.07-.05-7.57-4.4-15.4-2A.63.63,0,0,1,195.84,429.38Z" style="fill:#f0f0f0"></path><path d="M196.49,423.76a.6.6,0,0,1-.5-.42.62.62,0,0,1,.39-.79c7.9-2.58,16.26,2.09,16.57,2.29a.63.63,0,0,1,.19.86.61.61,0,0,1-.86.19c-.07,0-8.18-4.55-15.51-2.15A.67.67,0,0,1,196.49,423.76Z" style="fill:#ebebeb"></path><path d="M213.49,205.58c-3,7.79-8.53,44.71-9,59.37C203.4,303,201.22,319.4,200.88,324s-2.17,19.15-2.9,39.21c-.91,24.95-1.46,35.82-1.46,35.82s3.57,3.93,11,5.1a18.29,18.29,0,0,0,12.27-2s8.83-30.93,12.45-44.5S248,291.85,248,291.85l6.73,30.75A160,160,0,0,0,256,356.14c3,19.89,5.09,34.42,5.09,34.42s6.67,3.22,13.52,3c8.83-.23,11.18-3.1,11.18-3.1s4.06-48.94,5.05-74.61c.93-24.08,2.08-67.2-.18-109Z" style="fill:#37474f"></path><path d="M256.17,252.64,248,291.85l6.73,30.75-2.23-29.51,8-35.87c5.49-1.07,15.55-4.65,17.47-12.11C269.24,253.54,256.17,252.64,256.17,252.64Z" style="fill:#263238"></path></g><g id="freepik--Top--inject-172"><path d="M362.85,126.86c-.84.23-1.34.88-2.84,1.88,1.43-1.6,3.45-4,4.09-6.55a2.72,2.72,0,0,0,0-1.36c-.13-.36-.65-1.31-1.28-1.34,0,0,.58-1.26,1.11-2.33.44-.88,1.26-3-.22-3.22-1.16-.21-2.44.73-3.72,2.08a4.17,4.17,0,0,0,.67-2.43c-.46-1.48-1.65-2-4.06.37s-8.29,8.44-14,10.43c-1,.36-3,1.35-4.07,1h0c-1.5-.54-.33-2.71.15-3.63a23.53,23.53,0,0,0,1.21-2.71,8.63,8.63,0,0,0,.65-3.24,3.76,3.76,0,0,0-1.4-2.9c-.48-.35-1.12-.54-1.49,0-1.48,2.2-3,4.35-4.51,6.54a43.74,43.74,0,0,0-4,6.48c-1.17,2.65-1.72,5.95-3.47,9.66s-3.79,7.2-9,14.08c-2.86,3.79-7.5,10.56-7.5,10.56C305,154,296.33,142,291.64,135.09c-6.83-10-10.82-13-20.4-12.6l-.5,33s19.56,24.16,26.74,31.82,12,8,15.32,6.75h0c10.33-4,14.72-19.78,24.59-43.62a13.41,13.41,0,0,1,7.92-7.63c1.95-.69,4.07-1.6,5.33-2.12a36.45,36.45,0,0,0,5.47-3.1c2.85-2,3-1.74,6.45-6.45.43-.58,2.11-3.11,1.74-3.73A1.19,1.19,0,0,0,362.85,126.86Z" style="fill:#c8856a"></path><path d="M360,128.74a30.94,30.94,0,0,1-3.89,2.93c-1.34.91-2.78,1.66-4.15,2.59a18.62,18.62,0,0,0,4.48-2.08A12.16,12.16,0,0,0,360,128.74Z" style="fill:#af6152"></path><path d="M332.91,139.45a3.77,3.77,0,0,1-.07-.95,5.9,5.9,0,0,1,.42-1.8,8,8,0,0,1,2.06-3,7.89,7.89,0,0,1,7.52-1.7c.07,0,.2.24.06.25-2.5.17-5,.47-6.94,2.22a8.29,8.29,0,0,0-2.36,5.84c0,.2-.22.19-.3,0A3.27,3.27,0,0,1,332.91,139.45Z" style="fill:#af6152"></path><path d="M347.61,126.61a57.1,57.1,0,0,0,6.37-4.94c1.94-1.66,3.76-3.46,5.6-5.22,0,0,.07,0,.06,0a32.25,32.25,0,0,1-5.68,6,45.61,45.61,0,0,1-6.31,4.17S347.59,126.63,347.61,126.61Z" style="fill:#af6152"></path><path d="M348.88,131a54.32,54.32,0,0,0,6.37-4.95c.78-.66,1.53-1.35,2.28-2s1.5-1.36,2.16-2.11c.2-.24.4-.47.61-.7a6.53,6.53,0,0,1,.79-.87,3.14,3.14,0,0,1,1.08-.58s.09,0,.08,0a4,4,0,0,0-1.2,1,8.48,8.48,0,0,0-.63.82c-.18.25-.38.47-.57.71-.61.75-1.26,1.46-1.94,2.15-.85.86-1.75,1.67-2.68,2.45a45.54,45.54,0,0,1-6.31,4.16S348.86,131,348.88,131Z" style="fill:#af6152"></path><path d="M270.73,121.73c7.2,0,11.5,0,17,7s21.54,30.65,21.54,30.65l5.35-6.91s-.2,4.55,4.76,9.42a23.3,23.3,0,0,0,11.65,5.87,79.85,79.85,0,0,1-5.62,12.81c-4.3,8.26-9.09,14.79-16.11,14.29s-11.57-6-17.19-12.48S270,155.46,270,155.46Z" style="fill:#90CAF9"></path><path d="M309.3,159.39c-4.52,4.71-6.87,14.37-6.45,21.64-1.64-6.34-2.09-16.43,4.82-24Z" style="opacity:0.2"></path><g id="freepik--Chest--inject-172"><path id="freepik--chest--inject-172" d="M241,123.94c-9.28,1.17-21.74,5.31-26.77,7,0,0-12.91,12.19-5,50.44a100.57,100.57,0,0,1,1.92,26.81c-.77,9.11-3.45,18.11-3.77,24.06,0,0,21.33,11.23,55.19,7.28,26.58-3.11,29.36-13.38,29.36-13.38s-1.11-29.51-2.3-51.51c-1.53-28.29-5.79-41.81-18.93-52.87A228.27,228.27,0,0,0,241,123.94Z" style="fill:#455a64"></path></g><g id="freepik--Head--inject-172"><path d="M224.92,75.65s-3.8,1-5.44,6.34c-.83,2.68-.93,7.32,4.87,19.48a52.49,52.49,0,0,0,8.68,13,6.44,6.44,0,0,0,4.19,2.27l-2-9.79-1.6-6.78s4.59-6,4.17-11c-.54-6.44-3.66-9.58-3.66-9.58Z" style="fill:#263238"></path><path d="M223.65,76.22c-4-9.07,15.23-22.75,26.33-16.58,3.49-5.2,12.41-3.34,13.48,1.83,3.1-1.64,8,2.82,6.67,6.76,2.35-1,6.55,2.48,4.3,6-1.62,2.5-1,4.49,1.9,4.75-.09,3.39-6.08,4.11-7.28,1.66.05,2-1.45,1.17-3.05,0-10.33.33-20.88,2.38-31.28,3.29Z" style="fill:#263238"></path><path d="M227.67,109.93c4.48,1.16,5.66-1.94,5.66-1.94l2.27,19c10.39,15.08,33.49,10.14,22.43-2.21l-.62-5.72a53.64,53.64,0,0,0,6.86-1.16,11.89,11.89,0,0,0,8.67-9.89c1.21-7.52-.15-19.23-4.23-31.37-.78-2.34-2.1-4.85-4.41-5.7-5.73-2.12-10.35,2.32-17.62,6.11-3,1.56-10.57,2.92-12.68,2.19,3,2.65,2.25,10.42,1.81,12.9-.64,3.58-1.33,5.06-2,5.29-2,.69-3-2-4.93-2.63s-5.92-.91-7.55,4.18C220.27,102.2,222.53,108.59,227.67,109.93Z" style="fill:#c8856a"></path><path d="M251.35,119c-12.35-1.1-15.75-6.92-15.75-6.92,1.49,6.53,12.33,11.16,22.11,9.77l-.3-2.78S256.35,119.44,251.35,119Z" style="fill:#af6152"></path><path d="M247.38,84.46l-4.08,3.69a2.9,2.9,0,0,1,.22-4A2.67,2.67,0,0,1,247.38,84.46Z" style="fill:#263238"></path><path d="M267.39,82.34l-5.29-1.65a2.65,2.65,0,0,1,3.37-1.88A2.92,2.92,0,0,1,267.39,82.34Z" style="fill:#263238"></path><path d="M251.6,103.81l7.85.5a3.77,3.77,0,0,1-4,3.74A4.15,4.15,0,0,1,251.6,103.81Z" style="fill:#af6152"></path><path d="M256.91,107.84a4.06,4.06,0,0,0-4.29-2.65,6.43,6.43,0,0,0-.76.17,4.15,4.15,0,0,0,3.57,2.69A3.83,3.83,0,0,0,256.91,107.84Z" style="fill:#ffa8a7"></path><path d="M246.88,92a2.24,2.24,0,1,0,1.89-2.54A2.25,2.25,0,0,0,246.88,92Z" style="fill:#263238"></path><path d="M262.46,87.89a2.24,2.24,0,1,0,1.9-2.55A2,2,0,0,0,262.46,87.89Z" style="fill:#263238"></path><path d="M255.3,85.36l4,14.13,7.4-3.88C263.63,90.38,258.85,87.42,255.3,85.36Z" style="fill:#af6152"></path></g><g id="freepik--Arm--inject-172"><path d="M202.37,251.36c-1.7-1.85-3.88-3.49-4.58-6a4.29,4.29,0,0,1,.6-3.83,1.9,1.9,0,0,0,.46-.7,1.62,1.62,0,0,0,0-.69,4.69,4.69,0,0,1,.18-2.85,3,3,0,0,1,1.82-1.55,6.9,6.9,0,0,1,0-4.31c.56-1.64,2.25-2.94,3.36-1.11a15.05,15.05,0,0,1,1.28,2.87,33.27,33.27,0,0,1,1.64,7.64c.27,2.71.92,10.38-3.28,10.74C203.53,251.6,202.61,251.62,202.37,251.36Z" style="fill:#af6152"></path><path d="M213.74,132.44c-11.92,2.82-16.38,9.59-24.2,21.15-9.06,13.39-17.89,26-20.9,32.43-3.72,8-4.51,11,4,19.55,4.41,4.38,10.55,9.61,16.8,15.5,4.93,4.66,10.87,9.59,15.65,14.41a4.37,4.37,0,0,1,1.49,4.41,28.61,28.61,0,0,0-.85,3.24,27.06,27.06,0,0,0,.34,4.29c.07,1.44-.39,3.09-1.69,3.69a4.07,4.07,0,0,1-2,.25,15.11,15.11,0,0,0,3.94,2.15,6.07,6.07,0,0,0,4.4-.15c1.32-.63,2.31-1.88,3.71-2.3.75-.22,1.56-.19,2.33-.39a3.77,3.77,0,0,0,2-1.3c.8-1,1.13-2.45,2.26-3.07a17.68,17.68,0,0,1,1.74-.57,3.86,3.86,0,0,0,2.17-2.89,10.47,10.47,0,0,0-.09-3.74,95.26,95.26,0,0,0-2-9.89,9.9,9.9,0,0,0-1.6-3.05c-.76-1.09-1.48-2.21-2.3-3.26-5.55-7.07-23.15-30.67-23.15-30.67L213,171.68S224.2,155.48,213.74,132.44Z" style="fill:#c8856a"></path><path d="M202.37,251.36c2.8,2.12,7,3.63,9.82.81a6.27,6.27,0,0,1,2.43-1.37c1.82-.21,3.58-.51,4.41-2.33a6.11,6.11,0,0,1,1.65-2.3c.9-.57,1.87-.49,2.5-1a3.83,3.83,0,0,0,1.35-2.07c.59-4.24-1.09-9.05-1.95-13.25-.63-2.65-2.65-4.61-4.08-6.87l-3.28-4.37c-6.35-8.45-13.3-17.84-19.48-26.36,6.5,8.26,13.61,17.54,20,26l3.31,4.35c1.48,2.28,3.62,4.38,4.22,7.12s1.23,5.34,1.67,8c.25,1.78.7,3.65.2,5.55a4.39,4.39,0,0,1-1.61,2.4c-.84.63-1.9.55-2.54,1a5.82,5.82,0,0,0-1.52,2.08,4.31,4.31,0,0,1-2.05,1.95,11.9,11.9,0,0,1-2.71.53c-1.77.39-2.93,2.16-4.73,2.58-2.78.72-5.47-.82-7.61-2.42Z" style="fill:#af6152"></path><path d="M195.74,192.23c-4.91,4.82-12.53,5.2-15.34,5a16.09,16.09,0,0,0,16.93-2.9Z" style="fill:#af6152"></path></g><path d="M214.22,130.9c-8.57,2.32-14.24,5.14-19.05,12-5.4,7.68-12.63,19.32-19.6,29.61s-11,18.62-10.29,23.55,12.58,15.13,12.58,15.13,6.63.76,14.11-4.76,7.82-9.69,7.82-9.69l-3.48-4.48s13.26-15.24,17.17-20S222.12,155.38,214.22,130.9Z" style="fill:#90CAF9"></path><path d="M196.31,192.23c-4.4,5-12.32,5.51-16.24,5,7,2.84,14.7.61,17.76-3Z" style="opacity:0.2"></path></g></g><g id="freepik--fire-ball--inject-172"><path d="M361.14,104.11c.13-3.64-.46-7.4-.6-11A68,68,0,0,1,361.38,83c.44-4.18.45-10.34-4.64-11.59A5.35,5.35,0,0,1,357.89,78a5.54,5.54,0,0,1-6.21,2.47A5.72,5.72,0,0,1,347.74,75c0-2.51,1.68-4.65,3.13-6.69s2.84-4.49,2.27-6.92c-.63-2.66-3.28-4.23-5.57-5.71s-4.69-3.7-4.33-6.41a6.24,6.24,0,0,1,3.09-4.12,50.83,50.83,0,0,0,4.53-2.78c2.87-2.35,4.64-7.49,1.52-9.88,1.11,1.31,0,3.68-1.13,4.59a7,7,0,0,1-5.5,1.27,10.45,10.45,0,0,0,4.32-9c-.26-3.45-1.8-7.21-6-7.73a3.06,3.06,0,0,1,2.1,1.61c1.71,2.87.54,6.47-1.78,8.6A11.12,11.12,0,0,1,343,33c-4.93,3.19-11.19,2.61-15.8,6.65a9.83,9.83,0,0,0-2.53,12.12c1.38,2.94,4.11,5.52,3.92,8.77-.41,7-8.8,6.62-13.4,9.19A11.32,11.32,0,0,0,310,75.3c-.88,2.28-.7,4.74-.54,7.13.12,1.76.07,4.26-1.36,5.55a2.82,2.82,0,0,1-3.9-4.08c-2.43,1.46-3.1,4.82-2.36,7.55.8,3,2.95,5.42,3.86,8.37,1.31,4.23.54,7.06,2.21,12.18a27.11,27.11,0,0,0,25.86,18.38,27.39,27.39,0,0,0,27.37-26.27Z" style="fill:#90CAF9;opacity:0.15"></path><path d="M345,57c-1.87-2.49-5.17-4.17-5.87-7.38-.33-1.5-.25-3.57,1-4.61s2.6-1.45,3.82-2.31a7.77,7.77,0,0,0,2-2.09,4.25,4.25,0,0,1-2.76.75,25.71,25.71,0,0,1-2.89-.39,10.56,10.56,0,0,0-6.63.81A8.17,8.17,0,0,0,329.87,46a11.22,11.22,0,0,0,.41,8.38c.73,1.67,1.78,3.23,2.13,5,.74,3.8-1.87,7.52-5,9.73s-6.93,3.42-10.21,5.46a7.4,7.4,0,0,0-2.46,2.22c-1.11,1.79-.51,3.61-.72,5.54s-.16,3.83-1,5.65c-.7,1.62-2,3.34-3.83,3.75a5.68,5.68,0,0,1-5-1.28c-.61,2.3,1.19,4,2.36,5.68a15.32,15.32,0,0,1,2.76,5.48c.41,2,.25,4,.53,6A22.57,22.57,0,0,0,324,125.22a32.42,32.42,0,0,0,6.74,1.6c4.27.63,7.9.86,12-.74a23.38,23.38,0,0,0,10-7.51,27.08,27.08,0,0,0,5.07-19.71c-.4-3.14-1.3-6.3-.75-9.42s2.61-6.28,1.89-9.45c.07,2.5-2.19,4.67-4.66,5a8.32,8.32,0,0,1-6.76-2.6,11.88,11.88,0,0,1-2.7-12.33c.45-1.2,1.1-2.32,1.52-3.53A10.45,10.45,0,0,0,345,57Z" style="fill:#90CAF9"></path><path d="M345,57c-1.87-2.49-5.17-4.17-5.87-7.38-.33-1.5-.25-3.57,1-4.61s2.6-1.45,3.82-2.31a7.77,7.77,0,0,0,2-2.09,4.25,4.25,0,0,1-2.76.75,25.71,25.71,0,0,1-2.89-.39,10.56,10.56,0,0,0-6.63.81A8.17,8.17,0,0,0,329.87,46a11.22,11.22,0,0,0,.41,8.38c.73,1.67,1.78,3.23,2.13,5,.74,3.8-1.87,7.52-5,9.73s-6.93,3.42-10.21,5.46a7.4,7.4,0,0,0-2.46,2.22c-1.11,1.79-.51,3.61-.72,5.54s-.16,3.83-1,5.65c-.7,1.62-2,3.34-3.83,3.75a5.68,5.68,0,0,1-5-1.28c-.61,2.3,1.19,4,2.36,5.68a15.32,15.32,0,0,1,2.76,5.48c.41,2,.25,4,.53,6A22.57,22.57,0,0,0,324,125.22a32.42,32.42,0,0,0,6.74,1.6c4.27.63,7.9.86,12-.74a23.38,23.38,0,0,0,10-7.51,27.08,27.08,0,0,0,5.07-19.71c-.4-3.14-1.3-6.3-.75-9.42s2.61-6.28,1.89-9.45c.07,2.5-2.19,4.67-4.66,5a8.32,8.32,0,0,1-6.76-2.6,11.88,11.88,0,0,1-2.7-12.33c.45-1.2,1.1-2.32,1.52-3.53A10.45,10.45,0,0,0,345,57Z" style="fill:#fff;opacity:0.6000000000000001"></path><path d="M340.63,67.59a5.44,5.44,0,0,1-3.05,1.88,3.08,3.08,0,0,1-3.16-1.32,2.16,2.16,0,0,1,1-3c-2.89.25-3.38,3.28-4.84,5.12a21.14,21.14,0,0,1-6.71,5.19c-2.47,1.33-5.39,2.14-6.88,4.74a10.75,10.75,0,0,0-1.05,5.3,20.1,20.1,0,0,1-.39,5.43c-.49,1.72-1.53,3.26-1.84,5a8.15,8.15,0,0,0,1.77,6.17,13.13,13.13,0,0,0,5.15,3.55c5,2.1,10.62,2.42,16.06,2.2a31.81,31.81,0,0,0,6.4-.66,26.73,26.73,0,0,0,6.37-2.71,10.92,10.92,0,0,0,4.57-4.36c.54-1,.36-2.54.36-3.64a21.51,21.51,0,0,1,.26-4c.45-2.35,1.7-4.47,2.22-6.81C355,87.6,352.5,87.88,350,87.23a13.59,13.59,0,0,1-6.45-4,12,12,0,0,1-2.39-3.6,10.54,10.54,0,0,1,.45-8.27c1-2.1,2.59-4,2.94-6.27a8.17,8.17,0,0,0-2-6.42C343.79,61.46,342.63,65.35,340.63,67.59Z" style="fill:#fff;opacity:0.30000000000000004"></path><g id="freepik--mars--inject-172"><g id="freepik--planet--inject-172"><path d="M355.18,103.62A21.4,21.4,0,1,1,333.8,82.21,21.4,21.4,0,0,1,355.18,103.62Z" style="fill:#90CAF9"></path><path d="M355.18,103.62A21.4,21.4,0,1,1,333.8,82.21,21.4,21.4,0,0,1,355.18,103.62Z" style="fill:#fff;opacity:0.15"></path><path d="M317.75,101.34c.69,1.22,2,2.35,3.33,2a3.16,3.16,0,0,0,2.06-2.72c.2-1.19.05-2.43.3-3.61.8-3.8,3.83-4.34,7-4.71,1.57-.19,3.3-.7,4.06-2.08l.15-.31c1.47-3.2-2.33-5-3.47-7.58A21.42,21.42,0,0,0,313.6,96.51a7.59,7.59,0,0,1,2,1.23C316.65,98.7,317.06,100.12,317.75,101.34Zm37.43,2.28A21.4,21.4,0,0,0,339.49,83a8.52,8.52,0,0,0-1,3.53,4.57,4.57,0,0,0,.71,2.88A13.05,13.05,0,0,0,342.34,91a1.54,1.54,0,0,1,.68.52,1.11,1.11,0,0,1,0,1c-.53,1.32-2.33,1.88-2.68,3.27a2.44,2.44,0,0,0,1.34,2.56c1.43.8,3.09.38,4.61.83a1.85,1.85,0,0,1,1.16.76c.54.92,0,2.36,1.27,2.86.88.35,1.95-.28,2.79.16,1.05.56.71,2.18,0,3.13s-1.69,2-1.5,3.12c.15.92,1,1.57,1.36,2.42a3.49,3.49,0,0,1-.66,3.47,10.42,10.42,0,0,1-2.93,2.25c-1.9,1.12-4,2.28-6.19,1.83-1.6-.34-3-1.55-4.64-1.53a1.06,1.06,0,0,0-.74.23c-.34.33-.22.89-.07,1.33.34,1,.68,2.09,1,3.14-1,1.61-3.53.85-4.84-.49s-2.37-3.21-4.22-3.58a22.36,22.36,0,0,0-2.95,0,4.43,4.43,0,0,1-3.13-1.6,2.37,2.37,0,0,1-.61-1.75c.21-1.53,2.26-1.87,3.8-1.77a19.2,19.2,0,0,0,6.81-.31c2.18-.67,4.2-2.49,4.31-4.78a2.51,2.51,0,0,0-.24-1.27,2.64,2.64,0,0,0-3.14-.92,22.49,22.49,0,0,0-3.15,1.65,1.41,1.41,0,0,1-1,.17c-.93-.32-.46-1.76-.91-2.63a1.66,1.66,0,0,0-2.42-.28,3.64,3.64,0,0,0-1.11,2.47,2.14,2.14,0,0,1-.4,1.28c-.55.61-1.6.29-2.17-.29a23.6,23.6,0,0,0-1.55-1.89c-2-1.64-5.12.47-7.56-.4l-.17-.08a21.39,21.39,0,0,0,42.67-2.25Zm-24-.14c.33.38.94.17,1.44.26a2.73,2.73,0,0,0,.83.17.82.82,0,0,0,.6-.48,1.28,1.28,0,0,0-.45-1.53,1.55,1.55,0,0,0-.62-.26C332.19,101.5,330.28,102.48,331.16,103.48Zm9.63,9.31a1.39,1.39,0,0,0,1,.32,2.82,2.82,0,0,0,.87,0,.93.93,0,0,0,.66-.54c.2-.57-.56-1.38-1.08-1.52C341.41,110.77,340.07,112,340.79,112.79Zm-1-5.7c-.83.15-1.1,1.06-1.29,1.76s-.69,1.63.42,2a2.29,2.29,0,0,0,2.26-1.08,2,2,0,0,0,.46-1.7A1.88,1.88,0,0,0,339.82,107.09ZM337,112.42a2.1,2.1,0,0,0-.32.59.63.63,0,0,0,.11.62.71.71,0,0,0,.32.14,1.77,1.77,0,0,0,1.82-.71c.3-.58-.48-1-1-1.13a1,1,0,0,0-.34,0A1.14,1.14,0,0,0,337,112.42Z" style="fill:#fff;opacity:0.25"></path><path d="M354.94,106.83c-1.58,7.91-15.85,15.16-27.29,10.26-12.15-5.21-14.43-21.65-8.48-29.1h0a21.4,21.4,0,1,0,35.77,18.85Z" style="opacity:0.1"></path><path d="M312.39,103.6A21.39,21.39,0,0,0,352,114.87c-.48.75-6.54,10.27-21.5,7.53-15.57-2.86-18.09-18.8-17.83-22.16A22,22,0,0,0,312.39,103.6Z" style="opacity:0.1"></path><path d="M337.19,88.8A3.35,3.35,0,1,0,333,91,3.36,3.36,0,0,0,337.19,88.8Zm-10.33-.07a5.75,5.75,0,1,0,3.77,7.21A5.76,5.76,0,0,0,326.86,88.73Zm9.44,5.32a2.64,2.64,0,1,0,1.73,3.3A2.63,2.63,0,0,0,336.3,94.05Z" style="fill:#fff;opacity:0.25"></path><path d="M349.36,111.82c0-.6.07-1.22.07-1.83a20.9,20.9,0,0,0-20.9-20.92,20.49,20.49,0,0,0-5.28.67,17.37,17.37,0,0,1,26.11,22.08Z" style="fill:#fff;opacity:0.30000000000000004"></path></g></g><path d="M336.79,45.59a5.38,5.38,0,0,1,1.55-1.53,13.64,13.64,0,0,1,3.38-1.49,15.09,15.09,0,0,0-3.67.25,7.1,7.1,0,0,0-5.32,3.31,7,7,0,0,0-.06,7.11,13.38,13.38,0,0,0,3.08,3.16,11.67,11.67,0,0,1,3,3.23,4.15,4.15,0,0,1,.06,4.21,8.36,8.36,0,0,0,2-3.55,5.68,5.68,0,0,0-.44-3.32,12.54,12.54,0,0,0-1.82-2.85A19.45,19.45,0,0,1,337,52a7.2,7.2,0,0,1-1-4.4A4.62,4.62,0,0,1,336.79,45.59Z" style="fill:#fff;opacity:0.30000000000000004"></path><path d="M322.33,57.43c-.35-1.49-1.63-2.71-2.66-3.77-1.92-2-2.84-4.21-1.77-6.92A8.78,8.78,0,0,1,323,42a6.82,6.82,0,0,0-2.41,5c-.15,3.72,3.86,6.14,3.68,9.77a3.92,3.92,0,0,1-2.1,3.19A4,4,0,0,0,322.33,57.43Z" style="fill:#90CAF9;opacity:0.15"></path><path d="M344.18,26.37c-.61-3.45-5.1-5.1-4.59-9a4.75,4.75,0,0,1,2.41-3.5c-2.32-.24-4.9.46-6.25,2.38a5,5,0,0,0-.31,5.06,9.52,9.52,0,0,0,3,3,10.19,10.19,0,0,1,3,3,3.38,3.38,0,0,1-.22,4,5.08,5.08,0,0,0,2.32-1.95A4.28,4.28,0,0,0,344.18,26.37Z" style="fill:#90CAF9;opacity:0.15"></path><path d="M356.13,62.82a7.8,7.8,0,0,1-1.41,3.82c-.94,1.35-2.22,2.44-3.08,3.84s-1.19,3.33-.17,4.62a3.36,3.36,0,0,1,.42-3.27,8.24,8.24,0,0,1,2.61-2.22,15.53,15.53,0,0,0,2.82-2,5.74,5.74,0,0,0,1.62-5.29,4.8,4.8,0,0,0-4.51-3.78A5.22,5.22,0,0,1,356.13,62.82Z" style="fill:#90CAF9;opacity:0.15"></path><path d="M308,71.07a4.86,4.86,0,0,0-2.25,3.8,10.79,10.79,0,0,0,.8,3.51,5.12,5.12,0,0,1,.12,3.55c1.45-2.45.45-5.7,1.54-8.32A6.1,6.1,0,0,1,310,71.26a4.38,4.38,0,0,1,2.49-1.1A6.77,6.77,0,0,0,308,71.07Z" style="fill:#90CAF9;opacity:0.15"></path></g></g></svg>