<svg xmlns="http://www.w3.org/2000/svg" viewBox="0 0 500 500"><g id="freepik--background-simple--inject-27"><path d="M257.77,38.08c39.32,7.91,84,29.79,102.3,67.72,27.61,57.32,77.28,56.74,90,165.27a219.67,219.67,0,0,1,.63,47.72A181.46,181.46,0,0,1,447,341.88C431.54,409,380.65,450.79,322.34,462.93c-76.69,16-122.15-32-149.33-63.63s-117.5-60.43-130.88-167a213.36,213.36,0,0,1-.68-49c3.95-37.22,19.49-76.91,47.34-103q3.13-2.94,6.46-5.69C138.59,38.7,204.15,27.29,257.77,38.08Z" style="fill:#90CAF9"></path><path d="M257.77,38.08c39.32,7.91,84,29.79,102.3,67.72,27.61,57.32,77.28,56.74,90,165.27a219.67,219.67,0,0,1,.63,47.72A181.46,181.46,0,0,1,447,341.88C431.54,409,380.65,450.79,322.34,462.93c-76.69,16-122.15-32-149.33-63.63s-117.5-60.43-130.88-167a213.36,213.36,0,0,1-.68-49c3.95-37.22,19.49-76.91,47.34-103q3.13-2.94,6.46-5.69C138.59,38.7,204.15,27.29,257.77,38.08Z" style="fill:#fff;opacity:0.7000000000000001"></path></g><g id="freepik--Sun--inject-27"><polygon points="376.12 156.47 335.21 180.55 358.62 221.85 311.13 222.2 310.79 269.69 269.49 246.28 245.41 287.19 221.33 246.28 180.03 269.68 179.69 222.2 132.2 221.85 155.61 180.55 114.7 156.47 155.61 132.4 132.2 91.1 179.69 90.75 180.03 43.27 221.33 66.67 245.41 25.76 269.49 66.67 310.79 43.27 311.13 90.75 358.62 91.1 335.21 132.4 376.12 156.47" style="fill:#fff"></polygon><path d="M245.41,287.69a.5.5,0,0,1-.43-.25L221.15,247l-40.87,23.16a.5.5,0,0,1-.5,0,.5.5,0,0,1-.25-.43l-.34-47-47-.34a.48.48,0,0,1-.43-.25.5.5,0,0,1,0-.49l23.17-40.88-40.49-23.82a.51.51,0,0,1,0-.87l40.49-23.82L131.76,91.34a.5.5,0,0,1,0-.49.48.48,0,0,1,.43-.25l47-.35.34-47a.5.5,0,0,1,.25-.43.5.5,0,0,1,.5,0L221.15,66,245,25.51a.51.51,0,0,1,.86,0L269.67,66l40.87-23.16a.5.5,0,0,1,.5,0,.5.5,0,0,1,.25.43l.34,47,47,.34a.48.48,0,0,1,.43.25.48.48,0,0,1,0,.49l-23.16,40.88L376.38,156a.51.51,0,0,1,0,.87l-40.49,23.82,23.16,40.88a.48.48,0,0,1,0,.49.48.48,0,0,1-.43.25l-47,.34-.34,47a.5.5,0,0,1-.25.43.5.5,0,0,1-.5,0L269.67,247l-23.83,40.48A.5.5,0,0,1,245.41,287.69Zm-24.08-41.91a.51.51,0,0,1,.43.24l23.65,40.18L269.05,246a.51.51,0,0,1,.68-.18l40.56,23,.34-46.64a.49.49,0,0,1,.5-.49l46.63-.34-23-40.56a.49.49,0,0,1,.18-.68l40.18-23.64L335,132.83a.49.49,0,0,1-.18-.68l23-40.56-46.63-.34a.49.49,0,0,1-.5-.49l-.34-46.64-40.56,23a.51.51,0,0,1-.68-.18L245.41,26.75,221.76,66.93a.5.5,0,0,1-.67.18l-40.57-23-.33,46.63a.51.51,0,0,1-.5.5l-46.64.34,23,40.56a.5.5,0,0,1-.18.68l-40.18,23.65,40.18,23.64a.5.5,0,0,1,.18.68l-23,40.56,46.64.34a.51.51,0,0,1,.5.49l.33,46.64,40.57-23A.5.5,0,0,1,221.33,245.78Z" style="fill:#263238"></path><polygon points="362.52 156.47 325.86 178.04 346.83 215.05 304.29 215.36 303.98 257.9 266.98 236.93 245.41 273.58 223.84 236.93 186.84 257.9 186.53 215.36 143.98 215.05 164.95 178.04 128.3 156.47 164.95 134.91 143.98 97.9 186.53 97.59 186.84 55.05 223.84 76.02 245.41 39.37 266.98 76.02 303.98 55.05 304.29 97.59 346.83 97.9 325.86 134.91 362.52 156.47" style="fill:#90CAF9"></polygon><circle cx="245.41" cy="159.86" r="87.25" transform="translate(-41.16 220.35) rotate(-45)" style="fill:#263238"></circle><path d="M245.41,247.6a87.75,87.75,0,1,1,87.74-87.74A87.85,87.85,0,0,1,245.41,247.6Zm0-174.49a86.75,86.75,0,1,0,86.74,86.75A86.85,86.85,0,0,0,245.41,73.11Z" style="fill:#263238"></path><circle cx="245.41" cy="156.47" r="87.25" style="fill:#90CAF9"></circle><path d="M245.41,244.22a87.75,87.75,0,1,1,87.74-87.74A87.85,87.85,0,0,1,245.41,244.22Zm0-174.49a86.75,86.75,0,1,0,86.74,86.75A86.85,86.85,0,0,0,245.41,69.73Z" style="fill:#263238"></path><circle cx="245.41" cy="156.47" r="62.61" style="fill:#fff;opacity:0.34"></circle><circle cx="253.23" cy="135.51" r="36.91" transform="translate(63.96 351.53) rotate(-76.93)" style="fill:#fff;opacity:0.34"></circle><path d="M252.71,147.13a31.85,31.85,0,0,1-29.39-19.48,1,1,0,1,1,1.84-.78,29.92,29.92,0,0,0,51,7,1,1,0,0,1,1.56,1.24A31.76,31.76,0,0,1,252.71,147.13Z" style="fill:#263238"></path><path d="M249.52,115.84a1.51,1.51,0,0,1-1.47-1.2,9.34,9.34,0,0,0-18.09-.79,1.5,1.5,0,1,1-2.87-.85,12.33,12.33,0,0,1,23.9,1,1.5,1.5,0,0,1-1.17,1.77A1.53,1.53,0,0,1,249.52,115.84Z" style="fill:#263238"></path><path d="M221.75,94.37h-.08a3,3,0,0,1-2.92-3.09,19.74,19.74,0,0,1,28.61-17.07,3,3,0,0,1-2.69,5.36,13.75,13.75,0,0,0-19.92,11.88A3,3,0,0,1,221.75,94.37Z" style="fill:#263238"></path><path d="M282.62,97.65h.09a3,3,0,0,0,2.91-3.08A19.75,19.75,0,0,0,257,77.49a3,3,0,1,0,2.7,5.36,13.75,13.75,0,0,1,19.91,11.89A3,3,0,0,0,282.62,97.65Z" style="fill:#263238"></path><path d="M282.42,115.84a1.5,1.5,0,0,1-1.47-1.2,9.34,9.34,0,0,0-18.09-.79A1.5,1.5,0,1,1,260,113a12.33,12.33,0,0,1,23.9,1,1.5,1.5,0,0,1-1.17,1.77Z" style="fill:#263238"></path><path d="M219,129.83a1,1,0,0,1-.37-1.92l8.07-3.23a1,1,0,0,1,.75,1.85l-8.07,3.23A1,1,0,0,1,219,129.83Z" style="fill:#263238"></path></g><g id="freepik--Mountains--inject-27"><path d="M395.78,203.41c-7.23.72-120.29,84.16-120.29,84.16L394.22,428.68c25.16-20.87,44.29-50,52.74-86.8a181.46,181.46,0,0,0,3.78-23.09,219.67,219.67,0,0,0-.63-47.72c-.53-4.5-1.12-8.8-1.78-12.95C426.14,232.38,399.84,203,395.78,203.41Z" style="fill:#90CAF9"></path><path d="M395.78,203.41c-7.23.72-120.29,84.16-120.29,84.16L394.22,428.68c25.16-20.87,44.29-50,52.74-86.8a181.46,181.46,0,0,0,3.78-23.09,219.67,219.67,0,0,0-.63-47.72c-.53-4.5-1.12-8.8-1.78-12.95C426.14,232.38,399.84,203,395.78,203.41Z" style="fill:#fff;opacity:0.7000000000000001"></path><path d="M173,399.3c15.14,17.6,36,40.29,64.69,54.18H353A161.6,161.6,0,0,0,393.81,429c-34.13-41.66-196-238.29-214.75-241.52-15-2.58-91.47,38.33-134,61.92C65.43,342.09,147.36,369.49,173,399.3Z" style="fill:#90CAF9"></path><path d="M173,399.3c15.14,17.6,36,40.29,64.69,54.18H353A161.6,161.6,0,0,0,393.81,429c-34.13-41.66-196-238.29-214.75-241.52-15-2.58-91.47,38.33-134,61.92C65.43,342.09,147.36,369.49,173,399.3Z" style="fill:#fff;opacity:0.7000000000000001"></path><path d="M16.52,266a.51.51,0,0,1-.44-.25.51.51,0,0,1,.19-.68C16.38,265,28,258.32,44.84,249a.51.51,0,0,1,.68.2.5.5,0,0,1-.19.68c-16.81,9.32-28.45,16-28.56,16.1A.57.57,0,0,1,16.52,266Z" style="fill:#263238"></path><path d="M270.21,282.24a.48.48,0,0,1-.38-.17C203.85,205.9,184,188.87,179,188c-14.19-2.45-85.59,35.36-126.89,58.12a.5.5,0,0,1-.68-.2.49.49,0,0,1,.2-.67c50.58-27.88,113.77-60.61,127.54-58.24,7.56,1.3,38.32,33.06,91.44,94.4a.49.49,0,0,1-.37.82Z" style="fill:#263238"></path><path d="M400.11,437.24a.51.51,0,0,1-.39-.18c-.66-.82-67-82.25-126.64-151.23a.5.5,0,1,1,.76-.65c59.6,69,126,150.43,126.66,151.25a.5.5,0,0,1-.07.7A.56.56,0,0,1,400.11,437.24Z" style="fill:#263238"></path><path d="M480.3,296.37a.5.5,0,0,1-.39-.18L474.7,290a.5.5,0,0,1,.07-.7.49.49,0,0,1,.7.06l5.21,6.24a.51.51,0,0,1-.06.71A.56.56,0,0,1,480.3,296.37Z" style="fill:#263238"></path><path d="M276.33,287.65a.5.5,0,0,1-.3-.9c4.59-3.39,112.42-83.11,119.7-83.84,5.64-.58,49.84,50.84,75.66,81.53a.5.5,0,1,1-.77.65c-42.8-50.9-70.68-81.19-74.72-81.19h-.07c-5.61.56-80.42,55-119.2,83.65A.47.47,0,0,1,276.33,287.65Z" style="fill:#263238"></path></g><g id="freepik--Clouds--inject-27"><path d="M441.78,128.9s-11.86-22.34-35.6-26.53S373.37,124,367.09,130.3s-8.38-5.59-19.55-4.89-14,7.68-16.05,11.17-9.86-8-14.36-6.45-6.52,6.52-6.52,6.52l-16.12,2.72h182.2s1.4-11.87-10.47-14.66S446.67,130.3,441.78,128.9Z" style="fill:#fff"></path><path d="M476.69,139.87H294.49a.5.5,0,0,1-.5-.46.49.49,0,0,1,.42-.53l15.85-2.68c.5-1.08,2.6-5.12,6.71-6.54,2.51-.88,5.73,1.73,8.56,4,2,1.58,4,3.21,5,3a.75.75,0,0,0,.53-.41c.2-.33.4-.7.62-1.09,2.05-3.62,5.47-9.67,15.83-10.32,5.53-.34,8.89,2.27,11.59,4.36,2.91,2.27,4.67,3.64,7.64.67a45.4,45.4,0,0,0,4.72-6.54c6.4-9.89,16.07-24.83,34.81-21.52,22.51,4,34.59,24.36,35.85,26.59,1.75.39,4-.54,6.76-1.71,4.53-1.89,10.17-4.25,17.45-2.54,12.16,2.87,10.87,15.09,10.86,15.21A.51.51,0,0,1,476.69,139.87Zm-176.24-1H476.23c.12-2.15,0-11.29-10.13-13.67-7-1.64-12.44.65-16.84,2.49-3.07,1.28-5.49,2.29-7.61,1.69a.55.55,0,0,1-.31-.25c-.12-.22-12-22.17-35.25-26.27-18.07-3.18-27.54,11.42-33.79,21.08a45.57,45.57,0,0,1-4.86,6.71c-3.59,3.59-6.07,1.65-8.95-.59-2.57-2-5.77-4.47-10.92-4.15-9.82.61-12.95,6.15-15,9.82-.22.39-.43.77-.63,1.11a1.75,1.75,0,0,1-1.22.87c-1.47.26-3.48-1.36-5.8-3.24-2.63-2.14-5.61-4.56-7.6-3.87-4.22,1.47-6.21,6.19-6.23,6.24a.48.48,0,0,1-.38.3Z" style="fill:#263238"></path><path d="M152.13,173.91s-8.32-15.68-25-18.62-23,15.19-27.44,19.6S93.83,171,86,171.46s-9.8,5.39-11.27,7.84-6.92-5.63-10.08-4.53-4.57,4.58-4.57,4.58l-11.32,1.91H176.63s1-8.33-7.35-10.29S155.56,174.89,152.13,173.91Z" style="fill:#fff"></path><path d="M176.63,181.76H48.76a.5.5,0,0,1-.08-1l11-1.86a9,9,0,0,1,4.76-4.6c1.84-.65,4.13,1.22,6.15,2.86,1.28,1,2.73,2.2,3.39,2.09.08,0,.17-.05.27-.21s.28-.49.44-.76c1.45-2.57,3.87-6.86,11.22-7.32,3.94-.25,6.32,1.6,8.24,3.09s3.17,2.47,5.16.48a30.9,30.9,0,0,0,3.29-4.56c4.52-7,11.34-17.51,24.58-15.17,15.68,2.76,24.18,16.82,25.23,18.67,1.18.23,2.7-.41,4.6-1.2,3.2-1.34,7.18-3,12.34-1.79,8.66,2,7.74,10.75,7.73,10.83A.51.51,0,0,1,176.63,181.76Zm-121.9-1H176.16c.07-1.71-.19-7.71-7-9.31-4.84-1.14-8.66.46-11.73,1.74-2.09.88-3.9,1.64-5.44,1.2a.55.55,0,0,1-.31-.25c-.08-.15-8.41-15.5-24.63-18.36-12.59-2.22-19.2,8-23.57,14.73a32.63,32.63,0,0,1-3.42,4.73c-2.62,2.61-4.5,1.15-6.49-.4s-4-3.11-7.55-2.88c-6.82.42-9,4.27-10.42,6.81l-.45.78a1.39,1.39,0,0,1-1,.69c-1.1.19-2.53-1-4.19-2.31-1.82-1.47-3.88-3.15-5.19-2.69-2.9,1-4.27,4.26-4.28,4.3a.53.53,0,0,1-.38.3Z" style="fill:#263238"></path><path d="M342.92,198.87s-6.83-12.85-20.48-15.26S303.57,196.06,300,199.68s-4.82-3.22-11.24-2.82-8,4.42-9.24,6.43-5.67-4.61-8.26-3.71a7.22,7.22,0,0,0-3.75,3.75l-9.27,1.57H363s.8-6.83-6-8.44S345.73,199.68,342.92,198.87Z" style="fill:#fff"></path><path d="M363,205.4H258.19a.5.5,0,0,1-.5-.46.51.51,0,0,1,.42-.54l9-1.52a7.46,7.46,0,0,1,3.93-3.77c1.56-.55,3.37.93,5.13,2.36,1,.79,2.2,1.79,2.7,1.7,0,0,.09,0,.16-.14s.23-.4.36-.62c1.2-2.12,3.2-5.66,9.28-6,3.26-.2,5.23,1.32,6.81,2.55s2.53,2,4.11.4a25.82,25.82,0,0,0,2.69-3.73c3.71-5.73,9.32-14.4,20.24-12.47,12.78,2.26,19.76,13.65,20.72,15.31.93.16,2.15-.35,3.67-1,2.5-1,5.91-2.47,10.17-1.47,7.18,1.69,6.41,8.9,6.41,9A.51.51,0,0,1,363,205.4Zm-98.85-1h98.38a7.07,7.07,0,0,0-5.67-7.45c-3.94-.93-7.05.37-9.55,1.42-1.74.73-3.23,1.35-4.53,1a.45.45,0,0,1-.3-.24c-.07-.13-6.88-12.67-20.13-15-10.27-1.8-15.66,6.52-19.23,12a26.47,26.47,0,0,1-2.81,3.89c-2.2,2.2-3.77,1-5.44-.32-1.52-1.18-3.25-2.53-6.13-2.35-5.54.35-7.3,3.48-8.47,5.54-.13.23-.25.45-.37.65a1.2,1.2,0,0,1-.84.6c-.95.17-2.08-.75-3.51-1.91s-3.14-2.55-4.17-2.19a6.68,6.68,0,0,0-3.45,3.47.51.51,0,0,1-.38.3Z" style="fill:#263238"></path><path d="M144.4,52.11s-4.42-8.33-13.27-9.89-12.23,8.07-14.57,10.41-3.13-2.08-7.29-1.82-5.2,2.86-6,4.16-3.68-3-5.35-2.4A4.67,4.67,0,0,0,95.5,55l-6,1h67.92a5,5,0,0,0-3.9-5.46C149.08,49.51,146.22,52.63,144.4,52.11Z" style="fill:#fff"></path><path d="M157.41,56.51H89.49a.49.49,0,0,1-.49-.46.49.49,0,0,1,.41-.53l5.75-1a5,5,0,0,1,2.61-2.45c1.1-.39,2.37.64,3.49,1.55.51.41,1.35,1.09,1.62,1.07a3.1,3.1,0,0,1,.21-.4,6.82,6.82,0,0,1,6.15-4A6.29,6.29,0,0,1,113.77,52c1.16.9,1.56,1.15,2.43.28a16.57,16.57,0,0,0,1.72-2.39c2.43-3.75,6.11-9.43,13.3-8.16,8.29,1.46,12.73,8.58,13.5,9.93a5.49,5.49,0,0,0,2.2-.64,10.4,10.4,0,0,1,6.7-1c4.8,1.13,4.29,6,4.29,6A.51.51,0,0,1,157.41,56.51Zm-53.94-1h53.46A4.38,4.38,0,0,0,153.39,51a9.34,9.34,0,0,0-6.08.91,4.9,4.9,0,0,1-3.05.64.5.5,0,0,1-.3-.25c0-.08-4.42-8.13-12.92-9.63-6.53-1.15-10,4.19-12.28,7.72A16.84,16.84,0,0,1,116.91,53c-1.53,1.54-2.71.62-3.75-.19a5.31,5.31,0,0,0-3.86-1.48,5.88,5.88,0,0,0-5.34,3.5l-.25.42A1,1,0,0,1,103.47,55.51Zm-8,0h6.68a9.94,9.94,0,0,1-1.51-1.08c-.82-.67-2-1.59-2.53-1.39A4.07,4.07,0,0,0,96,55.19a.51.51,0,0,1-.38.3Z" style="fill:#263238"></path></g><g id="freepik--Trees--inject-27"><path d="M196.07,340.56c0,26.58-15.73,48.13-35.13,48.13s-35.12-21.55-35.12-48.13,15.73-117.95,35.12-117.95S196.07,314,196.07,340.56Z" style="fill:#90CAF9"></path><polygon points="180.64 354.46 170 358.4 172.14 352 167.05 359.49 161.97 361.37 161.61 340.34 180.09 315.8 170.19 325.7 171.86 318.81 167.13 328.76 161.51 334.38 160.94 301.53 158.93 349.43 141.42 330.88 151.04 343.95 141.97 342.95 153.17 346.85 158.72 354.4 157.75 377.49 151.29 373.11 157.55 382.27 154.59 452.86 163.55 452.86 162.03 364.72 180.64 354.46" style="fill:#263238"></polygon><path d="M180.27,301.64a7.63,7.63,0,0,1-6.39,8.57,7.63,7.63,0,0,1,6.39-8.57Z" style="fill:#fff"></path><path d="M190.85,316.51a7.64,7.64,0,0,1-6.39,8.58,7.63,7.63,0,0,1,6.39-8.58Z" style="fill:#fff"></path><path d="M190.85,345.47a7.63,7.63,0,0,1-8.91,5.92,7.63,7.63,0,0,1,8.91-5.92Z" style="fill:#fff"></path><path d="M132.71,345.47a7.63,7.63,0,0,0,8.9,5.92,7.63,7.63,0,0,0-8.9-5.92Z" style="fill:#fff"></path><path d="M178.62,333.45a7.63,7.63,0,0,1-6.39,8.57,7.63,7.63,0,0,1,6.39-8.57Z" style="fill:#fff"></path><path d="M175.88,285.46a7.63,7.63,0,0,1-6.39,8.57,7.63,7.63,0,0,1,6.39-8.57Z" style="fill:#fff"></path><path d="M169.57,297.8a7.63,7.63,0,0,1-6.39,8.57,7.63,7.63,0,0,1,6.39-8.57Z" style="fill:#fff"></path><path d="M184.54,288.81a7.63,7.63,0,0,1-6.38,8.58,7.63,7.63,0,0,1,6.38-8.58Z" style="fill:#fff"></path><path d="M135.89,288.81a7.63,7.63,0,0,0,6.38,8.58,7.61,7.61,0,0,0-6.38-8.58Z" style="fill:#fff"></path><path d="M177.25,270.37a7.63,7.63,0,0,1-6.39,8.58,7.64,7.64,0,0,1,6.39-8.58Z" style="fill:#fff"></path><path d="M174.15,254.35a7.64,7.64,0,0,1-4,9.91,7.64,7.64,0,0,1,4-9.91Z" style="fill:#fff"></path><path d="M151.94,250.16a7.65,7.65,0,0,1,3.65,10.06,7.64,7.64,0,0,1-3.65-10.06Z" style="fill:#fff"></path><path d="M162.3,269.32a7.64,7.64,0,0,1-.62,10.68,7.64,7.64,0,0,1,.62-10.68Z" style="fill:#fff"></path><path d="M161.75,240.8a9,9,0,0,1,1.87,5.47,8.89,8.89,0,0,1-2.49,5.21,7.64,7.64,0,0,1,.62-10.68Z" style="fill:#fff"></path><path d="M138.5,301.64a7.63,7.63,0,0,0,6.39,8.57,7.63,7.63,0,0,0-6.39-8.57Z" style="fill:#fff"></path><path d="M132.47,319.19a7.63,7.63,0,0,0,6.39,8.57,7.63,7.63,0,0,0-6.39-8.57Z" style="fill:#fff"></path><path d="M148.48,325.56a7.64,7.64,0,0,0,6.39,8.58,7.63,7.63,0,0,0-6.39-8.58Z" style="fill:#fff"></path><path d="M152.86,301.24a7.64,7.64,0,0,0,3.67,10.05,7.63,7.63,0,0,0-3.67-10.05Z" style="fill:#fff"></path><path d="M141.52,366a7.63,7.63,0,0,0,8-7.07,7.63,7.63,0,0,0-8,7.07Z" style="fill:#fff"></path><path d="M172.64,362.4a7.62,7.62,0,0,0,9.08,5.64,7.62,7.62,0,0,0-9.08-5.64Z" style="fill:#fff"></path><path d="M145.14,285.46a7.63,7.63,0,0,0,6.39,8.57,7.63,7.63,0,0,0-6.39-8.57Z" style="fill:#fff"></path><path d="M145.08,271.2a7.63,7.63,0,0,0,6.39,8.57,7.63,7.63,0,0,0-6.39-8.57Z" style="fill:#fff"></path><path d="M371.29,340.56c0,26.58-15.73,48.13-35.13,48.13S301,367.14,301,340.56s15.73-117.95,35.12-117.95S371.29,314,371.29,340.56Z" style="fill:#90CAF9"></path><polygon points="355.86 354.46 345.22 358.4 347.36 352 342.27 359.49 337.19 361.37 336.83 340.34 355.31 315.8 345.41 325.7 347.08 318.81 342.34 328.76 336.73 334.38 336.16 301.53 334.15 349.43 316.64 330.88 326.26 343.95 317.19 342.95 328.39 346.85 333.94 354.4 332.97 377.49 326.51 373.11 332.77 382.27 329.8 452.86 338.77 452.86 337.25 364.72 355.86 354.46" style="fill:#263238"></polygon><path d="M355.49,301.64a7.63,7.63,0,0,1-6.39,8.57,7.63,7.63,0,0,1,6.39-8.57Z" style="fill:#fff"></path><path d="M366.07,316.51a7.64,7.64,0,0,1-6.39,8.58,7.63,7.63,0,0,1,6.39-8.58Z" style="fill:#fff"></path><path d="M366.07,345.47a7.63,7.63,0,0,1-8.91,5.92,7.63,7.63,0,0,1,8.91-5.92Z" style="fill:#fff"></path><path d="M307.93,345.47a7.63,7.63,0,0,0,8.9,5.92,7.63,7.63,0,0,0-8.9-5.92Z" style="fill:#fff"></path><path d="M353.84,333.45a7.63,7.63,0,0,1-6.39,8.57,7.63,7.63,0,0,1,6.39-8.57Z" style="fill:#fff"></path><path d="M351.1,285.46a7.63,7.63,0,0,1-6.39,8.57,7.63,7.63,0,0,1,6.39-8.57Z" style="fill:#fff"></path><path d="M344.79,297.8a7.63,7.63,0,0,1-6.39,8.57,7.63,7.63,0,0,1,6.39-8.57Z" style="fill:#fff"></path><path d="M359.76,288.81a7.63,7.63,0,0,1-6.38,8.58,7.63,7.63,0,0,1,6.38-8.58Z" style="fill:#fff"></path><path d="M311.11,288.81a7.63,7.63,0,0,0,6.38,8.58,7.63,7.63,0,0,0-6.38-8.58Z" style="fill:#fff"></path><path d="M352.47,270.37a7.63,7.63,0,0,1-6.39,8.58,7.64,7.64,0,0,1,6.39-8.58Z" style="fill:#fff"></path><path d="M349.37,254.35a7.64,7.64,0,0,1-4,9.91,7.64,7.64,0,0,1,4-9.91Z" style="fill:#fff"></path><path d="M327.16,250.16a7.65,7.65,0,0,1,3.65,10.06,7.64,7.64,0,0,1-3.65-10.06Z" style="fill:#fff"></path><path d="M337.52,269.32A7.64,7.64,0,0,1,336.9,280a7.62,7.62,0,0,1,.62-10.68Z" style="fill:#fff"></path><path d="M337,240.8a7.64,7.64,0,0,1-.62,10.68A7.64,7.64,0,0,1,337,240.8Z" style="fill:#fff"></path><path d="M313.72,301.64a7.63,7.63,0,0,0,6.39,8.57,7.63,7.63,0,0,0-6.39-8.57Z" style="fill:#fff"></path><path d="M307.69,319.19a7.63,7.63,0,0,0,6.39,8.57,7.63,7.63,0,0,0-6.39-8.57Z" style="fill:#fff"></path><path d="M323.7,325.56a7.64,7.64,0,0,0,6.39,8.58,7.63,7.63,0,0,0-6.39-8.58Z" style="fill:#fff"></path><path d="M328.08,301.24a7.64,7.64,0,0,0,3.67,10.05,7.63,7.63,0,0,0-3.67-10.05Z" style="fill:#fff"></path><path d="M316.74,366a7.63,7.63,0,0,0,8-7.07,7.63,7.63,0,0,0-8,7.07Z" style="fill:#fff"></path><path d="M347.86,362.4a7.62,7.62,0,0,0,9.08,5.64,7.62,7.62,0,0,0-9.08-5.64Z" style="fill:#fff"></path><path d="M320.36,285.46a7.63,7.63,0,0,0,6.39,8.57,7.63,7.63,0,0,0-6.39-8.57Z" style="fill:#fff"></path><path d="M320.3,271.2a7.63,7.63,0,0,0,6.39,8.57,7.63,7.63,0,0,0-6.39-8.57Z" style="fill:#fff"></path><path d="M242.48,380c0,17.25-10.2,31.24-22.79,31.24s-22.8-14-22.8-31.24,10.21-76.55,22.8-76.55S242.48,362.72,242.48,380Z" style="fill:#90CAF9"></path><polygon points="232.47 389 225.57 391.55 226.95 387.39 223.65 392.26 220.36 393.48 220.12 379.83 232.11 363.9 225.69 370.33 226.77 365.86 223.7 372.31 220.06 375.96 219.69 354.64 218.38 385.73 207.02 373.69 213.26 382.18 207.37 381.52 214.64 384.06 218.25 388.95 217.62 403.94 213.43 401.1 217.49 407.05 215.56 452.86 221.38 452.86 220.4 395.65 232.47 389" style="fill:#263238"></polygon><path d="M232.23,354.71a5,5,0,0,1-4.15,5.57,5,5,0,0,1,4.15-5.57Z" style="fill:#fff"></path><path d="M239.1,364.36a4.95,4.95,0,0,1-4.15,5.57,5,5,0,0,1,4.15-5.57Z" style="fill:#fff"></path><path d="M239.1,383.16a5.81,5.81,0,0,1-2.11,3.1,5.74,5.74,0,0,1-3.67.74,5.77,5.77,0,0,1,2.1-3.1A5.84,5.84,0,0,1,239.1,383.16Z" style="fill:#fff"></path><path d="M201.36,383.16a5.83,5.83,0,0,0,2.1,3.1,5.77,5.77,0,0,0,3.68.74,4.95,4.95,0,0,0-5.78-3.84Z" style="fill:#fff"></path><path d="M231.16,375.36a4.94,4.94,0,0,1-4.14,5.56,4.94,4.94,0,0,1,4.14-5.56Z" style="fill:#fff"></path><path d="M229.38,344.21a5,5,0,0,1-4.14,5.57,4.94,4.94,0,0,1,4.14-5.57Z" style="fill:#fff"></path><path d="M225.29,352.22a5,5,0,0,1-4.15,5.56,5,5,0,0,1,4.15-5.56Z" style="fill:#fff"></path><path d="M235,346.39a5,5,0,0,1-4.15,5.56,4.93,4.93,0,0,1,4.15-5.56Z" style="fill:#fff"></path><path d="M203.43,346.39a5.76,5.76,0,0,0,.93,3.63,5.83,5.83,0,0,0,3.21,1.93,4.94,4.94,0,0,0-4.14-5.56Z" style="fill:#fff"></path><path d="M230.27,334.42a5,5,0,0,1-4.14,5.57,4.94,4.94,0,0,1,4.14-5.57Z" style="fill:#fff"></path><path d="M228.26,324a5,5,0,0,1-2.61,6.43,5,5,0,0,1,2.61-6.43Z" style="fill:#fff"></path><path d="M213.84,321.3a5,5,0,0,1,2.37,6.53,5,5,0,0,1-2.37-6.53Z" style="fill:#fff"></path><path d="M220.57,333.74a5,5,0,0,1-.4,6.93,4.95,4.95,0,0,1,.4-6.93Z" style="fill:#fff"></path><path d="M220.21,315.23a4.95,4.95,0,0,1-.4,6.93,4.95,4.95,0,0,1,.4-6.93Z" style="fill:#fff"></path><path d="M205.12,354.71a5,5,0,0,0,4.15,5.57,5,5,0,0,0-4.15-5.57Z" style="fill:#fff"></path><path d="M201.21,366.1a5,5,0,0,0,4.14,5.57,5,5,0,0,0-4.14-5.57Z" style="fill:#fff"></path><path d="M211.6,370.24a4.93,4.93,0,0,0,4.15,5.56,5,5,0,0,0-4.15-5.56Z" style="fill:#fff"></path><path d="M214.44,354.45a5,5,0,0,0,2.38,6.52,4.94,4.94,0,0,0-2.38-6.52Z" style="fill:#fff"></path><path d="M207.08,396.45a4.94,4.94,0,0,0,5.21-4.59,5,5,0,0,0-5.21,4.59Z" style="fill:#fff"></path><path d="M227.28,394.15a4.94,4.94,0,0,0,5.9,3.66,4.94,4.94,0,0,0-5.9-3.66Z" style="fill:#fff"></path><path d="M209.43,344.21a4.95,4.95,0,0,0,4.15,5.57,5,5,0,0,0-4.15-5.57Z" style="fill:#fff"></path><path d="M209.39,335a5,5,0,0,0,4.15,5.57,4.95,4.95,0,0,0-4.15-5.57Z" style="fill:#fff"></path><path d="M433.5,380c0,17.25-10.21,31.24-22.8,31.24s-22.79-14-22.79-31.24,10.2-76.55,22.79-76.55S433.5,362.72,433.5,380Z" style="fill:#90CAF9"></path><polygon points="423.48 389 416.58 391.55 417.97 387.39 414.67 392.26 411.37 393.48 411.14 379.83 423.13 363.9 416.7 370.33 417.79 365.86 414.71 372.31 411.07 375.96 410.7 354.64 409.39 385.73 398.03 373.69 404.27 382.18 398.39 381.52 405.66 384.06 409.26 388.95 408.63 403.94 404.44 401.1 408.5 407.05 406.57 452.86 412.39 452.86 411.41 395.65 423.48 389" style="fill:#263238"></polygon><path d="M423.24,354.71a5,5,0,0,1-4.14,5.57,4.94,4.94,0,0,1,4.14-5.57Z" style="fill:#fff"></path><path d="M430.11,364.36a5,5,0,0,1-4.14,5.57,5,5,0,0,1,4.14-5.57Z" style="fill:#fff"></path><path d="M430.11,383.16a5.83,5.83,0,0,1-2.1,3.1,5.77,5.77,0,0,1-3.68.74,4.95,4.95,0,0,1,5.78-3.84Z" style="fill:#fff"></path><path d="M392.38,383.16a4.95,4.95,0,0,0,5.77,3.84,4.95,4.95,0,0,0-5.77-3.84Z" style="fill:#fff"></path><path d="M422.17,375.36a5.76,5.76,0,0,1-.93,3.63,5.83,5.83,0,0,1-3.21,1.93,4.94,4.94,0,0,1,4.14-5.56Z" style="fill:#fff"></path><path d="M420.39,344.21a5,5,0,0,1-4.14,5.57,4.94,4.94,0,0,1,4.14-5.57Z" style="fill:#fff"></path><path d="M416.3,352.22a4.94,4.94,0,0,1-4.14,5.56,5.76,5.76,0,0,1,.93-3.63A5.83,5.83,0,0,1,416.3,352.22Z" style="fill:#fff"></path><path d="M426,346.39a4.93,4.93,0,0,1-4.15,5.56,5,5,0,0,1,4.15-5.56Z" style="fill:#fff"></path><path d="M394.44,346.39a4.94,4.94,0,0,0,4.14,5.56,4.94,4.94,0,0,0-4.14-5.56Z" style="fill:#fff"></path><path d="M421.28,334.42a5,5,0,0,1-4.14,5.57,4.94,4.94,0,0,1,4.14-5.57Z" style="fill:#fff"></path><path d="M419.27,324a5,5,0,0,1-2.61,6.43,5,5,0,0,1,2.61-6.43Z" style="fill:#fff"></path><path d="M404.86,321.3a4.94,4.94,0,0,1,2.36,6.53,5,5,0,0,1-2.36-6.53Z" style="fill:#fff"></path><path d="M411.58,333.74a4.95,4.95,0,0,1-.4,6.93,4.95,4.95,0,0,1,.4-6.93Z" style="fill:#fff"></path><path d="M411.22,315.23a4.95,4.95,0,0,1-.4,6.93,5,5,0,0,1,.4-6.93Z" style="fill:#fff"></path><path d="M396.14,354.71a5,5,0,0,0,4.14,5.57,4.94,4.94,0,0,0-4.14-5.57Z" style="fill:#fff"></path><path d="M392.22,366.1a4.95,4.95,0,0,0,4.15,5.57,5,5,0,0,0-4.15-5.57Z" style="fill:#fff"></path><path d="M402.61,370.24a5,5,0,0,0,4.15,5.56,4.93,4.93,0,0,0-4.15-5.56Z" style="fill:#fff"></path><path d="M405.46,354.45a4.94,4.94,0,0,0,2.37,6.52,5.75,5.75,0,0,0,.15-3.74A5.87,5.87,0,0,0,405.46,354.45Z" style="fill:#fff"></path><path d="M398.1,396.45a5,5,0,0,0,5.21-4.59,5.9,5.9,0,0,0-3.55,1.23A5.79,5.79,0,0,0,398.1,396.45Z" style="fill:#fff"></path><path d="M418.29,394.15a4.94,4.94,0,0,0,5.9,3.66,4.94,4.94,0,0,0-5.9-3.66Z" style="fill:#fff"></path><path d="M400.44,344.21a5,5,0,0,0,4.15,5.57,4.93,4.93,0,0,0-4.15-5.57Z" style="fill:#fff"></path><path d="M400.41,335a5,5,0,0,0,4.14,5.57,5,5,0,0,0-4.14-5.57Z" style="fill:#fff"></path><path d="M114.89,380c0,17.25-10.21,31.24-22.8,31.24s-22.8-14-22.8-31.24,10.21-76.55,22.8-76.55S114.89,362.72,114.89,380Z" style="fill:#90CAF9"></path><polygon points="104.87 389 97.97 391.55 99.35 387.39 96.05 392.26 92.76 393.48 92.52 379.83 104.52 363.9 98.09 370.33 99.17 365.86 96.1 372.31 92.46 375.96 92.09 354.64 90.78 385.73 79.42 373.69 85.66 382.18 79.78 381.52 87.05 384.06 90.65 388.95 90.02 403.94 85.83 401.1 89.89 407.05 87.96 452.86 93.78 452.86 92.8 395.65 104.87 389" style="fill:#263238"></polygon><path d="M104.63,354.71a4.95,4.95,0,0,1-4.15,5.57,5,5,0,0,1,4.15-5.57Z" style="fill:#fff"></path><path d="M111.5,364.36a5,5,0,0,1-4.14,5.57,5,5,0,0,1,4.14-5.57Z" style="fill:#fff"></path><path d="M111.5,383.16a5.83,5.83,0,0,1-2.1,3.1,5.77,5.77,0,0,1-3.68.74,4.95,4.95,0,0,1,5.78-3.84Z" style="fill:#fff"></path><path d="M73.76,383.16a5.81,5.81,0,0,0,2.11,3.1,5.74,5.74,0,0,0,3.67.74,5.77,5.77,0,0,0-2.1-3.1A5.84,5.84,0,0,0,73.76,383.16Z" style="fill:#fff"></path><path d="M103.56,375.36a4.94,4.94,0,0,1-4.14,5.56,4.94,4.94,0,0,1,4.14-5.56Z" style="fill:#fff"></path><path d="M101.78,344.21a5,5,0,0,1-4.14,5.57,4.94,4.94,0,0,1,4.14-5.57Z" style="fill:#fff"></path><path d="M97.69,352.22a5,5,0,0,1-4.15,5.56,5,5,0,0,1,4.15-5.56Z" style="fill:#fff"></path><path d="M107.41,346.39a5,5,0,0,1-4.15,5.56,5,5,0,0,1,4.15-5.56Z" style="fill:#fff"></path><path d="M75.83,346.39A4.94,4.94,0,0,0,80,352a4.94,4.94,0,0,0-4.14-5.56Z" style="fill:#fff"></path><path d="M102.67,334.42A5,5,0,0,1,98.53,340a4.94,4.94,0,0,1,4.14-5.57Z" style="fill:#fff"></path><path d="M100.66,324a5,5,0,0,1-2.61,6.43,5,5,0,0,1,2.61-6.43Z" style="fill:#fff"></path><path d="M86.24,321.3a5,5,0,0,1,2.37,6.53,5,5,0,0,1-2.37-6.53Z" style="fill:#fff"></path><path d="M93,333.74a4.95,4.95,0,0,1-.4,6.93,4.95,4.95,0,0,1,.4-6.93Z" style="fill:#fff"></path><path d="M92.61,315.23a4.95,4.95,0,0,1-.4,6.93,4.95,4.95,0,0,1,.4-6.93Z" style="fill:#fff"></path><path d="M77.52,354.71a5,5,0,0,0,4.15,5.57,4.93,4.93,0,0,0-4.15-5.57Z" style="fill:#fff"></path><path d="M73.61,366.1a5,5,0,0,0,4.14,5.57,5,5,0,0,0-4.14-5.57Z" style="fill:#fff"></path><path d="M84,370.24a5,5,0,0,0,4.15,5.56A5,5,0,0,0,84,370.24Z" style="fill:#fff"></path><path d="M86.84,354.45A5,5,0,0,0,89.22,361a4.94,4.94,0,0,0-2.38-6.52Z" style="fill:#fff"></path><path d="M79.48,396.45a4.94,4.94,0,0,0,5.21-4.59,5,5,0,0,0-5.21,4.59Z" style="fill:#fff"></path><path d="M99.68,394.15a4.94,4.94,0,0,0,5.9,3.66,4.94,4.94,0,0,0-5.9-3.66Z" style="fill:#fff"></path><path d="M81.83,344.21A5,5,0,0,0,86,349.78a5,5,0,0,0-4.15-5.57Z" style="fill:#fff"></path><path d="M81.8,335a5,5,0,0,0,4.14,5.57A5,5,0,0,0,81.8,335Z" style="fill:#fff"></path></g><g id="freepik--Floor--inject-27"><path d="M479.48,453.36H27.12a.5.5,0,0,1,0-1H479.48a.5.5,0,0,1,0,1Z" style="fill:#263238"></path></g></svg>
