<svg xmlns="http://www.w3.org/2000/svg" viewBox="0 0 500 500"><g id="freepik--background-simple--inject-322"><path d="M449,142.6S382.34,62.84,279,44.53,155.48,104,120.83,149.79,47,212.55,45,278.58s24.85,100,76.49,123.57,104.61,36,156.26,43.15,92.83,3.26,113.1-39.23S402,344,425.49,323.69,502,211.24,449,142.6Z" style="fill:#92E3A9"></path><path d="M449,142.6S382.34,62.84,279,44.53,155.48,104,120.83,149.79,47,212.55,45,278.58s24.85,100,76.49,123.57,104.61,36,156.26,43.15,92.83,3.26,113.1-39.23S402,344,425.49,323.69,502,211.24,449,142.6Z" style="fill:#fff;opacity:0.7000000000000001"></path></g><g id="freepik--Floor--inject-322"><rect x="13.99" y="421.73" width="442.29" height="1" style="fill:#263238"></rect><rect x="468.14" y="421.73" width="12.85" height="1" style="fill:#263238"></rect></g><g id="freepik--Plants--inject-322"><g style="opacity:0.30000000000000004"><path d="M411.82,294.28a1,1,0,0,0,1.24-.73c15.79-49.69,8.55-106.56-18.91-148.41a.91.91,0,0,0-1.42-.21,1.37,1.37,0,0,0-.18,1.7c27,41.19,34.15,97.16,18.6,146.06a1.29,1.29,0,0,0,.59,1.56Z"></path><path d="M402.31,243.58c12.45-.2,16,23.35,15.56,23.61-.32,2.51-.7,5-1.13,7.54-.43-3.38-5.16-9.59-13.57-14.53C395,255,390.45,243.26,402.31,243.58Z"></path><path d="M438.24,245c12.21.32,5.77,18.85-3.88,21.13-9.39,2.6-15.76,5.94-17.45,8.68q.87-3.7,1.56-7.46C418.88,267.62,426.67,245.18,438.24,245Z"></path><path d="M440.34,253.93c12.22.32,5.78,18.85-3.87,21.12-9.39,2.6-15.76,5.95-17.45,8.69q.86-3.72,1.56-7.46C421,276.58,428.77,254.13,440.34,253.93Z"></path><path d="M401.35,221.63c12.23-2.67,19.09,19.58,18.67,19.9,0,2.51,0,5,0,7.55-.9-3.19-6.46-8.29-15.45-11.42C395.72,234.19,389.61,223.68,401.35,221.63Z"></path><path d="M437,215.81c12.08-2.12,8.34,17.26-.84,21.37-8.88,4.41-14.69,8.92-15.95,11.91.21-2.51.36-5,.47-7.55C421.07,241.77,425.57,218.34,437,215.81Z"></path><path d="M397.33,200.27c11.68-5.05,21.55,15.43,21.19,15.81.39,2.44.73,4.91,1,7.38-1.35-2.93-7.53-6.81-16.83-8.08C393.53,213.75,386,204.64,397.33,200.27Z"></path><path d="M431.61,187.43c11.62-4.48,10.64,15.32,2.17,21.17-8.14,6.09-13.23,11.67-14.06,14.84q-.21-3.75-.6-7.48C419.59,216.13,420.75,192.22,431.61,187.43Z"></path><path d="M390.35,180c10.83-7.29,23.44,11,23.12,11.41q1.11,3.5,2,7.06c-1.73-2.62-8.37-5.2-17.72-4.6C388.52,194.07,379.85,186.54,390.35,180Z"></path><path d="M422.35,160.47c10.83-6.73,12.66,13,5.12,20.5-7.17,7.62-11.4,14.13-11.77,17.41-.5-2.42-1.05-4.84-1.64-7.24C414.54,191.23,412.32,167.38,422.35,160.47Z"></path><path d="M380.53,161.21c9.65-9.36,24.75,6.29,24.49,6.76,1.05,2.17,2.06,4.36,3,6.59-2.08-2.25-9-3.49-18.14-1.05C380.79,175.57,371.11,169.81,380.53,161.21Z"></path><path d="M409.31,135.56c9.72-8.81,14.42,10.46,8,19.33-6,9-9.23,16.26-9.14,19.58-.83-2.3-1.71-4.59-2.64-6.85C406.07,167.63,400.42,144.4,409.31,135.56Z"></path><path d="M399.06,155.21c.33.07-5.07-20.63-11.72-29.45-6.33-8.9-13.43-5.35-14.68-.48s3.29,10.85,8,14.8C385.49,143.55,399.18,154.88,399.06,155.21Z"></path><path d="M398.87,156l.09,0a.67.67,0,0,0,.71-.42.64.64,0,0,0,0-.07.69.69,0,0,0,0-.64c-.43-4-6.12-22.08-11.84-29.66-3.11-4.38-6.94-6.41-10.5-5.53A7.43,7.43,0,0,0,372,125c-1.79,6.59,5.83,13.68,8.22,15.7,4.75,3.38,17.2,13.71,18.25,14.9A.74.74,0,0,0,398.87,156Zm-17.69-34.5c1.66.58,3.62,1.94,5.64,4.79,5.25,7,9.65,21.24,11.09,26.75-1.15-1-3-2.52-5.81-4.87-3.67-3-8.52-6.91-11.13-8.77-4.47-3.79-8.87-9.45-7.67-13.86a6,6,0,0,1,4.31-4.26A6.19,6.19,0,0,1,381.18,121.49Z"></path><path d="M453.05,339.31a.6.6,0,0,0-.9-.29c-25,16.89-41.08,48.65-41.93,82.9a1.06,1.06,0,0,0,0,.31h1.21a.76.76,0,0,0,0-.27c.84-33.7,16.65-65,41.27-81.58A.89.89,0,0,0,453.05,339.31Z"></path><path d="M427,395.29c-7.38-3.77-14.38,9.21-14.15,9.5-.33,1.6-.62,3.21-.89,4.83.95-1.89,5.06-4.2,11.09-4.68C429,404.21,434.08,398.57,427,395.29Z"></path><path d="M405.25,385.58c-7.34-3.39-7.34,9.55-2.05,13.73,5.05,4.3,8.16,8.16,8.6,10.29.17-1.64.37-3.28.61-4.9C412.1,404.76,412.1,389.1,405.25,385.58Z"></path><path d="M432.06,382.49c-6.74-5.18-15.42,6.07-15.24,6.38q-.82,2.24-1.54,4.51c1.2-1.64,5.56-3.05,11.56-2.27C432.82,391.63,438.63,387.16,432.06,382.49Z"></path><path d="M412,368.58c-6.76-4.8-8.54,7.84-3.92,13,4.39,5.23,6.91,9.62,7.05,11.77.39-1.55.82-3.1,1.28-4.63C416.14,388.71,418.3,373.43,412,368.58Z"></path><path d="M438.87,370.94c-5.92-6.44-16,2.87-15.89,3.21-.74,1.34-1.46,2.71-2.14,4.1,1.4-1.36,5.89-1.86,11.69.12C438.34,380.09,444.69,376.85,438.87,370.94Z"></path><path d="M421.09,353.23c-6-6.07-9.5,6-5.67,12,3.6,6,5.48,10.83,5.31,13,.61-1.44,1.24-2.87,1.91-4.28C422.33,373.86,426.58,359.27,421.09,353.23Z"></path><path d="M447.22,360.89c-4.94-7.52-16.23-.33-16.14,0-.91,1.18-1.81,2.38-2.68,3.61,1.58-1.05,6.07-.64,11.52,2.46C445.4,369.82,452.12,367.88,447.22,360.89Z"></path><path d="M432.18,339.89c-5.06-7.19-10.24,4.06-7.29,10.71,2.7,6.65,3.88,11.76,3.42,13.83q1.2-1.95,2.47-3.84C430.48,360.5,436.73,346.94,432.18,339.89Z"></path><path d="M457,352.59c-3.82-8.41-16.05-3.52-16-3.15q-1.62,1.47-3.16,3c1.7-.72,6.08.56,11,4.7C453.83,361.07,460.79,360.47,457,352.59Z"></path><path d="M445.1,328.86c-4-8.1-10.75,2-8.78,9.17,1.71,7.1,2.14,12.39,1.4,14.34q1.45-1.69,3-3.3C440.41,348.92,448.57,336.74,445.1,328.86Z"></path><path d="M447.15,343.58c-.21-.06,7.28-10.81,13.07-14.12,5.61-3.44,9.11.75,8.85,4s-4.21,5.5-7.81,6.49C457.64,340.61,447.14,343.35,447.15,343.58Z"></path><path d="M447.1,344.1H447a.52.52,0,0,1-.33-.46v-.05a.41.41,0,0,1,.14-.38C447.92,341,455.06,331.84,460,329c2.76-1.69,5.46-1.78,7.4-.21a5.68,5.68,0,0,1,2.07,4.75c-.29,4.45-6.3,6.44-8.14,7-3.53.62-13.08,3.12-14,3.52A.37.37,0,0,1,447.1,344.1Zm17.67-15.38a6.75,6.75,0,0,0-4.35,1.21c-4.57,2.61-10.14,9.82-12.13,12.69.89-.27,2.28-.64,4.46-1.2,2.81-.73,6.51-1.62,8.45-2,3.45-.94,7.24-3,7.43-6a4.55,4.55,0,0,0-1.69-3.8A4.34,4.34,0,0,0,464.77,328.72Z"></path><path d="M404.58,422.23c-15-48.61-7.82-104,19-144.82a1.37,1.37,0,0,0-.17-1.7.91.91,0,0,0-1.43.21c-27.07,41.26-34.48,97.12-19.53,146.31Z"></path><path d="M413.79,374.36c-12.44-.2-16,23.35-15.55,23.6.32,2.52.69,5,1.13,7.55.42-3.38,5.15-9.6,13.56-14.53C421.12,385.72,425.65,374,413.79,374.36Z"></path><path d="M377.87,375.75c-12.21.32-5.78,18.85,3.87,21.12,9.39,2.6,15.77,5.95,17.45,8.69q-.85-3.72-1.56-7.46C397.22,398.4,389.44,376,377.87,375.75Z"></path><path d="M414.76,352.4c-12.24-2.66-19.09,19.58-18.68,19.9q-.06,3.76,0,7.55c.91-3.19,6.46-8.28,15.45-11.41C420.39,365,426.5,354.46,414.76,352.4Z"></path><path d="M379.15,346.58c-12.08-2.11-8.34,17.26.84,21.38,8.88,4.4,14.68,8.92,15.94,11.9-.2-2.51-.36-5-.46-7.54C395,372.55,390.53,349.12,379.15,346.58Z"></path><path d="M418.78,331c-11.69-5-21.56,15.43-21.19,15.81-.39,2.45-.74,4.91-1,7.39,1.34-2.94,7.53-6.81,16.83-8.08C422.57,344.53,430.06,335.41,418.78,331Z"></path><path d="M384.49,318.21c-11.61-4.49-10.64,15.31-2.16,21.17,8.14,6.09,13.23,11.66,14.05,14.84q.22-3.75.6-7.48C396.52,346.9,395.36,323,384.49,318.21Z"></path><path d="M425.75,310.75c-10.82-7.3-23.43,11-23.12,11.4q-1.1,3.5-2.05,7.07c1.73-2.62,8.38-5.2,17.72-4.6C427.58,324.84,436.26,317.31,425.75,310.75Z"></path><path d="M393.75,291.25c-10.82-6.73-12.66,13-5.12,20.49,7.17,7.63,11.41,14.13,11.78,17.42q.73-3.65,1.64-7.24C401.56,322,403.78,298.16,393.75,291.25Z"></path><path d="M435.57,292c-9.64-9.36-24.75,6.28-24.48,6.76-1.06,2.16-2.07,4.36-3,6.58,2.08-2.24,9-3.48,18.14-1C435.32,306.35,445,300.58,435.57,292Z"></path><path d="M406.8,266.33c-9.73-8.81-14.42,10.47-8,19.33,6,9,9.24,16.26,9.14,19.58q1.25-3.45,2.64-6.84C410,298.4,415.68,275.18,406.8,266.33Z"></path></g><g style="opacity:0.30000000000000004"><path d="M109.77,339.39a.61.61,0,0,1,.9-.29c25,16.87,41,48.61,41.89,82.82a1.06,1.06,0,0,1-.05.31H151.3a.76.76,0,0,1-.05-.27c-.84-33.66-16.64-64.9-41.23-81.5A.86.86,0,0,1,109.77,339.39Z"></path><path d="M135.85,395.32c7.36-3.77,14.36,9.2,14.13,9.49.33,1.59.62,3.2.88,4.83-1-1.89-5.05-4.21-11.07-4.68C133.83,404.23,128.72,398.6,135.85,395.32Z"></path><path d="M157.52,385.62c7.34-3.39,7.33,9.53,2,13.71-5,4.3-8.15,8.16-8.59,10.28-.17-1.64-.38-3.27-.61-4.9C150.67,404.77,150.67,389.13,157.52,385.62Z"></path><path d="M130.74,382.53c6.73-5.17,15.41,6.06,15.22,6.38q.82,2.22,1.54,4.5c-1.19-1.64-5.55-3-11.55-2.27C130,391.66,124.17,387.19,130.74,382.53Z"></path><path d="M150.73,368.63c6.76-4.8,8.54,7.84,3.92,13-4.38,5.22-6.9,9.6-7,11.75-.39-1.55-.82-3.1-1.28-4.63C146.64,388.74,144.48,373.48,150.73,368.63Z"></path><path d="M123.93,371c5.92-6.43,16,2.87,15.88,3.2.74,1.35,1.46,2.71,2.14,4.1-1.4-1.35-5.89-1.85-11.69.12C124.46,380.13,118.12,376.9,123.93,371Z"></path><path d="M141.7,353.3c6-6.07,9.49,6,5.66,12-3.59,6-5.47,10.81-5.31,12.94-.6-1.44-1.24-2.86-1.9-4.27C140.46,373.91,136.22,359.34,141.7,353.3Z"></path><path d="M115.59,361c4.94-7.51,16.22-.33,16.12,0q1.38,1.75,2.68,3.6c-1.57-1.05-6.06-.64-11.5,2.45C117.41,369.88,110.69,367.94,115.59,361Z"></path><path d="M130.62,340c5-7.18,10.23,4,7.28,10.7-2.7,6.64-3.88,11.75-3.42,13.82-.79-1.3-1.62-2.58-2.47-3.83C132.32,360.57,126.07,347,130.62,340Z"></path><path d="M105.87,352.66c3.81-8.4,16-3.51,16-3.15q1.61,1.47,3.16,3c-1.7-.72-6.08.56-11,4.7C109,361.13,102,360.53,105.87,352.66Z"></path><path d="M117.71,329c4-8.09,10.74,2,8.77,9.16-1.71,7.1-2.14,12.38-1.4,14.33q-1.45-1.68-3-3.3C122.4,349,114.24,336.82,117.71,329Z"></path><path d="M115.67,343.66c.2-.06-7.28-10.8-13.06-14.1-5.61-3.45-9.1.75-8.84,4s4.2,5.5,7.79,6.48C105.18,340.69,115.67,343.43,115.67,343.66Z"></path><path d="M115.71,344.18l.06,0a.5.5,0,0,0,.34-.45.07.07,0,0,0,0,0,.43.43,0,0,0-.13-.38c-1.08-2.24-8.2-11.35-13.18-14.19-2.75-1.7-5.45-1.78-7.39-.22a5.68,5.68,0,0,0-2.07,4.75c.29,4.45,6.3,6.44,8.13,6.94,3.53.62,13.08,3.12,14,3.52A.38.38,0,0,0,115.71,344.18ZM98.06,328.82a6.72,6.72,0,0,1,4.35,1.2c4.56,2.61,10.13,9.82,12.12,12.68-.89-.27-2.29-.64-4.47-1.2-2.8-.73-6.49-1.62-8.43-2-3.45-1-7.23-3-7.43-6a4.56,4.56,0,0,1,1.69-3.8A4.26,4.26,0,0,1,98.06,328.82Z"></path><path d="M158.19,422.23c15-48.56,7.81-103.87-18.95-144.67a1.37,1.37,0,0,1,.17-1.7.91.91,0,0,1,1.43.21c27,41.22,34.44,97,19.51,146.16Z"></path><path d="M149,374.41c12.43-.2,16,23.32,15.54,23.58q-.48,3.76-1.13,7.54c-.43-3.38-5.15-9.59-13.56-14.52C141.66,385.76,137.14,374.08,149,374.41Z"></path><path d="M184.87,375.79c12.21.32,5.77,18.84-3.86,21.11-9.38,2.6-15.75,5.94-17.44,8.68.58-2.48,1.1-5,1.56-7.46C165.54,398.42,173.32,376,184.87,375.79Z"></path><path d="M148,352.47c12.22-2.66,19.08,19.56,18.66,19.88q.06,3.76,0,7.54c-.91-3.18-6.45-8.27-15.44-11.4C142.4,365,136.29,354.53,148,352.47Z"></path><path d="M183.59,346.66c12.07-2.12,8.34,17.24-.83,21.35-8.87,4.4-14.67,8.91-15.93,11.9.2-2.51.36-5,.46-7.54C167.73,372.6,172.22,349.19,183.59,346.66Z"></path><path d="M144,331.13c11.67-5,21.53,15.42,21.16,15.8q.6,3.66,1,7.38c-1.34-2.94-7.52-6.81-16.81-8.07C140.22,344.61,132.73,335.5,144,331.13Z"></path><path d="M178.26,318.31c11.6-4.48,10.62,15.3,2.16,21.15-8.13,6.09-13.22,11.66-14,14.82q-.23-3.73-.6-7.46C166.24,347,167.4,323.09,178.26,318.31Z"></path><path d="M137,310.86c10.81-7.29,23.41,11,23.1,11.39.73,2.33,1.41,4.69,2,7.06-1.73-2.62-8.36-5.2-17.7-4.59C135.21,324.94,126.54,317.42,137,310.86Z"></path><path d="M169,291.38c10.81-6.72,12.64,13,5.11,20.47-7.16,7.62-11.39,14.12-11.76,17.4-.5-2.42-1-4.83-1.64-7.23C161.2,322.1,159,298.28,169,291.38Z"></path><path d="M127.23,292.12c9.64-9.35,24.72,6.28,24.46,6.75,1.05,2.16,2.06,4.36,3,6.58-2.08-2.24-9-3.48-18.12-1C127.48,306.47,117.82,300.7,127.23,292.12Z"></path><path d="M156,266.49c9.72-8.8,14.41,10.45,8,19.31-6,9-9.23,16.24-9.13,19.56q-1.25-3.45-2.64-6.84C152.74,298.53,147.1,275.32,156,266.49Z"></path></g><g style="opacity:0.30000000000000004"><path d="M277.66,265.54a1.21,1.21,0,0,0,1.52-.9c19.35-60.85,10.48-130.5-23.15-181.75a1.12,1.12,0,0,0-1.75-.26,1.69,1.69,0,0,0-.21,2.09c33.09,50.44,41.82,119,22.78,178.87a1.57,1.57,0,0,0,.72,1.91Z"></path><path d="M266,203.45c15.24-.25,19.63,28.59,19.05,28.9q-.58,4.64-1.38,9.25c-.52-4.14-6.31-11.76-16.62-17.8C257,217.36,251.49,203.05,266,203.45Z"></path><path d="M310,205.15c15,.39,7.07,23.09-4.75,25.87-11.49,3.18-19.3,7.28-21.37,10.64.71-3,1.34-6.08,1.91-9.14C286.32,232.89,295.85,205.4,310,205.15Z"></path><path d="M312.6,216.12c15,.39,7.07,23.08-4.75,25.86-11.49,3.19-19.3,7.29-21.37,10.64.71-3,1.34-6.08,1.91-9.13C288.9,243.85,298.43,216.37,312.6,216.12Z"></path><path d="M264.84,176.56c15-3.26,23.38,24,22.87,24.37.05,3.07,0,6.16,0,9.24-1.11-3.9-7.91-10.14-18.92-14C258,192,250.46,179.08,264.84,176.56Z"></path><path d="M308.45,169.43c14.79-2.59,10.22,21.14-1,26.18-10.87,5.39-18,10.92-19.53,14.58q.39-4.62.57-9.25C289,201.23,294.5,172.53,308.45,169.43Z"></path><path d="M259.92,150.4c14.31-6.18,26.39,18.9,25.95,19.36.48,3,.9,6,1.26,9.05-1.65-3.6-9.22-8.34-20.61-9.9C255.27,166.92,246.09,155.75,259.92,150.4Z"></path><path d="M301.91,134.68c14.22-5.49,13,18.76,2.65,25.93-10,7.46-16.2,14.28-17.21,18.17-.19-3.06-.43-6.11-.74-9.16C287.18,169.82,288.6,140.54,301.91,134.68Z"></path><path d="M251.38,125.54c13.25-8.93,28.7,13.44,28.31,14,.9,2.86,1.73,5.74,2.51,8.65-2.12-3.2-10.25-6.37-21.7-5.63C249.13,142.81,238.51,133.59,251.38,125.54Z"></path><path d="M290.56,101.66c13.26-8.24,15.51,16,6.28,25.1-8.79,9.34-14,17.31-14.43,21.33q-.9-4.46-2-8.87C281,139.33,278.28,110.12,290.56,101.66Z"></path><path d="M239.35,102.57c11.81-11.46,30.31,7.69,30,8.28q1.94,4,3.7,8.06c-2.55-2.75-11-4.27-22.21-1.28C239.66,120.16,227.81,113.09,239.35,102.57Z"></path><path d="M274.59,71.15C286.5,60.36,292.25,84,284.43,94.83c-7.33,11-11.31,19.9-11.19,24q-1.53-4.23-3.24-8.38C270.62,110.43,263.71,82,274.59,71.15Z"></path><path d="M262,95.22c.4.08-6.21-25.26-14.36-36.07-7.74-10.89-16.44-6.55-18-.59s4,13.29,9.74,18.13C245.42,80.94,262.19,94.82,262,95.22Z"></path><path d="M261.81,96.17l.1,0a.8.8,0,0,0,.87-.51l0-.09a.83.83,0,0,0,0-.78c-.53-4.86-7.49-27-14.5-36.33-3.81-5.36-8.5-7.84-12.86-6.78a9.13,9.13,0,0,0-6.53,6.56C226.72,66.34,236.06,75,239,77.5c5.82,4.14,21.08,16.79,22.36,18.24A.87.87,0,0,0,261.81,96.17ZM240.14,53.92c2,.72,4.43,2.38,6.91,5.87,6.43,8.53,11.82,26,13.58,32.76-1.41-1.24-3.63-3.09-7.12-6-4.49-3.7-10.43-8.46-13.63-10.74-5.47-4.64-10.86-11.57-9.38-17a7.3,7.3,0,0,1,5.27-5.22A7.61,7.61,0,0,1,240.14,53.92Z"></path><path d="M328.15,320.68a.74.74,0,0,0-1.09-.36c-30.63,20.69-50.31,59.59-51.35,101.53a1,1,0,0,0,.06.38h1.48a1.14,1.14,0,0,0,.06-.33c1-41.27,20.4-79.56,50.54-99.92A1,1,0,0,0,328.15,320.68Z"></path><path d="M296.19,389.24c-9-4.62-17.61,11.28-17.33,11.64q-.6,2.92-1.08,5.91c1.16-2.31,6.19-5.15,13.58-5.73C298.67,400.16,304.93,393.26,296.19,389.24Z"></path><path d="M269.62,377.35c-9-4.15-9,11.69-2.52,16.81,6.2,5.27,10,10,10.54,12.6q.32-3,.75-6C278,400.83,278,381.65,269.62,377.35Z"></path><path d="M302.45,373.56c-8.25-6.34-18.89,7.43-18.66,7.82q-1,2.72-1.89,5.52c1.47-2,6.81-3.73,14.16-2.78C303.38,384.75,310.5,379.27,302.45,373.56Z"></path><path d="M277.94,356.52c-8.28-5.88-10.46,9.61-4.8,15.91,5.37,6.4,8.46,11.78,8.63,14.41q.72-2.86,1.57-5.67C283,381.18,285.61,362.46,277.94,356.52Z"></path><path d="M310.79,359.41c-7.25-7.87-19.63,3.53-19.46,3.93q-1.36,2.48-2.62,5c1.72-1.66,7.21-2.26,14.32.15C310.15,370.62,317.92,366.66,310.79,359.41Z"></path><path d="M289,337.73c-7.34-7.44-11.64,7.36-6.94,14.68,4.4,7.37,6.7,13.26,6.5,15.87.74-1.77,1.52-3.51,2.33-5.24C290.53,363,295.74,345.13,289,337.73Z"></path><path d="M321,347.1c-6-9.2-19.88-.4-19.76,0q-1.69,2.16-3.28,4.42c1.92-1.29,7.42-.79,14.09,3C318.79,358.05,327,355.67,321,347.1Z"></path><path d="M302.6,321.38c-6.2-8.79-12.54,5-8.92,13.12,3.3,8.14,4.74,14.41,4.18,16.94,1-1.59,2-3.16,3-4.69C300.52,346.63,308.17,330,302.6,321.38Z"></path><path d="M332.93,336.94c-4.67-10.29-19.65-4.3-19.58-3.86-1.31,1.2-2.61,2.44-3.87,3.72,2.08-.89,7.45.69,13.5,5.75C329.11,347.33,337.63,346.59,332.93,336.94Z"></path><path d="M318.43,307.88c-4.87-9.92-13.17,2.46-10.76,11.23,2.09,8.7,2.63,15.18,1.71,17.57q1.78-2.07,3.66-4.05C312.67,332.45,322.67,317.53,318.43,307.88Z"></path><path d="M320.93,325.91c-.26-.07,8.92-13.24,16-17.29,6.87-4.22,11.15.92,10.83,4.92s-5.15,6.74-9.55,7.95C333.78,322.27,320.93,325.62,320.93,325.91Z"></path><path d="M320.87,326.54h-.07a.61.61,0,0,1-.41-.56v-.06a.52.52,0,0,1,.17-.47c1.32-2.74,10.05-13.91,16.15-17.39,3.38-2.08,6.69-2.19,9.06-.27a7,7,0,0,1,2.54,5.82c-.36,5.45-7.72,7.89-10,8.51-4.33.76-16,3.82-17.1,4.31A.43.43,0,0,1,320.87,326.54Zm21.64-18.82a8.2,8.2,0,0,0-5.32,1.47c-5.6,3.19-12.42,12-14.87,15.54,1.1-.33,2.8-.78,5.48-1.47,3.44-.89,8-2,10.34-2.4,4.22-1.16,8.86-3.72,9.1-7.37a5.55,5.55,0,0,0-2.07-4.65A5.15,5.15,0,0,0,342.51,307.72Z"></path><path d="M268.8,422.23C250.38,362.7,259.22,294.89,292,244.87a1.67,1.67,0,0,0-.21-2.08,1.11,1.11,0,0,0-1.75.26C256.92,293.58,247.85,362,266.15,422.23Z"></path><path d="M280.08,363.6c-15.24-.24-19.63,28.6-19.05,28.91q.59,4.62,1.38,9.24c.52-4.14,6.32-11.75,16.62-17.8C289.06,377.52,294.61,363.2,280.08,363.6Z"></path><path d="M236.09,365.3c-15,.4-7.08,23.09,4.74,25.87,11.5,3.19,19.31,7.29,21.37,10.64q-1.05-4.55-1.91-9.14C259.79,393,250.26,365.56,236.09,365.3Z"></path><path d="M281.26,336.71c-15-3.26-23.38,24-22.87,24.38q-.08,4.61,0,9.24c1.11-3.91,7.91-10.15,18.92-14C288.16,352.1,295.64,339.23,281.26,336.71Z"></path><path d="M237.65,329.58c-14.79-2.59-10.21,21.15,1,26.19,10.88,5.39,18,10.92,19.53,14.58-.25-3.08-.44-6.17-.57-9.25C257.11,361.39,251.6,332.69,237.65,329.58Z"></path><path d="M286.19,310.55c-14.32-6.17-26.4,18.9-25.95,19.37-.48,3-.91,6-1.26,9,1.64-3.59,9.22-8.34,20.61-9.89C290.83,327.07,300,315.91,286.19,310.55Z"></path><path d="M244.2,294.83c-14.23-5.49-13,18.76-2.65,25.93,10,7.46,16.2,14.29,17.21,18.17.18-3.05.42-6.11.73-9.15C258.93,330,257.51,300.7,244.2,294.83Z"></path><path d="M294.73,285.7c-13.26-8.93-28.7,13.44-28.32,14-.89,2.85-1.73,5.74-2.51,8.65,2.12-3.21,10.26-6.37,21.71-5.63C297,303,307.6,293.74,294.73,285.7Z"></path><path d="M255.54,261.82c-13.26-8.24-15.5,16-6.27,25.1,8.78,9.34,14,17.31,14.42,21.33q.92-4.46,2-8.87C265.1,299.49,267.82,270.28,255.54,261.82Z"></path><path d="M306.75,262.73c-11.81-11.47-30.31,7.69-30,8.27q-1.93,4-3.71,8.07c2.55-2.75,11-4.27,22.22-1.28C306.44,280.32,318.29,273.25,306.75,262.73Z"></path><path d="M271.52,231.3c-11.91-10.78-17.66,12.82-9.85,23.68,7.33,11,11.32,19.91,11.19,24q1.53-4.23,3.24-8.38C275.48,270.58,282.4,242.14,271.52,231.3Z"></path></g></g><g id="freepik--Bird--inject-322"><path d="M366.86,342.62s11.85,9.62,12.15,11.86-8.2,18.27-16.41,30.45-17.62,17-17.62,17-3.64-.32-4,1.61a44,44,0,0,1-1.52,5.45s-10.63,2.88-16.71,2.88-14.88-1-17.92,1.28a39.65,39.65,0,0,0-6.38,6.74l8.81-1s-4.86,4.49-4.56,5.45c0,0,9.11-1.6,10-1.6s17.31,1.92,17.31,1.92-4.86,2.25-8.5,4.17-4.26,3.85-4.26,3.85,13.37-4.17,18.84-4.17,8.51.32,13.67-.32,8.81-2.56,10.33-5.45c1-1.94,3.16-5.35,4.44-7.36.61-1,1-1.61,1-1.61l1.22,3.2s3.64-8,4.25-9.94S381.44,384,389,375.32s15.19-16.35,18.23-26.93S410,332.68,407,332s-10.94-1.6-13.67-2.88S378.71,326,378.71,326Z" style="fill:#263238"></path><path d="M316.57,433.46l.29-.91c0-.09.71-2.14,4.49-4.14,2.34-1.23,5.2-2.61,6.94-3.43-6.47-.76-14.92-1.72-15.51-1.72s-6.3,1-9.94,1.6l-.43.07-.14-.42c-.28-.88,1.62-3,3.61-4.94l-8.47.93.69-.92a38.92,38.92,0,0,1,6.48-6.84c2.5-1.84,8.26-1.66,13.83-1.48,1.56.05,3,.1,4.39.1,5.42,0,14.67-2.36,16.33-2.8a43,43,0,0,0,1.41-5.11c.33-2.12,3.57-2.08,4.33-2,1.11-.61,9.78-5.57,17.32-16.76,8.76-13,16.57-28.27,16.32-30.11-.2-1.49-7.45-7.87-12-11.54l-.36-.3,12.3-17.3.31,0c.48.08,11.95,2,14.71,3.24,1.88.88,6.52,1.65,9.91,2.21,1.48.24,2.76.45,3.66.64a3.07,3.07,0,0,1,2,1.47c1.42,2.36,1,7.43-1.34,15.51-2.75,9.55-9.14,16.75-15.9,24.37-.81.91-1.63,1.82-2.44,2.75-7.72,8.8-17.32,30-17.82,31.55-.61,1.93-4.13,9.67-4.28,10l-.49,1.09-1.29-3.4c-.15.22-.32.49-.5.78-1.21,1.9-3.39,5.38-4.41,7.32-1.6,3-5.4,5.06-10.72,5.72a62.55,62.55,0,0,1-9.79.37c-1.2,0-2.48-.05-3.94-.05-5.33,0-18.55,4.1-18.69,4.15Zm-3.79-11.2c.91,0,15.69,1.73,17.37,1.93l1.77.2-1.62.75s-4.89,2.26-8.48,4.15a11.2,11.2,0,0,0-3.35,2.54c3.5-1,13.16-3.8,17.7-3.8,1.46,0,2.75,0,4,.05a60.73,60.73,0,0,0,9.65-.37c5-.61,8.51-2.46,10-5.18,1-1.88,3-5.06,4.45-7.4l1-1.62.54-.82,1.14,3c1-2.26,3.28-7.34,3.73-8.79.73-2.3,10.49-23.32,18-31.91.81-.93,1.63-1.85,2.44-2.76,6.69-7.53,13-14.64,15.69-24,2.2-7.69,2.69-12.64,1.44-14.72a2,2,0,0,0-1.37-1c-.87-.18-2.14-.39-3.61-.63-3.64-.61-8.17-1.35-10.17-2.29-2.4-1.12-12.27-2.8-14.15-3.11l-11.39,16c2.63,2.15,11.67,9.68,12,11.88.33,2.51-8.29,18.63-16.49,30.8s-17.72,17.11-17.81,17.16l-.13.07-.14,0c-.83-.07-3.23,0-3.41,1.19a44.68,44.68,0,0,1-1.54,5.53l-.09.25-.26.07c-.43.12-10.76,2.9-16.84,2.9-1.37,0-2.85-.05-4.42-.1-5.15-.16-11-.35-13.21,1.29a35.24,35.24,0,0,0-5.55,5.7l9.14-1-1.11,1a33.28,33.28,0,0,0-4.15,4.45C305.86,423.31,312,422.26,312.78,422.26Z" style="fill:#263238"></path><path d="M212,419.6s-4.69,1.19-8.2,2.36a13.64,13.64,0,0,0-5,2.67,75,75,0,0,1,9.53.34,31.77,31.77,0,0,0,8.53-.34Z" style="fill:#263238"></path><path d="M242.62,408.54s-2.59.88-4.43,1.55-2.51,3.17-2.51,3.17h6.86Z" style="fill:#263238"></path><path d="M308.69,352.27s4.42,7.58,3.47,10.43-4.11,6-11.38,16.12S273.6,407.9,273.6,407.9a54.94,54.94,0,0,1-17.39.64c-8.85-1.27-11.7-1.27-13.59,0s-1,5.37.31,6.32a50.13,50.13,0,0,1-14.22,2.84c-8.85.63-14.54-.95-16.75,1.9s-3.8,1.9,1.26,4.11,5.69,1.9,13.59,1.9,14.86,0,17.39.31a50.06,50.06,0,0,1,5.06.95s-4.75,2.21-5.06,4.74,2.21,4.43,5.69,4.43,2.84.31,13-3.48,20.86-3.48,25.92-9.17a31.74,31.74,0,0,0,6.64-12l.31,5.37s1.9-6.63,5.06-11.06,31-34.14,35.72-37.3S346.93,358,346.93,352.9s-5.05-9.8-5.05-9.8Z" style="fill:#adadad"></path><path d="M251.19,436.54h-1.3a6.93,6.93,0,0,1-5.24-2,3.72,3.72,0,0,1-1-3c.24-1.93,2.64-3.61,4.14-4.49-1-.21-2.34-.47-3.7-.64-2.5-.31-9.37-.31-17.33-.31h-2.59c-5.52,0-6.66,0-11.2-1.94l-.9-.39c-2.09-.91-2.65-1.16-2.75-1.74s.27-.8.76-1.24a11.44,11.44,0,0,0,1.43-1.51c1.61-2.07,4.64-2,9.21-2,2.3,0,4.9.08,7.9-.14a53,53,0,0,0,13.4-2.56,6.68,6.68,0,0,1-1-3.72,3.27,3.27,0,0,1,1.29-2.8c2-1.36,4.9-1.37,13.94-.08a54.78,54.78,0,0,0,17.07-.6c1.56-1.48,20.13-19.32,27-28.91,2.75-3.84,4.89-6.63,6.6-8.88,2.67-3.49,4.15-5.42,4.71-7.11.72-2.16-2.24-8-3.44-10l-.32-.56L342,342.54l.21.2c.21.2,5.21,4.95,5.21,10.16s-5.61,12.54-10.65,15.9C332,372,304.27,401.67,301.19,406s-5,10.85-5,10.91l-.81,2.83-.34-5.72a32.68,32.68,0,0,1-5.92,9.72c-3.29,3.71-8.74,4.91-15,6.3A80.09,80.09,0,0,0,263,433C254.28,436.31,253.5,436.54,251.19,436.54Zm-24.38-11.43c8,0,14.89,0,17.45.31s5.09,1,5.12,1l1.36.35-1.27.59c-1.25.59-4.54,2.51-4.78,4.35a2.79,2.79,0,0,0,.71,2.22,6,6,0,0,0,4.49,1.65h.73c2.64,0,2.8,0,12.05-3.45a82,82,0,0,1,11.22-3c6.13-1.35,11.42-2.51,14.51-6a31.37,31.37,0,0,0,6.52-11.8l.8-3.16.35,6a37.82,37.82,0,0,1,4.31-8.7c3.09-4.33,31.07-34.24,35.85-37.43s10.2-10.34,10.2-15.07c0-4.23-3.78-8.32-4.7-9.24l-32.29,8.92c1.06,1.92,4.07,7.67,3.2,10.28-.62,1.84-2,3.7-4.86,7.4-1.71,2.24-3.84,5-6.59,8.85-7.22,10-27.05,29-27.25,29.16l-.1.09-.13,0a56,56,0,0,1-17.57.64c-8.64-1.23-11.49-1.25-13.24-.08a2.44,2.44,0,0,0-.85,2,5,5,0,0,0,1.18,3.51l.71.53-.82.33a50.26,50.26,0,0,1-14.38,2.88c-3,.22-5.66.18-8,.14-4.28-.07-7.11-.11-8.41,1.57a12.67,12.67,0,0,1-1.55,1.63l-.36.34a16.74,16.74,0,0,0,2.08,1l.9.39c4.34,1.9,5.33,1.9,10.8,1.86Z" style="fill:#263238"></path><path d="M336.5,368.39c4.74-3.16,10.43-10.43,10.43-15.49s-5.05-9.8-5.05-9.8l-33.19,9.17s4.42,7.58,3.47,10.43c-.61,1.83-2.14,3.8-5.08,7.65l15.53,4.8-1.75-5.26L331,373.28A55,55,0,0,1,336.5,368.39Z" style="fill:#263238"></path><path d="M249.34,427.36l-.17-1c.11,0,10.73-1.85,15.41-4.45a13.2,13.2,0,0,0,5.91-7.18l1,.26a13.84,13.84,0,0,1-6.38,7.79C260.24,425.49,249.78,427.29,249.34,427.36Z" style="fill:#263238"></path><path d="M245.31,414.61s9.89-1.07,14.44-2.14,6.95-1.6,6.95-1.6" style="fill:#fff"></path><path d="M245.36,415.11l-.1-1c.1,0,9.91-1.08,14.37-2.13s7-1.61,7-1.61l.21,1s-2.4.53-6.94,1.6S245.46,415.1,245.36,415.11Z" style="fill:#263238"></path><path d="M250.56,432.49s-.33-3-2.67-2.51-6,3.51-7.69,6.52-2.18,4.18-2.18,4.18a46.25,46.25,0,0,1,5.85-3.51C245.88,436.33,250.56,432.49,250.56,432.49Z" style="fill:#263238"></path><path d="M306.69,374.93s-4.15,2.35-3.06,3.43,2.16.18,2.88-.36S306.69,374.93,306.69,374.93Z" style="fill:#263238"></path><path d="M303.81,380.16s-3.07.54-3.07,1.62,3.07.18,3.07.18Z" style="fill:#263238"></path><path d="M298.58,384.48s-2.52.72-1.8,1.62,2.88,0,2.88,0Z" style="fill:#263238"></path><path d="M295.16,388.81s-2.88,0-2.34,1.26,2.16,2,2.7,1.26S295.16,388.81,295.16,388.81Z" style="fill:#263238"></path><path d="M290.65,394.21s-3.6.72-2.88,2.34,3.61,2.35,4.15,1.08S293.18,393.67,290.65,394.21Z" style="fill:#263238"></path><path d="M289.93,400.34s-5.4-1.81-5.22-.36,3.42,2.52,4.5,2.52S289.93,400.34,289.93,400.34Z" style="fill:#263238"></path><path d="M284.17,403.58s-5.59-1.62-4-.18,5,3.78,5.22,2.7S284.17,403.58,284.17,403.58Z" style="fill:#263238"></path><path d="M281.47,407.18s-5.59-1.8-5.41-.36,3.42,2.16,4.51,2.52S281.47,407.18,281.47,407.18Z" style="fill:#263238"></path><path d="M280.57,412.77s-7.21-4.15-6.49-1.8,5.77,3.6,5.77,3.6Z" style="fill:#263238"></path><path d="M278.4,418.35s-4.5-2.7-4.86-1.44,2.52,2.16,4,2.88S278.4,418.35,278.4,418.35Z" style="fill:#263238"></path><path d="M277,421.23s-6.48-3.24-6.48-1.62,2.34,2.35,2.34,2.35-4.69-2.35-4.5-.36l.18,2s-2.89-.72-3.07.18a11.86,11.86,0,0,1-.54,1.8s-2.88-.54-2.88,0v2s.54,2.52,1.62,1.62l1.08-.9s2.7,1.26,3.06-.18l-.36-2.7s2.35,2.16,2.89,1.08,0-3.42,0-3.42,4.14,5,4.32,3.06a3.06,3.06,0,0,0-.72-2.7s2.7,1.26,2.88,0A17,17,0,0,0,277,421.23Z" style="fill:#263238"></path><path d="M259.67,427.36s-3.79-1.44-3.07-.36l.73,1.08s-3.79-1.44-4-.36l-.18,1.08s-3.24-.36-3.6.9-.36,4,2.16,4.33,4.32-2.89,4.32-2.89,3.25,1.44,3.25.54v-.9s2.7,1.08,2.34-.18A13,13,0,0,0,259.67,427.36Z" style="fill:#263238"></path><path d="M261.68,414.54a3.19,3.19,0,0,0-3.25.18,2.58,2.58,0,0,1-.73.44c-.55.17-1.11-.18-1.65-.37a3.11,3.11,0,0,0-3.56,1.3c-.9-.86-2.35-.58-3.54-.25l-1.1.31a8.69,8.69,0,0,0-2.21.84c-1.49,0-3,.1-4.46.21L222,418.55a.9.9,0,0,0-.62.19.81.81,0,0,0-.07.91,2.39,2.39,0,0,0,4.52-.33,6.59,6.59,0,0,0,3,1.94c1.19.24,2.65-.44,2.78-1.64a4.34,4.34,0,0,0,6.28-.06,4.16,4.16,0,0,0,5.45-.71c-.21.57.28,1.18.83,1.44a3,3,0,0,0,4-1.89,6,6,0,0,0,3.29,1.15,2.33,2.33,0,0,0,2.32-2.18,4.79,4.79,0,0,0,3,1.23,2.34,2.34,0,0,0,2.32-2,2.31,2.31,0,0,0,4.16-.66,1.2,1.2,0,0,1,.22-.56c.34-.37.93,0,1.4.14a1.79,1.79,0,0,0,2.38-1.18C267.68,412.08,261.84,412.7,261.68,414.54Z" style="fill:#263238"></path><path d="M241.87,410.1a2.76,2.76,0,0,0,0,2.74,2.62,2.62,0,0,0,3.38.64,4.12,4.12,0,0,0,1.86-3.13c.9.53-.37,2.36.54,2.88a1.22,1.22,0,0,0,.63.11h2a.8.8,0,0,0,.55-.14c.19-.15.2-.42.24-.66a2.73,2.73,0,0,1,2.35-2.26,4.62,4.62,0,0,0,0,2.06,6.29,6.29,0,0,0,5.11-.9c0,.22,0,.44.07.67a6.62,6.62,0,0,0,5.43-2.52c-3.44-1-7.1-1-10.69-.92-1,0-2.32.26-2.5,1.25a2.54,2.54,0,0,0-1.6-1.61,1.69,1.69,0,0,0-2,.84c.59-1.38-2.22-1.46-2.79-1.28A4.48,4.48,0,0,0,241.87,410.1Z" style="fill:#263238"></path><path d="M111.75,205l-.63-4.74-3.8,6.95-2.53-1.26s-3.47,8.85-4.11,10.75-1.89,6.63-2.21,7.9-1.26,4.11-1.26,4.11l-2.53-2.21s-.63,17.7-.63,22.44v10.43l-2.53-.63v4.42l-2.22-.63,1.9,10.12,1.9,6.32L74.45,309.28S47,346.26,44.1,354.8s2.53,2.21,4.43.94S77,320.34,79.82,318.13s20.55-21.81,28.13-26.56,14.23-8.21,15.81-8.53,8.85,1.9,8.85,1.9L131,297.26l2.85-1.26.31,7.9,2.21-2.53a71.06,71.06,0,0,0,.32,7.59,46.27,46.27,0,0,0,2.53,5.37l2.84,4.11,3.17-2.84,4.74,9.17,2.53,7.27,2.21-2.85s2.53,3.79,3.79,4.74,4.43,3.8,5.69,4.43,3.8,2.21,3.8,2.21l1.89-2.53,4.11,3.48.32-3.48,8.22,6.64,4.74,2.85L187,343.1l2.53,2.53,1,.95,1.58-2.85,4.74,3.8,3.16-1.58,6.33,2.52,3.16.32,14.85-.63-2.53-4.11,9.17,2.21-1.58-4.42,7,3.16-1.9-2.85,6.95,1.9L241,341.2l1.26-5.69,10.43,5.38.64-3.8,3.79.32-.63-4.11,2.53,1.9-.95-4.74,8.53,5.37-2.21-6.64,7.27,8.54L273,335.2l4.43,3.47,4.43,3.48,6.63,6,3.48,4.74v-3.48s2.21,4.11,2.85,5.06,1.26-2.21,1.26-2.21,4.74,4.11,5.69,5.06-2.21,0,4.11,2.21,3.79-1.9,3.79-1.9l9.17,3.79L328.92,363l-7-7.91,8.22,4.11,1.27-4.11,13,1.58L339,349.42l4.11,2.22,2.53-5.69,4.43,2.21v-4.43l2.84.32.63-2.53,4.43,1,4.74,1.58,3.79,2.53,2.22,2.53v-4.75l5.69,1.27-.64-4.74,6,.63h4.74l-.31-4.74,5.05.31-1.58-6.63L400,333.62l-2.21-7.91,7.27,3.17-.32-6.64,7,2.21-3.16-8.22.63-6.32L413,314v-7.9l1.58-4.75L414.27,290l3.16,1.9-5.06-12.64-.32-4.11,3.48,3.79-2.84-10.43,5.37,4.11-3.16-8.54-2.21-3.79,6.32,5.06-4.11-7.59-3.16-6.64-2.53-5.37,5.06,3.48-3.16-6.33,4.74,2.22-7.59-7.59c-.95-1-4.74-6.32-4.74-6.32l-4.74-5.38-4.11-4.42L388,213.81S368.11,197.06,359,191.37s-23.08-8.54-26.24-9.8,1-.32-3.16-1.27-9.17-1.26-10.12-1.58-8.53-2.21-8.53-2.21l8.53-.32s-17.38-2.53-20.23-2.53-17.07,1-17.07,1l7.27-3.47-13.59.94a50.86,50.86,0,0,1-6-.31c-1.58-.32-7.27-.63-7.27-.63l-17.07-.95,4.11-2.85s-11.06,1.58-13.91,2.53a89,89,0,0,0-9.8,3.48c-2.52,1.26-25.92,12-31.92,17.07a95.83,95.83,0,0,1-14.23,9.8c-1.26.63-.31-8.22-.31-8.22l-4.11,2.84,4.11-7.27-6,3.16.63-4.42-3.48,3.48-.63-5.38-5.37,4.43-1.9-3.16-6.32,3.16,1.26-5.69-5.69,6L150,191.37l-1.27-6-3.47,5.69-.64,2.53-.94-7-3.48,8.21-1.27,2.53-.94-9.8-.64,4.75L135.14,185l-1.26,6.33-3.17-3.48-1.58,3.48L126,188.21l-2.21,5L120.6,192l-1.9,3.48-2.53-2.22Z" style="fill:#92E3A9"></path><path d="M330.2,363.72l-11.59-1.82-8.05-3.34a1.78,1.78,0,0,1-.23,1.55c-.66.81-2.14.78-4.66-.1-4.31-1.51-4.33-1.57-4.41-2a.59.59,0,0,1,.07-.39c-.79-.78-3.7-3.31-5-4.44-.48,1.81-1,1.92-1.18,1.95a.76.76,0,0,1-.8-.38c-.37-.56-1.24-2.12-1.93-3.37v3l-4.35-5.93-6.6-6L273.14,336l-1.33,2.66-6.09-7.16,1.84,5.53-8.73-5.5,1,4.88-2.59-1.94.54,3.52-4-.33-.67,4-10.46-5.4-1.11,5,.39,3.49L235.56,343l2.12,3.19-7.47-3.4L231.7,347l-8.88-2.14,2.34,3.8-15.71.67-3.37-.35L200,346.49l-3.25,1.63-4.53-3.63-1.62,2.91-3-3,.29,4.05-5.57-3.34L174.75,339l-.32,3.5L170,338.77l-1.85,2.47-.39-.24s-2.52-1.58-3.75-2.19a31.24,31.24,0,0,1-4-3.06c-.7-.58-1.32-1.1-1.74-1.42a24.42,24.42,0,0,1-3.52-4.29l-2.35,3-2.83-8.14-4.42-8.53-3.1,2.8-3.17-4.58a43.55,43.55,0,0,1-2.6-5.54,49.51,49.51,0,0,1-.33-6.38l-2.17,2.47-.33-8.41-3,1.32,1.64-12.79c-2.8-.83-7.19-2-8.2-1.76-1.49.3-8.12,3.77-15.64,8.47-5.07,3.17-14.91,13.25-21.42,19.92-3.32,3.4-5.72,5.86-6.67,6.6-1.45,1.13-9.69,11.35-17,20.37-8.34,10.34-13.46,16.67-14.37,17.27a18.15,18.15,0,0,0-1.47,1.22c-1.94,1.72-3.19,2.73-4,2.15s-.65-1.91.35-4.89c2.83-8.51,29.29-44.15,30.42-45.66l18.5-30.12-1.83-6.11-2.06-11,2.36.67v-4.4l2.53.63V248.9c0-4.7.62-22.29.63-22.46l0-1.05,2.75,2.4c.3-.92.81-2.51,1-3.35.29-1.19,1.57-6,2.22-7.94s4-10.41,4.12-10.77l.2-.51,2.58,1.29,4.3-7.87.57,4.29,4-10.52,2.6,2.28,1.81-3.32,3.13,1.25,2.31-5.29L129,190.5l1.59-3.51,3,3.31L135,183l2.12,7,.9-6.77,1.2,12.39.49-1,4.17-9.87.85,6.19.06-.15L149,184l1.32,6.24,1.23-1.44,7-7.34L157,187.92l5.79-2.9,1.84,3.06,5.63-4.64.62,5.26,3.81-3.8-.71,4.94,6.65-3.5-3.88,6.85L180,191l-.12,1.08c-.33,3.08-.47,6.66-.18,7.61a98.86,98.86,0,0,0,13.9-9.62c5.19-4.37,23-12.86,29.76-16l2.27-1.09a61.34,61.34,0,0,1,7.64-2.79l2.23-.71c2.85-1,13.54-2.49,14-2.55l2.1-.3L247,169.77l15.61.87c.23,0,5.74.32,7.34.64a50.16,50.16,0,0,0,5.91.3L292,170.45l-7.3,3.5c4.25-.28,12.4-.78,14.51-.78,2.85,0,19.59,2.43,20.31,2.53l-.06,1-5,.19c2.16.55,4.65,1.19,5.18,1.37a26.28,26.28,0,0,0,2.7.4,71.69,71.69,0,0,1,7.37,1.17c2.26.52,2.34.54,2.36.91.17.08.44.2.87.37.79.32,2.33.75,4.27,1.3,5.68,1.6,15.18,4.28,22,8.54,9.09,5.65,28.94,22.32,29.14,22.49l6.69,7.64,4.1,4.41,4.75,5.39c1.34,1.89,4,5.57,4.72,6.3l9.6,9.59-6-2.81,3.39,6.78-5.13-3.53,4.9,10.34,5.27,9.73-6.15-4.92.86,1.47,3.8,10.23-5.57-4.26,3,11-3.9-4.25.2,2.59,5.58,13.95-3.65-2.19.29,10.56-1.58,4.75v9.1l-3.91-4.24-.5,5.1,3.49,9.08-7.26-2.31.32,6.72-7.05-3.06,2.17,7.73-12.37-3.17,1.55,6.48-5.17-.32.32,4.71h-5.28l-5.43-.57.65,4.82L369.25,345v5.45L366.2,347l-3.68-2.46-4.68-1.56-3.9-.83-.62,2.48-2.72-.3V349l-4.69-2.34-2.53,5.7-2.62-1.41,4.74,6.41-13.7-1.67-1.31,4.27L324,356.71ZM318.94,361l8.69,1.36-7.74-8.79,10,5,1.21-3.94,12.22,1.49-6-8.14,5.6,3,2.53-5.68,4.17,2.09v-4.18l3,.33.65-2.57L358.1,342l4.92,1.65,3.89,2.62,1.34,1.53v-4l5.6,1.25-.63-4.67,6.64.7H384l-.32-4.78,4.95.31L387,329.77l12.3,3.15-2.27-8.08,7.5,3.26-.31-6.56,6.65,2.12-2.83-7.36.75-7.55,3.68,4,0-6.78,1.55-4.66-.34-12.21,2.67,1.61-4.54-11.42-.43-5.55,3.07,3.34-2.7-9.87,5.18,4-2.56-6.91-3.53-6,6.49,5.19L414.46,258,408,244.28l5,3.43L410,241.83l3.47,1.62-5.58-5.58c-1-1-4.64-6.16-4.8-6.38l-4.71-5.34-4.1-4.41-6.65-7.6c-.14-.11-19.94-16.74-29-22.35-6.74-4.19-16.16-6.84-21.79-8.43-2-.55-3.53-1-4.37-1.33s-1.41-.6-1.56-.88l-1.52-.36c-2.44-.56-5.23-.9-7.27-1.15a22.29,22.29,0,0,1-2.9-.44c-.91-.31-8.42-2.19-8.49-2.21l-3.42-.85,6.44-.24c-5.34-.74-12.84-1.73-14.6-1.73-2.79,0-16.89.93-17,.94l-2.6.18,7.25-3.47-11,.76a47.54,47.54,0,0,1-6.13-.32c-1.53-.31-7.15-.62-7.2-.63l-18.53-1,3.54-2.46a114.29,114.29,0,0,0-11.7,2.2l-2.24.72a58.82,58.82,0,0,0-7.49,2.73l-2.29,1.09c-6.69,3.18-24.45,11.62-29.54,15.91a96.48,96.48,0,0,1-14.32,9.87.74.74,0,0,1-.76,0c-.84-.58-.71-4.24-.39-7.59l-5,3.47,4.34-7.69-5.36,2.82.56-3.91-3.15,3.15-.65-5.49-5.11,4.21-2-3.26-6.85,3.42,1.1-4.95-4.44,4.7-2.54,3-1.22-5.76-2.78,4.55-1.24,5-1-7.72L140.66,195l-2.06,4.11-.69-7.2-.37,2.71-2.3-7.57-1.07,5.35-3.31-3.65-1.57,3.44-3.15-3.15L124,193.91l-3.19-1.28-2,3.63-2.45-2.15L111.51,207l-.69-5.19-3.29,6-2.47-1.24c-.75,1.91-3.37,8.61-3.9,10.21-.62,1.85-1.88,6.57-2.2,7.87s-1.24,4-1.28,4.15l-.24.71-2.3-2c-.13,3.88-.59,17.37-.59,21.38V260L92,259.34v4.45l-2.08-.59,1.75,9.32,2,6.48-.12.19L74.87,309.54c-.3.4-27.51,37-30.3,45.41-1.06,3.18-.76,3.71-.72,3.76.4,0,2-1.39,2.82-2.08a19.45,19.45,0,0,1,1.58-1.3c.84-.56,7.91-9.33,14.14-17.07,7.67-9.5,15.59-19.33,17.12-20.53.9-.69,3.41-3.26,6.58-6.51,6.54-6.7,16.43-16.84,21.6-20.07,7.13-4.46,14.15-8.24,16-8.6,1.65-.34,8.34,1.68,9.1,1.91l.4.12-1.52,11.87,2.71-1.21.29,7.39L136.9,300v1.33a65.92,65.92,0,0,0,.31,7.47,41,41,0,0,0,2.48,5.26l2.49,3.59,3.22-2.9,5,9.75L152.7,331l2.07-2.66.39.57a27.71,27.71,0,0,0,3.67,4.62c.43.32,1.07.86,1.78,1.45a31.48,31.48,0,0,0,3.84,2.93c1,.49,2.68,1.52,3.44,2l1.94-2.59,3.78,3.2.31-3.45,9,7.22,3.86,2.31-.34-4.8,4,3.95,1.55-2.78,5,4,3.08-1.54,6.47,2.58,3.09.31,13.93-.59-2.72-4.42,9.45,2.28-1.67-4.67,6.44,2.93-1.67-2.5,7.54,2.05-.25-2.19,1.42-6.41,10.4,5.36.6-3.57,3.62.3-.72-4.69,2.46,1.84-.92-4.6,8.34,5.25-2.59-7.75,8.45,9.92,1.2-2.4,9.33,7.33,6.74,6.1,2.57,3.51v-3.93l.94,1.75s1.89,3.5,2.66,4.75a9.65,9.65,0,0,0,.52-1.77l.17-.84.65.56c.19.17,4.76,4.13,5.71,5.08a1,1,0,0,1,.35.7.25.25,0,0,0,0,.08c.62.27,2.07.79,3.59,1.32,2.87,1,3.45.51,3.54.41.25-.31-.1-1.18-.34-1.58l-.81-1.31Z" style="fill:#263238"></path><path d="M146.15,242.89s.37-3.21.37-5.71-2.26,3.21-2.26,3.21L139.73,234l-6.79,4.64-3.77-10.71-1.88,8.57-6.41-7.86-1.14,8.57A88.68,88.68,0,0,0,113,230c-4.15-3.92.37,10.35,0,9.28a14.55,14.55,0,0,0-5.29-6.06c-2.64-1.43,2.64,11.42,2.64,11.42a11.58,11.58,0,0,0-5.28-2.5c-3.39-.71,1.46,14.64,1.46,14.64a13.21,13.21,0,0,0,13.45,12.95,13.53,13.53,0,0,0,11.86-6.84,31,31,0,0,1,4.54,1,18.23,18.23,0,0,0,5.28,1.43c2.64.36,5.28-3.57,5.28-3.57l3.39-3.21,1.89-7.5,1.89-4.28,1.88-4.64Z" style="fill:#fff;opacity:0.51"></path><path d="M121.86,258.22a4.9,4.9,0,1,1-4.9-4.9A4.9,4.9,0,0,1,121.86,258.22Z" style="fill:#263238"></path><path d="M117,263.62a5.4,5.4,0,1,1,5.4-5.4A5.41,5.41,0,0,1,117,263.62Zm0-9.8a4.4,4.4,0,1,0,4.4,4.4A4.41,4.41,0,0,0,117,253.82Z" style="fill:#263238"></path><path d="M121.23,257.75a1.27,1.27,0,1,1-1.26-1.26A1.25,1.25,0,0,1,121.23,257.75Z" style="fill:#fff"></path><path d="M107.28,251.61c-.28,0-6.94-.76-16.75-10.58a210.4,210.4,0,0,1-17.43-20l-4.44-6.33.82-.57,4.43,6.32a210.47,210.47,0,0,0,17.33,19.85c9.56,9.56,16.07,10.28,16.13,10.28Z" style="fill:#263238"></path><path d="M102.64,252.49c-.11-.07-10.55-6.42-16.22-12.09l.71-.71c5.58,5.59,15.92,11.88,16,11.94Z" style="fill:#263238"></path><path d="M103.14,256.67c-.38-.06-9.41-1.38-19.21-9.28l.63-.78c9.57,7.72,18.63,9,18.72,9.06Z" style="fill:#263238"></path><path d="M97.84,262c-.14,0-13.72,0-21.26-1.27s-18.94-6.76-19.42-7l.44-.89c.11.05,11.72,5.67,19.14,6.91s21,1.25,21.1,1.25Z" style="fill:#263238"></path><path d="M84.45,265.55c-3.41,0-6.81-.09-9.73-.35l.09-1c10.58.93,27.56-.31,27.73-.32l.08,1C102.49,264.9,93.47,265.55,84.45,265.55Z" style="fill:#263238"></path><path d="M80.54,269.62l-.17-1c7.5-1.25,16-2.83,16.11-2.85l.19,1C96.58,266.79,88,268.37,80.54,269.62Z" style="fill:#263238"></path><path d="M115.86,273.87s-2.15,1.84-4.81,4.3l-7.22-.37s-5,3.19-6.84,5.47-3.89-4.34-3.89-4.34L74.45,309.28S47,346.26,44.1,354.8s2.53,2.21,4.43.94S77,320.34,79.82,318.13s20.55-21.81,28.13-26.56c4.49-2.8,8.63-5.15,11.6-6.68l1.15-3.44s-4.56,0-5.93-.92S115.86,273.87,115.86,273.87Z" style="fill:#cfcfcf"></path><path d="M43.82,359.69a.93.93,0,0,1-.54-.16c-.75-.5-.65-1.91.35-4.89,2.83-8.51,29.29-44.15,30.42-45.66l19.2-31.25.32,1c.54,1.71,1.72,4.3,2.55,4.46,0,0,.22,0,.48-.28,1.85-2.32,6.75-5.45,7-5.58l.14-.09,7.16.37c2.57-2.37,4.65-4.15,4.67-4.17l1.63-1.39-.84,2c-1.22,2.86-1.81,5.68-1.27,6.05,1,.68,4.43.83,5.65.83h.7L120,285.24l-.18.09c-3.22,1.66-7.44,4.09-11.56,6.67-5.07,3.17-14.91,13.25-21.42,19.92-3.32,3.4-5.72,5.86-6.67,6.6-1.45,1.13-9.68,11.35-16.95,20.36-8.34,10.35-13.47,16.68-14.38,17.28a18.15,18.15,0,0,0-1.47,1.22C45.76,358.77,44.65,359.69,43.82,359.69ZM93,280.09l-18.1,29.45c-.3.4-27.51,37-30.3,45.41-1.06,3.18-.76,3.71-.72,3.76.41.06,2-1.39,2.82-2.08a17.54,17.54,0,0,1,1.58-1.3c.84-.56,7.91-9.33,14.15-17.08,7.66-9.5,15.58-19.32,17.11-20.52.9-.69,3.4-3.26,6.57-6.51,6.55-6.7,16.44-16.84,21.61-20.07,4.07-2.54,8.23-4.94,11.45-6.61l.87-2.6c-1.38,0-4.35-.22-5.51-1s-.51-3.4.17-5.37c-.86.75-2,1.79-3.28,3l-.16.14-7.27-.37c-.8.52-5,3.29-6.58,5.27a1.45,1.45,0,0,1-1.45.64C94.62,284,93.52,281.57,93,280.09Z" style="fill:#263238"></path><path d="M49,356l-.84-.55c.14-.22,14.68-22.63,26.25-38,9.35-12.38,20-23.21,26.32-29.68,1.6-1.63,2.86-2.91,3.75-3.87.64-.68,1.33-1.39,2-2.1l.71.71c-.7.7-1.38,1.4-2,2.07-.9,1-2.16,2.26-3.76,3.89-6.33,6.45-16.93,17.25-26.24,29.58C63.61,333.41,49.09,355.79,49,356Z" style="fill:#263238"></path><path d="M274.54,174.3a49.14,49.14,0,0,1-6-.32c-1.58-.31-7.27-.63-7.27-.63l-17.07-.95,4.11-2.84s-11.07,1.58-13.91,2.53a88.28,88.28,0,0,0-9.8,3.48c-2.53,1.26-25.92,12-31.93,17.07a97,97,0,0,1-14.22,9.79c-1.27.64-.32-8.21-.32-8.21L174,197.06l4.11-7.27-6,3.16.64-4.42L169.28,192l-.63-5.37-5.38,4.42-1.89-3.16-6.33,3.16,1.27-5.69-5.69,6-1.9,2.21-1.26-6L144,193.27l-.63,2.53-1-7-3.48,8.22-1.26,2.53-.95-9.8-.63,4.74-2.22-7.27-1.26,6.32-3.16-3.47-1.58,3.47-3.16-3.16-2.22,5.06-3.16-1.26-1,1.83v8.6l1-2.23,3.18,9.53,1.59-2.54,2.54,6.66,2.22-10.79.95,11.11,7-11.43V218.3l5.39-6.67,1,3.49,5.39-6.35-4.44,8.89L150.4,211s-7.62,12.39-7,11.43,8.58-2.54,8.58-2.54l-8.58,6.67,9.85-1.27-6,4.45,4.45,1.9,5.08,4.45a82.51,82.51,0,0,1,5.08,9.2,55.93,55.93,0,0,1,2.22,7.94s-3.49-6.35-3.49-5.4-.95,8.89-.95,8.89-2.23,8.58-2.86,11.43-8.57,14.29-8.57,14.29l.63-2.54.64-11.75-3.18,9.53-1.59-8.57-4.44,6.66-1,3.5-3.81-1.91.31,5.4-3.81.95,3.18,3.81v7.62l2.54-3.81,3.36,15c-.85-4.36-1.14-18.47-1.14-18.47l3.81-5.08,1,10.79,1-4.44,3.17,3.49,1.59-4.44,2.86,2.85,1.9-4.12,2.86,6.35.32-8.89,6.35,12.38,1.9-2.86v-7L171,300.53l3.17,7.93c-.63-2.85-1.27-11.74-1.27-11.74l1.27-5.72,3.49,6.35V289.1l7,7-1.27-10.47,11.11,15.23-7-15.87s7.62,9.84,7.31,8.89-4.77-14.92-4.77-14.92l7.31,6.35-3.18-6.35,3.18,1.27-2.54-5.08L206.59,272l-5.08-5.08,14.93,1.59a25.25,25.25,0,0,1-3.5-1.27c-1.27-.63-8.25-4.44-8.25-4.44l-8.57-4.13,9.84-.32-4.45-3.17,2.86-.32,10.8-.95-5.72-3.5,7.62-4.12,7.94-6-5.72-1.27,8.26-2.85c-5.4-.32-15.24-1.91-15.24-1.91l17.46-3.81,5.4-4.76,14-9.53-8.26,3.81,5.72-6,6-6-3.81-1.59,15.88-4.12-17.47-2.54a31.88,31.88,0,0,1,3.18-4.45c1.27-1.27,22.86-11.75,22.86-11.75l-9.53,2.54L278.54,174Z" style="opacity:0.36"></path><path d="M211.35,258a24.12,24.12,0,0,0,6.62,1.58,16.13,16.13,0,0,0,6.61-.71,42.22,42.22,0,0,1,6.84-1.27,47,47,0,0,1,6.92-.24q-3.42.51-6.8,1.1c-2.25.42-4.49.85-6.67,1.47a16.41,16.41,0,0,1-3.47.68,15.49,15.49,0,0,1-3.54-.17A17.4,17.4,0,0,1,211.35,258Z" style="fill:#263238"></path><path d="M219.29,248.78c1.29.13,2.57.25,3.86.28s2.56.06,3.84,0a26.72,26.72,0,0,0,7.45-1.3,67.79,67.79,0,0,0,7.1-2.9c1.17-.53,2.33-1.09,3.48-1.67l3.48-1.71a58.18,58.18,0,0,1-6.58,4.14,43.44,43.44,0,0,1-7.13,3.19,22.75,22.75,0,0,1-7.79,1.1A30.77,30.77,0,0,1,219.29,248.78Z" style="fill:#263238"></path><path d="M241.83,238a21.54,21.54,0,0,0,3.45-1.94,30.46,30.46,0,0,0,3.14-2.38c1-.87,2-1.75,2.86-2.7a26.63,26.63,0,0,1,3.11-2.62,43.87,43.87,0,0,1,7-4,52.72,52.72,0,0,1,7.46-2.88c-1.19.6-2.39,1.16-3.56,1.79s-2.36,1.2-3.51,1.85a65.19,65.19,0,0,0-6.71,4.13,26.76,26.76,0,0,0-3,2.46,30.55,30.55,0,0,1-3.07,2.62A21,21,0,0,1,241.83,238Z" style="fill:#263238"></path><path d="M232.94,229.1l4.51-1.17c1.5-.37,3-.75,4.5-1.15a81.6,81.6,0,0,0,8.79-2.74c.33-.16.7-.29,1-.47s.63-.34,1-.56a18.47,18.47,0,0,1,2.12-1.09c1.44-.63,2.89-1.21,4.37-1.7a87.81,87.81,0,0,1,9-2.55l-4.34,1.67c-1.45.54-2.9,1.09-4.32,1.68s-2.86,1.18-4.23,1.85a22.36,22.36,0,0,0-2,1.06c-.3.19-.66.4-1,.61s-.73.34-1.09.51a53.1,53.1,0,0,1-9,2.55C239.1,228.23,236,228.76,232.94,229.1Z" style="fill:#263238"></path><path d="M256.44,205.92c1.68-.26,3.35-.5,5-.8s3.33-.57,5-.92,3.29-.73,4.87-1.24a17.16,17.16,0,0,0,2.31-.86,23.35,23.35,0,0,1,2.41-1,65.39,65.39,0,0,1,10-2.26c3.35-.53,6.72-1,10.11-1.19l-5,1c-1.66.33-3.32.65-5,1a99.17,99.17,0,0,0-9.78,2.46,23.45,23.45,0,0,0-2.3.92,17.7,17.7,0,0,1-2.46.89,42.1,42.1,0,0,1-5,1.07A77,77,0,0,1,256.44,205.92Z" style="fill:#263238"></path><path d="M293.27,190.68a28.35,28.35,0,0,1,6.29-1,24,24,0,0,1,6.42.5,38.24,38.24,0,0,1,6.07,2,40.9,40.9,0,0,1,5.66,2.92q-3-1.09-6-2.11c-2-.66-4-1.29-6-1.75a31.52,31.52,0,0,0-6.16-.72C297.49,190.5,295.38,190.54,293.27,190.68Z" style="fill:#263238"></path><path d="M316.44,187.82a39.38,39.38,0,0,1,7.94.92,31.5,31.5,0,0,1,3.88,1.08,24.31,24.31,0,0,1,3.66,1.68c2.33,1.28,4.66,2.56,6.94,3.91l3.43,2c1.12.71,2.26,1.39,3.36,2.13-1.22-.52-2.42-1.1-3.62-1.65l-3.57-1.76c-2.37-1.17-4.71-2.42-7-3.67a31.66,31.66,0,0,0-7.25-2.93c-1.26-.37-2.54-.68-3.83-.95S317.75,188.07,316.44,187.82Z" style="fill:#263238"></path><path d="M346,193.86a53.6,53.6,0,0,1,7,4.25,28,28,0,0,1,3.23,2.54,21.2,21.2,0,0,1,2.78,3c-1.14-.79-2.23-1.59-3.33-2.38s-2.22-1.54-3.34-2.32A53.46,53.46,0,0,1,346,193.86Z" style="fill:#263238"></path><path d="M367.24,206.56c2.17,1.15,4.4,2,6.51,3.37a18,18,0,0,1,2.93,2.3,15,15,0,0,1,2.31,2.9c-1-.76-1.92-1.52-2.88-2.24s-1.94-1.39-2.95-2-2.05-1.26-3.07-1.94A14,14,0,0,1,367.24,206.56Z" style="fill:#263238"></path><path d="M363.11,214.49A80.94,80.94,0,0,1,373.92,219c1.73.88,3.46,1.78,5.13,2.8a23.36,23.36,0,0,1,4.7,3.52,53.59,53.59,0,0,0-5.11-2.76L373.42,220C370,218.22,366.48,216.48,363.11,214.49Z" style="fill:#263238"></path><path d="M374.86,226.56a17.11,17.11,0,0,1,3.08,1.2,26.23,26.23,0,0,1,2.88,1.62,17.36,17.36,0,0,1,4.84,4.48l-5.45-3.56C378.41,229.11,376.6,227.94,374.86,226.56Z" style="fill:#263238"></path><path d="M354.54,226.56a19.44,19.44,0,0,1,3.66.18,26.09,26.09,0,0,1,3.6.73,20,20,0,0,1,3.45,1.31,8.36,8.36,0,0,1,2.94,2.22,17.92,17.92,0,0,0-3.28-1.43c-1.12-.37-2.26-.72-3.41-1C359.2,227.88,356.87,227.32,354.54,226.56Z" style="fill:#263238"></path><path d="M331.68,211a38,38,0,0,1,9.09.85,30,30,0,0,1,4.41,1.28,11.07,11.07,0,0,1,4,2.32,19.56,19.56,0,0,0-4.23-1.5c-1.45-.37-2.9-.72-4.37-1C337.6,212.3,334.64,211.75,331.68,211Z" style="fill:#263238"></path><path d="M348.51,208.14a21.77,21.77,0,0,1,5.92.58,20.41,20.41,0,0,1,2.86.85,9.72,9.72,0,0,1,2.65,1.43c-1-.22-1.94-.4-2.89-.6l-2.86-.6A39.07,39.07,0,0,1,348.51,208.14Z" style="fill:#263238"></path><path d="M319.3,200.52a15.91,15.91,0,0,1,3.11-.64,21,21,0,0,1,3.17-.11,16.22,16.22,0,0,1,3.17.43,8.09,8.09,0,0,1,2.93,1.28,37.78,37.78,0,0,0-6.15-.6C323.48,200.77,321.42,200.75,319.3,200.52Z" style="fill:#263238"></path><path d="M311.36,205.29a20.74,20.74,0,0,1,3.47-.71,29.45,29.45,0,0,1,3.51-.26,26,26,0,0,1,3.53.17,14.62,14.62,0,0,1,3.46.8l-7,.13C316,205.45,313.73,205.48,311.36,205.29Z" style="fill:#263238"></path><path d="M290.41,183.06a57.87,57.87,0,0,1,9.77-1.6c1.65-.13,3.31-.21,5-.18a22.25,22.25,0,0,1,4.95.51c-1.65.05-3.28.22-4.92.35l-4.9.43C297,182.82,293.73,183.07,290.41,183.06Z" style="fill:#263238"></path><path d="M274.53,183.7a14.58,14.58,0,0,1,2.75-1.66,20.55,20.55,0,0,1,3-1.16,15,15,0,0,1,6.35-.68l-3,.85c-1,.3-2,.57-3,.89C278.58,182.53,276.62,183.18,274.53,183.7Z" style="fill:#263238"></path><path d="M254.21,184.33a25.59,25.59,0,0,1,5.63-2.88,24.14,24.14,0,0,1,6.12-1.56,44.4,44.4,0,0,1-5.73,2.59A41.59,41.59,0,0,1,254.21,184.33Z" style="fill:#263238"></path><path d="M260.88,191.63a75.52,75.52,0,0,1,8.81-2.18c3-.55,5.94-1,9-1.31a49,49,0,0,1-8.76,2.4A59.25,59.25,0,0,1,260.88,191.63Z" style="fill:#263238"></path><path d="M287.55,206.24a33.26,33.26,0,0,1,9.69-1.79,25.75,25.75,0,0,1,5,.26,14.45,14.45,0,0,1,4.72,1.53,27.42,27.42,0,0,0-4.81-.67c-1.6-.1-3.22-.07-4.83,0s-3.22.17-4.84.28Z" style="fill:#263238"></path><path d="M320.89,218.3a47.47,47.47,0,0,1,11,.65,34.5,34.5,0,0,1,5.37,1.32,16,16,0,0,1,4.93,2.48A27.51,27.51,0,0,0,337,221.1q-2.64-.63-5.32-1.06c-1.78-.32-3.57-.59-5.37-.87S322.7,218.61,320.89,218.3Z" style="fill:#263238"></path><path d="M350.1,234.5c2.79.61,5.53,1.44,8.25,2.32s5.39,1.9,8,3,5.24,2.3,7.78,3.62a67.56,67.56,0,0,1,7.36,4.41c-1.31-.59-2.55-1.28-3.86-1.85s-2.58-1.21-3.87-1.79c-2.61-1.14-5.2-2.29-7.83-3.37s-5.27-2.13-7.91-3.2Z" style="fill:#263238"></path><path d="M357.72,243.39a60.34,60.34,0,0,1,12.12,4.45,43.63,43.63,0,0,1,5.62,3.25,20.15,20.15,0,0,1,4.8,4.36,33.5,33.5,0,0,0-5.26-3.63c-1.84-1.07-3.73-2-5.65-3s-3.84-1.85-5.79-2.75Z" style="fill:#263238"></path><path d="M344.7,249.42a40.54,40.54,0,0,1,7.77,2.08,48.54,48.54,0,0,1,7.32,3.39,39.46,39.46,0,0,1,6.58,4.68,30.86,30.86,0,0,1,5.32,6c-1-.92-1.8-2-2.84-2.81-.5-.44-1-.91-1.47-1.34l-1.55-1.23a56.22,56.22,0,0,0-6.59-4.38c-2.29-1.32-4.67-2.48-7.09-3.57-1.21-.53-2.44-1-3.69-1.5S346,249.85,344.7,249.42Z" style="fill:#263238"></path><path d="M369.15,257.67a63.64,63.64,0,0,1,5.58,4.65c1.8,1.63,3.5,3.36,5.13,5.16a56.73,56.73,0,0,1,4.54,5.7,29.63,29.63,0,0,1,3.48,6.4c-.33-.51-.66-1-1-1.54s-.7-1-1-1.48c-.68-1-1.4-1.94-2.16-2.87-1.5-1.87-3.08-3.68-4.69-5.47s-3.25-3.53-4.89-5.3Z" style="fill:#263238"></path><path d="M389.15,256.72a46.61,46.61,0,0,1,9.72,9.41,40.54,40.54,0,0,1,3.66,5.75,23.83,23.83,0,0,1,2.18,6.43,41.82,41.82,0,0,0-2.94-6,64.37,64.37,0,0,0-3.78-5.49c-1.35-1.77-2.8-3.47-4.27-5.15S390.72,258.34,389.15,256.72Z" style="fill:#263238"></path><path d="M394.55,279.26a23.29,23.29,0,0,1,5.13,6.61,23.67,23.67,0,0,1,1.65,3.88,18.05,18.05,0,0,1,.84,4.12c-.56-1.3-1.06-2.57-1.65-3.81s-1.16-2.47-1.82-3.67C397.43,284,396,281.64,394.55,279.26Z" style="fill:#263238"></path><path d="M371.05,276.4a55,55,0,0,1,6.29,6.48,65.62,65.62,0,0,1,5.3,7.33,55.22,55.22,0,0,1,4.18,8,43.69,43.69,0,0,1,2.65,8.63c-.58-1.39-1-2.84-1.61-4.19-.29-.69-.56-1.39-.86-2.07l-1-2a84.62,84.62,0,0,0-4.33-7.8c-1.57-2.54-3.27-5-5-7.4-.88-1.2-1.8-2.38-2.74-3.54S372,277.55,371.05,276.4Z" style="fill:#263238"></path><path d="M391.05,294.5a65,65,0,0,1,5.3,9.73c.75,1.69,1.44,3.41,2,5.17a24,24,0,0,1,1.25,5.42c-.59-1.76-1.34-3.42-2.06-5.11l-2.23-5C393.86,301.32,392.35,298,391.05,294.5Z" style="fill:#263238"></path><path d="M346.92,269.1a15.91,15.91,0,0,1,5.49,1.38,21.73,21.73,0,0,1,4.89,2.95,22.88,22.88,0,0,1,3.95,4.1,23.15,23.15,0,0,1,1.57,2.37c.45.83.86,1.68,1.25,2.54a55.51,55.51,0,0,0-3.49-4.36l-.92-1-1-1c-.63-.65-1.36-1.22-2.05-1.81a31,31,0,0,0-4.57-3A26.63,26.63,0,0,0,346.92,269.1Z" style="fill:#263238"></path><path d="M335.81,254.18a44.18,44.18,0,0,1,11.29,3.18,30,30,0,0,1,5.2,2.8,13,13,0,0,1,4.15,4.18,18.84,18.84,0,0,0-4.61-3.45,50.55,50.55,0,0,0-5.18-2.52c-1.76-.77-3.56-1.47-5.38-2.16Z" style="fill:#263238"></path><path d="M329.14,273.86a42,42,0,0,1,16.46,7.38,31.5,31.5,0,0,1,4.5,4.05c-1.67-1.14-3.29-2.29-5-3.33s-3.39-2.07-5.15-3-3.52-1.83-5.33-2.68S331,274.63,329.14,273.86Z" style="fill:#263238"></path><path d="M363.11,290.37a42.84,42.84,0,0,1,9,7.63,34.29,34.29,0,0,1,3.57,4.73,20.12,20.12,0,0,1,2.37,5.42,45.79,45.79,0,0,0-6.77-9.42c-1.27-1.45-2.63-2.83-4-4.23S364.53,291.74,363.11,290.37Z" style="fill:#263238"></path><path d="M388.51,243.39a31.88,31.88,0,0,1,9.09,4.77,24.28,24.28,0,0,1,3.81,3.5,14,14,0,0,1,2.66,4.42,24.11,24.11,0,0,0-3.28-3.82,44.18,44.18,0,0,0-3.86-3.22c-1.33-1-2.73-1.95-4.13-2.89S390,244.29,388.51,243.39Z" style="fill:#263238"></path><path d="M394.86,234.18a16.1,16.1,0,0,1,2.89,1.41,23.75,23.75,0,0,1,2.6,1.87,14.77,14.77,0,0,1,4,5l-2.36-2.1-2.39-2C398.05,237,396.42,235.66,394.86,234.18Z" style="fill:#263238"></path><path d="M310.09,233.86a45.62,45.62,0,0,1,10-1.37,35.77,35.77,0,0,1,5.07.19,16.82,16.82,0,0,1,4.94,1.18,38.11,38.11,0,0,0-5-.32q-2.49,0-5,.06C316.8,233.68,313.47,233.87,310.09,233.86Z" style="fill:#263238"></path><path d="M301.52,227.51a41.73,41.73,0,0,1,8.37-1.34,37.65,37.65,0,0,1,4.25,0,14.72,14.72,0,0,1,4.21.74,42.1,42.1,0,0,0-4.21.13l-4.18.27C307.16,227.43,304.37,227.6,301.52,227.51Z" style="fill:#263238"></path><path d="M293.9,217.67a40.24,40.24,0,0,1,9.75-3.2,27.41,27.41,0,0,1,10.25-.29c-1.71.1-3.39.3-5.06.52s-3.33.53-5,.86C300.54,216.2,297.26,217,293.9,217.67Z" style="fill:#263238"></path><path d="M264.06,238.94a115.94,115.94,0,0,1,12.08-.08,119.67,119.67,0,0,1,12.05,1,115.92,115.92,0,0,1-12.08.08A118.68,118.68,0,0,1,264.06,238.94Z" style="fill:#263238"></path><path d="M286.28,244c3.79-.07,7.55.17,11.3.44,1.88.16,3.75.31,5.62.51s3.74.42,5.62.64a63.87,63.87,0,0,1-11.32-.05A87,87,0,0,1,286.28,244Z" style="fill:#263238"></path><path d="M322.79,241.48a42.27,42.27,0,0,1,7.21.24,41.72,41.72,0,0,1,7.08,1.35,47.36,47.36,0,0,1-14.29-1.59Z" style="fill:#263238"></path><path d="M292.63,253.23a66.37,66.37,0,0,1,13.07,0,49.24,49.24,0,0,1,6.48,1,22.09,22.09,0,0,1,6.17,2.21A39.68,39.68,0,0,0,312,255c-2.13-.31-4.28-.56-6.43-.74s-4.3-.37-6.46-.54S294.8,253.42,292.63,253.23Z" style="fill:#263238"></path><path d="M313.27,263.7a59.72,59.72,0,0,1,10.69.71,50.28,50.28,0,0,1,5.27,1.09,18.33,18.33,0,0,1,5,2,37.22,37.22,0,0,0-5.18-1.16c-1.75-.3-3.49-.59-5.25-.85C320.29,265,316.78,264.44,313.27,263.7Z" style="fill:#263238"></path><path d="M303.11,278c2.31.56,4.56,1.29,6.8,2.06s4.45,1.63,6.64,2.55a69.91,69.91,0,0,1,6.4,3.11c1.05.57,2.06,1.19,3.07,1.82l1.45,1.05c.47.37.91.77,1.36,1.16l-1.53-.91-1.56-.83c-1.05-.53-2.09-1.06-3.17-1.53-2.14-1-4.29-1.94-6.46-2.85l-6.5-2.78-3.26-1.4C305.27,279,304.18,278.5,303.11,278Z" style="fill:#263238"></path><path d="M339.3,290.37a17.24,17.24,0,0,1,3.27,1.71,22.8,22.8,0,0,1,2.9,2.29,18.64,18.64,0,0,1,2.43,2.81,10.78,10.78,0,0,1,1.56,3.35c-.72-1-1.46-1.93-2.24-2.82s-1.64-1.72-2.51-2.54C343,293.53,341.14,292,339.3,290.37Z" style="fill:#263238"></path><path d="M357.08,302.44a37.15,37.15,0,0,1,7.16,5.76,23.12,23.12,0,0,1,5.22,7.57c-.91-1.24-1.91-2.37-2.9-3.5s-2.06-2.21-3.11-3.29C361.35,306.8,359.17,304.7,357.08,302.44Z" style="fill:#263238"></path><path d="M338,303.71a36.09,36.09,0,0,1,7.7,6,35.35,35.35,0,0,1,3.19,3.72,21.92,21.92,0,0,1,2.45,4.25c-1-1.28-2.06-2.5-3.12-3.7s-2.18-2.36-3.31-3.49C342.69,308.2,340.35,306,338,303.71Z" style="fill:#263238"></path><path d="M359,315.46a38.33,38.33,0,0,1,5.34,7.19,33.5,33.5,0,0,1,2,4,16.91,16.91,0,0,1,1.22,4.34c-.6-1.38-1.31-2.66-2-4s-1.44-2.57-2.19-3.84C361.9,320.65,360.36,318.12,359,315.46Z" style="fill:#263238"></path><path d="M324.06,304a73.2,73.2,0,0,1,6.21,4.25c2,1.5,4,3.11,5.83,4.78a62.59,62.59,0,0,1,5.32,5.36,25.63,25.63,0,0,1,4.23,6.24c-.38-.5-.74-1-1.1-1.51l-1.21-1.43c-.82-.93-1.65-1.85-2.55-2.72-1.76-1.75-3.57-3.46-5.43-5.11s-3.74-3.3-5.62-4.95Z" style="fill:#263238"></path><path d="M309.46,305a75.5,75.5,0,0,1,11,4.91,59.1,59.1,0,0,1,5.17,3.12,17.8,17.8,0,0,1,4.49,4,13.76,13.76,0,0,0-2.4-1.77c-.83-.55-1.7-1-2.55-1.53-1.73-1-3.48-1.93-5.24-2.88C316.41,309,312.89,307.07,309.46,305Z" style="fill:#263238"></path><path d="M313,317.68a27.23,27.23,0,0,1,8.52,3.12,24.27,24.27,0,0,1,3.76,2.61,14.7,14.7,0,0,1,3,3.48,35,35,0,0,0-3.49-2.79c-1.23-.83-2.48-1.61-3.77-2.34s-2.61-1.41-3.94-2.09Z" style="fill:#263238"></path><path d="M293.58,315.14a56.87,56.87,0,0,1,8.47,4.44c1.34.86,2.67,1.74,3.93,2.72a17.66,17.66,0,0,1,3.48,3.32c-1.26-1-2.64-1.76-4-2.61l-4-2.5C298.78,318.81,296.12,317.1,293.58,315.14Z" style="fill:#263238"></path><path d="M293.9,325.3a22.21,22.21,0,0,1,3.68,1.76,27.67,27.67,0,0,1,3.39,2.3,20.43,20.43,0,0,1,3,2.84,9.63,9.63,0,0,1,2,3.57,18.43,18.43,0,0,0-2.66-3c-1-.91-2-1.76-3-2.58C298.2,328.56,296,327,293.9,325.3Z" style="fill:#263238"></path><path d="M317.4,329.74a74.91,74.91,0,0,1,7.65,6.8,53.89,53.89,0,0,1,6.63,7.81c-1.26-1.16-2.53-2.29-3.76-3.47s-2.45-2.36-3.66-3.56A96.89,96.89,0,0,1,317.4,329.74Z" style="fill:#263238"></path><path d="M337.4,329.74a33.8,33.8,0,0,1,9.52,7.62,29.38,29.38,0,0,1-5.11-3.38A29.92,29.92,0,0,1,337.4,329.74Z" style="fill:#263238"></path><path d="M279.93,300.53a97.8,97.8,0,0,1,10.37,3.62,95.49,95.49,0,0,1,9.95,4.64,109.32,109.32,0,0,1-20.32-8.26Z" style="fill:#263238"></path><path d="M287.87,293.23A52,52,0,0,1,302.16,298a44.09,44.09,0,0,1-7.32-1.85A45,45,0,0,1,287.87,293.23Z" style="fill:#263238"></path><path d="M301.84,286.25a35.06,35.06,0,0,1,6.49,2.4c1,.5,2.06,1,3.05,1.62a17.39,17.39,0,0,1,2.84,2,68.68,68.68,0,0,1-6.37-2.63A43,43,0,0,1,301.84,286.25Z" style="fill:#263238"></path><path d="M248.5,302.76c2.82,1.69,5.52,3.5,8.25,5.26s5.46,3.48,8.26,5.21a34.73,34.73,0,0,1-8.86-4.29A44.06,44.06,0,0,1,248.5,302.76Z" style="fill:#263238"></path><path d="M262.47,307.52q3,1.1,5.88,2.25c1.95.74,3.89,1.52,5.85,2.2s3.95,1.22,6,1.91a30.7,30.7,0,0,1,5.79,2.53c-2-.67-4-1.17-6-1.7l-3-.76c-1-.26-2-.6-3-.94A60.19,60.19,0,0,1,262.47,307.52Z" style="fill:#263238"></path><path d="M256.44,317.68c3.63,1.12,7.13,2.52,10.61,4q2.61,1.1,5.18,2.26c1.73.75,3.42,1.58,5.16,2.34a37.92,37.92,0,0,1-5.47-1.54c-1.79-.62-3.55-1.32-5.3-2A89.59,89.59,0,0,1,256.44,317.68Z" style="fill:#263238"></path><path d="M276.76,330.38a8.75,8.75,0,0,1,2.43.55,12.53,12.53,0,0,1,2.24,1.09,10.33,10.33,0,0,1,1.95,1.6,5.91,5.91,0,0,1,1.31,2.15c-.64-.55-1.25-1-1.88-1.5s-1.3-.89-2-1.31C279.51,332.11,278.13,331.33,276.76,330.38Z" style="fill:#263238"></path><path d="M285.33,328.47a86.43,86.43,0,0,1,5.3,7.16c.82,1.24,1.64,2.46,2.44,3.71s1.58,2.49,2.42,3.74a23.22,23.22,0,0,1-3.12-3.23c-.94-1.16-1.82-2.37-2.66-3.6A50.28,50.28,0,0,1,285.33,328.47Z" style="fill:#263238"></path><path d="M306,346.25a20.37,20.37,0,0,1-3.41-2.63c-1.06-1-2.05-2-3-3a50.77,50.77,0,0,1-5.31-6.72,66.4,66.4,0,0,1,6.12,6c1,1.05,1.91,2.1,2.84,3.18S305,345.19,306,346.25Z" style="fill:#263238"></path><path d="M252.31,292a57.09,57.09,0,0,1,8,2.83,56.51,56.51,0,0,1,7.56,3.84A65.31,65.31,0,0,1,252.31,292Z" style="fill:#263238"></path><path d="M257.39,283.07a38.15,38.15,0,0,1,12.38,3.49,32.88,32.88,0,0,1-6.34-1.21A33.43,33.43,0,0,1,257.39,283.07Z" style="fill:#263238"></path><path d="M258.34,269.42a44,44,0,0,1,6.72.49c1.11.16,2.21.33,3.31.53s2.18.42,3.31.57a11.84,11.84,0,0,1-3.4.29,31.69,31.69,0,0,1-3.37-.29A31.32,31.32,0,0,1,258.34,269.42Z" style="fill:#263238"></path><path d="M279.3,263.7a49.66,49.66,0,0,1,8.42-.63c1.41,0,2.82.05,4.22.18a17,17,0,0,1,4.18.77c-1.41-.06-2.8.08-4.2.1s-2.8.06-4.2.06A66.14,66.14,0,0,1,279.3,263.7Z" style="fill:#263238"></path><path d="M282.15,276.72a28.91,28.91,0,0,1,11.12,1.59,28.91,28.91,0,0,1-11.12-1.59Z" style="fill:#263238"></path><path d="M279.3,283.07a18.91,18.91,0,0,1,4.76.9,18.44,18.44,0,0,1,4.44,2,18.91,18.91,0,0,1-4.76-.9A19.26,19.26,0,0,1,279.3,283.07Z" style="fill:#263238"></path><path d="M222.78,270.69A34,34,0,0,1,228,273c.83.45,1.66.89,2.47,1.36s1.62.95,2.48,1.4a8.85,8.85,0,0,1-2.84-.61,22,22,0,0,1-2.62-1.17A21.53,21.53,0,0,1,222.78,270.69Z" style="fill:#263238"></path><path d="M208.5,278.94c2.48,1.24,4.91,2.55,7.34,3.87s4.83,2.67,7.25,4l7.22,4c1.2.66,2.41,1.33,3.64,1.94a28.37,28.37,0,0,0,3.76,1.72,35.48,35.48,0,0,1-7.79-2.91c-2.52-1.16-4.95-2.49-7.37-3.82s-4.8-2.75-7.14-4.23S210.74,280.57,208.5,278.94Z" style="fill:#263238"></path><path d="M223.74,293.23a56,56,0,0,1,6.83,3.19c1.1.6,2.19,1.21,3.27,1.85l3.23,2a18,18,0,0,1-3.62-1.18c-1.16-.49-2.29-1.06-3.4-1.64A38.71,38.71,0,0,1,223.74,293.23Z" style="fill:#263238"></path><path d="M224.37,303.71c2.78,1.09,5.47,2.26,8.2,3.34s5.47,2.08,8.31,3a25.51,25.51,0,0,1-8.72-2A32.44,32.44,0,0,1,224.37,303.71Z" style="fill:#263238"></path><path d="M213.58,311c2.86,2,5.58,4.21,8.35,6.31q2.06,1.59,4.16,3.12c1.41,1,2.82,2,4.31,2.95a32.4,32.4,0,0,1-9.15-5.19A51.18,51.18,0,0,1,213.58,311Z" style="fill:#263238"></path><path d="M237.39,319.58a18.37,18.37,0,0,1,7.3,5.08,17.92,17.92,0,0,1-7.3-5.08Z" style="fill:#263238"></path><path d="M210.08,313.87c.67,1.51,1.33,3,1.95,4.5s1.27,3,1.95,4.46,1.36,2.94,2.12,4.36a35,35,0,0,0,2.56,4.14,15.54,15.54,0,0,1-3.3-3.7,29.54,29.54,0,0,1-2.38-4.34A37.65,37.65,0,0,1,210.08,313.87Z" style="fill:#263238"></path><path d="M192,317c1.19,3.58,2.17,7.18,3.25,10.75.51,1.8,1.08,3.57,1.66,5.34a35.41,35.41,0,0,0,2.07,5.18,18.68,18.68,0,0,1-2.88-4.87,45.18,45.18,0,0,1-1.91-5.33A58,58,0,0,1,192,317Z" style="fill:#263238"></path><path d="M206.91,325.62c1.58,2.4,2.93,4.89,4.28,7.38l4,7.54a30.38,30.38,0,0,1-4.94-7A40.87,40.87,0,0,1,206.91,325.62Z" style="fill:#263238"></path><path d="M201.83,331.65c2,2.09,3.9,4.29,5.81,6.44q1.41,1.64,2.87,3.22a36.74,36.74,0,0,0,3.07,3,14.34,14.34,0,0,1-3.67-2.42,30.34,30.34,0,0,1-3.1-3.11A37.35,37.35,0,0,1,201.83,331.65Z" style="fill:#263238"></path><path d="M180.24,310.38c.9,3.18,1.57,6.38,2.29,9.57.34,1.6.72,3.18,1.1,4.77a40.05,40.05,0,0,0,1.37,4.71,17.32,17.32,0,0,1-2.2-4.46,40.48,40.48,0,0,1-1.35-4.78A49.11,49.11,0,0,1,180.24,310.38Z" style="fill:#263238"></path><path d="M189.45,326.89c.92,2.42,1.74,4.81,2.69,7.15.47,1.17,1,2.31,1.52,3.45s1.16,2.24,1.82,3.36a16.17,16.17,0,0,1-4.37-6.4,25.66,25.66,0,0,1-1.15-3.71A17.91,17.91,0,0,1,189.45,326.89Z" style="fill:#263238"></path><path d="M201.19,283.07a24.15,24.15,0,0,0,2.23,4.32,33,33,0,0,0,2.9,3.84,37.86,37.86,0,0,0,3.44,3.38c1.21,1.07,2.51,2.05,3.82,3.07-.76-.32-1.51-.69-2.25-1.06s-1.45-.82-2.11-1.33a22.62,22.62,0,0,1-3.73-3.33,20.69,20.69,0,0,1-2.81-4.14A13.64,13.64,0,0,1,201.19,283.07Z" style="fill:#263238"></path><path d="M201.83,296.09c2.11,1.56,4,3.25,6,4.93s3.87,3.38,5.74,5.23a29.55,29.55,0,0,1-6.47-4.4A32.1,32.1,0,0,1,201.83,296.09Z" style="fill:#263238"></path><path d="M198,266.56a47.94,47.94,0,0,1,6.5,2.37c2.1.93,4.15,1.91,6.2,3a17,17,0,0,1-3.4-.78,34.49,34.49,0,0,1-3.25-1.24A32.42,32.42,0,0,1,198,266.56Z" style="fill:#263238"></path><path d="M205.32,201.79a87.38,87.38,0,0,1,9.73-6.47c1.69-1,3.41-1.9,5.16-2.75a37.67,37.67,0,0,1,5.43-2.21c-1.7,1-3.34,2-5,3l-5,2.94C212.24,198.21,208.86,200.12,205.32,201.79Z" style="fill:#263238"></path><path d="M225.64,185.92a20.18,20.18,0,0,1,3.16-1.81,31.34,31.34,0,0,1,3.36-1.34,23.39,23.39,0,0,1,7.13-1.3c-1.13.46-2.27.82-3.4,1.21l-3.38,1.14C230.25,184.55,228,185.32,225.64,185.92Z" style="fill:#263238"></path><path d="M223.42,201.79a92.24,92.24,0,0,1,11-5.84c1.9-.85,3.82-1.66,5.78-2.36a30.07,30.07,0,0,1,6.05-1.64c-2,.71-3.83,1.6-5.72,2.44L234.9,197C231.12,198.65,227.33,200.34,223.42,201.79Z" style="fill:#263238"></path><path d="M230.09,208.46a36.56,36.56,0,0,1,6.21-3.64c1.09-.51,2.18-1,3.31-1.41a18.07,18.07,0,0,1,3.49-1c-2.08,1.23-4.17,2.36-6.33,3.39A45.48,45.48,0,0,1,230.09,208.46Z" style="fill:#263238"></path><path d="M215.8,218.94a21.84,21.84,0,0,1,3.81-1.42,31.8,31.8,0,0,1,4-.87,29.31,29.31,0,0,1,8.1-.25c-1.33.29-2.65.49-4,.71l-3.95.63C221.11,218.14,218.49,218.59,215.8,218.94Z" style="fill:#263238"></path><path d="M208.18,225.61a31.48,31.48,0,0,1,5.74,0c1,.08,1.9.15,2.84.28s1.88.25,2.85.39a10.57,10.57,0,0,1-2.88.47,25.13,25.13,0,0,1-2.88,0A23,23,0,0,1,208.18,225.61Z" style="fill:#263238"></path><path d="M205.32,211.64a27.79,27.79,0,0,1,8.87-3.33,9.8,9.8,0,0,1,3.2-.17c-1,.29-2,.67-3,1s-2,.68-3,1A41.55,41.55,0,0,1,205.32,211.64Z" style="fill:#263238"></path><path d="M212.31,191.32A72.38,72.38,0,0,1,205.7,195l-3.36,1.65c-1.12.55-2.25,1.08-3.37,1.69a14,14,0,0,1,2.94-2.44,34.73,34.73,0,0,1,3.3-1.89A33.49,33.49,0,0,1,212.31,191.32Z" style="fill:#263238"></path><path d="M203.1,237a45.08,45.08,0,0,1,7.08,1.17c2.33.55,4.6,1.22,6.89,2a18.07,18.07,0,0,1-3.61-.24c-1.19-.17-2.37-.41-3.53-.68A37.67,37.67,0,0,1,203.1,237Z" style="fill:#263238"></path><path d="M199,242.75a19.08,19.08,0,0,1,4.61,1.13,21.26,21.26,0,0,1,4.28,2.05,11,11,0,0,1-2.38-.33,21.26,21.26,0,0,1-2.27-.68A17.35,17.35,0,0,1,199,242.75Z" style="fill:#263238"></path><path d="M192.94,215.76a43.28,43.28,0,0,1,13.65,1.59,42.52,42.52,0,0,1-13.65-1.59Z" style="fill:#263238"></path><path d="M197.07,224.34a13.42,13.42,0,0,1,7.3,2.22,12,12,0,0,1-3.81-.58A12.22,12.22,0,0,1,197.07,224.34Z" style="fill:#263238"></path><path d="M186.91,244.34a32,32,0,0,1,5.47,2.61,40.57,40.57,0,0,1,5,3.42,15.91,15.91,0,0,1-2.87-1.06c-.92-.42-1.81-.9-2.69-1.4A27.47,27.47,0,0,1,186.91,244.34Z" style="fill:#263238"></path><path d="M189.13,269.42a60.65,60.65,0,0,1,2.85,6.14l1.25,3.12c.42,1,.83,2.07,1.3,3.12a11.69,11.69,0,0,1-2.07-2.74A24.93,24.93,0,0,1,191,276a31.4,31.4,0,0,1-1.11-3.22A20.17,20.17,0,0,1,189.13,269.42Z" style="fill:#263238"></path><path d="M186.59,286.25c1.14,2.29,2,4.64,2.93,7l1.32,3.51c.45,1.18.89,2.33,1.46,3.48a11.93,11.93,0,0,1-2.25-3.12,29.32,29.32,0,0,1-1.56-3.48A32.87,32.87,0,0,1,186.59,286.25Z" style="fill:#263238"></path><path d="M181.51,295.77c1.21,2.07,2.19,4.19,3.25,6.28.5,1.05,1,2.08,1.59,3.1a26.74,26.74,0,0,0,1.83,3,9.48,9.48,0,0,1-2.56-2.53,20.17,20.17,0,0,1-1.86-3.08,28,28,0,0,1-1.37-3.3A20.52,20.52,0,0,1,181.51,295.77Z" style="fill:#263238"></path><path d="M169.13,300.22c.47,2.72.75,5.41,1.09,8.11l.52,4,.61,4.05a24.07,24.07,0,0,1-2.22-8,37.83,37.83,0,0,1-.27-4.12A24.8,24.8,0,0,1,169.13,300.22Z" style="fill:#263238"></path><path d="M155.16,291c.38,2.66.49,5.3.61,7.94l.14,4c.05,1.32.09,2.63.2,4a15.36,15.36,0,0,1-1.06-3.89,35.68,35.68,0,0,1-.39-4A36.93,36.93,0,0,1,155.16,291Z" style="fill:#263238"></path><path d="M162.78,305.61c1.14,4,2.06,8.05,3,12.07s1.93,8,3,12.06a53.68,53.68,0,0,1-4.07-11.8A76.65,76.65,0,0,1,162.78,305.61Z" style="fill:#263238"></path><path d="M147.86,298.31c.23,2.43.24,4.81.34,7.19,0,1.18.09,2.37.17,3.55a27.31,27.31,0,0,0,.44,3.55,10.06,10.06,0,0,1-1.3-3.43,20.29,20.29,0,0,1-.41-3.64,25.86,25.86,0,0,1,.12-3.63A20,20,0,0,1,147.86,298.31Z" style="fill:#263238"></path><path d="M142.33,304.08a.56.56,0,0,0,.3.44.71.71,0,0,0,.36,0l-1.07.26a.52.52,0,0,0,.41-.7Zm0,0a.68.68,0,0,1,.21.06,1.22,1.22,0,0,1,.46.4l-1.08.27a1.27,1.27,0,0,1,.24-.58C142.27,304.09,142.34,304.09,142.33,304.08Z" style="fill:#263238"></path></g></svg>